%TF.GenerationSoftware,KiCad,Pcbnew,8.0.2*%
%TF.CreationDate,2024-05-26T20:11:31+02:00*%
%TF.ProjectId,protoB,70726f74-6f42-42e6-9b69-6361645f7063,rev?*%
%TF.SameCoordinates,PXbe7f170PY6de9350*%
%TF.FileFunction,Copper,L3,Inr*%
%TF.FilePolarity,Positive*%
%FSLAX46Y46*%
G04 Gerber Fmt 4.6, Leading zero omitted, Abs format (unit mm)*
G04 Created by KiCad (PCBNEW 8.0.2) date 2024-05-26 20:11:31*
%MOMM*%
%LPD*%
G01*
G04 APERTURE LIST*
%TA.AperFunction,ComponentPad*%
%ADD10R,1.700000X1.700000*%
%TD*%
%TA.AperFunction,ComponentPad*%
%ADD11O,1.700000X1.700000*%
%TD*%
%TA.AperFunction,ComponentPad*%
%ADD12C,1.900000*%
%TD*%
%TA.AperFunction,ComponentPad*%
%ADD13O,1.900000X1.200000*%
%TD*%
%TA.AperFunction,ComponentPad*%
%ADD14C,1.450000*%
%TD*%
%TA.AperFunction,ViaPad*%
%ADD15C,0.450000*%
%TD*%
%TA.AperFunction,Conductor*%
%ADD16C,1.000000*%
%TD*%
G04 APERTURE END LIST*
D10*
%TO.N,GND*%
%TO.C,J6*%
X25167000Y7080000D03*
D11*
%TO.N,VBUS*%
X25167000Y4540000D03*
%TO.N,+3V3*%
X25167000Y2000000D03*
%TD*%
D10*
%TO.N,GND*%
%TO.C,J2*%
X43950000Y28750000D03*
D11*
%TO.N,/SWCLK*%
X41410000Y28750000D03*
%TO.N,/SWDIO*%
X38870000Y28750000D03*
%TD*%
D10*
%TO.N,GND*%
%TO.C,J4*%
X31200000Y3975000D03*
D11*
%TO.N,/PIX0*%
X31200000Y6515000D03*
%TO.N,/UART_TX*%
X33740000Y3975000D03*
%TO.N,/PIX1*%
X33740000Y6515000D03*
%TO.N,/UART_RX*%
X36280000Y3975000D03*
%TO.N,/PIX2*%
X36280000Y6515000D03*
%TO.N,/PIXCLK*%
X38820000Y3975000D03*
%TO.N,/PIX3*%
X38820000Y6515000D03*
%TD*%
D12*
%TO.N,GND*%
%TO.C,J5*%
X47650000Y24600000D03*
X42750000Y24000000D03*
X42750000Y9500000D03*
X47650000Y8900000D03*
%TD*%
D13*
%TO.N,GND*%
%TO.C,J1*%
X1762500Y21250000D03*
D14*
X4462500Y20250000D03*
X4462500Y15250000D03*
D13*
X1762500Y14250000D03*
%TD*%
D15*
%TO.N,+3V3*%
X26850000Y18700000D03*
X31500000Y14150000D03*
X31500000Y15050000D03*
X14100000Y19550000D03*
X13300000Y19550000D03*
X23010000Y20850000D03*
X29650000Y17100000D03*
X13900000Y25150000D03*
X28300000Y18650000D03*
X23050000Y27350000D03*
X21660000Y9000000D03*
X23650000Y24525000D03*
X22580000Y13920000D03*
X33700000Y20150000D03*
X19250000Y22500000D03*
X31150000Y21650000D03*
X22590000Y14510000D03*
X37050000Y11650000D03*
X34200000Y18150000D03*
X5520000Y11970000D03*
%TO.N,GND*%
X43100000Y21000000D03*
X43100000Y19500000D03*
X43100000Y18000000D03*
X43100000Y16500000D03*
X43250000Y13500000D03*
X31250000Y18500000D03*
X32500000Y17750000D03*
X23390000Y14050000D03*
X23390000Y10450000D03*
X31750000Y19000000D03*
X30500000Y19750000D03*
X7000000Y18050000D03*
X7750000Y17300000D03*
X13300000Y17350000D03*
X14100000Y17350000D03*
X40750000Y13500000D03*
X36440859Y15313435D03*
X32250000Y13450000D03*
X30920000Y13470000D03*
X23390000Y12060000D03*
X21740000Y12470000D03*
X38510000Y23000000D03*
X37550000Y24130000D03*
X38380000Y24940000D03*
X31630000Y25850000D03*
X32350000Y26610000D03*
X34180000Y22440000D03*
X29250000Y24450000D03*
X25850000Y24050000D03*
X37550000Y14700000D03*
X49750000Y26750000D03*
X46750000Y29750000D03*
X3750000Y29750000D03*
X750000Y26750000D03*
X750000Y3750000D03*
X3750000Y750000D03*
X46750000Y750000D03*
X49750000Y3750000D03*
X26150000Y19400000D03*
X26300000Y17950000D03*
X10700000Y18100000D03*
X10700000Y17150000D03*
X24600000Y15450000D03*
X21250000Y15800000D03*
X27200000Y10150000D03*
X21250000Y17500000D03*
X40625000Y21000000D03*
X40625000Y19500000D03*
X40625000Y18000000D03*
X40625000Y16500000D03*
X39975000Y15650000D03*
X38450000Y14500000D03*
X39990000Y21780000D03*
X35470000Y21380000D03*
X37160000Y22340000D03*
X35750000Y23530000D03*
X25890000Y10180000D03*
X25890000Y14330000D03*
X22330000Y8960000D03*
X30150000Y25150000D03*
X35950000Y8150000D03*
X18650000Y21950000D03*
X24150000Y26750000D03*
X24550000Y21450000D03*
X21450000Y23050000D03*
X25826586Y22433611D03*
X27275591Y22882834D03*
X34350000Y10050000D03*
X34182822Y8749232D03*
X20550000Y22000000D03*
X19650000Y20150000D03*
X19750000Y25450000D03*
%TO.N,+1V1*%
X30550000Y16050000D03*
X32500000Y21500000D03*
X30149992Y16400008D03*
X29100000Y17550000D03*
X28700000Y17900000D03*
X33010748Y21114040D03*
%TO.N,VBUS*%
X9350000Y16449992D03*
X9350000Y19900000D03*
X40524970Y12600000D03*
%TO.N,/USB_D-*%
X5944939Y18805061D03*
X21850000Y16940000D03*
%TO.N,/USB_D+*%
X21850000Y16360000D03*
X6355061Y18394939D03*
%TO.N,/RUN_~{RST}*%
X11450000Y25150000D03*
X32039782Y21999990D03*
%TO.N,/USER_LED_BUTTON*%
X6350000Y23600000D03*
X35850000Y15150000D03*
%TO.N,Net-(J5-CEC)*%
X38060000Y13820000D03*
%TO.N,/uC_DVI_SCL*%
X30019805Y24344646D03*
X39765574Y13939375D03*
%TO.N,/uC_DVI_SDA*%
X40372355Y13969006D03*
X30619301Y24369301D03*
%TO.N,/uC_DVI_CEC*%
X29956853Y23747955D03*
%TO.N,/PIX3*%
X34350000Y9450000D03*
%TO.N,/PIX2*%
X33850000Y8250000D03*
%TO.N,/~{CS}*%
X21050000Y28350000D03*
%TO.N,/DQ7*%
X19250000Y21450000D03*
%TO.N,/DQ1*%
X26274087Y21968326D03*
X21450000Y22050000D03*
%TO.N,/DQ0*%
X22512605Y22878453D03*
X26754249Y22418326D03*
%TO.N,/RWDS*%
X22450000Y23950000D03*
%TO.N,/CK*%
X26650000Y25550000D03*
%TD*%
D16*
%TO.N,VBUS*%
X45100000Y10850000D02*
X43350000Y12600000D01*
X43350000Y12600000D02*
X40843168Y12600000D01*
X42299998Y1000000D02*
X45100000Y3800002D01*
X45100000Y3800002D02*
X45100000Y10850000D01*
X25167000Y4506000D02*
X21661000Y1000000D01*
X9350000Y19900000D02*
X9350000Y16449992D01*
X40843168Y12600000D02*
X40524970Y12600000D01*
X1291000Y9545998D02*
X8194994Y16449992D01*
X8353000Y1000000D02*
X1291000Y8062000D01*
X25167000Y4506000D02*
X25194000Y4506000D01*
X28700000Y1000000D02*
X42299998Y1000000D01*
X25194000Y4506000D02*
X28700000Y1000000D01*
X8194994Y16449992D02*
X9350000Y16449992D01*
X21661000Y1000000D02*
X8353000Y1000000D01*
X1291000Y8062000D02*
X1291000Y9545998D01*
%TD*%
%TA.AperFunction,Conductor*%
%TO.N,+1V1*%
G36*
X32512889Y21937111D02*
G01*
X33754744Y20695256D01*
X33773489Y20650001D01*
X33754744Y20604746D01*
X33691154Y20541156D01*
X33655911Y20523199D01*
X33582520Y20511575D01*
X33582512Y20511572D01*
X33476539Y20457576D01*
X33476537Y20457575D01*
X33476535Y20457573D01*
X33392427Y20373465D01*
X33392425Y20373463D01*
X33392424Y20373461D01*
X33338428Y20267488D01*
X33338425Y20267480D01*
X33326801Y20194088D01*
X33308844Y20158845D01*
X33250000Y20100001D01*
X33250000Y18076511D01*
X33231255Y18031256D01*
X32978545Y17778546D01*
X32933290Y17759801D01*
X32888035Y17778546D01*
X32870078Y17813789D01*
X32861574Y17867481D01*
X32861574Y17867482D01*
X32807573Y17973465D01*
X32723465Y18057573D01*
X32617482Y18111574D01*
X32617479Y18111575D01*
X32617481Y18111575D01*
X32500000Y18130181D01*
X32382519Y18111575D01*
X32276536Y18057574D01*
X32192426Y17973464D01*
X32138425Y17867481D01*
X32119819Y17750001D01*
X32119819Y17750000D01*
X32138425Y17632520D01*
X32138425Y17632519D01*
X32138426Y17632518D01*
X32192427Y17526535D01*
X32276535Y17442427D01*
X32382518Y17388426D01*
X32436211Y17379922D01*
X32477975Y17354330D01*
X32489411Y17306700D01*
X32471454Y17271456D01*
X31018745Y15818745D01*
X30973490Y15800000D01*
X29476510Y15800000D01*
X29431255Y15818745D01*
X28149999Y17100001D01*
X29269819Y17100001D01*
X29269819Y17100000D01*
X29288425Y16982520D01*
X29288425Y16982519D01*
X29288426Y16982518D01*
X29342427Y16876535D01*
X29426535Y16792427D01*
X29532518Y16738426D01*
X29650000Y16719819D01*
X29767482Y16738426D01*
X29873465Y16792427D01*
X29957573Y16876535D01*
X30011574Y16982518D01*
X30030181Y17100000D01*
X30011574Y17217482D01*
X29957573Y17323465D01*
X29873465Y17407573D01*
X29767482Y17461574D01*
X29767479Y17461575D01*
X29767481Y17461575D01*
X29650000Y17480181D01*
X29532519Y17461575D01*
X29426536Y17407574D01*
X29342426Y17323464D01*
X29288425Y17217481D01*
X29269819Y17100001D01*
X28149999Y17100001D01*
X27845255Y17404745D01*
X27826510Y17450000D01*
X27845255Y17495255D01*
X28431255Y18081255D01*
X28476510Y18100000D01*
X29349999Y18100000D01*
X29350000Y18100000D01*
X29750001Y18500001D01*
X30869819Y18500001D01*
X30869819Y18500000D01*
X30888425Y18382520D01*
X30888425Y18382519D01*
X30888426Y18382518D01*
X30942427Y18276535D01*
X31026535Y18192427D01*
X31132518Y18138426D01*
X31250000Y18119819D01*
X31367482Y18138426D01*
X31473465Y18192427D01*
X31557573Y18276535D01*
X31611574Y18382518D01*
X31630181Y18500000D01*
X31621412Y18555365D01*
X31632847Y18602994D01*
X31674612Y18628588D01*
X31694634Y18628588D01*
X31750000Y18619819D01*
X31867482Y18638426D01*
X31973465Y18692427D01*
X32057573Y18776535D01*
X32111574Y18882518D01*
X32130181Y19000000D01*
X32111574Y19117482D01*
X32057573Y19223465D01*
X31973465Y19307573D01*
X31867482Y19361574D01*
X31867479Y19361575D01*
X31867481Y19361575D01*
X31750000Y19380181D01*
X31632519Y19361575D01*
X31526536Y19307574D01*
X31442426Y19223464D01*
X31388425Y19117481D01*
X31369819Y19000001D01*
X31369819Y18999999D01*
X31378587Y18944636D01*
X31367152Y18897006D01*
X31325386Y18871413D01*
X31305364Y18871413D01*
X31250002Y18880181D01*
X31250000Y18880181D01*
X31132519Y18861575D01*
X31026536Y18807574D01*
X30942426Y18723464D01*
X30888425Y18617481D01*
X30869819Y18500001D01*
X29750001Y18500001D01*
X30300000Y19050000D01*
X30300000Y19327150D01*
X30318745Y19372405D01*
X30364000Y19391150D01*
X30377510Y19389009D01*
X30377543Y19389214D01*
X30382517Y19388427D01*
X30382518Y19388426D01*
X30500000Y19369819D01*
X30617482Y19388426D01*
X30723465Y19442427D01*
X30807573Y19526535D01*
X30861574Y19632518D01*
X30880181Y19750000D01*
X30861574Y19867482D01*
X30807573Y19973465D01*
X30723465Y20057573D01*
X30617482Y20111574D01*
X30617479Y20111575D01*
X30617481Y20111575D01*
X30606950Y20113242D01*
X30565185Y20138836D01*
X30553750Y20186466D01*
X30571704Y20221705D01*
X31956320Y21606321D01*
X32001572Y21625064D01*
X32011570Y21624278D01*
X32039782Y21619809D01*
X32157264Y21638416D01*
X32263247Y21692417D01*
X32347355Y21776525D01*
X32401356Y21882508D01*
X32404422Y21901868D01*
X32430015Y21943633D01*
X32477645Y21955068D01*
X32512889Y21937111D01*
G37*
%TD.AperFunction*%
%TD*%
%TA.AperFunction,Conductor*%
%TO.N,+3V3*%
G36*
X26339655Y2368366D02*
G01*
X26349908Y2359435D01*
X28214841Y494502D01*
X28242617Y439987D01*
X28233046Y379555D01*
X28189781Y336290D01*
X28144836Y325500D01*
X22216164Y325500D01*
X22157973Y344407D01*
X22122009Y393907D01*
X22122009Y455093D01*
X22146158Y494502D01*
X23972336Y2320681D01*
X24026851Y2348456D01*
X24087283Y2338885D01*
X24130548Y2295620D01*
X24140119Y2235188D01*
X24137076Y2221941D01*
X24132192Y2205841D01*
X24132190Y2205831D01*
X24124229Y2125001D01*
X24124230Y2125000D01*
X24682856Y2125000D01*
X24667000Y2065826D01*
X24667000Y1934174D01*
X24682856Y1875000D01*
X24124229Y1875000D01*
X24132190Y1794170D01*
X24132191Y1794164D01*
X24192232Y1596238D01*
X24192234Y1596233D01*
X24289724Y1413840D01*
X24289731Y1413830D01*
X24420940Y1253950D01*
X24420949Y1253941D01*
X24580829Y1122732D01*
X24580839Y1122725D01*
X24763232Y1025235D01*
X24763237Y1025233D01*
X24961166Y965192D01*
X25041998Y957231D01*
X25042000Y957232D01*
X25042000Y1515856D01*
X25101174Y1500000D01*
X25232826Y1500000D01*
X25292000Y1515856D01*
X25292000Y957232D01*
X25292001Y957231D01*
X25372833Y965192D01*
X25570762Y1025233D01*
X25570767Y1025235D01*
X25753160Y1122725D01*
X25753170Y1122732D01*
X25913050Y1253941D01*
X25913059Y1253950D01*
X26044268Y1413830D01*
X26044275Y1413840D01*
X26141765Y1596233D01*
X26141767Y1596238D01*
X26201808Y1794164D01*
X26201809Y1794170D01*
X26209771Y1875000D01*
X25651144Y1875000D01*
X25667000Y1934174D01*
X25667000Y2065826D01*
X25651144Y2125000D01*
X26209770Y2125000D01*
X26209770Y2125001D01*
X26201809Y2205831D01*
X26201808Y2205833D01*
X26185167Y2260692D01*
X26186368Y2321866D01*
X26223296Y2370650D01*
X26281847Y2388412D01*
X26339655Y2368366D01*
G37*
%TD.AperFunction*%
%TA.AperFunction,Conductor*%
G36*
X46391936Y30155593D02*
G01*
X46427900Y30106093D01*
X46427900Y30044907D01*
X46403750Y30005499D01*
X46401472Y30003220D01*
X46401470Y30003218D01*
X46340282Y29883130D01*
X46340281Y29883128D01*
X46319196Y29750001D01*
X46319196Y29750000D01*
X46340281Y29616873D01*
X46340282Y29616871D01*
X46401470Y29496783D01*
X46401472Y29496780D01*
X46468746Y29429506D01*
X46496522Y29374991D01*
X46486951Y29314559D01*
X46459009Y29280963D01*
X46428156Y29257289D01*
X46242715Y29071848D01*
X46083075Y28863803D01*
X45951953Y28636690D01*
X45851604Y28394425D01*
X45851602Y28394419D01*
X45803769Y28215901D01*
X45783729Y28141111D01*
X45749500Y27881121D01*
X45749500Y27618880D01*
X45755686Y27571890D01*
X45783730Y27358884D01*
X45850937Y27108064D01*
X45851600Y27105589D01*
X45851604Y27105576D01*
X45951953Y26863311D01*
X45951955Y26863307D01*
X45951957Y26863303D01*
X46083076Y26636197D01*
X46242718Y26428149D01*
X46428149Y26242718D01*
X46636197Y26083076D01*
X46863303Y25951957D01*
X47105581Y25851602D01*
X47161771Y25836546D01*
X47213084Y25803224D01*
X47235012Y25746103D01*
X47219177Y25687002D01*
X47171913Y25648606D01*
X47134983Y25634299D01*
X47134975Y25634295D01*
X46953699Y25522054D01*
X46953692Y25522048D01*
X46796135Y25378414D01*
X46796131Y25378411D01*
X46796128Y25378407D01*
X46796125Y25378403D01*
X46667635Y25208257D01*
X46667630Y25208248D01*
X46572596Y25017392D01*
X46572595Y25017389D01*
X46572448Y25016873D01*
X46514244Y24812312D01*
X46494571Y24600000D01*
X46514244Y24387689D01*
X46534394Y24316871D01*
X46572595Y24182611D01*
X46667634Y23991745D01*
X46796128Y23821593D01*
X46866734Y23757227D01*
X46953692Y23677953D01*
X46953699Y23677947D01*
X47014532Y23640281D01*
X47134981Y23565702D01*
X47333802Y23488679D01*
X47543390Y23449500D01*
X47756610Y23449500D01*
X47966198Y23488679D01*
X48165019Y23565702D01*
X48346302Y23677948D01*
X48503872Y23821593D01*
X48632366Y23991745D01*
X48727405Y24182611D01*
X48785756Y24387690D01*
X48805429Y24600000D01*
X48785756Y24812310D01*
X48727405Y25017389D01*
X48632366Y25208255D01*
X48503872Y25378407D01*
X48425338Y25450001D01*
X48346307Y25522048D01*
X48346300Y25522054D01*
X48184026Y25622530D01*
X48144505Y25669239D01*
X48139986Y25730257D01*
X48172196Y25782278D01*
X48210516Y25802326D01*
X48394419Y25851602D01*
X48636697Y25951957D01*
X48863803Y26083076D01*
X49071851Y26242718D01*
X49257282Y26428149D01*
X49280960Y26459008D01*
X49331383Y26493664D01*
X49392548Y26492064D01*
X49429504Y26468748D01*
X49496780Y26401472D01*
X49616874Y26340281D01*
X49750000Y26319196D01*
X49883126Y26340281D01*
X50003220Y26401472D01*
X50005498Y26403751D01*
X50008367Y26405213D01*
X50009525Y26406053D01*
X50009658Y26405870D01*
X50060013Y26431526D01*
X50120445Y26421955D01*
X50163710Y26378690D01*
X50174500Y26333745D01*
X50174500Y4166255D01*
X50155593Y4108064D01*
X50106093Y4072100D01*
X50044907Y4072100D01*
X50005498Y4096250D01*
X50003220Y4098528D01*
X50003217Y4098530D01*
X49883129Y4159718D01*
X49883127Y4159719D01*
X49750000Y4180804D01*
X49616872Y4159719D01*
X49616870Y4159718D01*
X49496782Y4098530D01*
X49496778Y4098527D01*
X49429506Y4031255D01*
X49374989Y4003478D01*
X49314557Y4013050D01*
X49280963Y4040990D01*
X49257282Y4071851D01*
X49071851Y4257282D01*
X48863803Y4416924D01*
X48863804Y4416924D01*
X48863802Y4416925D01*
X48726956Y4495932D01*
X48636697Y4548043D01*
X48636693Y4548045D01*
X48636689Y4548047D01*
X48394424Y4648396D01*
X48394423Y4648397D01*
X48394419Y4648398D01*
X48141116Y4716270D01*
X48141111Y4716271D01*
X48141110Y4716271D01*
X47881120Y4750500D01*
X47618880Y4750500D01*
X47618879Y4750500D01*
X47358889Y4716271D01*
X47358886Y4716271D01*
X47358884Y4716270D01*
X47173464Y4666588D01*
X47105588Y4648400D01*
X47105575Y4648396D01*
X46863310Y4548047D01*
X46636197Y4416925D01*
X46428152Y4257285D01*
X46242715Y4071848D01*
X46083075Y3863802D01*
X45985237Y3694340D01*
X45939767Y3653399D01*
X45878917Y3647003D01*
X45825929Y3677596D01*
X45801042Y3733492D01*
X45800500Y3743840D01*
X45800500Y8900000D01*
X46494571Y8900000D01*
X46514244Y8687689D01*
X46524877Y8650320D01*
X46572595Y8482611D01*
X46667634Y8291745D01*
X46796128Y8121593D01*
X46866734Y8057227D01*
X46953692Y7977953D01*
X46953699Y7977947D01*
X46999242Y7949748D01*
X47134981Y7865702D01*
X47333802Y7788679D01*
X47543390Y7749500D01*
X47756610Y7749500D01*
X47966198Y7788679D01*
X48165019Y7865702D01*
X48346302Y7977948D01*
X48503872Y8121593D01*
X48632366Y8291745D01*
X48727405Y8482611D01*
X48785756Y8687690D01*
X48805429Y8900000D01*
X48785756Y9112310D01*
X48727405Y9317389D01*
X48632366Y9508255D01*
X48503872Y9678407D01*
X48374024Y9796780D01*
X48346307Y9822048D01*
X48346300Y9822054D01*
X48165024Y9934295D01*
X48165019Y9934298D01*
X47966195Y10011322D01*
X47756610Y10050500D01*
X47543390Y10050500D01*
X47333804Y10011322D01*
X47134980Y9934298D01*
X47134975Y9934295D01*
X46953699Y9822054D01*
X46953692Y9822048D01*
X46796135Y9678414D01*
X46796131Y9678411D01*
X46796128Y9678407D01*
X46796125Y9678403D01*
X46667635Y9508257D01*
X46667630Y9508248D01*
X46598651Y9369718D01*
X46572595Y9317389D01*
X46563333Y9284837D01*
X46514244Y9112312D01*
X46494571Y8900000D01*
X45800500Y8900000D01*
X45800500Y10918992D01*
X45800499Y10918996D01*
X45773580Y11054328D01*
X45720775Y11181811D01*
X45644114Y11296543D01*
X43796543Y13144114D01*
X43796539Y13144117D01*
X43682943Y13220019D01*
X43645063Y13268069D01*
X43642661Y13329207D01*
X43649733Y13347277D01*
X43659719Y13366874D01*
X43680804Y13500000D01*
X43679446Y13508571D01*
X43674372Y13540610D01*
X43659719Y13633126D01*
X43598528Y13753220D01*
X43503220Y13848528D01*
X43503217Y13848530D01*
X43383129Y13909718D01*
X43383127Y13909719D01*
X43250000Y13930804D01*
X43116872Y13909719D01*
X43116870Y13909718D01*
X42996782Y13848530D01*
X42901470Y13753218D01*
X42840282Y13633130D01*
X42840281Y13633128D01*
X42819196Y13500001D01*
X42819196Y13500000D01*
X42827194Y13449500D01*
X42832661Y13414987D01*
X42823090Y13354555D01*
X42779825Y13311291D01*
X42734880Y13300500D01*
X41265120Y13300500D01*
X41206929Y13319407D01*
X41170965Y13368907D01*
X41167339Y13414987D01*
X41172806Y13449500D01*
X41180804Y13500000D01*
X41179446Y13508571D01*
X41174372Y13540610D01*
X41159719Y13633126D01*
X41098528Y13753220D01*
X41003220Y13848528D01*
X41003217Y13848530D01*
X40883129Y13909718D01*
X40883127Y13909719D01*
X40882416Y13909832D01*
X40881773Y13909934D01*
X40880553Y13910556D01*
X40875718Y13912126D01*
X40875966Y13912892D01*
X40827258Y13937711D01*
X40799481Y13992227D01*
X40795489Y14017431D01*
X40782074Y14102132D01*
X40720883Y14222226D01*
X40625575Y14317534D01*
X40625572Y14317536D01*
X40505484Y14378724D01*
X40505482Y14378725D01*
X40372355Y14399810D01*
X40239227Y14378725D01*
X40239225Y14378724D01*
X40119137Y14317536D01*
X40119131Y14317531D01*
X40116492Y14314892D01*
X40113168Y14313199D01*
X40112830Y14312953D01*
X40112791Y14313007D01*
X40061974Y14287118D01*
X40001548Y14296690D01*
X39898700Y14349094D01*
X39765574Y14370179D01*
X39632446Y14349094D01*
X39632444Y14349093D01*
X39512356Y14287905D01*
X39417044Y14192593D01*
X39355856Y14072505D01*
X39355855Y14072503D01*
X39334770Y13939376D01*
X39334770Y13939375D01*
X39355855Y13806248D01*
X39355856Y13806246D01*
X39416680Y13686873D01*
X39417046Y13686155D01*
X39512354Y13590847D01*
X39512356Y13590846D01*
X39629219Y13531301D01*
X39632448Y13529656D01*
X39765574Y13508571D01*
X39898700Y13529656D01*
X40018794Y13590847D01*
X40021429Y13593483D01*
X40024749Y13595175D01*
X40025099Y13595428D01*
X40025139Y13595373D01*
X40075942Y13621262D01*
X40136374Y13611695D01*
X40239229Y13559287D01*
X40240575Y13559074D01*
X40241788Y13558456D01*
X40246636Y13556881D01*
X40246386Y13556114D01*
X40295091Y13531301D01*
X40322872Y13476786D01*
X40322873Y13476780D01*
X40340729Y13364043D01*
X40331158Y13303611D01*
X40287893Y13260346D01*
X40280834Y13257092D01*
X40193160Y13220776D01*
X40193152Y13220772D01*
X40078428Y13144115D01*
X39980855Y13046542D01*
X39904198Y12931818D01*
X39904192Y12931807D01*
X39851390Y12804330D01*
X39851390Y12804328D01*
X39824470Y12668996D01*
X39824470Y12668993D01*
X39824470Y12531007D01*
X39848832Y12408530D01*
X39851390Y12395673D01*
X39851390Y12395671D01*
X39904192Y12268194D01*
X39904198Y12268183D01*
X39980855Y12153459D01*
X40078428Y12055886D01*
X40193152Y11979229D01*
X40193163Y11979223D01*
X40240253Y11959718D01*
X40320642Y11926420D01*
X40455977Y11899500D01*
X40774175Y11899500D01*
X43018835Y11899500D01*
X43077026Y11880593D01*
X43088839Y11870504D01*
X44370504Y10588839D01*
X44398281Y10534322D01*
X44399500Y10518835D01*
X44399500Y4131167D01*
X44380593Y4072976D01*
X44370504Y4061163D01*
X42038837Y1729496D01*
X41984320Y1701719D01*
X41968833Y1700500D01*
X29031165Y1700500D01*
X28972974Y1719407D01*
X28961161Y1729496D01*
X26249242Y4441415D01*
X26221465Y4495932D01*
X26220723Y4521121D01*
X26222583Y4540000D01*
X26204716Y4721405D01*
X26202301Y4745930D01*
X26202300Y4745935D01*
X26172326Y4844747D01*
X30149500Y4844747D01*
X30149500Y3105254D01*
X30149501Y3105242D01*
X30161132Y3046773D01*
X30161134Y3046767D01*
X30205445Y2980452D01*
X30205448Y2980448D01*
X30271769Y2936133D01*
X30316231Y2927289D01*
X30330241Y2924502D01*
X30330246Y2924502D01*
X30330252Y2924500D01*
X30330253Y2924500D01*
X32069747Y2924500D01*
X32069748Y2924500D01*
X32128231Y2936133D01*
X32194552Y2980448D01*
X32238867Y3046769D01*
X32250500Y3105252D01*
X32250500Y3975004D01*
X32684417Y3975004D01*
X32684417Y3974997D01*
X32704698Y3769071D01*
X32704699Y3769066D01*
X32764768Y3571046D01*
X32862316Y3388548D01*
X32915271Y3324022D01*
X32993590Y3228590D01*
X32993595Y3228586D01*
X33153547Y3097317D01*
X33153548Y3097317D01*
X33153550Y3097315D01*
X33336046Y2999768D01*
X33473997Y2957922D01*
X33534065Y2939700D01*
X33534070Y2939699D01*
X33739997Y2919417D01*
X33740000Y2919417D01*
X33740003Y2919417D01*
X33945929Y2939699D01*
X33945934Y2939700D01*
X34143954Y2999768D01*
X34326450Y3097315D01*
X34486410Y3228590D01*
X34617685Y3388550D01*
X34715232Y3571046D01*
X34775300Y3769066D01*
X34775301Y3769071D01*
X34795583Y3974997D01*
X34795583Y3975004D01*
X35224417Y3975004D01*
X35224417Y3974997D01*
X35244698Y3769071D01*
X35244699Y3769066D01*
X35304768Y3571046D01*
X35402316Y3388548D01*
X35455271Y3324022D01*
X35533590Y3228590D01*
X35533595Y3228586D01*
X35693547Y3097317D01*
X35693548Y3097317D01*
X35693550Y3097315D01*
X35876046Y2999768D01*
X36013997Y2957922D01*
X36074065Y2939700D01*
X36074070Y2939699D01*
X36279997Y2919417D01*
X36280000Y2919417D01*
X36280003Y2919417D01*
X36485929Y2939699D01*
X36485934Y2939700D01*
X36683954Y2999768D01*
X36866450Y3097315D01*
X37026410Y3228590D01*
X37157685Y3388550D01*
X37255232Y3571046D01*
X37315300Y3769066D01*
X37315301Y3769071D01*
X37335583Y3974997D01*
X37335583Y3975004D01*
X37764417Y3975004D01*
X37764417Y3974997D01*
X37784698Y3769071D01*
X37784699Y3769066D01*
X37844768Y3571046D01*
X37942316Y3388548D01*
X37995271Y3324022D01*
X38073590Y3228590D01*
X38073595Y3228586D01*
X38233547Y3097317D01*
X38233548Y3097317D01*
X38233550Y3097315D01*
X38416046Y2999768D01*
X38553997Y2957922D01*
X38614065Y2939700D01*
X38614070Y2939699D01*
X38819997Y2919417D01*
X38820000Y2919417D01*
X38820003Y2919417D01*
X39025929Y2939699D01*
X39025934Y2939700D01*
X39223954Y2999768D01*
X39406450Y3097315D01*
X39566410Y3228590D01*
X39697685Y3388550D01*
X39795232Y3571046D01*
X39855300Y3769066D01*
X39855301Y3769071D01*
X39875583Y3974997D01*
X39875583Y3975004D01*
X39855301Y4180930D01*
X39855300Y4180935D01*
X39832139Y4257285D01*
X39795232Y4378954D01*
X39697685Y4561450D01*
X39655442Y4612923D01*
X39570627Y4716271D01*
X39566410Y4721410D01*
X39416123Y4844747D01*
X39406452Y4852684D01*
X39223954Y4950232D01*
X39025934Y5010301D01*
X39025929Y5010302D01*
X38820003Y5030583D01*
X38819997Y5030583D01*
X38614070Y5010302D01*
X38614065Y5010301D01*
X38416045Y4950232D01*
X38233547Y4852684D01*
X38073595Y4721415D01*
X38073585Y4721405D01*
X37942316Y4561453D01*
X37844768Y4378955D01*
X37784699Y4180935D01*
X37784698Y4180930D01*
X37764417Y3975004D01*
X37335583Y3975004D01*
X37315301Y4180930D01*
X37315300Y4180935D01*
X37292139Y4257285D01*
X37255232Y4378954D01*
X37157685Y4561450D01*
X37115442Y4612923D01*
X37030627Y4716271D01*
X37026410Y4721410D01*
X36876123Y4844747D01*
X36866452Y4852684D01*
X36683954Y4950232D01*
X36485934Y5010301D01*
X36485929Y5010302D01*
X36280003Y5030583D01*
X36279997Y5030583D01*
X36074070Y5010302D01*
X36074065Y5010301D01*
X35876045Y4950232D01*
X35693547Y4852684D01*
X35533595Y4721415D01*
X35533585Y4721405D01*
X35402316Y4561453D01*
X35304768Y4378955D01*
X35244699Y4180935D01*
X35244698Y4180930D01*
X35224417Y3975004D01*
X34795583Y3975004D01*
X34775301Y4180930D01*
X34775300Y4180935D01*
X34752139Y4257285D01*
X34715232Y4378954D01*
X34617685Y4561450D01*
X34575442Y4612923D01*
X34490627Y4716271D01*
X34486410Y4721410D01*
X34336123Y4844747D01*
X34326452Y4852684D01*
X34143954Y4950232D01*
X33945934Y5010301D01*
X33945929Y5010302D01*
X33740003Y5030583D01*
X33739997Y5030583D01*
X33534070Y5010302D01*
X33534065Y5010301D01*
X33336045Y4950232D01*
X33153547Y4852684D01*
X32993595Y4721415D01*
X32993585Y4721405D01*
X32862316Y4561453D01*
X32764768Y4378955D01*
X32704699Y4180935D01*
X32704698Y4180930D01*
X32684417Y3975004D01*
X32250500Y3975004D01*
X32250500Y4844748D01*
X32248921Y4852684D01*
X32247711Y4858769D01*
X32238867Y4903231D01*
X32194552Y4969552D01*
X32194548Y4969555D01*
X32128233Y5013866D01*
X32128231Y5013867D01*
X32128228Y5013868D01*
X32128227Y5013868D01*
X32069758Y5025499D01*
X32069748Y5025500D01*
X30330252Y5025500D01*
X30330251Y5025500D01*
X30330241Y5025499D01*
X30271772Y5013868D01*
X30271766Y5013866D01*
X30205451Y4969555D01*
X30205445Y4969549D01*
X30161134Y4903234D01*
X30161132Y4903228D01*
X30149501Y4844759D01*
X30149500Y4844747D01*
X26172326Y4844747D01*
X26169918Y4852685D01*
X26142232Y4943954D01*
X26044685Y5126450D01*
X25913410Y5286410D01*
X25913404Y5286415D01*
X25753452Y5417684D01*
X25570954Y5515232D01*
X25372934Y5575301D01*
X25372929Y5575302D01*
X25167003Y5595583D01*
X25166997Y5595583D01*
X24961070Y5575302D01*
X24961065Y5575301D01*
X24763045Y5515232D01*
X24580547Y5417684D01*
X24420595Y5286415D01*
X24420585Y5286405D01*
X24289316Y5126453D01*
X24191768Y4943955D01*
X24131699Y4745935D01*
X24131698Y4745930D01*
X24111417Y4540004D01*
X24111417Y4539996D01*
X24115696Y4496542D01*
X24102583Y4436778D01*
X24087177Y4416836D01*
X21399839Y1729496D01*
X21345322Y1701719D01*
X21329835Y1700500D01*
X8684165Y1700500D01*
X8625974Y1719407D01*
X8614161Y1729496D01*
X2393910Y7949747D01*
X24116500Y7949747D01*
X24116500Y6210254D01*
X24116501Y6210242D01*
X24128132Y6151773D01*
X24128134Y6151767D01*
X24172445Y6085452D01*
X24172448Y6085448D01*
X24238769Y6041133D01*
X24283231Y6032289D01*
X24297241Y6029502D01*
X24297246Y6029502D01*
X24297252Y6029500D01*
X24297253Y6029500D01*
X26036747Y6029500D01*
X26036748Y6029500D01*
X26095231Y6041133D01*
X26161552Y6085448D01*
X26205867Y6151769D01*
X26217500Y6210252D01*
X26217500Y6515004D01*
X30144417Y6515004D01*
X30144417Y6514997D01*
X30164698Y6309071D01*
X30164699Y6309066D01*
X30224768Y6111046D01*
X30322316Y5928548D01*
X30453585Y5768596D01*
X30453590Y5768590D01*
X30453595Y5768586D01*
X30613547Y5637317D01*
X30613548Y5637317D01*
X30613550Y5637315D01*
X30796046Y5539768D01*
X30933997Y5497922D01*
X30994065Y5479700D01*
X30994070Y5479699D01*
X31199997Y5459417D01*
X31200000Y5459417D01*
X31200003Y5459417D01*
X31405929Y5479699D01*
X31405934Y5479700D01*
X31603954Y5539768D01*
X31786450Y5637315D01*
X31946410Y5768590D01*
X32077685Y5928550D01*
X32175232Y6111046D01*
X32235300Y6309066D01*
X32235301Y6309071D01*
X32255583Y6514997D01*
X32255583Y6515004D01*
X32684417Y6515004D01*
X32684417Y6514997D01*
X32704698Y6309071D01*
X32704699Y6309066D01*
X32764768Y6111046D01*
X32862316Y5928548D01*
X32993585Y5768596D01*
X32993590Y5768590D01*
X32993595Y5768586D01*
X33153547Y5637317D01*
X33153548Y5637317D01*
X33153550Y5637315D01*
X33336046Y5539768D01*
X33473997Y5497922D01*
X33534065Y5479700D01*
X33534070Y5479699D01*
X33739997Y5459417D01*
X33740000Y5459417D01*
X33740003Y5459417D01*
X33945929Y5479699D01*
X33945934Y5479700D01*
X34143954Y5539768D01*
X34326450Y5637315D01*
X34486410Y5768590D01*
X34617685Y5928550D01*
X34715232Y6111046D01*
X34775300Y6309066D01*
X34775301Y6309071D01*
X34795583Y6514997D01*
X34795583Y6515004D01*
X35224417Y6515004D01*
X35224417Y6514997D01*
X35244698Y6309071D01*
X35244699Y6309066D01*
X35304768Y6111046D01*
X35402316Y5928548D01*
X35533585Y5768596D01*
X35533590Y5768590D01*
X35533595Y5768586D01*
X35693547Y5637317D01*
X35693548Y5637317D01*
X35693550Y5637315D01*
X35876046Y5539768D01*
X36013997Y5497922D01*
X36074065Y5479700D01*
X36074070Y5479699D01*
X36279997Y5459417D01*
X36280000Y5459417D01*
X36280003Y5459417D01*
X36485929Y5479699D01*
X36485934Y5479700D01*
X36683954Y5539768D01*
X36866450Y5637315D01*
X37026410Y5768590D01*
X37157685Y5928550D01*
X37255232Y6111046D01*
X37315300Y6309066D01*
X37315301Y6309071D01*
X37335583Y6514997D01*
X37335583Y6515004D01*
X37764417Y6515004D01*
X37764417Y6514997D01*
X37784698Y6309071D01*
X37784699Y6309066D01*
X37844768Y6111046D01*
X37942316Y5928548D01*
X38073585Y5768596D01*
X38073590Y5768590D01*
X38073595Y5768586D01*
X38233547Y5637317D01*
X38233548Y5637317D01*
X38233550Y5637315D01*
X38416046Y5539768D01*
X38553997Y5497922D01*
X38614065Y5479700D01*
X38614070Y5479699D01*
X38819997Y5459417D01*
X38820000Y5459417D01*
X38820003Y5459417D01*
X39025929Y5479699D01*
X39025934Y5479700D01*
X39223954Y5539768D01*
X39406450Y5637315D01*
X39566410Y5768590D01*
X39697685Y5928550D01*
X39795232Y6111046D01*
X39855300Y6309066D01*
X39855301Y6309071D01*
X39875583Y6514997D01*
X39875583Y6515004D01*
X39855301Y6720930D01*
X39855300Y6720935D01*
X39837078Y6781003D01*
X39795232Y6918954D01*
X39697685Y7101450D01*
X39566410Y7261410D01*
X39566404Y7261415D01*
X39406452Y7392684D01*
X39223954Y7490232D01*
X39025934Y7550301D01*
X39025929Y7550302D01*
X38820003Y7570583D01*
X38819997Y7570583D01*
X38614070Y7550302D01*
X38614065Y7550301D01*
X38416045Y7490232D01*
X38233547Y7392684D01*
X38073595Y7261415D01*
X38073585Y7261405D01*
X37942316Y7101453D01*
X37844768Y6918955D01*
X37784699Y6720935D01*
X37784698Y6720930D01*
X37764417Y6515004D01*
X37335583Y6515004D01*
X37315301Y6720930D01*
X37315300Y6720935D01*
X37297078Y6781003D01*
X37255232Y6918954D01*
X37157685Y7101450D01*
X37026410Y7261410D01*
X37026404Y7261415D01*
X36866452Y7392684D01*
X36683954Y7490232D01*
X36485934Y7550301D01*
X36485929Y7550302D01*
X36280003Y7570583D01*
X36279996Y7570583D01*
X36145138Y7557301D01*
X36085375Y7570413D01*
X36062228Y7596461D01*
X36039614Y7552068D01*
X35998345Y7527331D01*
X35933587Y7507687D01*
X35876046Y7490232D01*
X35876044Y7490232D01*
X35876044Y7490231D01*
X35693547Y7392684D01*
X35533595Y7261415D01*
X35533585Y7261405D01*
X35402316Y7101453D01*
X35304768Y6918955D01*
X35244699Y6720935D01*
X35244698Y6720930D01*
X35224417Y6515004D01*
X34795583Y6515004D01*
X34775301Y6720930D01*
X34775300Y6720935D01*
X34757078Y6781003D01*
X34715232Y6918954D01*
X34617685Y7101450D01*
X34486410Y7261410D01*
X34486404Y7261415D01*
X34326452Y7392684D01*
X34143954Y7490232D01*
X33945934Y7550301D01*
X33945929Y7550302D01*
X33740003Y7570583D01*
X33739997Y7570583D01*
X33534070Y7550302D01*
X33534065Y7550301D01*
X33336045Y7490232D01*
X33153547Y7392684D01*
X32993595Y7261415D01*
X32993585Y7261405D01*
X32862316Y7101453D01*
X32764768Y6918955D01*
X32704699Y6720935D01*
X32704698Y6720930D01*
X32684417Y6515004D01*
X32255583Y6515004D01*
X32235301Y6720930D01*
X32235300Y6720935D01*
X32217078Y6781003D01*
X32175232Y6918954D01*
X32077685Y7101450D01*
X31946410Y7261410D01*
X31946404Y7261415D01*
X31786452Y7392684D01*
X31603954Y7490232D01*
X31405934Y7550301D01*
X31405929Y7550302D01*
X31200003Y7570583D01*
X31199997Y7570583D01*
X30994070Y7550302D01*
X30994065Y7550301D01*
X30796045Y7490232D01*
X30613547Y7392684D01*
X30453595Y7261415D01*
X30453585Y7261405D01*
X30322316Y7101453D01*
X30224768Y6918955D01*
X30164699Y6720935D01*
X30164698Y6720930D01*
X30144417Y6515004D01*
X26217500Y6515004D01*
X26217500Y7949748D01*
X26205867Y8008231D01*
X26161552Y8074552D01*
X26161548Y8074555D01*
X26095233Y8118866D01*
X26095231Y8118867D01*
X26095228Y8118868D01*
X26095227Y8118868D01*
X26036758Y8130499D01*
X26036748Y8130500D01*
X24297252Y8130500D01*
X24297251Y8130500D01*
X24297241Y8130499D01*
X24238772Y8118868D01*
X24238766Y8118866D01*
X24172451Y8074555D01*
X24172445Y8074549D01*
X24128134Y8008234D01*
X24128132Y8008228D01*
X24116501Y7949759D01*
X24116500Y7949747D01*
X2393910Y7949747D01*
X2093656Y8250001D01*
X33419196Y8250001D01*
X33419196Y8250000D01*
X33440281Y8116873D01*
X33440282Y8116871D01*
X33501470Y7996783D01*
X33501472Y7996780D01*
X33596780Y7901472D01*
X33596782Y7901471D01*
X33666982Y7865702D01*
X33716874Y7840281D01*
X33850000Y7819196D01*
X33983126Y7840281D01*
X34103220Y7901472D01*
X34198528Y7996780D01*
X34259719Y8116874D01*
X34264966Y8150001D01*
X35519196Y8150001D01*
X35519196Y8150000D01*
X35540281Y8016873D01*
X35540282Y8016871D01*
X35601470Y7896783D01*
X35601472Y7896780D01*
X35696780Y7801472D01*
X35816874Y7740281D01*
X35950000Y7719196D01*
X35954114Y7719848D01*
X36014546Y7710280D01*
X36042080Y7682749D01*
X36069674Y7729827D01*
X36090485Y7744031D01*
X36203220Y7801472D01*
X36298528Y7896780D01*
X36359719Y8016874D01*
X36380804Y8150000D01*
X36359719Y8283126D01*
X36298528Y8403220D01*
X36203220Y8498528D01*
X36203217Y8498530D01*
X36083129Y8559718D01*
X36083127Y8559719D01*
X35950000Y8580804D01*
X35816872Y8559719D01*
X35816870Y8559718D01*
X35696782Y8498530D01*
X35601470Y8403218D01*
X35540282Y8283130D01*
X35540281Y8283128D01*
X35519196Y8150001D01*
X34264966Y8150001D01*
X34280804Y8250000D01*
X34280804Y8250001D01*
X34280804Y8257792D01*
X34283557Y8257792D01*
X34291121Y8305626D01*
X34334373Y8348902D01*
X34436042Y8400704D01*
X34531350Y8496012D01*
X34592541Y8616106D01*
X34613626Y8749232D01*
X34592541Y8882358D01*
X34551052Y8963784D01*
X34541481Y9024213D01*
X34569258Y9078730D01*
X34594313Y9096934D01*
X34603220Y9101472D01*
X34698528Y9196780D01*
X34759719Y9316874D01*
X34780804Y9450000D01*
X34772885Y9500000D01*
X41594571Y9500000D01*
X41614244Y9287689D01*
X41634974Y9214833D01*
X41672595Y9082611D01*
X41767634Y8891745D01*
X41896128Y8721593D01*
X41896135Y8721587D01*
X42053692Y8577953D01*
X42053699Y8577947D01*
X42132435Y8529196D01*
X42234981Y8465702D01*
X42433802Y8388679D01*
X42643390Y8349500D01*
X42856610Y8349500D01*
X43066198Y8388679D01*
X43265019Y8465702D01*
X43446302Y8577948D01*
X43603872Y8721593D01*
X43732366Y8891745D01*
X43827405Y9082611D01*
X43885756Y9287690D01*
X43905429Y9500000D01*
X43885756Y9712310D01*
X43827405Y9917389D01*
X43732366Y10108255D01*
X43603872Y10278407D01*
X43549623Y10327861D01*
X43446307Y10422048D01*
X43446300Y10422054D01*
X43265024Y10534295D01*
X43265019Y10534298D01*
X43121962Y10589718D01*
X43066198Y10611321D01*
X43066197Y10611322D01*
X43066195Y10611322D01*
X42856610Y10650500D01*
X42643390Y10650500D01*
X42433804Y10611322D01*
X42234980Y10534298D01*
X42234975Y10534295D01*
X42053699Y10422054D01*
X42053692Y10422048D01*
X41896135Y10278414D01*
X41896131Y10278411D01*
X41896128Y10278407D01*
X41896125Y10278403D01*
X41767635Y10108257D01*
X41767630Y10108248D01*
X41677271Y9926780D01*
X41672595Y9917389D01*
X41672448Y9916873D01*
X41614244Y9712312D01*
X41594571Y9500000D01*
X34772885Y9500000D01*
X34759719Y9583126D01*
X34698528Y9703220D01*
X34698526Y9703222D01*
X34697593Y9705054D01*
X34688021Y9765486D01*
X34697593Y9794946D01*
X34698526Y9796779D01*
X34698528Y9796780D01*
X34759719Y9916874D01*
X34780804Y10050000D01*
X34759719Y10183126D01*
X34698528Y10303220D01*
X34603220Y10398528D01*
X34603217Y10398530D01*
X34483129Y10459718D01*
X34483127Y10459719D01*
X34350000Y10480804D01*
X34216872Y10459719D01*
X34216870Y10459718D01*
X34096782Y10398530D01*
X34001470Y10303218D01*
X33940282Y10183130D01*
X33940281Y10183128D01*
X33927348Y10101472D01*
X33919196Y10050000D01*
X33940281Y9916874D01*
X33960186Y9877809D01*
X34002407Y9794945D01*
X34011978Y9734513D01*
X34002407Y9705055D01*
X33940281Y9583126D01*
X33928422Y9508248D01*
X33919196Y9450000D01*
X33940281Y9316874D01*
X33944534Y9308528D01*
X33981768Y9235451D01*
X33991339Y9175019D01*
X33963561Y9120502D01*
X33938508Y9102299D01*
X33929605Y9097763D01*
X33834292Y9002450D01*
X33773104Y8882362D01*
X33773103Y8882360D01*
X33752018Y8749234D01*
X33752018Y8741441D01*
X33749269Y8741441D01*
X33741685Y8693578D01*
X33698425Y8650320D01*
X33596781Y8598529D01*
X33501470Y8503218D01*
X33440282Y8383130D01*
X33440281Y8383128D01*
X33419196Y8250001D01*
X2093656Y8250001D01*
X2020496Y8323161D01*
X1992719Y8377678D01*
X1991500Y8393165D01*
X1991500Y8960001D01*
X21899196Y8960001D01*
X21899196Y8960000D01*
X21920281Y8826873D01*
X21920282Y8826871D01*
X21973924Y8721593D01*
X21981472Y8706780D01*
X22076780Y8611472D01*
X22076782Y8611471D01*
X22142574Y8577948D01*
X22196874Y8550281D01*
X22330000Y8529196D01*
X22463126Y8550281D01*
X22583220Y8611472D01*
X22678528Y8706780D01*
X22739719Y8826874D01*
X22760804Y8960000D01*
X22739719Y9093126D01*
X22735466Y9101472D01*
X22678529Y9213218D01*
X22678528Y9213220D01*
X22583220Y9308528D01*
X22583217Y9308530D01*
X22463129Y9369718D01*
X22463127Y9369719D01*
X22330000Y9390804D01*
X22196872Y9369719D01*
X22196870Y9369718D01*
X22076782Y9308530D01*
X21981470Y9213218D01*
X21920282Y9093130D01*
X21920281Y9093128D01*
X21899196Y8960001D01*
X1991500Y8960001D01*
X1991500Y9214833D01*
X2010407Y9273024D01*
X2020496Y9284837D01*
X3185660Y10450001D01*
X22959196Y10450001D01*
X22959196Y10450000D01*
X22980281Y10316873D01*
X22980282Y10316871D01*
X23041470Y10196783D01*
X23041472Y10196780D01*
X23136780Y10101472D01*
X23136782Y10101471D01*
X23243934Y10046874D01*
X23256874Y10040281D01*
X23390000Y10019196D01*
X23523126Y10040281D01*
X23643220Y10101472D01*
X23721749Y10180001D01*
X25459196Y10180001D01*
X25459196Y10180000D01*
X25480281Y10046873D01*
X25480282Y10046871D01*
X25541470Y9926783D01*
X25541472Y9926780D01*
X25636780Y9831472D01*
X25756874Y9770281D01*
X25890000Y9749196D01*
X26023126Y9770281D01*
X26143220Y9831472D01*
X26238528Y9926780D01*
X26299719Y10046874D01*
X26316053Y10150001D01*
X26769196Y10150001D01*
X26769196Y10150000D01*
X26790281Y10016873D01*
X26790282Y10016871D01*
X26841234Y9916873D01*
X26851472Y9896780D01*
X26946780Y9801472D01*
X27066874Y9740281D01*
X27200000Y9719196D01*
X27333126Y9740281D01*
X27453220Y9801472D01*
X27548528Y9896780D01*
X27609719Y10016874D01*
X27630804Y10150000D01*
X27609719Y10283126D01*
X27548528Y10403220D01*
X27453220Y10498528D01*
X27453217Y10498530D01*
X27333129Y10559718D01*
X27333127Y10559719D01*
X27200000Y10580804D01*
X27066872Y10559719D01*
X27066870Y10559718D01*
X26946782Y10498530D01*
X26851470Y10403218D01*
X26790282Y10283130D01*
X26790281Y10283128D01*
X26769196Y10150001D01*
X26316053Y10150001D01*
X26320804Y10180000D01*
X26299719Y10313126D01*
X26238528Y10433220D01*
X26143220Y10528528D01*
X26143217Y10528530D01*
X26023129Y10589718D01*
X26023127Y10589719D01*
X25890000Y10610804D01*
X25756872Y10589719D01*
X25756870Y10589718D01*
X25636782Y10528530D01*
X25541470Y10433218D01*
X25480282Y10313130D01*
X25480281Y10313128D01*
X25459196Y10180001D01*
X23721749Y10180001D01*
X23738528Y10196780D01*
X23799719Y10316874D01*
X23820804Y10450000D01*
X23799719Y10583126D01*
X23738528Y10703220D01*
X23643220Y10798528D01*
X23643217Y10798530D01*
X23523129Y10859718D01*
X23523127Y10859719D01*
X23390000Y10880804D01*
X23256872Y10859719D01*
X23256870Y10859718D01*
X23136782Y10798530D01*
X23041470Y10703218D01*
X22980282Y10583130D01*
X22980281Y10583128D01*
X22959196Y10450001D01*
X3185660Y10450001D01*
X5205660Y12470001D01*
X21309196Y12470001D01*
X21309196Y12470000D01*
X21330281Y12336873D01*
X21330282Y12336871D01*
X21391470Y12216783D01*
X21391472Y12216780D01*
X21486780Y12121472D01*
X21606874Y12060281D01*
X21740000Y12039196D01*
X21871358Y12060001D01*
X22959196Y12060001D01*
X22959196Y12060000D01*
X22980281Y11926873D01*
X22980282Y11926871D01*
X23041470Y11806783D01*
X23041472Y11806780D01*
X23136780Y11711472D01*
X23256874Y11650281D01*
X23390000Y11629196D01*
X23523126Y11650281D01*
X23643220Y11711472D01*
X23738528Y11806780D01*
X23799719Y11926874D01*
X23820804Y12060000D01*
X23820759Y12060281D01*
X23811068Y12121472D01*
X23799719Y12193126D01*
X23738528Y12313220D01*
X23643220Y12408528D01*
X23643217Y12408530D01*
X23523129Y12469718D01*
X23523127Y12469719D01*
X23390000Y12490804D01*
X23256872Y12469719D01*
X23256870Y12469718D01*
X23136782Y12408530D01*
X23041470Y12313218D01*
X22980282Y12193130D01*
X22980281Y12193128D01*
X22959196Y12060001D01*
X21871358Y12060001D01*
X21873126Y12060281D01*
X21993220Y12121472D01*
X22088528Y12216780D01*
X22149719Y12336874D01*
X22170804Y12470000D01*
X22149719Y12603126D01*
X22088528Y12723220D01*
X21993220Y12818528D01*
X21993217Y12818530D01*
X21873129Y12879718D01*
X21873127Y12879719D01*
X21740000Y12900804D01*
X21606872Y12879719D01*
X21606870Y12879718D01*
X21486782Y12818530D01*
X21391470Y12723218D01*
X21330282Y12603130D01*
X21330281Y12603128D01*
X21309196Y12470001D01*
X5205660Y12470001D01*
X6205660Y13470001D01*
X30489196Y13470001D01*
X30489196Y13470000D01*
X30510281Y13336873D01*
X30510282Y13336871D01*
X30571470Y13216783D01*
X30571472Y13216780D01*
X30666780Y13121472D01*
X30786874Y13060281D01*
X30920000Y13039196D01*
X31053126Y13060281D01*
X31173220Y13121472D01*
X31268528Y13216780D01*
X31329719Y13336874D01*
X31347636Y13450001D01*
X31819196Y13450001D01*
X31819196Y13450000D01*
X31840281Y13316873D01*
X31840282Y13316871D01*
X31891281Y13216780D01*
X31901472Y13196780D01*
X31996780Y13101472D01*
X32116874Y13040281D01*
X32250000Y13019196D01*
X32383126Y13040281D01*
X32503220Y13101472D01*
X32598528Y13196780D01*
X32659719Y13316874D01*
X32680804Y13450000D01*
X32659719Y13583126D01*
X32649528Y13603126D01*
X32598529Y13703218D01*
X32598528Y13703220D01*
X32503220Y13798528D01*
X32503217Y13798530D01*
X32383129Y13859718D01*
X32383127Y13859719D01*
X32250000Y13880804D01*
X32116872Y13859719D01*
X32116870Y13859718D01*
X31996782Y13798530D01*
X31901470Y13703218D01*
X31840282Y13583130D01*
X31840281Y13583128D01*
X31819196Y13450001D01*
X31347636Y13450001D01*
X31350804Y13470000D01*
X31329719Y13603126D01*
X31268528Y13723220D01*
X31173220Y13818528D01*
X31173217Y13818530D01*
X31053129Y13879718D01*
X31053127Y13879719D01*
X30920000Y13900804D01*
X30786872Y13879719D01*
X30786870Y13879718D01*
X30666782Y13818530D01*
X30571470Y13723218D01*
X30510282Y13603130D01*
X30510281Y13603128D01*
X30489196Y13470001D01*
X6205660Y13470001D01*
X6785660Y14050001D01*
X22959196Y14050001D01*
X22959196Y14050000D01*
X22980281Y13916873D01*
X22980282Y13916871D01*
X23040580Y13798530D01*
X23041472Y13796780D01*
X23136780Y13701472D01*
X23136782Y13701471D01*
X23226351Y13655833D01*
X23256874Y13640281D01*
X23390000Y13619196D01*
X23523126Y13640281D01*
X23643220Y13701472D01*
X23738528Y13796780D01*
X23799719Y13916874D01*
X23820804Y14050000D01*
X23799719Y14183126D01*
X23738528Y14303220D01*
X23711747Y14330001D01*
X25459196Y14330001D01*
X25459196Y14330000D01*
X25480281Y14196873D01*
X25480282Y14196871D01*
X25541470Y14076783D01*
X25541472Y14076780D01*
X25636780Y13981472D01*
X25756874Y13920281D01*
X25890000Y13899196D01*
X26023126Y13920281D01*
X26143220Y13981472D01*
X26238528Y14076780D01*
X26299719Y14196874D01*
X26320804Y14330000D01*
X26299719Y14463126D01*
X26238528Y14583220D01*
X26143220Y14678528D01*
X26143217Y14678530D01*
X26101078Y14700001D01*
X37119196Y14700001D01*
X37119196Y14700000D01*
X37140281Y14566873D01*
X37140282Y14566871D01*
X37201470Y14446783D01*
X37201472Y14446780D01*
X37296780Y14351472D01*
X37416874Y14290281D01*
X37550000Y14269196D01*
X37673778Y14288801D01*
X37734209Y14279230D01*
X37777473Y14235966D01*
X37787045Y14175534D01*
X37759268Y14121017D01*
X37711473Y14073222D01*
X37711470Y14073218D01*
X37650282Y13953130D01*
X37650281Y13953128D01*
X37629196Y13820001D01*
X37629196Y13820000D01*
X37650281Y13686873D01*
X37650282Y13686871D01*
X37703141Y13583130D01*
X37711472Y13566780D01*
X37806780Y13471472D01*
X37926874Y13410281D01*
X38060000Y13389196D01*
X38193126Y13410281D01*
X38313220Y13471472D01*
X38408528Y13566780D01*
X38469719Y13686874D01*
X38490804Y13820000D01*
X38469719Y13953126D01*
X38469717Y13953130D01*
X38468705Y13956246D01*
X38468705Y13959528D01*
X38468500Y13960822D01*
X38468705Y13960855D01*
X38468706Y14017431D01*
X38504670Y14066931D01*
X38547371Y14084619D01*
X38583126Y14090281D01*
X38703220Y14151472D01*
X38798528Y14246780D01*
X38859719Y14366874D01*
X38880804Y14500000D01*
X38859719Y14633126D01*
X38836584Y14678530D01*
X38798529Y14753218D01*
X38798528Y14753220D01*
X38703220Y14848528D01*
X38703217Y14848530D01*
X38583129Y14909718D01*
X38583127Y14909719D01*
X38450000Y14930804D01*
X38316872Y14909719D01*
X38316870Y14909718D01*
X38196782Y14848530D01*
X38196778Y14848527D01*
X38127415Y14779164D01*
X38072898Y14751387D01*
X38012466Y14760959D01*
X37969202Y14804224D01*
X37962209Y14825746D01*
X37962126Y14825718D01*
X37959719Y14833122D01*
X37959719Y14833126D01*
X37898528Y14953220D01*
X37803220Y15048528D01*
X37803217Y15048530D01*
X37683129Y15109718D01*
X37683127Y15109719D01*
X37550000Y15130804D01*
X37416872Y15109719D01*
X37416870Y15109718D01*
X37296782Y15048530D01*
X37201470Y14953218D01*
X37140282Y14833130D01*
X37140281Y14833128D01*
X37119196Y14700001D01*
X26101078Y14700001D01*
X26023129Y14739718D01*
X26023127Y14739719D01*
X25890000Y14760804D01*
X25756872Y14739719D01*
X25756870Y14739718D01*
X25636782Y14678530D01*
X25541470Y14583218D01*
X25480282Y14463130D01*
X25480281Y14463128D01*
X25459196Y14330001D01*
X23711747Y14330001D01*
X23643220Y14398528D01*
X23643217Y14398530D01*
X23523129Y14459718D01*
X23523127Y14459719D01*
X23390000Y14480804D01*
X23256872Y14459719D01*
X23256870Y14459718D01*
X23136782Y14398530D01*
X23041470Y14303218D01*
X22980282Y14183130D01*
X22980281Y14183128D01*
X22959196Y14050001D01*
X6785660Y14050001D01*
X8456155Y15720496D01*
X8510672Y15748273D01*
X8526159Y15749492D01*
X9418992Y15749492D01*
X9418993Y15749492D01*
X9554328Y15776412D01*
X9681811Y15829217D01*
X9796542Y15905878D01*
X9894114Y16003450D01*
X9970775Y16118181D01*
X10023580Y16245664D01*
X10050500Y16380999D01*
X10050500Y18100001D01*
X10269196Y18100001D01*
X10269196Y18100000D01*
X10290281Y17966873D01*
X10290282Y17966871D01*
X10341234Y17866873D01*
X10351472Y17846780D01*
X10446780Y17751472D01*
X10455989Y17746780D01*
X10521875Y17713209D01*
X10565139Y17669945D01*
X10574710Y17609512D01*
X10546932Y17554996D01*
X10521875Y17536791D01*
X10446781Y17498529D01*
X10351470Y17403218D01*
X10290282Y17283130D01*
X10290281Y17283128D01*
X10269196Y17150001D01*
X10269196Y17150000D01*
X10290281Y17016873D01*
X10290282Y17016871D01*
X10350079Y16899513D01*
X10351472Y16896780D01*
X10446780Y16801472D01*
X10566874Y16740281D01*
X10700000Y16719196D01*
X10833126Y16740281D01*
X10953220Y16801472D01*
X11048528Y16896780D01*
X11109719Y17016874D01*
X11130804Y17150000D01*
X11109719Y17283126D01*
X11075644Y17350001D01*
X12869196Y17350001D01*
X12869196Y17350000D01*
X12890281Y17216873D01*
X12890282Y17216871D01*
X12949831Y17100000D01*
X12951472Y17096780D01*
X13046780Y17001472D01*
X13046782Y17001471D01*
X13126693Y16960754D01*
X13166874Y16940281D01*
X13300000Y16919196D01*
X13433126Y16940281D01*
X13553220Y17001472D01*
X13629998Y17078251D01*
X13684513Y17106026D01*
X13744945Y17096455D01*
X13770000Y17078252D01*
X13846780Y17001472D01*
X13846782Y17001471D01*
X13926693Y16960754D01*
X13966874Y16940281D01*
X14100000Y16919196D01*
X14233126Y16940281D01*
X14353220Y17001472D01*
X14448528Y17096780D01*
X14509719Y17216874D01*
X14530804Y17350000D01*
X14528060Y17367322D01*
X14517638Y17433128D01*
X14509719Y17483126D01*
X14501121Y17500001D01*
X20819196Y17500001D01*
X20819196Y17500000D01*
X20840281Y17366873D01*
X20840282Y17366871D01*
X20900090Y17249492D01*
X20901472Y17246780D01*
X20996780Y17151472D01*
X21116874Y17090281D01*
X21224945Y17073165D01*
X21249999Y17069196D01*
X21249999Y17069197D01*
X21250000Y17069196D01*
X21309954Y17078692D01*
X21370386Y17069121D01*
X21413650Y17025856D01*
X21423222Y16965426D01*
X21419196Y16940004D01*
X21419196Y16940001D01*
X21419196Y16940000D01*
X21440281Y16806874D01*
X21497311Y16694946D01*
X21497312Y16694945D01*
X21506883Y16634513D01*
X21497312Y16605055D01*
X21440281Y16493126D01*
X21419196Y16360001D01*
X21419196Y16359997D01*
X21423222Y16334575D01*
X21413650Y16274144D01*
X21370385Y16230880D01*
X21309955Y16221309D01*
X21250002Y16230804D01*
X21250000Y16230804D01*
X21116872Y16209719D01*
X21116870Y16209718D01*
X20996782Y16148530D01*
X20901470Y16053218D01*
X20840282Y15933130D01*
X20840281Y15933128D01*
X20819196Y15800001D01*
X20819196Y15800000D01*
X20840281Y15666873D01*
X20840282Y15666871D01*
X20895831Y15557851D01*
X20901472Y15546780D01*
X20996780Y15451472D01*
X21116874Y15390281D01*
X21250000Y15369196D01*
X21383126Y15390281D01*
X21500333Y15450001D01*
X24169196Y15450001D01*
X24169196Y15450000D01*
X24190281Y15316873D01*
X24190282Y15316871D01*
X24229307Y15240281D01*
X24251472Y15196780D01*
X24346780Y15101472D01*
X24466874Y15040281D01*
X24600000Y15019196D01*
X24733126Y15040281D01*
X24853220Y15101472D01*
X24901749Y15150001D01*
X35419196Y15150001D01*
X35419196Y15150000D01*
X35440281Y15016873D01*
X35440282Y15016871D01*
X35501470Y14896783D01*
X35501472Y14896780D01*
X35596780Y14801472D01*
X35716874Y14740281D01*
X35850000Y14719196D01*
X35983126Y14740281D01*
X36103220Y14801472D01*
X36189124Y14887377D01*
X36243638Y14915153D01*
X36304070Y14905583D01*
X36307733Y14903716D01*
X36440859Y14882631D01*
X36573985Y14903716D01*
X36694079Y14964907D01*
X36789387Y15060215D01*
X36850578Y15180309D01*
X36871663Y15313435D01*
X36871118Y15316873D01*
X36859492Y15390281D01*
X36850578Y15446561D01*
X36789387Y15566655D01*
X36706041Y15650001D01*
X39544196Y15650001D01*
X39544196Y15650000D01*
X39565281Y15516873D01*
X39565282Y15516871D01*
X39626470Y15396783D01*
X39626472Y15396780D01*
X39721780Y15301472D01*
X39841874Y15240281D01*
X39975000Y15219196D01*
X40108126Y15240281D01*
X40228220Y15301472D01*
X40323528Y15396780D01*
X40384719Y15516874D01*
X40405804Y15650000D01*
X40384719Y15783126D01*
X40323528Y15903220D01*
X40228220Y15998528D01*
X40228217Y15998530D01*
X40108129Y16059718D01*
X40108127Y16059719D01*
X39975000Y16080804D01*
X39841872Y16059719D01*
X39841870Y16059718D01*
X39721782Y15998530D01*
X39626470Y15903218D01*
X39565282Y15783130D01*
X39565281Y15783128D01*
X39544196Y15650001D01*
X36706041Y15650001D01*
X36694079Y15661963D01*
X36694076Y15661965D01*
X36573988Y15723153D01*
X36573986Y15723154D01*
X36440859Y15744239D01*
X36307731Y15723154D01*
X36307729Y15723153D01*
X36187641Y15661965D01*
X36187637Y15661962D01*
X36101735Y15576060D01*
X36047218Y15548283D01*
X35986794Y15557851D01*
X35983130Y15559718D01*
X35983126Y15559719D01*
X35850000Y15580804D01*
X35716872Y15559719D01*
X35716870Y15559718D01*
X35596782Y15498530D01*
X35501470Y15403218D01*
X35440282Y15283130D01*
X35440281Y15283128D01*
X35419196Y15150001D01*
X24901749Y15150001D01*
X24948528Y15196780D01*
X25009719Y15316874D01*
X25030804Y15450000D01*
X25009719Y15583126D01*
X24948528Y15703220D01*
X24853220Y15798528D01*
X24853217Y15798530D01*
X24733129Y15859718D01*
X24733127Y15859719D01*
X24600000Y15880804D01*
X24466872Y15859719D01*
X24466870Y15859718D01*
X24346782Y15798530D01*
X24251470Y15703218D01*
X24190282Y15583130D01*
X24190281Y15583128D01*
X24169196Y15450001D01*
X21500333Y15450001D01*
X21503220Y15451472D01*
X21598528Y15546780D01*
X21659719Y15666874D01*
X21680804Y15800000D01*
X21676777Y15825425D01*
X21686348Y15885855D01*
X21729612Y15929120D01*
X21790044Y15938692D01*
X21850000Y15929196D01*
X21983126Y15950281D01*
X22103220Y16011472D01*
X22198528Y16106780D01*
X22259719Y16226874D01*
X22280804Y16360000D01*
X22279715Y16366873D01*
X22276835Y16385055D01*
X22259719Y16493126D01*
X22202687Y16605057D01*
X22193116Y16665486D01*
X22202688Y16694945D01*
X22259719Y16806874D01*
X22280804Y16940000D01*
X22280803Y16940004D01*
X22268629Y17016871D01*
X22259719Y17073126D01*
X22246025Y17100001D01*
X22198529Y17193218D01*
X22198528Y17193220D01*
X22103220Y17288528D01*
X22103217Y17288530D01*
X21983129Y17349718D01*
X21983127Y17349719D01*
X21850000Y17370804D01*
X21849998Y17370804D01*
X21790044Y17361309D01*
X21729612Y17370881D01*
X21686348Y17414146D01*
X21678844Y17461523D01*
X27621332Y17461523D01*
X27621332Y17461522D01*
X27636650Y17371364D01*
X27636653Y17371356D01*
X27655396Y17326105D01*
X27699944Y17259436D01*
X27859378Y17100001D01*
X27859379Y17100001D01*
X29285945Y15673435D01*
X29352614Y15628887D01*
X29397869Y15610142D01*
X29476510Y15594500D01*
X29476512Y15594500D01*
X30973488Y15594500D01*
X30973490Y15594500D01*
X31052131Y15610142D01*
X31097386Y15628887D01*
X31164056Y15673435D01*
X31990621Y16500001D01*
X40194196Y16500001D01*
X40194196Y16500000D01*
X40215281Y16366873D01*
X40215282Y16366871D01*
X40231738Y16334575D01*
X40276472Y16246780D01*
X40371780Y16151472D01*
X40491874Y16090281D01*
X40625000Y16069196D01*
X40758126Y16090281D01*
X40878220Y16151472D01*
X40973528Y16246780D01*
X41034719Y16366874D01*
X41055804Y16500000D01*
X41055804Y16500001D01*
X42669196Y16500001D01*
X42669196Y16500000D01*
X42690281Y16366873D01*
X42690282Y16366871D01*
X42706738Y16334575D01*
X42751472Y16246780D01*
X42846780Y16151472D01*
X42966874Y16090281D01*
X43100000Y16069196D01*
X43233126Y16090281D01*
X43353220Y16151472D01*
X43448528Y16246780D01*
X43509719Y16366874D01*
X43530804Y16500000D01*
X43509719Y16633126D01*
X43448528Y16753220D01*
X43353220Y16848528D01*
X43353217Y16848530D01*
X43233129Y16909718D01*
X43233127Y16909719D01*
X43100000Y16930804D01*
X42966872Y16909719D01*
X42966870Y16909718D01*
X42846782Y16848530D01*
X42751470Y16753218D01*
X42690282Y16633130D01*
X42690281Y16633128D01*
X42669196Y16500001D01*
X41055804Y16500001D01*
X41034719Y16633126D01*
X40973528Y16753220D01*
X40878220Y16848528D01*
X40878217Y16848530D01*
X40758129Y16909718D01*
X40758127Y16909719D01*
X40625000Y16930804D01*
X40491872Y16909719D01*
X40491870Y16909718D01*
X40371782Y16848530D01*
X40276470Y16753218D01*
X40215282Y16633130D01*
X40215281Y16633128D01*
X40194196Y16500001D01*
X31990621Y16500001D01*
X32616765Y17126146D01*
X32654557Y17178164D01*
X32672514Y17213408D01*
X32690260Y17263227D01*
X32689763Y17307359D01*
X32708015Y17365755D01*
X32743815Y17396680D01*
X32753220Y17401472D01*
X32848528Y17496780D01*
X32851266Y17502155D01*
X32894525Y17545421D01*
X32922894Y17554816D01*
X33011931Y17569943D01*
X33057186Y17588688D01*
X33123855Y17633236D01*
X33376565Y17885946D01*
X33421113Y17952615D01*
X33439858Y17997870D01*
X33440282Y18000001D01*
X40194196Y18000001D01*
X40194196Y18000000D01*
X40215281Y17866873D01*
X40215282Y17866871D01*
X40274081Y17751472D01*
X40276472Y17746780D01*
X40371780Y17651472D01*
X40491874Y17590281D01*
X40625000Y17569196D01*
X40758126Y17590281D01*
X40878220Y17651472D01*
X40973528Y17746780D01*
X41034719Y17866874D01*
X41055804Y18000000D01*
X41055804Y18000001D01*
X42669196Y18000001D01*
X42669196Y18000000D01*
X42690281Y17866873D01*
X42690282Y17866871D01*
X42749081Y17751472D01*
X42751472Y17746780D01*
X42846780Y17651472D01*
X42966874Y17590281D01*
X43100000Y17569196D01*
X43233126Y17590281D01*
X43353220Y17651472D01*
X43448528Y17746780D01*
X43509719Y17866874D01*
X43530804Y18000000D01*
X43509719Y18133126D01*
X43448528Y18253220D01*
X43353220Y18348528D01*
X43353217Y18348530D01*
X43233129Y18409718D01*
X43233127Y18409719D01*
X43100000Y18430804D01*
X42966872Y18409719D01*
X42966870Y18409718D01*
X42846782Y18348530D01*
X42751470Y18253218D01*
X42690282Y18133130D01*
X42690281Y18133128D01*
X42669196Y18000001D01*
X41055804Y18000001D01*
X41034719Y18133126D01*
X40973528Y18253220D01*
X40878220Y18348528D01*
X40878217Y18348530D01*
X40758129Y18409718D01*
X40758127Y18409719D01*
X40625000Y18430804D01*
X40491872Y18409719D01*
X40491870Y18409718D01*
X40371782Y18348530D01*
X40276470Y18253218D01*
X40215282Y18133130D01*
X40215281Y18133128D01*
X40194196Y18000001D01*
X33440282Y18000001D01*
X33455500Y18076511D01*
X33455500Y19500001D01*
X40194196Y19500001D01*
X40194196Y19500000D01*
X40215281Y19366873D01*
X40215282Y19366871D01*
X40266234Y19266873D01*
X40276472Y19246780D01*
X40371780Y19151472D01*
X40491874Y19090281D01*
X40625000Y19069196D01*
X40758126Y19090281D01*
X40878220Y19151472D01*
X40973528Y19246780D01*
X41034719Y19366874D01*
X41055804Y19500000D01*
X41055804Y19500001D01*
X42669196Y19500001D01*
X42669196Y19500000D01*
X42690281Y19366873D01*
X42690282Y19366871D01*
X42741234Y19266873D01*
X42751472Y19246780D01*
X42846780Y19151472D01*
X42966874Y19090281D01*
X43100000Y19069196D01*
X43233126Y19090281D01*
X43353220Y19151472D01*
X43448528Y19246780D01*
X43509719Y19366874D01*
X43530804Y19500000D01*
X43509719Y19633126D01*
X43448528Y19753220D01*
X43353220Y19848528D01*
X43353217Y19848530D01*
X43233129Y19909718D01*
X43233127Y19909719D01*
X43100000Y19930804D01*
X42966872Y19909719D01*
X42966870Y19909718D01*
X42846782Y19848530D01*
X42751470Y19753218D01*
X42690282Y19633130D01*
X42690281Y19633128D01*
X42669196Y19500001D01*
X41055804Y19500001D01*
X41034719Y19633126D01*
X40973528Y19753220D01*
X40878220Y19848528D01*
X40878217Y19848530D01*
X40758129Y19909718D01*
X40758127Y19909719D01*
X40625000Y19930804D01*
X40491872Y19909719D01*
X40491870Y19909718D01*
X40371782Y19848530D01*
X40276470Y19753218D01*
X40215282Y19633130D01*
X40215281Y19633128D01*
X40194196Y19500001D01*
X33455500Y19500001D01*
X33455500Y19983221D01*
X33474406Y20041411D01*
X33491946Y20065551D01*
X33509903Y20100794D01*
X33529771Y20161941D01*
X33533850Y20187705D01*
X33543421Y20217160D01*
X33553633Y20237202D01*
X33571833Y20262253D01*
X33587747Y20278167D01*
X33612798Y20296367D01*
X33632841Y20306580D01*
X33662295Y20316150D01*
X33688058Y20320229D01*
X33749205Y20340097D01*
X33784448Y20358054D01*
X33836464Y20395846D01*
X33900054Y20459436D01*
X33944602Y20526105D01*
X33963347Y20571360D01*
X33978666Y20638478D01*
X33976458Y20651471D01*
X33963348Y20728638D01*
X33963347Y20728640D01*
X33963347Y20728642D01*
X33944602Y20773897D01*
X33900054Y20840566D01*
X33360619Y21380001D01*
X35039196Y21380001D01*
X35039196Y21380000D01*
X35060281Y21246873D01*
X35060282Y21246871D01*
X35121470Y21126783D01*
X35121472Y21126780D01*
X35216780Y21031472D01*
X35336874Y20970281D01*
X35470000Y20949196D01*
X35603126Y20970281D01*
X35723220Y21031472D01*
X35818528Y21126780D01*
X35879719Y21246874D01*
X35900804Y21380000D01*
X35879719Y21513126D01*
X35876936Y21518587D01*
X35818529Y21633218D01*
X35818528Y21633220D01*
X35723220Y21728528D01*
X35723217Y21728530D01*
X35622200Y21780001D01*
X39559196Y21780001D01*
X39559196Y21780000D01*
X39580281Y21646873D01*
X39580282Y21646871D01*
X39641470Y21526783D01*
X39641472Y21526780D01*
X39736780Y21431472D01*
X39736782Y21431471D01*
X39840678Y21378533D01*
X39856874Y21370281D01*
X39990000Y21349196D01*
X40123126Y21370281D01*
X40139322Y21378534D01*
X40199752Y21388105D01*
X40254269Y21360329D01*
X40282048Y21305813D01*
X40272478Y21245381D01*
X40272477Y21245379D01*
X40215281Y21133126D01*
X40194196Y21000001D01*
X40194196Y21000000D01*
X40215281Y20866873D01*
X40215282Y20866871D01*
X40250889Y20796989D01*
X40276472Y20746780D01*
X40371780Y20651472D01*
X40491874Y20590281D01*
X40625000Y20569196D01*
X40758126Y20590281D01*
X40878220Y20651472D01*
X40973528Y20746780D01*
X41034719Y20866874D01*
X41055804Y21000000D01*
X41055804Y21000001D01*
X42669196Y21000001D01*
X42669196Y21000000D01*
X42690281Y20866873D01*
X42690282Y20866871D01*
X42725889Y20796989D01*
X42751472Y20746780D01*
X42846780Y20651472D01*
X42966874Y20590281D01*
X43100000Y20569196D01*
X43233126Y20590281D01*
X43353220Y20651472D01*
X43448528Y20746780D01*
X43509719Y20866874D01*
X43530804Y21000000D01*
X43509719Y21133126D01*
X43448528Y21253220D01*
X43353220Y21348528D01*
X43353217Y21348530D01*
X43233129Y21409718D01*
X43233127Y21409719D01*
X43100000Y21430804D01*
X42966872Y21409719D01*
X42966870Y21409718D01*
X42846782Y21348530D01*
X42751470Y21253218D01*
X42690282Y21133130D01*
X42690281Y21133128D01*
X42669196Y21000001D01*
X41055804Y21000001D01*
X41034719Y21133126D01*
X40973528Y21253220D01*
X40878220Y21348528D01*
X40878217Y21348530D01*
X40758129Y21409718D01*
X40758127Y21409719D01*
X40625000Y21430804D01*
X40491872Y21409719D01*
X40491871Y21409719D01*
X40475674Y21401466D01*
X40415242Y21391896D01*
X40360726Y21419676D01*
X40332950Y21474193D01*
X40342522Y21534620D01*
X40399719Y21646874D01*
X40420804Y21780000D01*
X40417869Y21798528D01*
X40412599Y21831802D01*
X40399719Y21913126D01*
X40338528Y22033220D01*
X40243220Y22128528D01*
X40243217Y22128530D01*
X40123129Y22189718D01*
X40123127Y22189719D01*
X39990000Y22210804D01*
X39856872Y22189719D01*
X39856870Y22189718D01*
X39736782Y22128530D01*
X39641470Y22033218D01*
X39580282Y21913130D01*
X39580281Y21913128D01*
X39559196Y21780001D01*
X35622200Y21780001D01*
X35603129Y21789718D01*
X35603127Y21789719D01*
X35470000Y21810804D01*
X35336872Y21789719D01*
X35336870Y21789718D01*
X35216782Y21728530D01*
X35121470Y21633218D01*
X35060282Y21513130D01*
X35060281Y21513128D01*
X35039196Y21380001D01*
X33360619Y21380001D01*
X32658199Y22082421D01*
X32658195Y22082424D01*
X32658194Y22082425D01*
X32637297Y22097607D01*
X32606181Y22120214D01*
X32606176Y22120217D01*
X32606174Y22120218D01*
X32570945Y22138167D01*
X32570935Y22138172D01*
X32521122Y22155916D01*
X32521121Y22155916D01*
X32499784Y22155677D01*
X32441385Y22173932D01*
X32410466Y22209726D01*
X32388311Y22253208D01*
X32388310Y22253210D01*
X32293002Y22348518D01*
X32292999Y22348520D01*
X32172911Y22409708D01*
X32172909Y22409709D01*
X32039782Y22430794D01*
X31906654Y22409709D01*
X31906652Y22409708D01*
X31786564Y22348520D01*
X31691252Y22253208D01*
X31630064Y22133120D01*
X31630063Y22133118D01*
X31608978Y21999991D01*
X31608978Y21999990D01*
X31630063Y21866863D01*
X31630064Y21866861D01*
X31694791Y21739828D01*
X31693052Y21738943D01*
X31708809Y21690425D01*
X31689893Y21632237D01*
X31679813Y21620437D01*
X30426395Y20367017D01*
X30426390Y20367011D01*
X30388601Y20314999D01*
X30370647Y20279760D01*
X30352902Y20229944D01*
X30352902Y20229943D01*
X30353075Y20214467D01*
X30334819Y20156068D01*
X30299028Y20125151D01*
X30246781Y20098529D01*
X30151470Y20003218D01*
X30090282Y19883130D01*
X30090281Y19883128D01*
X30069196Y19750001D01*
X30069196Y19750000D01*
X30090281Y19616873D01*
X30090282Y19616871D01*
X30128900Y19541079D01*
X30138472Y19480647D01*
X30130187Y19456527D01*
X30131015Y19456184D01*
X30110143Y19405793D01*
X30110141Y19405788D01*
X30094500Y19327153D01*
X30094500Y19176128D01*
X30075593Y19117937D01*
X30065504Y19106124D01*
X29293876Y18334496D01*
X29239359Y18306719D01*
X29223872Y18305500D01*
X28861791Y18305500D01*
X28840871Y18308813D01*
X28840822Y18308500D01*
X28700000Y18330804D01*
X28559178Y18308500D01*
X28559128Y18308813D01*
X28538209Y18305500D01*
X28476507Y18305500D01*
X28397872Y18289859D01*
X28397871Y18289859D01*
X28397869Y18289858D01*
X28352614Y18271113D01*
X28352612Y18271112D01*
X28285948Y18226568D01*
X27699942Y17640562D01*
X27655395Y17573894D01*
X27636651Y17528640D01*
X27621332Y17461523D01*
X21678844Y17461523D01*
X21676777Y17474577D01*
X21680804Y17500000D01*
X21659719Y17633126D01*
X21598528Y17753220D01*
X21503220Y17848528D01*
X21503217Y17848530D01*
X21383129Y17909718D01*
X21383127Y17909719D01*
X21250000Y17930804D01*
X21116872Y17909719D01*
X21116870Y17909718D01*
X20996782Y17848530D01*
X20901470Y17753218D01*
X20840282Y17633130D01*
X20840281Y17633128D01*
X20819196Y17500001D01*
X14501121Y17500001D01*
X14448528Y17603220D01*
X14353220Y17698528D01*
X14353217Y17698530D01*
X14233129Y17759718D01*
X14233127Y17759719D01*
X14100000Y17780804D01*
X13966872Y17759719D01*
X13966870Y17759718D01*
X13846782Y17698530D01*
X13846780Y17698529D01*
X13846780Y17698528D01*
X13770001Y17621750D01*
X13715487Y17593974D01*
X13655055Y17603545D01*
X13629999Y17621749D01*
X13553220Y17698528D01*
X13553217Y17698530D01*
X13433129Y17759718D01*
X13433127Y17759719D01*
X13300000Y17780804D01*
X13166872Y17759719D01*
X13166870Y17759718D01*
X13046782Y17698530D01*
X12951470Y17603218D01*
X12890282Y17483130D01*
X12890281Y17483128D01*
X12869196Y17350001D01*
X11075644Y17350001D01*
X11048528Y17403220D01*
X10953220Y17498528D01*
X10878123Y17536792D01*
X10834860Y17580055D01*
X10825289Y17640487D01*
X10853066Y17695004D01*
X10878121Y17713208D01*
X10953220Y17751472D01*
X11048528Y17846780D01*
X11101122Y17950001D01*
X25869196Y17950001D01*
X25869196Y17950000D01*
X25890281Y17816873D01*
X25890282Y17816871D01*
X25950580Y17698530D01*
X25951472Y17696780D01*
X26046780Y17601472D01*
X26166874Y17540281D01*
X26300000Y17519196D01*
X26433126Y17540281D01*
X26553220Y17601472D01*
X26648528Y17696780D01*
X26709719Y17816874D01*
X26730804Y17950000D01*
X26709719Y18083126D01*
X26648528Y18203220D01*
X26553220Y18298528D01*
X26553217Y18298530D01*
X26433129Y18359718D01*
X26433127Y18359719D01*
X26300000Y18380804D01*
X26166872Y18359719D01*
X26166870Y18359718D01*
X26046782Y18298530D01*
X25951470Y18203218D01*
X25890282Y18083130D01*
X25890281Y18083128D01*
X25869196Y17950001D01*
X11101122Y17950001D01*
X11109719Y17966874D01*
X11130804Y18100000D01*
X11109719Y18233126D01*
X11048528Y18353220D01*
X10953220Y18448528D01*
X10953217Y18448530D01*
X10833129Y18509718D01*
X10833127Y18509719D01*
X10700000Y18530804D01*
X10566872Y18509719D01*
X10566870Y18509718D01*
X10446782Y18448530D01*
X10351470Y18353218D01*
X10290282Y18233130D01*
X10290281Y18233128D01*
X10269196Y18100001D01*
X10050500Y18100001D01*
X10050500Y19400001D01*
X25719196Y19400001D01*
X25719196Y19400000D01*
X25740281Y19266873D01*
X25740282Y19266871D01*
X25801470Y19146783D01*
X25801472Y19146780D01*
X25896780Y19051472D01*
X26016874Y18990281D01*
X26150000Y18969196D01*
X26283126Y18990281D01*
X26403220Y19051472D01*
X26498528Y19146780D01*
X26559719Y19266874D01*
X26580804Y19400000D01*
X26579886Y19405793D01*
X26576835Y19425055D01*
X26559719Y19533126D01*
X26498528Y19653220D01*
X26403220Y19748528D01*
X26403217Y19748530D01*
X26283129Y19809718D01*
X26283127Y19809719D01*
X26150000Y19830804D01*
X26016872Y19809719D01*
X26016870Y19809718D01*
X25896782Y19748530D01*
X25801470Y19653218D01*
X25740282Y19533130D01*
X25740281Y19533128D01*
X25719196Y19400001D01*
X10050500Y19400001D01*
X10050500Y19968993D01*
X10023580Y20104328D01*
X10004662Y20150001D01*
X19219196Y20150001D01*
X19219196Y20150000D01*
X19240281Y20016873D01*
X19240282Y20016871D01*
X19301470Y19896783D01*
X19301472Y19896780D01*
X19396780Y19801472D01*
X19516874Y19740281D01*
X19650000Y19719196D01*
X19783126Y19740281D01*
X19903220Y19801472D01*
X19998528Y19896780D01*
X20059719Y20016874D01*
X20080804Y20150000D01*
X20059719Y20283126D01*
X19998528Y20403220D01*
X19903220Y20498528D01*
X19903217Y20498530D01*
X19783129Y20559718D01*
X19783127Y20559719D01*
X19650000Y20580804D01*
X19516872Y20559719D01*
X19516870Y20559718D01*
X19396782Y20498530D01*
X19301470Y20403218D01*
X19240282Y20283130D01*
X19240281Y20283128D01*
X19219196Y20150001D01*
X10004662Y20150001D01*
X9999716Y20161941D01*
X9970777Y20231807D01*
X9970771Y20231818D01*
X9894114Y20346542D01*
X9796541Y20444115D01*
X9681817Y20520772D01*
X9681806Y20520778D01*
X9554328Y20573580D01*
X9418995Y20600500D01*
X9418993Y20600500D01*
X9281007Y20600500D01*
X9281004Y20600500D01*
X9145672Y20573580D01*
X9145670Y20573580D01*
X9018193Y20520778D01*
X9018182Y20520772D01*
X8903458Y20444115D01*
X8805885Y20346542D01*
X8729228Y20231818D01*
X8729222Y20231807D01*
X8676420Y20104330D01*
X8676420Y20104328D01*
X8649500Y19968996D01*
X8649500Y17249492D01*
X8630593Y17191301D01*
X8581093Y17155337D01*
X8550500Y17150492D01*
X8273038Y17150492D01*
X8214847Y17169399D01*
X8178883Y17218899D01*
X8175257Y17264980D01*
X8178132Y17283128D01*
X8180804Y17300000D01*
X8159719Y17433126D01*
X8098528Y17553220D01*
X8003220Y17648528D01*
X8003217Y17648530D01*
X7883129Y17709718D01*
X7883127Y17709719D01*
X7750000Y17730804D01*
X7616872Y17709719D01*
X7616870Y17709718D01*
X7496782Y17648530D01*
X7401470Y17553218D01*
X7340282Y17433130D01*
X7340281Y17433128D01*
X7319196Y17300001D01*
X7319196Y17300000D01*
X7340281Y17166873D01*
X7340282Y17166871D01*
X7401454Y17046815D01*
X7401472Y17046780D01*
X7496780Y16951472D01*
X7513847Y16942776D01*
X7557111Y16899513D01*
X7566683Y16839081D01*
X7538906Y16784564D01*
X7538906Y16784563D01*
X5416546Y14662203D01*
X5362029Y14634426D01*
X5301597Y14643997D01*
X5258332Y14687262D01*
X5248761Y14747694D01*
X5260803Y14781703D01*
X5312644Y14871492D01*
X5372762Y15056518D01*
X5393098Y15250000D01*
X5372762Y15443482D01*
X5312644Y15628508D01*
X5312640Y15628514D01*
X5312639Y15628518D01*
X5242793Y15749493D01*
X5215370Y15796992D01*
X5135357Y15885855D01*
X5085196Y15941565D01*
X5085196Y15941566D01*
X5073201Y15950281D01*
X4927799Y16055922D01*
X4927795Y16055924D01*
X4927788Y16055928D01*
X4750077Y16135049D01*
X4750072Y16135051D01*
X4750071Y16135051D01*
X4750068Y16135052D01*
X4750067Y16135052D01*
X4713872Y16142746D01*
X4559774Y16175500D01*
X4365226Y16175500D01*
X4252179Y16151471D01*
X4174932Y16135052D01*
X4174922Y16135049D01*
X3997211Y16055928D01*
X3997204Y16055924D01*
X3839803Y15941566D01*
X3839803Y15941565D01*
X3709632Y15796995D01*
X3709628Y15796989D01*
X3612360Y15628518D01*
X3612358Y15628513D01*
X3552238Y15443484D01*
X3531902Y15250000D01*
X3552238Y15056517D01*
X3565119Y15016874D01*
X3612356Y14871492D01*
X3612357Y14871490D01*
X3612358Y14871488D01*
X3612360Y14871483D01*
X3676559Y14760289D01*
X3709630Y14703008D01*
X3723808Y14687262D01*
X3839803Y14558436D01*
X3839803Y14558435D01*
X3839807Y14558433D01*
X3839808Y14558431D01*
X3997201Y14444078D01*
X3997206Y14444076D01*
X3997211Y14444073D01*
X4170612Y14366871D01*
X4174929Y14364949D01*
X4365226Y14324500D01*
X4365229Y14324500D01*
X4559771Y14324500D01*
X4559774Y14324500D01*
X4750071Y14364949D01*
X4927633Y14444005D01*
X4988483Y14450400D01*
X5041471Y14419807D01*
X5066357Y14363911D01*
X5053635Y14304063D01*
X5037903Y14283559D01*
X746883Y9992538D01*
X670223Y9877807D01*
X617420Y9750328D01*
X617420Y9750326D01*
X595531Y9640281D01*
X590500Y9614990D01*
X590500Y7993004D01*
X617420Y7857673D01*
X617420Y7857671D01*
X670223Y7730192D01*
X670224Y7730190D01*
X670225Y7730189D01*
X746886Y7615457D01*
X3587954Y4774389D01*
X3615730Y4719874D01*
X3606159Y4659442D01*
X3562894Y4616177D01*
X3502462Y4606606D01*
X3480064Y4612923D01*
X3394424Y4648396D01*
X3394423Y4648397D01*
X3394419Y4648398D01*
X3141116Y4716270D01*
X3141111Y4716271D01*
X3141110Y4716271D01*
X2881120Y4750500D01*
X2618880Y4750500D01*
X2618879Y4750500D01*
X2358889Y4716271D01*
X2358886Y4716271D01*
X2358884Y4716270D01*
X2173464Y4666588D01*
X2105588Y4648400D01*
X2105575Y4648396D01*
X1863310Y4548047D01*
X1636197Y4416925D01*
X1428152Y4257285D01*
X1242711Y4071844D01*
X1219037Y4040991D01*
X1168613Y4006336D01*
X1107448Y4007938D01*
X1070494Y4031254D01*
X1003220Y4098528D01*
X1003217Y4098530D01*
X883129Y4159718D01*
X883127Y4159719D01*
X750000Y4180804D01*
X616872Y4159719D01*
X616870Y4159718D01*
X496782Y4098530D01*
X496780Y4098529D01*
X496780Y4098528D01*
X494501Y4096250D01*
X491632Y4094788D01*
X490475Y4093947D01*
X490341Y4094131D01*
X439987Y4068474D01*
X379555Y4078045D01*
X336290Y4121310D01*
X325500Y4166255D01*
X325500Y14328845D01*
X612000Y14328845D01*
X612000Y14171156D01*
X629214Y14084619D01*
X642578Y14017431D01*
X642763Y14016504D01*
X642763Y14016502D01*
X703103Y13870826D01*
X703109Y13870815D01*
X746252Y13806248D01*
X790711Y13739711D01*
X902211Y13628211D01*
X980376Y13575983D01*
X1033314Y13540610D01*
X1033325Y13540604D01*
X1087138Y13518315D01*
X1179003Y13480263D01*
X1333658Y13449500D01*
X1333659Y13449500D01*
X2191341Y13449500D01*
X2191342Y13449500D01*
X2345997Y13480263D01*
X2491679Y13540606D01*
X2622789Y13628211D01*
X2734289Y13739711D01*
X2821894Y13870821D01*
X2882237Y14016503D01*
X2913000Y14171158D01*
X2913000Y14328842D01*
X2882237Y14483497D01*
X2851197Y14558435D01*
X2821896Y14629175D01*
X2821890Y14629186D01*
X2761746Y14719196D01*
X2734289Y14760289D01*
X2622789Y14871789D01*
X2566023Y14909719D01*
X2491685Y14959391D01*
X2491674Y14959397D01*
X2345997Y15019737D01*
X2191344Y15050500D01*
X2191342Y15050500D01*
X1333658Y15050500D01*
X1333655Y15050500D01*
X1179003Y15019737D01*
X1179001Y15019737D01*
X1033325Y14959397D01*
X1033314Y14959391D01*
X902211Y14871789D01*
X902207Y14871786D01*
X790714Y14760293D01*
X790711Y14760289D01*
X703109Y14629186D01*
X703103Y14629175D01*
X642763Y14483499D01*
X642763Y14483497D01*
X612000Y14328845D01*
X325500Y14328845D01*
X325500Y18805062D01*
X5514135Y18805062D01*
X5514135Y18805061D01*
X5535220Y18671934D01*
X5535221Y18671932D01*
X5596409Y18551844D01*
X5596411Y18551841D01*
X5691719Y18456533D01*
X5691721Y18456532D01*
X5811806Y18395345D01*
X5811808Y18395345D01*
X5811813Y18395342D01*
X5856042Y18388337D01*
X5910559Y18360560D01*
X5938336Y18306044D01*
X5945342Y18261812D01*
X5945343Y18261810D01*
X5985433Y18183130D01*
X6006533Y18141719D01*
X6101841Y18046411D01*
X6221935Y17985220D01*
X6330006Y17968104D01*
X6355060Y17964135D01*
X6355060Y17964136D01*
X6355061Y17964135D01*
X6480652Y17984027D01*
X6541083Y17974456D01*
X6584347Y17931191D01*
X6590267Y17916899D01*
X6641235Y17816871D01*
X6651472Y17796780D01*
X6746780Y17701472D01*
X6746782Y17701471D01*
X6866322Y17640562D01*
X6866874Y17640281D01*
X7000000Y17619196D01*
X7133126Y17640281D01*
X7253220Y17701472D01*
X7348528Y17796780D01*
X7409719Y17916874D01*
X7430804Y18050000D01*
X7409719Y18183126D01*
X7348528Y18303220D01*
X7253220Y18398528D01*
X7253217Y18398530D01*
X7133129Y18459718D01*
X7133127Y18459719D01*
X7000000Y18480804D01*
X6999999Y18480804D01*
X6874409Y18460913D01*
X6813977Y18470485D01*
X6770712Y18513749D01*
X6764794Y18528038D01*
X6703590Y18648157D01*
X6703589Y18648159D01*
X6608281Y18743467D01*
X6608278Y18743469D01*
X6488190Y18804657D01*
X6488188Y18804658D01*
X6443956Y18811664D01*
X6389439Y18839442D01*
X6361663Y18893958D01*
X6354658Y18938187D01*
X6354655Y18938192D01*
X6354655Y18938194D01*
X6293468Y19058279D01*
X6293467Y19058281D01*
X6198159Y19153589D01*
X6198156Y19153591D01*
X6078068Y19214779D01*
X6078066Y19214780D01*
X5944939Y19235865D01*
X5811811Y19214780D01*
X5811809Y19214779D01*
X5691721Y19153591D01*
X5596409Y19058279D01*
X5535221Y18938191D01*
X5535220Y18938189D01*
X5514135Y18805062D01*
X325500Y18805062D01*
X325500Y20250000D01*
X3531902Y20250000D01*
X3551288Y20065551D01*
X3552238Y20056518D01*
X3612356Y19871492D01*
X3612357Y19871490D01*
X3612358Y19871488D01*
X3612360Y19871483D01*
X3680640Y19753220D01*
X3709630Y19703008D01*
X3709632Y19703006D01*
X3839803Y19558436D01*
X3839803Y19558435D01*
X3839807Y19558433D01*
X3839808Y19558431D01*
X3997201Y19444078D01*
X3997206Y19444076D01*
X3997211Y19444073D01*
X4170612Y19366871D01*
X4174929Y19364949D01*
X4365226Y19324500D01*
X4365229Y19324500D01*
X4559771Y19324500D01*
X4559774Y19324500D01*
X4750071Y19364949D01*
X4927799Y19444078D01*
X5085192Y19558431D01*
X5215370Y19703008D01*
X5312644Y19871492D01*
X5372762Y20056518D01*
X5393098Y20250000D01*
X5372762Y20443482D01*
X5312644Y20628508D01*
X5312640Y20628514D01*
X5312639Y20628518D01*
X5248441Y20739711D01*
X5215370Y20796992D01*
X5085196Y20941565D01*
X5085196Y20941566D01*
X5045672Y20970282D01*
X4927799Y21055922D01*
X4927795Y21055924D01*
X4927788Y21055928D01*
X4750077Y21135049D01*
X4750072Y21135051D01*
X4750071Y21135051D01*
X4750068Y21135052D01*
X4750067Y21135052D01*
X4713872Y21142746D01*
X4559774Y21175500D01*
X4365226Y21175500D01*
X4243882Y21149708D01*
X4174932Y21135052D01*
X4174922Y21135049D01*
X3997211Y21055928D01*
X3997204Y21055924D01*
X3997201Y21055923D01*
X3997201Y21055922D01*
X3975673Y21040281D01*
X3839803Y20941566D01*
X3839803Y20941565D01*
X3709632Y20796995D01*
X3709628Y20796989D01*
X3612360Y20628518D01*
X3612358Y20628513D01*
X3612356Y20628510D01*
X3612356Y20628508D01*
X3596856Y20580804D01*
X3552238Y20443484D01*
X3531902Y20250000D01*
X325500Y20250000D01*
X325500Y21328845D01*
X612000Y21328845D01*
X612000Y21171156D01*
X625862Y21101471D01*
X642227Y21019196D01*
X642763Y21016504D01*
X642763Y21016502D01*
X703103Y20870826D01*
X703109Y20870815D01*
X752435Y20796995D01*
X790711Y20739711D01*
X902211Y20628211D01*
X973161Y20580804D01*
X1033314Y20540610D01*
X1033325Y20540604D01*
X1081190Y20520778D01*
X1179003Y20480263D01*
X1333658Y20449500D01*
X1333659Y20449500D01*
X2191341Y20449500D01*
X2191342Y20449500D01*
X2345997Y20480263D01*
X2491679Y20540606D01*
X2622789Y20628211D01*
X2734289Y20739711D01*
X2821894Y20870821D01*
X2882237Y21016503D01*
X2913000Y21171158D01*
X2913000Y21328842D01*
X2882237Y21483497D01*
X2859859Y21537522D01*
X2821896Y21629175D01*
X2821890Y21629186D01*
X2773589Y21701472D01*
X2734289Y21760289D01*
X2622789Y21871789D01*
X2555315Y21916874D01*
X2505738Y21950001D01*
X18219196Y21950001D01*
X18219196Y21950000D01*
X18240281Y21816873D01*
X18240282Y21816871D01*
X18301470Y21696783D01*
X18301472Y21696780D01*
X18396780Y21601472D01*
X18516874Y21540281D01*
X18650000Y21519196D01*
X18706582Y21528158D01*
X18767014Y21518587D01*
X18810278Y21475323D01*
X18819850Y21445865D01*
X18840281Y21316873D01*
X18840282Y21316871D01*
X18901470Y21196783D01*
X18901472Y21196780D01*
X18996780Y21101472D01*
X19116874Y21040281D01*
X19250000Y21019196D01*
X19383126Y21040281D01*
X19503220Y21101472D01*
X19598528Y21196780D01*
X19659719Y21316874D01*
X19680804Y21450000D01*
X19680804Y21450001D01*
X24119196Y21450001D01*
X24119196Y21450000D01*
X24140281Y21316873D01*
X24140282Y21316871D01*
X24201470Y21196783D01*
X24201472Y21196780D01*
X24296780Y21101472D01*
X24416874Y21040281D01*
X24550000Y21019196D01*
X24683126Y21040281D01*
X24803220Y21101472D01*
X24898528Y21196780D01*
X24959719Y21316874D01*
X24980804Y21450000D01*
X24959719Y21583126D01*
X24898528Y21703220D01*
X24803220Y21798528D01*
X24803217Y21798530D01*
X24683129Y21859718D01*
X24683127Y21859719D01*
X24550000Y21880804D01*
X24416872Y21859719D01*
X24416870Y21859718D01*
X24296782Y21798530D01*
X24201470Y21703218D01*
X24140282Y21583130D01*
X24140281Y21583128D01*
X24119196Y21450001D01*
X19680804Y21450001D01*
X19659719Y21583126D01*
X19598528Y21703220D01*
X19503220Y21798528D01*
X19503217Y21798530D01*
X19383129Y21859718D01*
X19383127Y21859719D01*
X19250000Y21880804D01*
X19249998Y21880804D01*
X19193415Y21871843D01*
X19132983Y21881415D01*
X19089719Y21924680D01*
X19080149Y21954135D01*
X19072885Y22000001D01*
X20119196Y22000001D01*
X20119196Y22000000D01*
X20140281Y21866873D01*
X20140282Y21866871D01*
X20201470Y21746783D01*
X20201472Y21746780D01*
X20296780Y21651472D01*
X20416874Y21590281D01*
X20550000Y21569196D01*
X20683126Y21590281D01*
X20803220Y21651472D01*
X20898528Y21746780D01*
X20924530Y21797813D01*
X20967793Y21841075D01*
X21028225Y21850646D01*
X21082741Y21822869D01*
X21100945Y21797813D01*
X21101472Y21796780D01*
X21196780Y21701472D01*
X21196782Y21701471D01*
X21303934Y21646874D01*
X21316874Y21640281D01*
X21450000Y21619196D01*
X21583126Y21640281D01*
X21703220Y21701472D01*
X21798528Y21796780D01*
X21859719Y21916874D01*
X21880804Y22050000D01*
X21877668Y22069797D01*
X21874236Y22091471D01*
X21859719Y22183126D01*
X21798528Y22303220D01*
X21703220Y22398528D01*
X21703217Y22398530D01*
X21634365Y22433612D01*
X25395782Y22433612D01*
X25395782Y22433611D01*
X25416867Y22300484D01*
X25416868Y22300482D01*
X25476662Y22183130D01*
X25478058Y22180391D01*
X25573366Y22085083D01*
X25693460Y22023892D01*
X25767068Y22012234D01*
X25821584Y21984457D01*
X25849362Y21929941D01*
X25864368Y21835199D01*
X25864369Y21835197D01*
X25913413Y21738943D01*
X25925559Y21715106D01*
X26020867Y21619798D01*
X26140961Y21558607D01*
X26274087Y21537522D01*
X26407213Y21558607D01*
X26527307Y21619798D01*
X26622615Y21715106D01*
X26683806Y21835200D01*
X26695487Y21908957D01*
X26723264Y21963472D01*
X26777776Y21991249D01*
X26887375Y22008607D01*
X27007469Y22069798D01*
X27102777Y22165106D01*
X27163968Y22285200D01*
X27177164Y22368518D01*
X27204941Y22423034D01*
X27238242Y22440001D01*
X33749196Y22440001D01*
X33749196Y22440000D01*
X33770281Y22306873D01*
X33770282Y22306871D01*
X33829975Y22189718D01*
X33831472Y22186780D01*
X33926780Y22091472D01*
X34046874Y22030281D01*
X34180000Y22009196D01*
X34313126Y22030281D01*
X34433220Y22091472D01*
X34528528Y22186780D01*
X34589719Y22306874D01*
X34594966Y22340001D01*
X36729196Y22340001D01*
X36729196Y22340000D01*
X36750281Y22206873D01*
X36750282Y22206871D01*
X36811470Y22086783D01*
X36811472Y22086780D01*
X36906780Y21991472D01*
X37026874Y21930281D01*
X37160000Y21909196D01*
X37293126Y21930281D01*
X37413220Y21991472D01*
X37508528Y22086780D01*
X37569719Y22206874D01*
X37590804Y22340000D01*
X37569719Y22473126D01*
X37508528Y22593220D01*
X37413220Y22688528D01*
X37413217Y22688530D01*
X37293129Y22749718D01*
X37293127Y22749719D01*
X37160000Y22770804D01*
X37026872Y22749719D01*
X37026870Y22749718D01*
X36906782Y22688530D01*
X36811470Y22593218D01*
X36750282Y22473130D01*
X36750281Y22473128D01*
X36729196Y22340001D01*
X34594966Y22340001D01*
X34610804Y22440000D01*
X34589719Y22573126D01*
X34528528Y22693220D01*
X34433220Y22788528D01*
X34433217Y22788530D01*
X34313129Y22849718D01*
X34313127Y22849719D01*
X34180000Y22870804D01*
X34046872Y22849719D01*
X34046870Y22849718D01*
X33926782Y22788530D01*
X33831470Y22693218D01*
X33770282Y22573130D01*
X33770281Y22573128D01*
X33749196Y22440001D01*
X27238242Y22440001D01*
X27259458Y22450811D01*
X27274945Y22452030D01*
X27275591Y22452030D01*
X27408717Y22473115D01*
X27528811Y22534306D01*
X27624119Y22629614D01*
X27685310Y22749708D01*
X27706395Y22882834D01*
X27687838Y23000001D01*
X38079196Y23000001D01*
X38079196Y23000000D01*
X38100281Y22866873D01*
X38100282Y22866871D01*
X38161470Y22746783D01*
X38161472Y22746780D01*
X38256780Y22651472D01*
X38376874Y22590281D01*
X38510000Y22569196D01*
X38643126Y22590281D01*
X38763220Y22651472D01*
X38858528Y22746780D01*
X38919719Y22866874D01*
X38940804Y23000000D01*
X38938969Y23011583D01*
X38932885Y23050000D01*
X38919719Y23133126D01*
X38858528Y23253220D01*
X38763220Y23348528D01*
X38763217Y23348530D01*
X38643129Y23409718D01*
X38643127Y23409719D01*
X38510000Y23430804D01*
X38376872Y23409719D01*
X38376870Y23409718D01*
X38256782Y23348530D01*
X38161470Y23253218D01*
X38100282Y23133130D01*
X38100281Y23133128D01*
X38079196Y23000001D01*
X27687838Y23000001D01*
X27685310Y23015960D01*
X27624119Y23136054D01*
X27528811Y23231362D01*
X27528808Y23231364D01*
X27408720Y23292552D01*
X27408718Y23292553D01*
X27275591Y23313638D01*
X27142463Y23292553D01*
X27142461Y23292552D01*
X27022373Y23231364D01*
X26927061Y23136052D01*
X26865873Y23015964D01*
X26865872Y23015962D01*
X26852676Y22932643D01*
X26824899Y22878126D01*
X26770382Y22850349D01*
X26754895Y22849130D01*
X26754248Y22849130D01*
X26621121Y22828045D01*
X26621119Y22828044D01*
X26501031Y22766856D01*
X26405721Y22671546D01*
X26382520Y22626012D01*
X26339255Y22582749D01*
X26278822Y22573178D01*
X26224306Y22600957D01*
X26206103Y22626011D01*
X26175114Y22686831D01*
X26079806Y22782139D01*
X26079803Y22782141D01*
X25959715Y22843329D01*
X25959713Y22843330D01*
X25826586Y22864415D01*
X25693458Y22843330D01*
X25693456Y22843329D01*
X25573368Y22782141D01*
X25478056Y22686829D01*
X25416868Y22566741D01*
X25416867Y22566739D01*
X25395782Y22433612D01*
X21634365Y22433612D01*
X21579061Y22461791D01*
X21535796Y22505055D01*
X21526225Y22565487D01*
X21554003Y22620004D01*
X21579061Y22638209D01*
X21652963Y22675866D01*
X21703220Y22701472D01*
X21798528Y22796780D01*
X21840143Y22878454D01*
X22081801Y22878454D01*
X22081801Y22878453D01*
X22102886Y22745326D01*
X22102887Y22745324D01*
X22163679Y22626014D01*
X22164077Y22625233D01*
X22259385Y22529925D01*
X22379479Y22468734D01*
X22512605Y22447649D01*
X22645731Y22468734D01*
X22765825Y22529925D01*
X22861133Y22625233D01*
X22922324Y22745327D01*
X22943409Y22878453D01*
X22922324Y23011579D01*
X22861133Y23131673D01*
X22765825Y23226981D01*
X22765822Y23226983D01*
X22645734Y23288171D01*
X22645732Y23288172D01*
X22512605Y23309257D01*
X22379477Y23288172D01*
X22379475Y23288171D01*
X22259387Y23226983D01*
X22164075Y23131671D01*
X22102887Y23011583D01*
X22102886Y23011581D01*
X22081801Y22878454D01*
X21840143Y22878454D01*
X21859719Y22916874D01*
X21880804Y23050000D01*
X21859719Y23183126D01*
X21835140Y23231364D01*
X21798529Y23303218D01*
X21798528Y23303220D01*
X21703220Y23398528D01*
X21703217Y23398530D01*
X21583129Y23459718D01*
X21583127Y23459719D01*
X21450000Y23480804D01*
X21316872Y23459719D01*
X21316870Y23459718D01*
X21196782Y23398530D01*
X21101470Y23303218D01*
X21040282Y23183130D01*
X21040281Y23183128D01*
X21019196Y23050001D01*
X21019196Y23050000D01*
X21040281Y22916873D01*
X21040282Y22916871D01*
X21085542Y22828044D01*
X21101472Y22796780D01*
X21196780Y22701472D01*
X21245940Y22676424D01*
X21320939Y22638209D01*
X21364203Y22594944D01*
X21373774Y22534512D01*
X21345996Y22479996D01*
X21320939Y22461791D01*
X21196781Y22398529D01*
X21101472Y22303220D01*
X21075470Y22252189D01*
X21032204Y22208926D01*
X20971772Y22199355D01*
X20917256Y22227134D01*
X20899053Y22252190D01*
X20898528Y22253220D01*
X20803220Y22348528D01*
X20803217Y22348530D01*
X20683129Y22409718D01*
X20683127Y22409719D01*
X20550000Y22430804D01*
X20416872Y22409719D01*
X20416870Y22409718D01*
X20296782Y22348530D01*
X20201470Y22253218D01*
X20140282Y22133130D01*
X20140281Y22133128D01*
X20119196Y22000001D01*
X19072885Y22000001D01*
X19059719Y22083126D01*
X19055466Y22091472D01*
X18998529Y22203218D01*
X18998528Y22203220D01*
X18903220Y22298528D01*
X18903217Y22298530D01*
X18783129Y22359718D01*
X18783127Y22359719D01*
X18650000Y22380804D01*
X18516872Y22359719D01*
X18516870Y22359718D01*
X18396782Y22298530D01*
X18301470Y22203218D01*
X18240282Y22083130D01*
X18240281Y22083128D01*
X18219196Y21950001D01*
X2505738Y21950001D01*
X2491685Y21959391D01*
X2491674Y21959397D01*
X2345997Y22019737D01*
X2191344Y22050500D01*
X2191342Y22050500D01*
X1333658Y22050500D01*
X1333655Y22050500D01*
X1179003Y22019737D01*
X1179001Y22019737D01*
X1033325Y21959397D01*
X1033314Y21959391D01*
X902211Y21871789D01*
X902207Y21871786D01*
X790714Y21760293D01*
X790711Y21760289D01*
X703109Y21629186D01*
X703103Y21629175D01*
X642763Y21483499D01*
X642763Y21483497D01*
X612000Y21328845D01*
X325500Y21328845D01*
X325500Y23600001D01*
X5919196Y23600001D01*
X5919196Y23600000D01*
X5940281Y23466873D01*
X5940282Y23466871D01*
X6000580Y23348530D01*
X6001472Y23346780D01*
X6096780Y23251472D01*
X6216874Y23190281D01*
X6350000Y23169196D01*
X6483126Y23190281D01*
X6603220Y23251472D01*
X6698528Y23346780D01*
X6759719Y23466874D01*
X6780804Y23600000D01*
X6778455Y23614828D01*
X6770806Y23663126D01*
X6759719Y23733126D01*
X6698528Y23853220D01*
X6603220Y23948528D01*
X6603217Y23948530D01*
X6600330Y23950001D01*
X22019196Y23950001D01*
X22019196Y23950000D01*
X22040281Y23816873D01*
X22040282Y23816871D01*
X22100241Y23699196D01*
X22101472Y23696780D01*
X22196780Y23601472D01*
X22196782Y23601471D01*
X22266982Y23565702D01*
X22316874Y23540281D01*
X22450000Y23519196D01*
X22583126Y23540281D01*
X22703220Y23601472D01*
X22798528Y23696780D01*
X22859719Y23816874D01*
X22880804Y23950000D01*
X22864965Y24050001D01*
X25419196Y24050001D01*
X25419196Y24050000D01*
X25440281Y23916873D01*
X25440282Y23916871D01*
X25491234Y23816873D01*
X25501472Y23796780D01*
X25596780Y23701472D01*
X25716874Y23640281D01*
X25850000Y23619196D01*
X25983126Y23640281D01*
X26103220Y23701472D01*
X26198528Y23796780D01*
X26259719Y23916874D01*
X26280804Y24050000D01*
X26259719Y24183126D01*
X26198528Y24303220D01*
X26103220Y24398528D01*
X26103217Y24398530D01*
X26002200Y24450001D01*
X28819196Y24450001D01*
X28819196Y24450000D01*
X28840281Y24316873D01*
X28840282Y24316871D01*
X28901470Y24196783D01*
X28901472Y24196780D01*
X28996780Y24101472D01*
X29116874Y24040281D01*
X29250000Y24019196D01*
X29383126Y24040281D01*
X29442723Y24070648D01*
X29503153Y24080219D01*
X29557670Y24052443D01*
X29585448Y23997926D01*
X29575877Y23937494D01*
X29575877Y23937493D01*
X29547134Y23881081D01*
X29526049Y23747956D01*
X29526049Y23747955D01*
X29547134Y23614828D01*
X29547135Y23614826D01*
X29595861Y23519196D01*
X29608325Y23494735D01*
X29703633Y23399427D01*
X29823727Y23338236D01*
X29956853Y23317151D01*
X30089979Y23338236D01*
X30210073Y23399427D01*
X30305381Y23494735D01*
X30323350Y23530001D01*
X35319196Y23530001D01*
X35319196Y23530000D01*
X35340281Y23396873D01*
X35340282Y23396871D01*
X35395667Y23288172D01*
X35401472Y23276780D01*
X35496780Y23181472D01*
X35616874Y23120281D01*
X35750000Y23099196D01*
X35883126Y23120281D01*
X36003220Y23181472D01*
X36098528Y23276780D01*
X36159719Y23396874D01*
X36180804Y23530000D01*
X36179175Y23540282D01*
X36175149Y23565706D01*
X36159719Y23663126D01*
X36098528Y23783220D01*
X36003220Y23878528D01*
X36003217Y23878530D01*
X35883129Y23939718D01*
X35883127Y23939719D01*
X35750000Y23960804D01*
X35616872Y23939719D01*
X35616870Y23939718D01*
X35496782Y23878530D01*
X35401470Y23783218D01*
X35340282Y23663130D01*
X35340281Y23663128D01*
X35319196Y23530001D01*
X30323350Y23530001D01*
X30366572Y23614829D01*
X30387657Y23747955D01*
X30382348Y23781472D01*
X30376742Y23816871D01*
X30372057Y23846450D01*
X30381628Y23906881D01*
X30424893Y23950146D01*
X30485325Y23959717D01*
X30486173Y23959583D01*
X30486175Y23959582D01*
X30619301Y23938497D01*
X30752427Y23959582D01*
X30872521Y24020773D01*
X30967829Y24116081D01*
X30974922Y24130001D01*
X37119196Y24130001D01*
X37119196Y24130000D01*
X37140281Y23996873D01*
X37140282Y23996871D01*
X37200580Y23878530D01*
X37201472Y23876780D01*
X37296780Y23781472D01*
X37416874Y23720281D01*
X37550000Y23699196D01*
X37683126Y23720281D01*
X37803220Y23781472D01*
X37898528Y23876780D01*
X37959719Y23996874D01*
X37960214Y24000000D01*
X41594571Y24000000D01*
X41614244Y23787690D01*
X41667647Y23600000D01*
X41672596Y23582609D01*
X41764256Y23398528D01*
X41767634Y23391745D01*
X41896128Y23221593D01*
X41953604Y23169196D01*
X42053692Y23077953D01*
X42053699Y23077947D01*
X42098835Y23050000D01*
X42234981Y22965702D01*
X42433802Y22888679D01*
X42643390Y22849500D01*
X42856610Y22849500D01*
X43066198Y22888679D01*
X43265019Y22965702D01*
X43446302Y23077948D01*
X43603872Y23221593D01*
X43732366Y23391745D01*
X43827405Y23582611D01*
X43885756Y23787690D01*
X43905429Y24000000D01*
X43885756Y24212310D01*
X43827405Y24417389D01*
X43732366Y24608255D01*
X43603872Y24778407D01*
X43514678Y24859719D01*
X43446307Y24922048D01*
X43446300Y24922054D01*
X43265024Y25034295D01*
X43265019Y25034298D01*
X43249570Y25040283D01*
X43066198Y25111321D01*
X43066197Y25111322D01*
X43066195Y25111322D01*
X42856610Y25150500D01*
X42643390Y25150500D01*
X42433804Y25111322D01*
X42234980Y25034298D01*
X42234975Y25034295D01*
X42053699Y24922054D01*
X42053692Y24922048D01*
X41896135Y24778414D01*
X41896131Y24778411D01*
X41896128Y24778407D01*
X41896125Y24778403D01*
X41767635Y24608257D01*
X41767630Y24608248D01*
X41688833Y24450000D01*
X41672595Y24417389D01*
X41660655Y24375426D01*
X41614244Y24212312D01*
X41597425Y24030804D01*
X41594571Y24000000D01*
X37960214Y24000000D01*
X37980804Y24130000D01*
X37959719Y24263126D01*
X37898528Y24383220D01*
X37803220Y24478528D01*
X37803217Y24478530D01*
X37683129Y24539718D01*
X37683127Y24539719D01*
X37550000Y24560804D01*
X37416872Y24539719D01*
X37416870Y24539718D01*
X37296782Y24478530D01*
X37201470Y24383218D01*
X37140282Y24263130D01*
X37140281Y24263128D01*
X37119196Y24130001D01*
X30974922Y24130001D01*
X31029020Y24236175D01*
X31050105Y24369301D01*
X31047900Y24383220D01*
X31045476Y24398530D01*
X31029020Y24502427D01*
X30990989Y24577066D01*
X30967830Y24622519D01*
X30967829Y24622521D01*
X30872521Y24717829D01*
X30872518Y24717831D01*
X30752430Y24779019D01*
X30752428Y24779020D01*
X30619301Y24800105D01*
X30611510Y24800105D01*
X30611510Y24803531D01*
X30565763Y24810805D01*
X30522525Y24854096D01*
X30512990Y24914534D01*
X30521273Y24940001D01*
X37949196Y24940001D01*
X37949196Y24940000D01*
X37970281Y24806873D01*
X37970282Y24806871D01*
X38028214Y24693174D01*
X38031472Y24686780D01*
X38126780Y24591472D01*
X38246874Y24530281D01*
X38380000Y24509196D01*
X38513126Y24530281D01*
X38633220Y24591472D01*
X38728528Y24686780D01*
X38789719Y24806874D01*
X38810804Y24940000D01*
X38789719Y25073126D01*
X38775276Y25101471D01*
X38728529Y25193218D01*
X38728528Y25193220D01*
X38633220Y25288528D01*
X38633217Y25288530D01*
X38513129Y25349718D01*
X38513127Y25349719D01*
X38380000Y25370804D01*
X38246872Y25349719D01*
X38246870Y25349718D01*
X38126782Y25288530D01*
X38031470Y25193218D01*
X37970282Y25073130D01*
X37970281Y25073128D01*
X37949196Y24940001D01*
X30521273Y24940001D01*
X30522551Y24943930D01*
X30559719Y25016874D01*
X30580804Y25150000D01*
X30559719Y25283126D01*
X30498528Y25403220D01*
X30403220Y25498528D01*
X30403217Y25498530D01*
X30283129Y25559718D01*
X30283127Y25559719D01*
X30150000Y25580804D01*
X30016872Y25559719D01*
X30016870Y25559718D01*
X29896782Y25498530D01*
X29801470Y25403218D01*
X29740282Y25283130D01*
X29740281Y25283128D01*
X29719196Y25150001D01*
X29719196Y25150000D01*
X29740281Y25016873D01*
X29740282Y25016871D01*
X29801470Y24896783D01*
X29801472Y24896780D01*
X29828227Y24870025D01*
X29856003Y24815510D01*
X29846432Y24755078D01*
X29803168Y24711814D01*
X29766585Y24693175D01*
X29754994Y24681583D01*
X29700476Y24653807D01*
X29640044Y24663381D01*
X29605077Y24698351D01*
X29603106Y24696918D01*
X29598529Y24703218D01*
X29598528Y24703220D01*
X29503220Y24798528D01*
X29503217Y24798530D01*
X29383129Y24859718D01*
X29383127Y24859719D01*
X29250000Y24880804D01*
X29116872Y24859719D01*
X29116870Y24859718D01*
X28996782Y24798530D01*
X28901470Y24703218D01*
X28840282Y24583130D01*
X28840281Y24583128D01*
X28819196Y24450001D01*
X26002200Y24450001D01*
X25983129Y24459718D01*
X25983127Y24459719D01*
X25850000Y24480804D01*
X25716872Y24459719D01*
X25716870Y24459718D01*
X25596782Y24398530D01*
X25501470Y24303218D01*
X25440282Y24183130D01*
X25440281Y24183128D01*
X25419196Y24050001D01*
X22864965Y24050001D01*
X22859719Y24083126D01*
X22835835Y24130000D01*
X22798529Y24203218D01*
X22798528Y24203220D01*
X22703220Y24298528D01*
X22703217Y24298530D01*
X22583129Y24359718D01*
X22583127Y24359719D01*
X22450000Y24380804D01*
X22316872Y24359719D01*
X22316870Y24359718D01*
X22196782Y24298530D01*
X22101470Y24203218D01*
X22040282Y24083130D01*
X22040281Y24083128D01*
X22019196Y23950001D01*
X6600330Y23950001D01*
X6483129Y24009718D01*
X6483127Y24009719D01*
X6350000Y24030804D01*
X6216872Y24009719D01*
X6216870Y24009718D01*
X6096782Y23948530D01*
X6001470Y23853218D01*
X5940282Y23733130D01*
X5940281Y23733128D01*
X5919196Y23600001D01*
X325500Y23600001D01*
X325500Y25150001D01*
X11019196Y25150001D01*
X11019196Y25150000D01*
X11040281Y25016873D01*
X11040282Y25016871D01*
X11101470Y24896783D01*
X11101472Y24896780D01*
X11196780Y24801472D01*
X11316874Y24740281D01*
X11450000Y24719196D01*
X11583126Y24740281D01*
X11703220Y24801472D01*
X11798528Y24896780D01*
X11859719Y25016874D01*
X11880804Y25150000D01*
X11859719Y25283126D01*
X11798528Y25403220D01*
X11751747Y25450001D01*
X19319196Y25450001D01*
X19319196Y25450000D01*
X19340281Y25316873D01*
X19340282Y25316871D01*
X19401470Y25196783D01*
X19401472Y25196780D01*
X19496780Y25101472D01*
X19616874Y25040281D01*
X19750000Y25019196D01*
X19883126Y25040281D01*
X20003220Y25101472D01*
X20098528Y25196780D01*
X20159719Y25316874D01*
X20180804Y25450000D01*
X20164965Y25550001D01*
X26219196Y25550001D01*
X26219196Y25550000D01*
X26240281Y25416873D01*
X26240282Y25416871D01*
X26291234Y25316873D01*
X26301472Y25296780D01*
X26396780Y25201472D01*
X26516874Y25140281D01*
X26650000Y25119196D01*
X26783126Y25140281D01*
X26903220Y25201472D01*
X26998528Y25296780D01*
X27059719Y25416874D01*
X27080804Y25550000D01*
X27059719Y25683126D01*
X26998528Y25803220D01*
X26951747Y25850001D01*
X31199196Y25850001D01*
X31199196Y25850000D01*
X31220281Y25716873D01*
X31220282Y25716871D01*
X31281470Y25596783D01*
X31281472Y25596780D01*
X31376780Y25501472D01*
X31496874Y25440281D01*
X31630000Y25419196D01*
X31763126Y25440281D01*
X31883220Y25501472D01*
X31978528Y25596780D01*
X32039719Y25716874D01*
X32060804Y25850000D01*
X32060550Y25851601D01*
X32053118Y25898528D01*
X32039719Y25983126D01*
X31978528Y26103220D01*
X31975013Y26106735D01*
X31947238Y26161249D01*
X31951888Y26190615D01*
X31919493Y26185484D01*
X31890035Y26195055D01*
X31883221Y26198527D01*
X31883220Y26198528D01*
X31763126Y26259719D01*
X31630000Y26280804D01*
X31496872Y26259719D01*
X31496870Y26259718D01*
X31376782Y26198530D01*
X31281470Y26103218D01*
X31220282Y25983130D01*
X31220281Y25983128D01*
X31199196Y25850001D01*
X26951747Y25850001D01*
X26903220Y25898528D01*
X26903217Y25898530D01*
X26783129Y25959718D01*
X26783127Y25959719D01*
X26650000Y25980804D01*
X26516872Y25959719D01*
X26516870Y25959718D01*
X26396782Y25898530D01*
X26301470Y25803218D01*
X26240282Y25683130D01*
X26240281Y25683128D01*
X26219196Y25550001D01*
X20164965Y25550001D01*
X20159719Y25583126D01*
X20098528Y25703220D01*
X20003220Y25798528D01*
X20003217Y25798530D01*
X19883129Y25859718D01*
X19883127Y25859719D01*
X19750000Y25880804D01*
X19616872Y25859719D01*
X19616870Y25859718D01*
X19496782Y25798530D01*
X19401470Y25703218D01*
X19340282Y25583130D01*
X19340281Y25583128D01*
X19319196Y25450001D01*
X11751747Y25450001D01*
X11703220Y25498528D01*
X11703217Y25498530D01*
X11583129Y25559718D01*
X11583127Y25559719D01*
X11450000Y25580804D01*
X11316872Y25559719D01*
X11316870Y25559718D01*
X11196782Y25498530D01*
X11101470Y25403218D01*
X11040282Y25283130D01*
X11040281Y25283128D01*
X11019196Y25150001D01*
X325500Y25150001D01*
X325500Y26333745D01*
X344407Y26391936D01*
X393907Y26427900D01*
X455093Y26427900D01*
X494501Y26403751D01*
X496780Y26401472D01*
X616874Y26340281D01*
X750000Y26319196D01*
X883126Y26340281D01*
X1003220Y26401472D01*
X1070494Y26468747D01*
X1125008Y26496523D01*
X1185440Y26486952D01*
X1219038Y26459009D01*
X1242712Y26428156D01*
X1242714Y26428154D01*
X1242718Y26428149D01*
X1428149Y26242718D01*
X1636197Y26083076D01*
X1863303Y25951957D01*
X2105581Y25851602D01*
X2358884Y25783730D01*
X2618880Y25749500D01*
X2618881Y25749500D01*
X2881119Y25749500D01*
X2881120Y25749500D01*
X3141116Y25783730D01*
X3394419Y25851602D01*
X3636697Y25951957D01*
X3863803Y26083076D01*
X4071851Y26242718D01*
X4257282Y26428149D01*
X4416924Y26636197D01*
X4482628Y26750001D01*
X23719196Y26750001D01*
X23719196Y26750000D01*
X23740281Y26616873D01*
X23740282Y26616871D01*
X23743783Y26610000D01*
X23801472Y26496780D01*
X23896780Y26401472D01*
X24016874Y26340281D01*
X24150000Y26319196D01*
X24283126Y26340281D01*
X24403220Y26401472D01*
X24498528Y26496780D01*
X24556217Y26610001D01*
X31919196Y26610001D01*
X31919196Y26610000D01*
X31940281Y26476873D01*
X31940282Y26476871D01*
X31983559Y26391936D01*
X32001472Y26356780D01*
X32004985Y26353267D01*
X32032761Y26298752D01*
X32028110Y26269387D01*
X32060506Y26274517D01*
X32089965Y26264945D01*
X32096778Y26261474D01*
X32096780Y26261472D01*
X32216874Y26200281D01*
X32350000Y26179196D01*
X32483126Y26200281D01*
X32603220Y26261472D01*
X32698528Y26356780D01*
X32759719Y26476874D01*
X32780804Y26610000D01*
X32779715Y26616873D01*
X32764934Y26710198D01*
X32759719Y26743126D01*
X32698528Y26863220D01*
X32603220Y26958528D01*
X32603217Y26958530D01*
X32483129Y27019718D01*
X32483127Y27019719D01*
X32350000Y27040804D01*
X32216872Y27019719D01*
X32216870Y27019718D01*
X32096782Y26958530D01*
X32001470Y26863218D01*
X31940282Y26743130D01*
X31940281Y26743128D01*
X31919196Y26610001D01*
X24556217Y26610001D01*
X24559719Y26616874D01*
X24580804Y26750000D01*
X24559719Y26883126D01*
X24498528Y27003220D01*
X24403220Y27098528D01*
X24403217Y27098530D01*
X24283129Y27159718D01*
X24283127Y27159719D01*
X24150000Y27180804D01*
X24016872Y27159719D01*
X24016870Y27159718D01*
X23896782Y27098530D01*
X23801470Y27003218D01*
X23740282Y26883130D01*
X23740281Y26883128D01*
X23719196Y26750001D01*
X4482628Y26750001D01*
X4548043Y26863303D01*
X4648398Y27105581D01*
X4716270Y27358884D01*
X4750500Y27618880D01*
X4750500Y27881120D01*
X4716270Y28141116D01*
X4660300Y28350001D01*
X20619196Y28350001D01*
X20619196Y28350000D01*
X20640281Y28216873D01*
X20640282Y28216871D01*
X20678884Y28141111D01*
X20701472Y28096780D01*
X20796780Y28001472D01*
X20916874Y27940281D01*
X21050000Y27919196D01*
X21183126Y27940281D01*
X21303220Y28001472D01*
X21398528Y28096780D01*
X21459719Y28216874D01*
X21480804Y28350000D01*
X21459719Y28483126D01*
X21428668Y28544066D01*
X21398529Y28603218D01*
X21398528Y28603220D01*
X21303220Y28698528D01*
X21303217Y28698530D01*
X21202194Y28750004D01*
X37814417Y28750004D01*
X37814417Y28749997D01*
X37834698Y28544071D01*
X37834699Y28544066D01*
X37894768Y28346046D01*
X37992316Y28163548D01*
X38123585Y28003596D01*
X38123590Y28003590D01*
X38123595Y28003586D01*
X38283547Y27872317D01*
X38283548Y27872317D01*
X38283550Y27872315D01*
X38466046Y27774768D01*
X38603997Y27732922D01*
X38664065Y27714700D01*
X38664070Y27714699D01*
X38869997Y27694417D01*
X38870000Y27694417D01*
X38870003Y27694417D01*
X39075929Y27714699D01*
X39075934Y27714700D01*
X39273954Y27774768D01*
X39456450Y27872315D01*
X39616410Y28003590D01*
X39747685Y28163550D01*
X39845232Y28346046D01*
X39905300Y28544066D01*
X39905301Y28544071D01*
X39925583Y28749997D01*
X39925583Y28750004D01*
X40354417Y28750004D01*
X40354417Y28749997D01*
X40374698Y28544071D01*
X40374699Y28544066D01*
X40434768Y28346046D01*
X40532316Y28163548D01*
X40663585Y28003596D01*
X40663590Y28003590D01*
X40663595Y28003586D01*
X40823547Y27872317D01*
X40823548Y27872317D01*
X40823550Y27872315D01*
X41006046Y27774768D01*
X41143997Y27732922D01*
X41204065Y27714700D01*
X41204070Y27714699D01*
X41409997Y27694417D01*
X41410000Y27694417D01*
X41410003Y27694417D01*
X41615929Y27714699D01*
X41615934Y27714700D01*
X41813954Y27774768D01*
X41996450Y27872315D01*
X42156410Y28003590D01*
X42287685Y28163550D01*
X42385232Y28346046D01*
X42445300Y28544066D01*
X42445301Y28544071D01*
X42465583Y28749997D01*
X42465583Y28750004D01*
X42445301Y28955930D01*
X42445300Y28955935D01*
X42410137Y29071851D01*
X42385232Y29153954D01*
X42287685Y29336450D01*
X42256055Y29374991D01*
X42156414Y29496405D01*
X42156410Y29496410D01*
X42155959Y29496780D01*
X42006123Y29619747D01*
X42899500Y29619747D01*
X42899500Y27880254D01*
X42899501Y27880242D01*
X42911132Y27821773D01*
X42911134Y27821767D01*
X42955445Y27755452D01*
X42955448Y27755448D01*
X43021769Y27711133D01*
X43066231Y27702289D01*
X43080241Y27699502D01*
X43080246Y27699502D01*
X43080252Y27699500D01*
X43080253Y27699500D01*
X44819747Y27699500D01*
X44819748Y27699500D01*
X44878231Y27711133D01*
X44944552Y27755448D01*
X44988867Y27821769D01*
X45000500Y27880252D01*
X45000500Y29619748D01*
X44998921Y29627684D01*
X44995797Y29643393D01*
X44988867Y29678231D01*
X44944552Y29744552D01*
X44936399Y29750000D01*
X44878233Y29788866D01*
X44878231Y29788867D01*
X44878228Y29788868D01*
X44878227Y29788868D01*
X44819758Y29800499D01*
X44819748Y29800500D01*
X43080252Y29800500D01*
X43080251Y29800500D01*
X43080241Y29800499D01*
X43021772Y29788868D01*
X43021766Y29788866D01*
X42955451Y29744555D01*
X42955445Y29744549D01*
X42911134Y29678234D01*
X42911132Y29678228D01*
X42899501Y29619759D01*
X42899500Y29619747D01*
X42006123Y29619747D01*
X41996452Y29627684D01*
X41813954Y29725232D01*
X41615934Y29785301D01*
X41615929Y29785302D01*
X41410003Y29805583D01*
X41409997Y29805583D01*
X41204070Y29785302D01*
X41204065Y29785301D01*
X41006045Y29725232D01*
X40823547Y29627684D01*
X40663595Y29496415D01*
X40663585Y29496405D01*
X40532316Y29336453D01*
X40434768Y29153955D01*
X40374699Y28955935D01*
X40374698Y28955930D01*
X40354417Y28750004D01*
X39925583Y28750004D01*
X39905301Y28955930D01*
X39905300Y28955935D01*
X39870137Y29071851D01*
X39845232Y29153954D01*
X39747685Y29336450D01*
X39716055Y29374991D01*
X39616414Y29496405D01*
X39616410Y29496410D01*
X39615959Y29496780D01*
X39456452Y29627684D01*
X39273954Y29725232D01*
X39075934Y29785301D01*
X39075929Y29785302D01*
X38870003Y29805583D01*
X38869997Y29805583D01*
X38664070Y29785302D01*
X38664065Y29785301D01*
X38466045Y29725232D01*
X38283547Y29627684D01*
X38123595Y29496415D01*
X38123585Y29496405D01*
X37992316Y29336453D01*
X37894768Y29153955D01*
X37834699Y28955935D01*
X37834698Y28955930D01*
X37814417Y28750004D01*
X21202194Y28750004D01*
X21183129Y28759718D01*
X21183127Y28759719D01*
X21050000Y28780804D01*
X20916872Y28759719D01*
X20916870Y28759718D01*
X20796782Y28698530D01*
X20701470Y28603218D01*
X20640282Y28483130D01*
X20640281Y28483128D01*
X20619196Y28350001D01*
X4660300Y28350001D01*
X4648398Y28394419D01*
X4548043Y28636697D01*
X4416924Y28863803D01*
X4257282Y29071851D01*
X4071851Y29257282D01*
X4071846Y29257286D01*
X4071844Y29257288D01*
X4040991Y29280962D01*
X4006335Y29331386D01*
X4007936Y29392550D01*
X4031253Y29429506D01*
X4098528Y29496780D01*
X4159719Y29616874D01*
X4180804Y29750000D01*
X4159719Y29883126D01*
X4159718Y29883128D01*
X4159717Y29883130D01*
X4098529Y30003218D01*
X4098528Y30003220D01*
X4096249Y30005499D01*
X4094787Y30008368D01*
X4093947Y30009525D01*
X4094130Y30009659D01*
X4068474Y30060013D01*
X4078045Y30120445D01*
X4121310Y30163710D01*
X4166255Y30174500D01*
X46333745Y30174500D01*
X46391936Y30155593D01*
G37*
%TD.AperFunction*%
%TD*%
M02*
