%TF.GenerationSoftware,KiCad,Pcbnew,8.0.2*%
%TF.CreationDate,2024-05-26T20:11:31+02:00*%
%TF.ProjectId,protoB,70726f74-6f42-42e6-9b69-6361645f7063,rev?*%
%TF.SameCoordinates,PXbe7f170PY6de9350*%
%TF.FileFunction,Soldermask,Top*%
%TF.FilePolarity,Negative*%
%FSLAX46Y46*%
G04 Gerber Fmt 4.6, Leading zero omitted, Abs format (unit mm)*
G04 Created by KiCad (PCBNEW 8.0.2) date 2024-05-26 20:11:31*
%MOMM*%
%LPD*%
G01*
G04 APERTURE LIST*
G04 Aperture macros list*
%AMRoundRect*
0 Rectangle with rounded corners*
0 $1 Rounding radius*
0 $2 $3 $4 $5 $6 $7 $8 $9 X,Y pos of 4 corners*
0 Add a 4 corners polygon primitive as box body*
4,1,4,$2,$3,$4,$5,$6,$7,$8,$9,$2,$3,0*
0 Add four circle primitives for the rounded corners*
1,1,$1+$1,$2,$3*
1,1,$1+$1,$4,$5*
1,1,$1+$1,$6,$7*
1,1,$1+$1,$8,$9*
0 Add four rect primitives between the rounded corners*
20,1,$1+$1,$2,$3,$4,$5,0*
20,1,$1+$1,$4,$5,$6,$7,0*
20,1,$1+$1,$6,$7,$8,$9,0*
20,1,$1+$1,$8,$9,$2,$3,0*%
%AMHorizOval*
0 Thick line with rounded ends*
0 $1 width*
0 $2 $3 position (X,Y) of the first rounded end (center of the circle)*
0 $4 $5 position (X,Y) of the second rounded end (center of the circle)*
0 Add line between two ends*
20,1,$1,$2,$3,$4,$5,0*
0 Add two circle primitives to create the rounded ends*
1,1,$1,$2,$3*
1,1,$1,$4,$5*%
G04 Aperture macros list end*
%ADD10RoundRect,0.172500X-0.172500X-0.197500X0.172500X-0.197500X0.172500X0.197500X-0.172500X0.197500X0*%
%ADD11RoundRect,0.050000X-0.780000X-0.325000X0.780000X-0.325000X0.780000X0.325000X-0.780000X0.325000X0*%
%ADD12RoundRect,0.172500X0.197500X-0.172500X0.197500X0.172500X-0.197500X0.172500X-0.197500X-0.172500X0*%
%ADD13RoundRect,0.172500X-0.197500X0.172500X-0.197500X-0.172500X0.197500X-0.172500X0.197500X0.172500X0*%
%ADD14RoundRect,0.268750X-0.268750X-0.481250X0.268750X-0.481250X0.268750X0.481250X-0.268750X0.481250X0*%
%ADD15C,3.900000*%
%ADD16RoundRect,0.150000X0.150000X-0.287500X0.150000X0.287500X-0.150000X0.287500X-0.150000X-0.287500X0*%
%ADD17RoundRect,0.259000X1.791000X-1.491000X1.791000X1.491000X-1.791000X1.491000X-1.791000X-1.491000X0*%
%ADD18RoundRect,0.050000X-0.850000X-0.850000X0.850000X-0.850000X0.850000X0.850000X-0.850000X0.850000X0*%
%ADD19O,1.800000X1.800000*%
%ADD20RoundRect,0.050000X-0.325000X0.525000X-0.325000X-0.525000X0.325000X-0.525000X0.325000X0.525000X0*%
%ADD21RoundRect,0.172500X0.172500X0.197500X-0.172500X0.197500X-0.172500X-0.197500X0.172500X-0.197500X0*%
%ADD22RoundRect,0.050000X-0.700000X-0.600000X0.700000X-0.600000X0.700000X0.600000X-0.700000X0.600000X0*%
%ADD23RoundRect,0.050000X1.131371X0.000000X0.000000X1.131371X-1.131371X0.000000X0.000000X-1.131371X0*%
%ADD24HorizOval,0.300000X-0.282843X0.282843X0.282843X-0.282843X0*%
%ADD25HorizOval,0.300000X0.282843X0.282843X-0.282843X-0.282843X0*%
%ADD26RoundRect,0.050000X-0.850000X0.850000X-0.850000X-0.850000X0.850000X-0.850000X0.850000X0.850000X0*%
%ADD27RoundRect,0.050000X0.850000X-0.850000X0.850000X0.850000X-0.850000X0.850000X-0.850000X-0.850000X0*%
%ADD28RoundRect,0.050000X-0.950000X0.150000X-0.950000X-0.150000X0.950000X-0.150000X0.950000X0.150000X0*%
%ADD29C,2.000000*%
%ADD30RoundRect,0.050000X-0.675000X0.200000X-0.675000X-0.200000X0.675000X-0.200000X0.675000X0.200000X0*%
%ADD31O,2.000000X1.300000*%
%ADD32RoundRect,0.050000X-0.950000X0.600000X-0.950000X-0.600000X0.950000X-0.600000X0.950000X0.600000X0*%
%ADD33C,1.550000*%
%ADD34RoundRect,0.050000X-0.950000X0.750000X-0.950000X-0.750000X0.950000X-0.750000X0.950000X0.750000X0*%
%ADD35RoundRect,0.160000X0.160000X0.210000X-0.160000X0.210000X-0.160000X-0.210000X0.160000X-0.210000X0*%
%ADD36C,0.600000*%
G04 APERTURE END LIST*
D10*
%TO.C,R5*%
X25165000Y16150000D03*
X26135000Y16150000D03*
%TD*%
%TO.C,R4*%
X25165000Y17150000D03*
X26135000Y17150000D03*
%TD*%
%TO.C,R2*%
X21665000Y9750000D03*
X22635000Y9750000D03*
%TD*%
D11*
%TO.C,U2*%
X9350000Y19050000D03*
X9350000Y18100000D03*
X9350000Y17150000D03*
X12050000Y17150000D03*
X12050000Y19050000D03*
%TD*%
D12*
%TO.C,C10*%
X32350000Y24880000D03*
X32350000Y25850000D03*
%TD*%
D13*
%TO.C,R11*%
X4750000Y11985000D03*
X4750000Y11015000D03*
%TD*%
D14*
%TO.C,D1*%
X1312500Y24000000D03*
X3187500Y24000000D03*
%TD*%
D15*
%TO.C,REF\u002A\u002A*%
X2750000Y27750000D03*
%TD*%
%TO.C,REF\u002A\u002A*%
X47750000Y27750000D03*
%TD*%
D14*
%TO.C,D2*%
X1312500Y11500000D03*
X3187500Y11500000D03*
%TD*%
D16*
%TO.C,U3*%
X23995000Y9587500D03*
X25265000Y9587500D03*
X26535000Y9587500D03*
X27805000Y9587500D03*
X27805000Y14912500D03*
X26535000Y14912500D03*
X25265000Y14912500D03*
X23995000Y14912500D03*
D17*
X25900000Y12250000D03*
%TD*%
D13*
%TO.C,C13*%
X22600000Y13035000D03*
X22600000Y12065000D03*
%TD*%
D18*
%TO.C,J6*%
X25167000Y7080000D03*
D19*
X25167000Y4540000D03*
X25167000Y2000000D03*
%TD*%
D13*
%TO.C,C24*%
X27450000Y3721000D03*
X27450000Y2751000D03*
%TD*%
D20*
%TO.C,SW1*%
X12825000Y29325000D03*
X12825000Y25175000D03*
X10675000Y25175000D03*
X10675000Y29325000D03*
%TD*%
%TO.C,SW2*%
X17325000Y29325000D03*
X17325000Y25175000D03*
X15175000Y25175000D03*
X15175000Y29325000D03*
%TD*%
D15*
%TO.C,REF\u002A\u002A*%
X47750000Y2750000D03*
%TD*%
%TO.C,REF\u002A\u002A*%
X2750000Y2750000D03*
%TD*%
D21*
%TO.C,R16*%
X38985000Y21125000D03*
X38015000Y21125000D03*
%TD*%
%TO.C,R17*%
X38985000Y19225000D03*
X38015000Y19225000D03*
%TD*%
%TO.C,R15*%
X38985000Y16375000D03*
X38015000Y16375000D03*
%TD*%
%TO.C,R13*%
X38985000Y20175000D03*
X38015000Y20175000D03*
%TD*%
%TO.C,R18*%
X38985000Y17325000D03*
X38015000Y17325000D03*
%TD*%
D20*
%TO.C,SW3*%
X8325000Y29325000D03*
X8325000Y25175000D03*
X6175000Y25175000D03*
X6175000Y29325000D03*
%TD*%
D21*
%TO.C,R3*%
X22635000Y10750000D03*
X21665000Y10750000D03*
%TD*%
D13*
%TO.C,C12*%
X37550000Y25900000D03*
X37550000Y24930000D03*
%TD*%
D22*
%TO.C,Y1*%
X33840000Y24580000D03*
X36040000Y24580000D03*
X36040000Y26280000D03*
X33840000Y26280000D03*
%TD*%
D23*
%TO.C,U1*%
X31500000Y17618629D03*
X32631371Y18750000D03*
X30368629Y18750000D03*
X31500000Y19881371D03*
D24*
X32136396Y14436649D03*
X32419239Y14719491D03*
X32702082Y15002334D03*
X32984924Y15285177D03*
X33267767Y15568019D03*
X33550610Y15850862D03*
X33833452Y16133705D03*
X34116295Y16416548D03*
X34399138Y16699390D03*
X34681981Y16982233D03*
X34964823Y17265076D03*
X35247666Y17547918D03*
X35530509Y17830761D03*
X35813351Y18113604D03*
D25*
X35813351Y19386396D03*
X35530509Y19669239D03*
X35247666Y19952082D03*
X34964823Y20234924D03*
X34681981Y20517767D03*
X34399138Y20800610D03*
X34116295Y21083452D03*
X33833452Y21366295D03*
X33550610Y21649138D03*
X33267767Y21931981D03*
X32984924Y22214823D03*
X32702082Y22497666D03*
X32419239Y22780509D03*
X32136396Y23063351D03*
D24*
X30863604Y23063351D03*
X30580761Y22780509D03*
X30297918Y22497666D03*
X30015076Y22214823D03*
X29732233Y21931981D03*
X29449390Y21649138D03*
X29166548Y21366295D03*
X28883705Y21083452D03*
X28600862Y20800610D03*
X28318019Y20517767D03*
X28035177Y20234924D03*
X27752334Y19952082D03*
X27469491Y19669239D03*
X27186649Y19386396D03*
D25*
X27186649Y18113604D03*
X27469491Y17830761D03*
X27752334Y17547918D03*
X28035177Y17265076D03*
X28318019Y16982233D03*
X28600862Y16699390D03*
X28883705Y16416548D03*
X29166548Y16133705D03*
X29449390Y15850862D03*
X29732233Y15568019D03*
X30015076Y15285177D03*
X30297918Y15002334D03*
X30580761Y14719491D03*
X30863604Y14436649D03*
%TD*%
D13*
%TO.C,C11*%
X13690000Y19035000D03*
X13690000Y18065000D03*
%TD*%
%TO.C,C7*%
X7770000Y19035000D03*
X7770000Y18065000D03*
%TD*%
D26*
%TO.C,J2*%
X43950000Y28750000D03*
D19*
X41410000Y28750000D03*
X38870000Y28750000D03*
%TD*%
D21*
%TO.C,R6*%
X5435000Y22950000D03*
X4465000Y22950000D03*
%TD*%
D10*
%TO.C,R20*%
X4465000Y23900000D03*
X5435000Y23900000D03*
%TD*%
D27*
%TO.C,J4*%
X31200000Y3975000D03*
D19*
X31200000Y6515000D03*
X33740000Y3975000D03*
X33740000Y6515000D03*
X36280000Y3975000D03*
X36280000Y6515000D03*
X38820000Y3975000D03*
X38820000Y6515000D03*
%TD*%
D21*
%TO.C,R14*%
X38985000Y18275000D03*
X38015000Y18275000D03*
%TD*%
%TO.C,R19*%
X38985000Y15425000D03*
X38015000Y15425000D03*
%TD*%
%TO.C,R12*%
X38985000Y22075000D03*
X38015000Y22075000D03*
%TD*%
D28*
%TO.C,J5*%
X41850000Y21500000D03*
X41850000Y21000000D03*
X41850000Y20500000D03*
X41850000Y20000000D03*
X41850000Y19500000D03*
X41850000Y19000000D03*
X41850000Y18500000D03*
X41850000Y18000000D03*
X41850000Y17500000D03*
X41850000Y17000000D03*
X41850000Y16500000D03*
X41850000Y16000000D03*
X41850000Y15500000D03*
X41850000Y15000000D03*
X41850000Y14500000D03*
X41850000Y14000000D03*
X41850000Y13500000D03*
X41850000Y13000000D03*
X41850000Y12500000D03*
D29*
X47650000Y24600000D03*
X42750000Y24000000D03*
X42750000Y9500000D03*
X47650000Y8900000D03*
%TD*%
D30*
%TO.C,J1*%
X4462500Y19050000D03*
X4462500Y18400000D03*
X4462500Y17750000D03*
X4462500Y17100000D03*
X4462500Y16450000D03*
D31*
X1762500Y21250000D03*
D32*
X1762500Y20650000D03*
D33*
X4462500Y20250000D03*
D34*
X1762500Y18750000D03*
X1762500Y16750000D03*
D33*
X4462500Y15250000D03*
D32*
X1762500Y14850000D03*
D31*
X1762500Y14250000D03*
%TD*%
D35*
%TO.C,R21*%
X23060000Y28350000D03*
X22040000Y28350000D03*
%TD*%
D36*
%TO.C,U4*%
X21010000Y25500000D03*
X22010000Y25500000D03*
X23010000Y25500000D03*
X24010000Y25500000D03*
X20010000Y24500000D03*
X21010000Y24500000D03*
X22010000Y24500000D03*
X23010000Y24500000D03*
X20010000Y23500000D03*
X22010000Y23500000D03*
X23010000Y23500000D03*
X20010000Y22500000D03*
X21010000Y22500000D03*
X22010000Y22500000D03*
X23010000Y22500000D03*
X24010000Y22500000D03*
X20010000Y21500000D03*
X21010000Y21500000D03*
X22010000Y21500000D03*
X23010000Y21500000D03*
X24010000Y21500000D03*
%TD*%
M02*
