M48
; DRILL file {KiCad 8.0.2} date 2024-05-26T20:11:05+0200
; FORMAT={-:-/ absolute / metric / decimal}
; #@! TF.CreationDate,2024-05-26T20:11:05+02:00
; #@! TF.GenerationSoftware,Kicad,Pcbnew,8.0.2
; #@! TF.FileFunction,Plated,1,4,PTH
FMAT,2
METRIC
; #@! TA.AperFunction,Plated,PTH,ViaDrill
T1C0.200
; #@! TA.AperFunction,Plated,PTH,ComponentDrill
T2C0.600
; #@! TA.AperFunction,Plated,PTH,ComponentDrill
T3C0.850
; #@! TA.AperFunction,Plated,PTH,ComponentDrill
T4C1.000
; #@! TA.AperFunction,Plated,PTH,ComponentDrill
T5C1.300
%
G90
G05
T1
X0.75Y26.75
X0.75Y3.75
X3.75Y29.75
X3.75Y0.75
X5.52Y11.97
X5.945Y18.805
X6.35Y23.6
X6.355Y18.395
X7.0Y18.05
X7.75Y17.3
X9.35Y19.9
X9.35Y16.45
X10.7Y18.1
X10.7Y17.15
X11.45Y25.15
X13.3Y19.55
X13.3Y17.35
X13.9Y25.15
X14.1Y19.55
X14.1Y17.35
X18.65Y21.95
X19.25Y22.5
X19.25Y21.45
X19.65Y20.15
X19.75Y25.45
X20.55Y22.0
X21.05Y28.35
X21.25Y17.5
X21.25Y15.8
X21.45Y23.05
X21.45Y22.05
X21.66Y9.0
X21.74Y12.47
X21.85Y16.94
X21.85Y16.36
X22.33Y8.96
X22.45Y23.95
X22.513Y22.878
X22.58Y13.92
X22.59Y14.51
X23.01Y20.85
X23.05Y27.35
X23.39Y14.05
X23.39Y12.06
X23.39Y10.45
X23.65Y24.525
X24.15Y26.75
X24.55Y21.45
X24.6Y15.45
X25.827Y22.434
X25.85Y24.05
X25.89Y14.33
X25.89Y10.18
X26.15Y19.4
X26.274Y21.968
X26.3Y17.95
X26.65Y25.55
X26.754Y22.418
X26.85Y18.7
X27.2Y10.15
X27.276Y22.883
X28.3Y18.65
X28.7Y17.9
X29.1Y17.55
X29.25Y24.45
X29.65Y17.1
X29.957Y23.748
X30.02Y24.345
X30.15Y16.4
X30.15Y25.15
X30.5Y19.75
X30.55Y16.05
X30.619Y24.369
X30.92Y13.47
X31.15Y21.65
X31.25Y18.5
X31.5Y15.05
X31.5Y14.15
X31.63Y25.85
X31.75Y19.0
X32.04Y22.0
X32.25Y13.45
X32.35Y26.61
X32.5Y21.5
X32.5Y17.75
X33.011Y21.114
X33.7Y20.15
X33.85Y8.25
X34.18Y22.44
X34.183Y8.749
X34.2Y18.15
X34.35Y10.05
X34.35Y9.45
X35.47Y21.38
X35.75Y23.53
X35.85Y15.15
X35.95Y8.15
X36.441Y15.313
X37.05Y11.65
X37.16Y22.34
X37.55Y24.13
X37.55Y14.7
X38.06Y13.82
X38.38Y24.94
X38.45Y14.5
X38.51Y23.0
X39.766Y13.939
X39.975Y15.65
X39.99Y21.78
X40.372Y13.969
X40.525Y12.6
X40.625Y21.0
X40.625Y19.5
X40.625Y18.0
X40.625Y16.5
X40.75Y13.5
X43.1Y21.0
X43.1Y19.5
X43.1Y18.0
X43.1Y16.5
X43.25Y13.5
X46.75Y29.75
X46.75Y0.75
X49.75Y26.75
X49.75Y3.75
T3
X4.462Y20.25
X4.462Y15.25
T4
X25.167Y7.08
X25.167Y4.54
X25.167Y2.0
X31.2Y6.515
X31.2Y3.975
X33.74Y6.515
X33.74Y3.975
X36.28Y6.515
X36.28Y3.975
X38.82Y6.515
X38.82Y3.975
X38.87Y28.75
X41.41Y28.75
X43.95Y28.75
T5
X42.75Y24.0
X42.75Y9.5
X47.65Y24.6
X47.65Y8.9
T2
G00X1.412Y21.25
M15
G01X2.112Y21.25
M16
G05
G00X2.112Y14.25
M15
G01X1.412Y14.25
M16
G05
M30
