%TF.GenerationSoftware,KiCad,Pcbnew,8.0.2*%
%TF.CreationDate,2024-05-26T20:11:31+02:00*%
%TF.ProjectId,protoB,70726f74-6f42-42e6-9b69-6361645f7063,rev?*%
%TF.SameCoordinates,PXbe7f170PY6de9350*%
%TF.FileFunction,Copper,L4,Bot*%
%TF.FilePolarity,Positive*%
%FSLAX46Y46*%
G04 Gerber Fmt 4.6, Leading zero omitted, Abs format (unit mm)*
G04 Created by KiCad (PCBNEW 8.0.2) date 2024-05-26 20:11:31*
%MOMM*%
%LPD*%
G01*
G04 APERTURE LIST*
G04 Aperture macros list*
%AMRoundRect*
0 Rectangle with rounded corners*
0 $1 Rounding radius*
0 $2 $3 $4 $5 $6 $7 $8 $9 X,Y pos of 4 corners*
0 Add a 4 corners polygon primitive as box body*
4,1,4,$2,$3,$4,$5,$6,$7,$8,$9,$2,$3,0*
0 Add four circle primitives for the rounded corners*
1,1,$1+$1,$2,$3*
1,1,$1+$1,$4,$5*
1,1,$1+$1,$6,$7*
1,1,$1+$1,$8,$9*
0 Add four rect primitives between the rounded corners*
20,1,$1+$1,$2,$3,$4,$5,0*
20,1,$1+$1,$4,$5,$6,$7,0*
20,1,$1+$1,$6,$7,$8,$9,0*
20,1,$1+$1,$8,$9,$2,$3,0*%
G04 Aperture macros list end*
%TA.AperFunction,ComponentPad*%
%ADD10R,1.700000X1.700000*%
%TD*%
%TA.AperFunction,ComponentPad*%
%ADD11O,1.700000X1.700000*%
%TD*%
%TA.AperFunction,ComponentPad*%
%ADD12C,1.900000*%
%TD*%
%TA.AperFunction,ComponentPad*%
%ADD13O,1.900000X1.200000*%
%TD*%
%TA.AperFunction,ComponentPad*%
%ADD14C,1.450000*%
%TD*%
%TA.AperFunction,SMDPad,CuDef*%
%ADD15RoundRect,0.147500X0.172500X-0.147500X0.172500X0.147500X-0.172500X0.147500X-0.172500X-0.147500X0*%
%TD*%
%TA.AperFunction,SMDPad,CuDef*%
%ADD16RoundRect,0.147500X0.017678X-0.226274X0.226274X-0.017678X-0.017678X0.226274X-0.226274X0.017678X0*%
%TD*%
%TA.AperFunction,SMDPad,CuDef*%
%ADD17RoundRect,0.147500X-0.017678X0.226274X-0.226274X0.017678X0.017678X-0.226274X0.226274X-0.017678X0*%
%TD*%
%TA.AperFunction,SMDPad,CuDef*%
%ADD18RoundRect,0.147500X0.147500X0.172500X-0.147500X0.172500X-0.147500X-0.172500X0.147500X-0.172500X0*%
%TD*%
%TA.AperFunction,SMDPad,CuDef*%
%ADD19RoundRect,0.147500X-0.172500X0.147500X-0.172500X-0.147500X0.172500X-0.147500X0.172500X0.147500X0*%
%TD*%
%TA.AperFunction,SMDPad,CuDef*%
%ADD20R,1.000000X1.000000*%
%TD*%
%TA.AperFunction,SMDPad,CuDef*%
%ADD21RoundRect,0.140000X0.170000X-0.140000X0.170000X0.140000X-0.170000X0.140000X-0.170000X-0.140000X0*%
%TD*%
%TA.AperFunction,SMDPad,CuDef*%
%ADD22RoundRect,0.140000X-0.140000X-0.170000X0.140000X-0.170000X0.140000X0.170000X-0.140000X0.170000X0*%
%TD*%
%TA.AperFunction,SMDPad,CuDef*%
%ADD23RoundRect,0.140000X-0.170000X0.140000X-0.170000X-0.140000X0.170000X-0.140000X0.170000X0.140000X0*%
%TD*%
%TA.AperFunction,ViaPad*%
%ADD24C,0.450000*%
%TD*%
%TA.AperFunction,Conductor*%
%ADD25C,0.500000*%
%TD*%
%TA.AperFunction,Conductor*%
%ADD26C,0.150000*%
%TD*%
%TA.AperFunction,Conductor*%
%ADD27C,0.360000*%
%TD*%
G04 APERTURE END LIST*
D10*
%TO.P,J6,1,Pin_1*%
%TO.N,GND*%
X25167000Y7080000D03*
D11*
%TO.P,J6,2,Pin_2*%
%TO.N,VBUS*%
X25167000Y4540000D03*
%TO.P,J6,3,Pin_3*%
%TO.N,+3V3*%
X25167000Y2000000D03*
%TD*%
D10*
%TO.P,J2,1,Pin_1*%
%TO.N,GND*%
X43950000Y28750000D03*
D11*
%TO.P,J2,2,Pin_2*%
%TO.N,/SWCLK*%
X41410000Y28750000D03*
%TO.P,J2,3,Pin_3*%
%TO.N,/SWDIO*%
X38870000Y28750000D03*
%TD*%
D10*
%TO.P,J4,1,Pin_1*%
%TO.N,GND*%
X31200000Y3975000D03*
D11*
%TO.P,J4,2,Pin_2*%
%TO.N,/PIX0*%
X31200000Y6515000D03*
%TO.P,J4,3,Pin_3*%
%TO.N,/UART_TX*%
X33740000Y3975000D03*
%TO.P,J4,4,Pin_4*%
%TO.N,/PIX1*%
X33740000Y6515000D03*
%TO.P,J4,5,Pin_5*%
%TO.N,/UART_RX*%
X36280000Y3975000D03*
%TO.P,J4,6,Pin_6*%
%TO.N,/PIX2*%
X36280000Y6515000D03*
%TO.P,J4,7,Pin_7*%
%TO.N,/PIXCLK*%
X38820000Y3975000D03*
%TO.P,J4,8,Pin_8*%
%TO.N,/PIX3*%
X38820000Y6515000D03*
%TD*%
D12*
%TO.P,J5,SH,SH*%
%TO.N,GND*%
X47650000Y24600000D03*
X42750000Y24000000D03*
X42750000Y9500000D03*
X47650000Y8900000D03*
%TD*%
D13*
%TO.P,J1,6,Shield*%
%TO.N,GND*%
X1762500Y21250000D03*
D14*
X4462500Y20250000D03*
X4462500Y15250000D03*
D13*
X1762500Y14250000D03*
%TD*%
D15*
%TO.P,R8,1*%
%TO.N,VBUS*%
X39050000Y12265000D03*
%TO.P,R8,2*%
%TO.N,/uC_DVI_SCL*%
X39050000Y13235000D03*
%TD*%
D16*
%TO.P,C2,1*%
%TO.N,+3V3*%
X30607053Y17057053D03*
%TO.P,C2,2*%
%TO.N,GND*%
X31292947Y17742947D03*
%TD*%
D17*
%TO.P,C8,1*%
%TO.N,+1V1*%
X32392947Y20442947D03*
%TO.P,C8,2*%
%TO.N,GND*%
X31707053Y19757053D03*
%TD*%
D18*
%TO.P,R1,1*%
%TO.N,+3V3*%
X13155000Y25160000D03*
%TO.P,R1,2*%
%TO.N,/RUN_~{RST}*%
X12185000Y25160000D03*
%TD*%
D17*
%TO.P,C6,1*%
%TO.N,+3V3*%
X33192947Y19642947D03*
%TO.P,C6,2*%
%TO.N,GND*%
X32507053Y18957053D03*
%TD*%
D16*
%TO.P,C5,1*%
%TO.N,+1V1*%
X31407053Y16257053D03*
%TO.P,C5,2*%
%TO.N,GND*%
X32092947Y16942947D03*
%TD*%
D17*
%TO.P,C4,1*%
%TO.N,+3V3*%
X33992947Y18842947D03*
%TO.P,C4,2*%
%TO.N,GND*%
X33307053Y18157053D03*
%TD*%
%TO.P,C9,1*%
%TO.N,+3V3*%
X31592947Y21242947D03*
%TO.P,C9,2*%
%TO.N,GND*%
X30907053Y20557053D03*
%TD*%
D15*
%TO.P,R9,1*%
%TO.N,VBUS*%
X40050000Y12265000D03*
%TO.P,R9,2*%
%TO.N,/uC_DVI_SDA*%
X40050000Y13235000D03*
%TD*%
%TO.P,R7,1*%
%TO.N,+3V3*%
X37050000Y12265000D03*
%TO.P,R7,2*%
%TO.N,/uC_DVI_CEC*%
X37050000Y13235000D03*
%TD*%
D16*
%TO.P,C3,1*%
%TO.N,+1V1*%
X29807053Y17857053D03*
%TO.P,C3,2*%
%TO.N,GND*%
X30492947Y18542947D03*
%TD*%
D15*
%TO.P,C22,1*%
%TO.N,+3V3*%
X22750000Y1515000D03*
%TO.P,C22,2*%
%TO.N,GND*%
X22750000Y2485000D03*
%TD*%
D16*
%TO.P,C1,1*%
%TO.N,+3V3*%
X29007053Y18657053D03*
%TO.P,C1,2*%
%TO.N,GND*%
X29692947Y19342947D03*
%TD*%
D19*
%TO.P,R10,1*%
%TO.N,Net-(J5-CEC)*%
X38050000Y13235000D03*
%TO.P,R10,2*%
%TO.N,/uC_DVI_CEC*%
X38050000Y12265000D03*
%TD*%
D20*
%TO.P,TP3,1,1*%
%TO.N,/RWDS*%
X22550000Y24850000D03*
%TD*%
D21*
%TO.P,C16,1*%
%TO.N,+3V3*%
X19250000Y23450000D03*
%TO.P,C16,2*%
%TO.N,GND*%
X19250000Y24410000D03*
%TD*%
D22*
%TO.P,C15,1*%
%TO.N,+3V3*%
X23790000Y20850000D03*
%TO.P,C15,2*%
%TO.N,GND*%
X24750000Y20850000D03*
%TD*%
D20*
%TO.P,TP1,1,1*%
%TO.N,/~{CS}*%
X21650000Y27050000D03*
%TD*%
%TO.P,TP2,1,1*%
%TO.N,/CK*%
X25450000Y26950000D03*
%TD*%
%TO.P,TP0,1,1*%
%TO.N,/DQ0*%
X23450000Y22850000D03*
%TD*%
%TO.P,TP7,1,1*%
%TO.N,/DQ7*%
X21450000Y20650000D03*
%TD*%
D23*
%TO.P,C14,1*%
%TO.N,+3V3*%
X24950000Y24530000D03*
%TO.P,C14,2*%
%TO.N,GND*%
X24950000Y23570000D03*
%TD*%
D24*
%TO.N,+3V3*%
X26850000Y18700000D03*
X31500000Y14150000D03*
X31500000Y15050000D03*
X14100000Y19550000D03*
X13300000Y19550000D03*
X23010000Y20850000D03*
X29650000Y17100000D03*
X13900000Y25150000D03*
X28300000Y18650000D03*
X23050000Y27350000D03*
X21660000Y9000000D03*
X23650000Y24525000D03*
X22580000Y13920000D03*
X33700000Y20150000D03*
X19250000Y22500000D03*
X31150000Y21650000D03*
X22590000Y14510000D03*
X37050000Y11650000D03*
X34200000Y18150000D03*
X5520000Y11970000D03*
%TO.N,GND*%
X43100000Y21000000D03*
X43100000Y19500000D03*
X43100000Y18000000D03*
X43100000Y16500000D03*
X43250000Y13500000D03*
X31250000Y18500000D03*
X32500000Y17750000D03*
X23390000Y14050000D03*
X23390000Y10450000D03*
X31750000Y19000000D03*
X30500000Y19750000D03*
X7000000Y18050000D03*
X7750000Y17300000D03*
X13300000Y17350000D03*
X14100000Y17350000D03*
X40750000Y13500000D03*
X36440859Y15313435D03*
X32250000Y13450000D03*
X30920000Y13470000D03*
X23390000Y12060000D03*
X21740000Y12470000D03*
X38510000Y23000000D03*
X37550000Y24130000D03*
X38380000Y24940000D03*
X31630000Y25850000D03*
X32350000Y26610000D03*
X34180000Y22440000D03*
X29250000Y24450000D03*
X25850000Y24050000D03*
X37550000Y14700000D03*
X49750000Y26750000D03*
X46750000Y29750000D03*
X3750000Y29750000D03*
X750000Y26750000D03*
X750000Y3750000D03*
X3750000Y750000D03*
X46750000Y750000D03*
X49750000Y3750000D03*
X26150000Y19400000D03*
X26300000Y17950000D03*
X10700000Y18100000D03*
X10700000Y17150000D03*
X24600000Y15450000D03*
X21250000Y15800000D03*
X27200000Y10150000D03*
X21250000Y17500000D03*
X40625000Y21000000D03*
X40625000Y19500000D03*
X40625000Y18000000D03*
X40625000Y16500000D03*
X39975000Y15650000D03*
X38450000Y14500000D03*
X39990000Y21780000D03*
X35470000Y21380000D03*
X37160000Y22340000D03*
X35750000Y23530000D03*
X25890000Y10180000D03*
X25890000Y14330000D03*
X22330000Y8960000D03*
X30150000Y25150000D03*
X35950000Y8150000D03*
X18650000Y21950000D03*
X24150000Y26750000D03*
X24550000Y21450000D03*
X21450000Y23050000D03*
X25826586Y22433611D03*
X27275591Y22882834D03*
X34350000Y10050000D03*
X34182822Y8749232D03*
X20550000Y22000000D03*
X19650000Y20150000D03*
X19750000Y25450000D03*
%TO.N,+1V1*%
X30550000Y16050000D03*
X32500000Y21500000D03*
X30149992Y16400008D03*
X29100000Y17550000D03*
X28700000Y17900000D03*
X33010748Y21114040D03*
%TO.N,VBUS*%
X9350000Y16449992D03*
X9350000Y19900000D03*
X40524970Y12600000D03*
%TO.N,/USB_D-*%
X5944939Y18805061D03*
X21850000Y16940000D03*
%TO.N,/USB_D+*%
X21850000Y16360000D03*
X6355061Y18394939D03*
%TO.N,/RUN_~{RST}*%
X11450000Y25150000D03*
X32039782Y21999990D03*
%TO.N,/USER_LED_BUTTON*%
X6350000Y23600000D03*
X35850000Y15150000D03*
%TO.N,Net-(J5-CEC)*%
X38060000Y13820000D03*
%TO.N,/uC_DVI_SCL*%
X30019805Y24344646D03*
X39765574Y13939375D03*
%TO.N,/uC_DVI_SDA*%
X40372355Y13969006D03*
X30619301Y24369301D03*
%TO.N,/uC_DVI_CEC*%
X29956853Y23747955D03*
%TO.N,/PIX3*%
X34350000Y9450000D03*
%TO.N,/PIX2*%
X33850000Y8250000D03*
%TO.N,/~{CS}*%
X21050000Y28350000D03*
%TO.N,/DQ7*%
X19250000Y21450000D03*
%TO.N,/DQ1*%
X26274087Y21968326D03*
X21450000Y22050000D03*
%TO.N,/DQ0*%
X22512605Y22878453D03*
X26754249Y22418326D03*
%TO.N,/RWDS*%
X22450000Y23950000D03*
%TO.N,/CK*%
X26650000Y25550000D03*
%TD*%
D25*
%TO.N,+3V3*%
X28307053Y18657053D02*
X28300000Y18650000D01*
X29692947Y17057053D02*
X29650000Y17100000D01*
X29007053Y18657053D02*
X28307053Y18657053D01*
X31557053Y21242947D02*
X31150000Y21650000D01*
X23790000Y20850000D02*
X23010000Y20850000D01*
X23750000Y2000000D02*
X23265000Y1515000D01*
X33992947Y18842947D02*
X34200000Y18635894D01*
X33192947Y19642947D02*
X33700000Y20150000D01*
X23265000Y1515000D02*
X22750000Y1515000D01*
X34200000Y18635894D02*
X34200000Y18150000D01*
X22235000Y1515000D02*
X22750000Y1515000D01*
D26*
X13155000Y25160000D02*
X13890000Y25160000D01*
D25*
X31592947Y21242947D02*
X31557053Y21242947D01*
X19250000Y23450000D02*
X19250000Y22500000D01*
X33192947Y19642947D02*
X33992947Y18842947D01*
X24950000Y24530000D02*
X23655000Y24530000D01*
X30607053Y17057053D02*
X29692947Y17057053D01*
X23655000Y24530000D02*
X23650000Y24525000D01*
X21660000Y9000000D02*
X21660000Y2090000D01*
D26*
X13890000Y25160000D02*
X13900000Y25150000D01*
D25*
X21660000Y2090000D02*
X22235000Y1515000D01*
D26*
X37050000Y12265000D02*
X37050000Y11650000D01*
D25*
X25167000Y2000000D02*
X23750000Y2000000D01*
%TO.N,+1V1*%
X32392947Y20442947D02*
X32392947Y20496239D01*
X31407053Y16257053D02*
X31250000Y16100000D01*
X32392947Y20496239D02*
X33010748Y21114040D01*
X31250000Y16100000D02*
X30450000Y16100000D01*
X29807053Y17857053D02*
X29335021Y17857053D01*
X32500000Y21500000D02*
X32624788Y21500000D01*
X29050000Y17550000D02*
X29100000Y17550000D01*
X28700000Y17900000D02*
X29050000Y17550000D01*
X29335021Y17857053D02*
X29100000Y17622032D01*
X32624788Y21500000D02*
X33010748Y21114040D01*
X30450000Y16100000D02*
X30149992Y16400008D01*
X29100000Y17622032D02*
X29100000Y17550000D01*
D26*
%TO.N,VBUS*%
X40385000Y12600000D02*
X40524970Y12600000D01*
X40050000Y12265000D02*
X40385000Y12600000D01*
X39050000Y12265000D02*
X40050000Y12265000D01*
D27*
%TO.N,/USB_D-*%
X14451484Y20995000D02*
X18551484Y16895000D01*
X5944939Y18805061D02*
X6008578Y18805061D01*
X6008578Y18805061D02*
X8198517Y20995000D01*
X21805000Y16895000D02*
X21850000Y16940000D01*
X8198517Y20995000D02*
X14451484Y20995000D01*
X18551484Y16895000D02*
X21805000Y16895000D01*
%TO.N,/USB_D+*%
X6355061Y18394939D02*
X6355061Y18458578D01*
X21805000Y16405000D02*
X21850000Y16360000D01*
X6355061Y18458578D02*
X8401483Y20505000D01*
X18348516Y16405000D02*
X21805000Y16405000D01*
X8401483Y20505000D02*
X14248516Y20505000D01*
X14248516Y20505000D02*
X18348516Y16405000D01*
D26*
%TO.N,/RUN_~{RST}*%
X12185000Y25160000D02*
X11460000Y25160000D01*
X12185000Y25160000D02*
X13175000Y26150000D01*
X28409985Y22650000D02*
X31389772Y22650000D01*
X13175000Y26150000D02*
X24909985Y26150000D01*
X31389772Y22650000D02*
X32039782Y21999990D01*
X11460000Y25160000D02*
X11450000Y25150000D01*
X24909985Y26150000D02*
X28409985Y22650000D01*
%TO.N,/USER_LED_BUTTON*%
X32550000Y11250000D02*
X11900000Y11250000D01*
X5494939Y19494939D02*
X6250000Y20250000D01*
X35850000Y15150000D02*
X35850000Y14550000D01*
X6250000Y20250000D02*
X6250000Y23500000D01*
X5494939Y17655061D02*
X5494939Y19494939D01*
X6250000Y23500000D02*
X6350000Y23600000D01*
X11900000Y11250000D02*
X5494939Y17655061D01*
X35850000Y14550000D02*
X32550000Y11250000D01*
%TO.N,Net-(J5-CEC)*%
X38050000Y13810000D02*
X38060000Y13820000D01*
X38050000Y13235000D02*
X38050000Y13810000D01*
%TO.N,/uC_DVI_SCL*%
X39050000Y13235000D02*
X39754375Y13939375D01*
X34609657Y23476065D02*
X37399989Y20685733D01*
X37399989Y16304960D02*
X39765574Y13939375D01*
X39754375Y13939375D02*
X39765574Y13939375D01*
X37399989Y20685733D02*
X37399989Y16304960D01*
X30019805Y24344646D02*
X30019805Y24332400D01*
X30876140Y23476065D02*
X34609657Y23476065D01*
X30019805Y24332400D02*
X30876140Y23476065D01*
%TO.N,/uC_DVI_SDA*%
X37700000Y20810000D02*
X37700000Y16641361D01*
X37700000Y16641361D02*
X40372355Y13969006D01*
X40372355Y13882355D02*
X40372355Y13969006D01*
X31059906Y23928696D02*
X34581304Y23928696D01*
X34581304Y23928696D02*
X37700000Y20810000D01*
X40110000Y13295000D02*
X40110000Y13620000D01*
X40110000Y13620000D02*
X40372355Y13882355D01*
X30619301Y24369301D02*
X31059906Y23928696D01*
X40050000Y13235000D02*
X40110000Y13295000D01*
%TO.N,/uC_DVI_CEC*%
X29956853Y23747955D02*
X30704808Y23000000D01*
X37050000Y20611444D02*
X37050000Y13235000D01*
X37080000Y13235000D02*
X38050000Y12265000D01*
X34661444Y23000000D02*
X37050000Y20611444D01*
X30704808Y23000000D02*
X34661444Y23000000D01*
X37050000Y13235000D02*
X37080000Y13235000D01*
%TO.N,/PIX3*%
X34350000Y9450000D02*
X35885000Y9450000D01*
X35885000Y9450000D02*
X38820000Y6515000D01*
%TO.N,/PIX2*%
X33850000Y8250000D02*
X34545000Y8250000D01*
X34545000Y8250000D02*
X36280000Y6515000D01*
%TO.N,/~{CS}*%
X21050000Y28350000D02*
X21650000Y27750000D01*
X21650000Y27750000D02*
X21650000Y27050000D01*
%TO.N,/DQ7*%
X20050000Y20650000D02*
X19250000Y21450000D01*
X21450000Y20650000D02*
X20050000Y20650000D01*
%TO.N,/DQ1*%
X26274087Y21968326D02*
X21531674Y21968326D01*
X21531674Y21968326D02*
X21450000Y22050000D01*
%TO.N,/DQ0*%
X22584152Y22950000D02*
X22512605Y22878453D01*
X26222575Y22950000D02*
X22584152Y22950000D01*
X26754249Y22418326D02*
X26222575Y22950000D01*
%TO.N,/RWDS*%
X22450000Y23950000D02*
X22450000Y24750000D01*
X22450000Y24750000D02*
X22550000Y24850000D01*
%TO.N,/CK*%
X26650000Y25550000D02*
X25450000Y26750000D01*
X25450000Y26750000D02*
X25450000Y26950000D01*
%TD*%
%TA.AperFunction,Conductor*%
%TO.N,GND*%
G36*
X37494503Y15820831D02*
G01*
X38398459Y14916874D01*
X39300354Y14014979D01*
X39328131Y13960462D01*
X39318560Y13900030D01*
X39300354Y13874972D01*
X39184882Y13759497D01*
X39130366Y13731719D01*
X39114878Y13730500D01*
X38844472Y13730500D01*
X38803886Y13724587D01*
X38776828Y13720645D01*
X38672489Y13669636D01*
X38643763Y13640910D01*
X38589246Y13613134D01*
X38528814Y13622706D01*
X38485550Y13665971D01*
X38475979Y13726401D01*
X38490804Y13820000D01*
X38469719Y13953126D01*
X38408528Y14073220D01*
X38313220Y14168528D01*
X38313217Y14168530D01*
X38193129Y14229718D01*
X38193127Y14229719D01*
X38060000Y14250804D01*
X37926872Y14229719D01*
X37926870Y14229718D01*
X37806782Y14168530D01*
X37711470Y14073218D01*
X37650282Y13953130D01*
X37650281Y13953128D01*
X37629196Y13820001D01*
X37629196Y13820000D01*
X37647783Y13702645D01*
X37638212Y13642213D01*
X37620006Y13617154D01*
X37620003Y13617151D01*
X37565486Y13589374D01*
X37505054Y13598945D01*
X37479998Y13617149D01*
X37427511Y13669636D01*
X37381019Y13692365D01*
X37337046Y13734908D01*
X37325500Y13781305D01*
X37325500Y15750826D01*
X37344407Y15809017D01*
X37393907Y15844981D01*
X37455093Y15844981D01*
X37494503Y15820831D01*
G37*
%TD.AperFunction*%
%TA.AperFunction,Conductor*%
G36*
X26125644Y22655593D02*
G01*
X26137449Y22645511D01*
X26231436Y22551523D01*
X26259212Y22497009D01*
X26249641Y22436577D01*
X26206376Y22393312D01*
X26176920Y22383741D01*
X26140958Y22378045D01*
X26140957Y22378044D01*
X26020869Y22316856D01*
X26020865Y22316853D01*
X25976834Y22272822D01*
X25922317Y22245045D01*
X25906831Y22243826D01*
X24249500Y22243826D01*
X24191309Y22262733D01*
X24155345Y22312233D01*
X24150500Y22342826D01*
X24150500Y22575500D01*
X24169407Y22633691D01*
X24218907Y22669655D01*
X24249500Y22674500D01*
X26067453Y22674500D01*
X26125644Y22655593D01*
G37*
%TD.AperFunction*%
%TA.AperFunction,Conductor*%
G36*
X47252777Y30174345D02*
G01*
X47571893Y30156423D01*
X47582916Y30155181D01*
X47895291Y30102107D01*
X47906085Y30099644D01*
X48210564Y30011925D01*
X48221035Y30008261D01*
X48513758Y29887010D01*
X48523760Y29882193D01*
X48801061Y29728935D01*
X48810462Y29723028D01*
X49068860Y29539684D01*
X49077539Y29532763D01*
X49118224Y29496405D01*
X49313796Y29321632D01*
X49321631Y29313797D01*
X49409095Y29215925D01*
X49532762Y29077540D01*
X49539683Y29068861D01*
X49723027Y28810463D01*
X49728934Y28801062D01*
X49882192Y28523761D01*
X49887009Y28513759D01*
X50008258Y28221040D01*
X50011925Y28210561D01*
X50071551Y28003596D01*
X50089791Y27940282D01*
X50099639Y27906101D01*
X50102109Y27895277D01*
X50155179Y27582922D01*
X50156422Y27571890D01*
X50174344Y27252778D01*
X50174500Y27247227D01*
X50174500Y3252774D01*
X50174344Y3247223D01*
X50156422Y2928111D01*
X50155179Y2917079D01*
X50102109Y2604724D01*
X50099639Y2593900D01*
X50011925Y2289440D01*
X50008258Y2278961D01*
X49887009Y1986242D01*
X49882192Y1976240D01*
X49728934Y1698939D01*
X49723027Y1689538D01*
X49539683Y1431140D01*
X49532762Y1422461D01*
X49321639Y1186212D01*
X49313788Y1178361D01*
X49077539Y967238D01*
X49068860Y960317D01*
X48810462Y776973D01*
X48801061Y771066D01*
X48523760Y617808D01*
X48513758Y612991D01*
X48221039Y491742D01*
X48210560Y488075D01*
X47906100Y400361D01*
X47895276Y397891D01*
X47582921Y344821D01*
X47571889Y343578D01*
X47252778Y325656D01*
X47247227Y325500D01*
X3252773Y325500D01*
X3247222Y325656D01*
X2928110Y343578D01*
X2917078Y344821D01*
X2604723Y397891D01*
X2593899Y400361D01*
X2289439Y488075D01*
X2278960Y491742D01*
X1986241Y612991D01*
X1976239Y617808D01*
X1698938Y771066D01*
X1689537Y776973D01*
X1431139Y960317D01*
X1422460Y967238D01*
X1312631Y1065386D01*
X1186203Y1178369D01*
X1178368Y1186204D01*
X975200Y1413550D01*
X967237Y1422461D01*
X960316Y1431140D01*
X776972Y1689538D01*
X771065Y1698939D01*
X617807Y1976240D01*
X612990Y1986242D01*
X602942Y2010500D01*
X491739Y2278965D01*
X488074Y2289440D01*
X476100Y2331003D01*
X400356Y2593915D01*
X397893Y2604709D01*
X350929Y2881121D01*
X749500Y2881121D01*
X749500Y2618880D01*
X783518Y2360490D01*
X783730Y2358884D01*
X824713Y2205934D01*
X851600Y2105589D01*
X851604Y2105576D01*
X951953Y1863311D01*
X951955Y1863307D01*
X951957Y1863303D01*
X1083076Y1636197D01*
X1242718Y1428149D01*
X1428149Y1242718D01*
X1636197Y1083076D01*
X1863303Y951957D01*
X2105581Y851602D01*
X2358884Y783730D01*
X2618880Y749500D01*
X2618881Y749500D01*
X2881119Y749500D01*
X2881120Y749500D01*
X3141116Y783730D01*
X3394419Y851602D01*
X3636697Y951957D01*
X3863803Y1083076D01*
X4071851Y1242718D01*
X4257282Y1428149D01*
X4416924Y1636197D01*
X4548043Y1863303D01*
X4648398Y2105581D01*
X4716270Y2358884D01*
X4750500Y2618880D01*
X4750500Y2881120D01*
X4716270Y3141116D01*
X4648398Y3394419D01*
X4548043Y3636697D01*
X4416924Y3863803D01*
X4257282Y4071851D01*
X4071851Y4257282D01*
X3863803Y4416924D01*
X3863804Y4416924D01*
X3863802Y4416925D01*
X3763212Y4475000D01*
X3636697Y4548043D01*
X3636693Y4548045D01*
X3636689Y4548047D01*
X3394424Y4648396D01*
X3394423Y4648397D01*
X3394419Y4648398D01*
X3141116Y4716270D01*
X3141111Y4716271D01*
X3141110Y4716271D01*
X2881120Y4750500D01*
X2618880Y4750500D01*
X2618879Y4750500D01*
X2358889Y4716271D01*
X2358886Y4716271D01*
X2358884Y4716270D01*
X2173464Y4666588D01*
X2105588Y4648400D01*
X2105575Y4648396D01*
X1863310Y4548047D01*
X1636197Y4416925D01*
X1428152Y4257285D01*
X1242715Y4071848D01*
X1083075Y3863803D01*
X951953Y3636690D01*
X851604Y3394425D01*
X851602Y3394419D01*
X807168Y3228586D01*
X783729Y3141111D01*
X749500Y2881121D01*
X350929Y2881121D01*
X344819Y2917084D01*
X343577Y2928111D01*
X340617Y2980811D01*
X325656Y3247223D01*
X325500Y3252774D01*
X325500Y9059309D01*
X21209500Y9059309D01*
X21209500Y2030691D01*
X21226968Y1965500D01*
X21240201Y1916113D01*
X21240202Y1916111D01*
X21240203Y1916108D01*
X21299507Y1813391D01*
X21299508Y1813390D01*
X21299509Y1813389D01*
X21299511Y1813386D01*
X21958386Y1154510D01*
X22061113Y1095201D01*
X22085320Y1088716D01*
X22085325Y1088713D01*
X22085326Y1088714D01*
X22175688Y1064501D01*
X22175690Y1064500D01*
X22175691Y1064500D01*
X22382035Y1064500D01*
X22425515Y1054441D01*
X22476830Y1029355D01*
X22544472Y1019500D01*
X22544475Y1019500D01*
X22955524Y1019500D01*
X22955528Y1019500D01*
X23023170Y1029355D01*
X23074485Y1054441D01*
X23117965Y1064500D01*
X23324309Y1064500D01*
X23414669Y1088713D01*
X23414672Y1088713D01*
X23427903Y1092259D01*
X23438887Y1095201D01*
X23541614Y1154511D01*
X23907608Y1520504D01*
X23962124Y1548281D01*
X23977611Y1549500D01*
X24157310Y1549500D01*
X24215501Y1530593D01*
X24244618Y1497171D01*
X24289315Y1413550D01*
X24420590Y1253590D01*
X24420595Y1253586D01*
X24580547Y1122317D01*
X24580548Y1122317D01*
X24580550Y1122315D01*
X24763046Y1024768D01*
X24900997Y982922D01*
X24961065Y964700D01*
X24961070Y964699D01*
X25166997Y944417D01*
X25167000Y944417D01*
X25167003Y944417D01*
X25372929Y964699D01*
X25372934Y964700D01*
X25381301Y967238D01*
X25570954Y1024768D01*
X25753450Y1122315D01*
X25913410Y1253590D01*
X26044685Y1413550D01*
X26142232Y1596046D01*
X26202300Y1794066D01*
X26202301Y1794071D01*
X26222583Y1999997D01*
X26222583Y2000004D01*
X26202301Y2205930D01*
X26202300Y2205935D01*
X26164064Y2331983D01*
X26142232Y2403954D01*
X26044685Y2586450D01*
X26034190Y2599238D01*
X25913414Y2746405D01*
X25913410Y2746410D01*
X25811003Y2830453D01*
X25753452Y2877684D01*
X25747022Y2881121D01*
X45749500Y2881121D01*
X45749500Y2618880D01*
X45783518Y2360490D01*
X45783730Y2358884D01*
X45824713Y2205934D01*
X45851600Y2105589D01*
X45851604Y2105576D01*
X45951953Y1863311D01*
X45951955Y1863307D01*
X45951957Y1863303D01*
X46083076Y1636197D01*
X46242718Y1428149D01*
X46428149Y1242718D01*
X46636197Y1083076D01*
X46863303Y951957D01*
X47105581Y851602D01*
X47358884Y783730D01*
X47618880Y749500D01*
X47618881Y749500D01*
X47881119Y749500D01*
X47881120Y749500D01*
X48141116Y783730D01*
X48394419Y851602D01*
X48636697Y951957D01*
X48863803Y1083076D01*
X49071851Y1242718D01*
X49257282Y1428149D01*
X49416924Y1636197D01*
X49548043Y1863303D01*
X49648398Y2105581D01*
X49716270Y2358884D01*
X49750500Y2618880D01*
X49750500Y2881120D01*
X49716270Y3141116D01*
X49648398Y3394419D01*
X49548043Y3636697D01*
X49416924Y3863803D01*
X49257282Y4071851D01*
X49071851Y4257282D01*
X48863803Y4416924D01*
X48863804Y4416924D01*
X48863802Y4416925D01*
X48763212Y4475000D01*
X48636697Y4548043D01*
X48636693Y4548045D01*
X48636689Y4548047D01*
X48394424Y4648396D01*
X48394423Y4648397D01*
X48394419Y4648398D01*
X48141116Y4716270D01*
X48141111Y4716271D01*
X48141110Y4716271D01*
X47881120Y4750500D01*
X47618880Y4750500D01*
X47618879Y4750500D01*
X47358889Y4716271D01*
X47358886Y4716271D01*
X47358884Y4716270D01*
X47173464Y4666588D01*
X47105588Y4648400D01*
X47105575Y4648396D01*
X46863310Y4548047D01*
X46636197Y4416925D01*
X46428152Y4257285D01*
X46242715Y4071848D01*
X46083075Y3863803D01*
X45951953Y3636690D01*
X45851604Y3394425D01*
X45851602Y3394419D01*
X45807168Y3228586D01*
X45783729Y3141111D01*
X45749500Y2881121D01*
X25747022Y2881121D01*
X25570954Y2975232D01*
X25372934Y3035301D01*
X25372929Y3035302D01*
X25167003Y3055583D01*
X25166997Y3055583D01*
X24961070Y3035302D01*
X24961065Y3035301D01*
X24763045Y2975232D01*
X24580547Y2877684D01*
X24420595Y2746415D01*
X24420585Y2746405D01*
X24289315Y2586451D01*
X24272449Y2554898D01*
X24244619Y2502831D01*
X24200515Y2460425D01*
X24157310Y2450500D01*
X23690691Y2450500D01*
X23576114Y2419799D01*
X23473383Y2360488D01*
X23439003Y2326108D01*
X23384486Y2298331D01*
X23324054Y2307903D01*
X23299975Y2331983D01*
X23298996Y2331003D01*
X23269999Y2360000D01*
X22724000Y2360000D01*
X22665809Y2378907D01*
X22629845Y2428407D01*
X22625000Y2459000D01*
X22625000Y2979999D01*
X22875000Y2979999D01*
X22875000Y2610001D01*
X22875001Y2610000D01*
X23269999Y2610000D01*
X23270000Y2610001D01*
X23270000Y2673221D01*
X23269999Y2673226D01*
X23263338Y2723828D01*
X23211548Y2834891D01*
X23124890Y2921549D01*
X23013826Y2973339D01*
X23013828Y2973339D01*
X22963225Y2980000D01*
X22875001Y2980000D01*
X22875000Y2979999D01*
X22625000Y2979999D01*
X22624999Y2980000D01*
X22536774Y2980000D01*
X22486172Y2973339D01*
X22375109Y2921549D01*
X22282329Y2828768D01*
X22280644Y2830453D01*
X22241726Y2801130D01*
X22180549Y2800066D01*
X22130431Y2835163D01*
X22110515Y2893016D01*
X22110500Y2894738D01*
X22110500Y4540004D01*
X24111417Y4540004D01*
X24111417Y4539997D01*
X24131698Y4334071D01*
X24131699Y4334066D01*
X24191768Y4136046D01*
X24289316Y3953548D01*
X24420585Y3793596D01*
X24420590Y3793590D01*
X24420595Y3793586D01*
X24580547Y3662317D01*
X24580548Y3662317D01*
X24580550Y3662315D01*
X24763046Y3564768D01*
X24900997Y3522922D01*
X24961065Y3504700D01*
X24961070Y3504699D01*
X25166997Y3484417D01*
X25167000Y3484417D01*
X25167003Y3484417D01*
X25372929Y3504699D01*
X25372934Y3504700D01*
X25570954Y3564768D01*
X25753450Y3662315D01*
X25913410Y3793590D01*
X26044685Y3953550D01*
X26142232Y4136046D01*
X26202300Y4334066D01*
X26202301Y4334071D01*
X26222583Y4539997D01*
X26222583Y4540004D01*
X26202301Y4745930D01*
X26202300Y4745935D01*
X26184078Y4806003D01*
X26172339Y4844701D01*
X30150000Y4844701D01*
X30150000Y4100001D01*
X30150001Y4100000D01*
X30715856Y4100000D01*
X30700000Y4040826D01*
X30700000Y3909174D01*
X30715856Y3850000D01*
X30150001Y3850000D01*
X30150000Y3849999D01*
X30150000Y3105300D01*
X30161603Y3046964D01*
X30205806Y2980811D01*
X30205810Y2980807D01*
X30271963Y2936604D01*
X30330299Y2925001D01*
X30330303Y2925000D01*
X31074999Y2925000D01*
X31075000Y2925001D01*
X31075000Y3490856D01*
X31134174Y3475000D01*
X31265826Y3475000D01*
X31325000Y3490856D01*
X31325000Y2925001D01*
X31325001Y2925000D01*
X32069697Y2925000D01*
X32069700Y2925001D01*
X32128036Y2936604D01*
X32194189Y2980807D01*
X32194193Y2980811D01*
X32238396Y3046964D01*
X32249999Y3105300D01*
X32250000Y3105303D01*
X32250000Y3849999D01*
X32249999Y3850000D01*
X31684144Y3850000D01*
X31700000Y3909174D01*
X31700000Y3975004D01*
X32684417Y3975004D01*
X32684417Y3974997D01*
X32704698Y3769071D01*
X32704699Y3769066D01*
X32764768Y3571046D01*
X32862316Y3388548D01*
X32955887Y3274531D01*
X32993590Y3228590D01*
X32993595Y3228586D01*
X33153547Y3097317D01*
X33153548Y3097317D01*
X33153550Y3097315D01*
X33336046Y2999768D01*
X33473997Y2957922D01*
X33534065Y2939700D01*
X33534070Y2939699D01*
X33739997Y2919417D01*
X33740000Y2919417D01*
X33740003Y2919417D01*
X33945929Y2939699D01*
X33945934Y2939700D01*
X34143954Y2999768D01*
X34326450Y3097315D01*
X34486410Y3228590D01*
X34617685Y3388550D01*
X34715232Y3571046D01*
X34775300Y3769066D01*
X34775301Y3769071D01*
X34795583Y3974997D01*
X34795583Y3975004D01*
X35224417Y3975004D01*
X35224417Y3974997D01*
X35244698Y3769071D01*
X35244699Y3769066D01*
X35304768Y3571046D01*
X35402316Y3388548D01*
X35495887Y3274531D01*
X35533590Y3228590D01*
X35533595Y3228586D01*
X35693547Y3097317D01*
X35693548Y3097317D01*
X35693550Y3097315D01*
X35876046Y2999768D01*
X36013997Y2957922D01*
X36074065Y2939700D01*
X36074070Y2939699D01*
X36279997Y2919417D01*
X36280000Y2919417D01*
X36280003Y2919417D01*
X36485929Y2939699D01*
X36485934Y2939700D01*
X36683954Y2999768D01*
X36866450Y3097315D01*
X37026410Y3228590D01*
X37157685Y3388550D01*
X37255232Y3571046D01*
X37315300Y3769066D01*
X37315301Y3769071D01*
X37335583Y3974997D01*
X37335583Y3975004D01*
X37764417Y3975004D01*
X37764417Y3974997D01*
X37784698Y3769071D01*
X37784699Y3769066D01*
X37844768Y3571046D01*
X37942316Y3388548D01*
X38035887Y3274531D01*
X38073590Y3228590D01*
X38073595Y3228586D01*
X38233547Y3097317D01*
X38233548Y3097317D01*
X38233550Y3097315D01*
X38416046Y2999768D01*
X38553997Y2957922D01*
X38614065Y2939700D01*
X38614070Y2939699D01*
X38819997Y2919417D01*
X38820000Y2919417D01*
X38820003Y2919417D01*
X39025929Y2939699D01*
X39025934Y2939700D01*
X39223954Y2999768D01*
X39406450Y3097315D01*
X39566410Y3228590D01*
X39697685Y3388550D01*
X39795232Y3571046D01*
X39855300Y3769066D01*
X39855301Y3769071D01*
X39875583Y3974997D01*
X39875583Y3975004D01*
X39855301Y4180930D01*
X39855300Y4180935D01*
X39808848Y4334066D01*
X39795232Y4378954D01*
X39697685Y4561450D01*
X39626327Y4648400D01*
X39566414Y4721405D01*
X39566410Y4721410D01*
X39530964Y4750500D01*
X39406452Y4852684D01*
X39223954Y4950232D01*
X39025934Y5010301D01*
X39025929Y5010302D01*
X38820003Y5030583D01*
X38819997Y5030583D01*
X38614070Y5010302D01*
X38614065Y5010301D01*
X38416045Y4950232D01*
X38233547Y4852684D01*
X38073595Y4721415D01*
X38073585Y4721405D01*
X37942316Y4561453D01*
X37844768Y4378955D01*
X37784699Y4180935D01*
X37784698Y4180930D01*
X37764417Y3975004D01*
X37335583Y3975004D01*
X37315301Y4180930D01*
X37315300Y4180935D01*
X37268848Y4334066D01*
X37255232Y4378954D01*
X37157685Y4561450D01*
X37086327Y4648400D01*
X37026414Y4721405D01*
X37026410Y4721410D01*
X36990964Y4750500D01*
X36866452Y4852684D01*
X36683954Y4950232D01*
X36485934Y5010301D01*
X36485929Y5010302D01*
X36280003Y5030583D01*
X36279997Y5030583D01*
X36074070Y5010302D01*
X36074065Y5010301D01*
X35876045Y4950232D01*
X35693547Y4852684D01*
X35533595Y4721415D01*
X35533585Y4721405D01*
X35402316Y4561453D01*
X35304768Y4378955D01*
X35244699Y4180935D01*
X35244698Y4180930D01*
X35224417Y3975004D01*
X34795583Y3975004D01*
X34775301Y4180930D01*
X34775300Y4180935D01*
X34728848Y4334066D01*
X34715232Y4378954D01*
X34617685Y4561450D01*
X34546327Y4648400D01*
X34486414Y4721405D01*
X34486410Y4721410D01*
X34450964Y4750500D01*
X34326452Y4852684D01*
X34143954Y4950232D01*
X33945934Y5010301D01*
X33945929Y5010302D01*
X33740003Y5030583D01*
X33739997Y5030583D01*
X33534070Y5010302D01*
X33534065Y5010301D01*
X33336045Y4950232D01*
X33153547Y4852684D01*
X32993595Y4721415D01*
X32993585Y4721405D01*
X32862316Y4561453D01*
X32764768Y4378955D01*
X32704699Y4180935D01*
X32704698Y4180930D01*
X32684417Y3975004D01*
X31700000Y3975004D01*
X31700000Y4040826D01*
X31684144Y4100000D01*
X32249999Y4100000D01*
X32250000Y4100001D01*
X32250000Y4844698D01*
X32249999Y4844701D01*
X32238396Y4903037D01*
X32194193Y4969190D01*
X32194189Y4969194D01*
X32128036Y5013397D01*
X32069700Y5025000D01*
X31325001Y5025000D01*
X31325000Y5024999D01*
X31325000Y4459145D01*
X31265826Y4475000D01*
X31134174Y4475000D01*
X31075000Y4459145D01*
X31075000Y5024999D01*
X31074999Y5025000D01*
X30330299Y5025000D01*
X30271963Y5013397D01*
X30205810Y4969194D01*
X30205806Y4969190D01*
X30161603Y4903037D01*
X30150000Y4844701D01*
X26172339Y4844701D01*
X26142232Y4943954D01*
X26044685Y5126450D01*
X25913410Y5286410D01*
X25913404Y5286415D01*
X25753452Y5417684D01*
X25570954Y5515232D01*
X25372934Y5575301D01*
X25372929Y5575302D01*
X25167003Y5595583D01*
X25166997Y5595583D01*
X24961070Y5575302D01*
X24961065Y5575301D01*
X24763045Y5515232D01*
X24580547Y5417684D01*
X24420595Y5286415D01*
X24420585Y5286405D01*
X24289316Y5126453D01*
X24191768Y4943955D01*
X24131699Y4745935D01*
X24131698Y4745930D01*
X24111417Y4540004D01*
X22110500Y4540004D01*
X22110500Y7949701D01*
X24117000Y7949701D01*
X24117000Y7205001D01*
X24117001Y7205000D01*
X24682856Y7205000D01*
X24667000Y7145826D01*
X24667000Y7014174D01*
X24682856Y6955000D01*
X24117001Y6955000D01*
X24117000Y6954999D01*
X24117000Y6210300D01*
X24128603Y6151964D01*
X24172806Y6085811D01*
X24172810Y6085807D01*
X24238963Y6041604D01*
X24297299Y6030001D01*
X24297303Y6030000D01*
X25041999Y6030000D01*
X25042000Y6030001D01*
X25042000Y6595856D01*
X25101174Y6580000D01*
X25232826Y6580000D01*
X25292000Y6595856D01*
X25292000Y6030001D01*
X25292001Y6030000D01*
X26036697Y6030000D01*
X26036700Y6030001D01*
X26095036Y6041604D01*
X26161189Y6085807D01*
X26161193Y6085811D01*
X26205396Y6151964D01*
X26216999Y6210300D01*
X26217000Y6210303D01*
X26217000Y6515004D01*
X30144417Y6515004D01*
X30144417Y6514997D01*
X30164698Y6309071D01*
X30164699Y6309066D01*
X30224768Y6111046D01*
X30322316Y5928548D01*
X30453585Y5768596D01*
X30453590Y5768590D01*
X30453595Y5768586D01*
X30613547Y5637317D01*
X30613548Y5637317D01*
X30613550Y5637315D01*
X30796046Y5539768D01*
X30933997Y5497922D01*
X30994065Y5479700D01*
X30994070Y5479699D01*
X31199997Y5459417D01*
X31200000Y5459417D01*
X31200003Y5459417D01*
X31405929Y5479699D01*
X31405934Y5479700D01*
X31603954Y5539768D01*
X31786450Y5637315D01*
X31946410Y5768590D01*
X32077685Y5928550D01*
X32175232Y6111046D01*
X32235300Y6309066D01*
X32235301Y6309071D01*
X32255583Y6514997D01*
X32255583Y6515004D01*
X32684417Y6515004D01*
X32684417Y6514997D01*
X32704698Y6309071D01*
X32704699Y6309066D01*
X32764768Y6111046D01*
X32862316Y5928548D01*
X32993585Y5768596D01*
X32993590Y5768590D01*
X32993595Y5768586D01*
X33153547Y5637317D01*
X33153548Y5637317D01*
X33153550Y5637315D01*
X33336046Y5539768D01*
X33473997Y5497922D01*
X33534065Y5479700D01*
X33534070Y5479699D01*
X33739997Y5459417D01*
X33740000Y5459417D01*
X33740003Y5459417D01*
X33945929Y5479699D01*
X33945934Y5479700D01*
X34143954Y5539768D01*
X34326450Y5637315D01*
X34486410Y5768590D01*
X34617685Y5928550D01*
X34715232Y6111046D01*
X34775300Y6309066D01*
X34775301Y6309071D01*
X34795583Y6514997D01*
X34795583Y6515004D01*
X34775301Y6720930D01*
X34775300Y6720935D01*
X34757078Y6781003D01*
X34715232Y6918954D01*
X34617685Y7101450D01*
X34486410Y7261410D01*
X34333369Y7387007D01*
X34326452Y7392684D01*
X34143954Y7490232D01*
X33945934Y7550301D01*
X33945929Y7550302D01*
X33740003Y7570583D01*
X33739997Y7570583D01*
X33534070Y7550302D01*
X33534065Y7550301D01*
X33336045Y7490232D01*
X33153547Y7392684D01*
X32993595Y7261415D01*
X32993585Y7261405D01*
X32862316Y7101453D01*
X32764768Y6918955D01*
X32704699Y6720935D01*
X32704698Y6720930D01*
X32684417Y6515004D01*
X32255583Y6515004D01*
X32235301Y6720930D01*
X32235300Y6720935D01*
X32217078Y6781003D01*
X32175232Y6918954D01*
X32077685Y7101450D01*
X31946410Y7261410D01*
X31793369Y7387007D01*
X31786452Y7392684D01*
X31603954Y7490232D01*
X31405934Y7550301D01*
X31405929Y7550302D01*
X31200003Y7570583D01*
X31199997Y7570583D01*
X30994070Y7550302D01*
X30994065Y7550301D01*
X30796045Y7490232D01*
X30613547Y7392684D01*
X30453595Y7261415D01*
X30453585Y7261405D01*
X30322316Y7101453D01*
X30224768Y6918955D01*
X30164699Y6720935D01*
X30164698Y6720930D01*
X30144417Y6515004D01*
X26217000Y6515004D01*
X26217000Y6954999D01*
X26216999Y6955000D01*
X25651144Y6955000D01*
X25667000Y7014174D01*
X25667000Y7145826D01*
X25651144Y7205000D01*
X26216999Y7205000D01*
X26217000Y7205001D01*
X26217000Y7949698D01*
X26216999Y7949701D01*
X26205396Y8008037D01*
X26161193Y8074190D01*
X26161189Y8074194D01*
X26095036Y8118397D01*
X26036700Y8130000D01*
X25292001Y8130000D01*
X25292000Y8129999D01*
X25292000Y7564145D01*
X25232826Y7580000D01*
X25101174Y7580000D01*
X25042000Y7564145D01*
X25042000Y8129999D01*
X25041999Y8130000D01*
X24297299Y8130000D01*
X24238963Y8118397D01*
X24172810Y8074194D01*
X24172806Y8074190D01*
X24128603Y8008037D01*
X24117000Y7949701D01*
X22110500Y7949701D01*
X22110500Y8250001D01*
X33419196Y8250001D01*
X33419196Y8250000D01*
X33440281Y8116873D01*
X33440282Y8116871D01*
X33501470Y7996783D01*
X33501472Y7996780D01*
X33596780Y7901472D01*
X33716874Y7840281D01*
X33850000Y7819196D01*
X33983126Y7840281D01*
X34103220Y7901472D01*
X34125237Y7923489D01*
X34147253Y7945504D01*
X34201770Y7973281D01*
X34217256Y7974500D01*
X34389877Y7974500D01*
X34448068Y7955593D01*
X34459881Y7945504D01*
X35316128Y7089257D01*
X35343905Y7034740D01*
X35334334Y6974308D01*
X35333434Y6972585D01*
X35304770Y6918960D01*
X35304768Y6918955D01*
X35244699Y6720935D01*
X35244698Y6720930D01*
X35224417Y6515004D01*
X35224417Y6514997D01*
X35244698Y6309071D01*
X35244699Y6309066D01*
X35304768Y6111046D01*
X35402316Y5928548D01*
X35533585Y5768596D01*
X35533590Y5768590D01*
X35533595Y5768586D01*
X35693547Y5637317D01*
X35693548Y5637317D01*
X35693550Y5637315D01*
X35876046Y5539768D01*
X36013997Y5497922D01*
X36074065Y5479700D01*
X36074070Y5479699D01*
X36279997Y5459417D01*
X36280000Y5459417D01*
X36280003Y5459417D01*
X36485929Y5479699D01*
X36485934Y5479700D01*
X36683954Y5539768D01*
X36866450Y5637315D01*
X37026410Y5768590D01*
X37157685Y5928550D01*
X37255232Y6111046D01*
X37315300Y6309066D01*
X37315301Y6309071D01*
X37335583Y6514997D01*
X37335583Y6515004D01*
X37315301Y6720930D01*
X37315300Y6720935D01*
X37297078Y6781003D01*
X37255232Y6918954D01*
X37157685Y7101450D01*
X37026410Y7261410D01*
X36873369Y7387007D01*
X36866452Y7392684D01*
X36683954Y7490232D01*
X36485934Y7550301D01*
X36485929Y7550302D01*
X36280003Y7570583D01*
X36279997Y7570583D01*
X36074070Y7550302D01*
X36074065Y7550301D01*
X35876045Y7490232D01*
X35876040Y7490230D01*
X35822415Y7461566D01*
X35762183Y7450810D01*
X35707131Y7477511D01*
X35705743Y7478872D01*
X35206262Y7978353D01*
X34701058Y8483557D01*
X34599800Y8525500D01*
X34599799Y8525500D01*
X34217256Y8525500D01*
X34159065Y8544407D01*
X34147253Y8554496D01*
X34103221Y8598527D01*
X34103217Y8598530D01*
X33983129Y8659718D01*
X33983127Y8659719D01*
X33850000Y8680804D01*
X33716872Y8659719D01*
X33716870Y8659718D01*
X33596782Y8598530D01*
X33501470Y8503218D01*
X33440282Y8383130D01*
X33440281Y8383128D01*
X33419196Y8250001D01*
X22110500Y8250001D01*
X22110500Y9059308D01*
X22102384Y9089598D01*
X22079799Y9173886D01*
X22079797Y9173889D01*
X22079797Y9173891D01*
X22020492Y9276609D01*
X22020490Y9276611D01*
X22020489Y9276613D01*
X21936613Y9360489D01*
X21936610Y9360491D01*
X21936608Y9360493D01*
X21833889Y9419798D01*
X21833890Y9419798D01*
X21820351Y9423426D01*
X21721171Y9450001D01*
X33919196Y9450001D01*
X33919196Y9450000D01*
X33940281Y9316873D01*
X33940282Y9316871D01*
X33955103Y9287784D01*
X34001472Y9196780D01*
X34096780Y9101472D01*
X34216874Y9040281D01*
X34350000Y9019196D01*
X34483126Y9040281D01*
X34603220Y9101472D01*
X34625237Y9123489D01*
X34647253Y9145504D01*
X34701770Y9173281D01*
X34717256Y9174500D01*
X35729877Y9174500D01*
X35788068Y9155593D01*
X35799881Y9145504D01*
X37856128Y7089257D01*
X37883905Y7034740D01*
X37874334Y6974308D01*
X37873434Y6972585D01*
X37844770Y6918960D01*
X37844768Y6918955D01*
X37784699Y6720935D01*
X37784698Y6720930D01*
X37764417Y6515004D01*
X37764417Y6514997D01*
X37784698Y6309071D01*
X37784699Y6309066D01*
X37844768Y6111046D01*
X37942316Y5928548D01*
X38073585Y5768596D01*
X38073590Y5768590D01*
X38073595Y5768586D01*
X38233547Y5637317D01*
X38233548Y5637317D01*
X38233550Y5637315D01*
X38416046Y5539768D01*
X38553997Y5497922D01*
X38614065Y5479700D01*
X38614070Y5479699D01*
X38819997Y5459417D01*
X38820000Y5459417D01*
X38820003Y5459417D01*
X39025929Y5479699D01*
X39025934Y5479700D01*
X39223954Y5539768D01*
X39406450Y5637315D01*
X39566410Y5768590D01*
X39697685Y5928550D01*
X39795232Y6111046D01*
X39855300Y6309066D01*
X39855301Y6309071D01*
X39875583Y6514997D01*
X39875583Y6515004D01*
X39855301Y6720930D01*
X39855300Y6720935D01*
X39837078Y6781003D01*
X39795232Y6918954D01*
X39697685Y7101450D01*
X39566410Y7261410D01*
X39413369Y7387007D01*
X39406452Y7392684D01*
X39223954Y7490232D01*
X39025934Y7550301D01*
X39025929Y7550302D01*
X38820003Y7570583D01*
X38819997Y7570583D01*
X38614070Y7550302D01*
X38614065Y7550301D01*
X38416045Y7490232D01*
X38416040Y7490230D01*
X38362415Y7461566D01*
X38302183Y7450810D01*
X38247131Y7477511D01*
X38245743Y7478872D01*
X37146262Y8578353D01*
X36224615Y9500000D01*
X41595073Y9500000D01*
X41614738Y9287784D01*
X41673064Y9082790D01*
X41768057Y8892017D01*
X41768062Y8892008D01*
X41852894Y8779674D01*
X42210568Y9137349D01*
X42245112Y9085649D01*
X42335649Y8995112D01*
X42387345Y8960571D01*
X42028432Y8601658D01*
X42028433Y8601656D01*
X42053995Y8578353D01*
X42053994Y8578353D01*
X42235206Y8466153D01*
X42433941Y8389162D01*
X42643437Y8350000D01*
X42856563Y8350000D01*
X43066058Y8389162D01*
X43264795Y8466153D01*
X43264797Y8466154D01*
X43445995Y8578346D01*
X43445997Y8578348D01*
X43471565Y8601657D01*
X43112653Y8960569D01*
X43164351Y8995112D01*
X43254888Y9085649D01*
X43289431Y9137347D01*
X43647106Y8779672D01*
X43731931Y8891998D01*
X43731940Y8892013D01*
X43735917Y8900000D01*
X46495073Y8900000D01*
X46514738Y8687784D01*
X46573064Y8482790D01*
X46668057Y8292017D01*
X46668062Y8292008D01*
X46752894Y8179674D01*
X47110568Y8537349D01*
X47145112Y8485649D01*
X47235649Y8395112D01*
X47287345Y8360571D01*
X46928432Y8001658D01*
X46928433Y8001656D01*
X46953995Y7978353D01*
X46953994Y7978353D01*
X47135206Y7866153D01*
X47333941Y7789162D01*
X47543437Y7750000D01*
X47756563Y7750000D01*
X47966058Y7789162D01*
X48164795Y7866153D01*
X48164797Y7866154D01*
X48345995Y7978346D01*
X48345997Y7978348D01*
X48371565Y8001657D01*
X48012653Y8360569D01*
X48064351Y8395112D01*
X48154888Y8485649D01*
X48189431Y8537347D01*
X48547106Y8179672D01*
X48631931Y8291998D01*
X48631940Y8292013D01*
X48726935Y8482790D01*
X48785261Y8687784D01*
X48804926Y8900000D01*
X48785261Y9112217D01*
X48726935Y9317211D01*
X48631942Y9507984D01*
X48631937Y9507993D01*
X48547105Y9620328D01*
X48189430Y9262654D01*
X48154888Y9314351D01*
X48064351Y9404888D01*
X48012651Y9439432D01*
X48371565Y9798345D01*
X48371565Y9798346D01*
X48346004Y9821648D01*
X48346005Y9821648D01*
X48164793Y9933848D01*
X47966058Y10010839D01*
X47756563Y10050000D01*
X47543437Y10050000D01*
X47333941Y10010839D01*
X47135206Y9933848D01*
X46953998Y9821650D01*
X46928433Y9798345D01*
X47287346Y9439432D01*
X47235649Y9404888D01*
X47145112Y9314351D01*
X47110568Y9262654D01*
X46752893Y9620329D01*
X46668066Y9507999D01*
X46668057Y9507984D01*
X46573064Y9317211D01*
X46514738Y9112217D01*
X46495073Y8900000D01*
X43735917Y8900000D01*
X43826935Y9082790D01*
X43885261Y9287784D01*
X43904926Y9500000D01*
X43885261Y9712217D01*
X43826935Y9917211D01*
X43731942Y10107984D01*
X43731937Y10107993D01*
X43647105Y10220328D01*
X43289430Y9862654D01*
X43254888Y9914351D01*
X43164351Y10004888D01*
X43112651Y10039432D01*
X43471565Y10398345D01*
X43471565Y10398346D01*
X43446004Y10421648D01*
X43446005Y10421648D01*
X43264793Y10533848D01*
X43066058Y10610839D01*
X42856563Y10650000D01*
X42643437Y10650000D01*
X42433941Y10610839D01*
X42235206Y10533848D01*
X42053998Y10421650D01*
X42028433Y10398345D01*
X42387346Y10039432D01*
X42335649Y10004888D01*
X42245112Y9914351D01*
X42210568Y9862654D01*
X41852893Y10220329D01*
X41768066Y10107999D01*
X41768057Y10107984D01*
X41673064Y9917211D01*
X41614738Y9712217D01*
X41595073Y9500000D01*
X36224615Y9500000D01*
X36041058Y9683557D01*
X35939800Y9725500D01*
X35939799Y9725500D01*
X34717256Y9725500D01*
X34659065Y9744407D01*
X34647253Y9754496D01*
X34603221Y9798527D01*
X34603217Y9798530D01*
X34483129Y9859718D01*
X34483127Y9859719D01*
X34350000Y9880804D01*
X34216872Y9859719D01*
X34216870Y9859718D01*
X34096782Y9798530D01*
X34001470Y9703218D01*
X33940282Y9583130D01*
X33940281Y9583128D01*
X33919196Y9450001D01*
X21721171Y9450001D01*
X21719309Y9450500D01*
X21600691Y9450500D01*
X21546506Y9435981D01*
X21486109Y9419798D01*
X21383391Y9360493D01*
X21299507Y9276609D01*
X21240202Y9173891D01*
X21240201Y9173886D01*
X21209500Y9059309D01*
X325500Y9059309D01*
X325500Y11970001D01*
X5089196Y11970001D01*
X5089196Y11970000D01*
X5110281Y11836873D01*
X5110282Y11836871D01*
X5171470Y11716783D01*
X5171472Y11716780D01*
X5266780Y11621472D01*
X5386874Y11560281D01*
X5520000Y11539196D01*
X5653126Y11560281D01*
X5773220Y11621472D01*
X5868528Y11716780D01*
X5929719Y11836874D01*
X5950804Y11970000D01*
X5929719Y12103126D01*
X5868528Y12223220D01*
X5773220Y12318528D01*
X5773217Y12318530D01*
X5653129Y12379718D01*
X5653127Y12379719D01*
X5520000Y12400804D01*
X5386872Y12379719D01*
X5386870Y12379718D01*
X5266782Y12318530D01*
X5171470Y12223218D01*
X5110282Y12103130D01*
X5110281Y12103128D01*
X5089196Y11970001D01*
X325500Y11970001D01*
X325500Y14375001D01*
X621691Y14375001D01*
X621692Y14375000D01*
X1138258Y14375000D01*
X1132944Y14365796D01*
X1112500Y14289496D01*
X1112500Y14210504D01*
X1132944Y14134204D01*
X1138258Y14125000D01*
X621691Y14125000D01*
X643242Y14016652D01*
X703548Y13871060D01*
X703552Y13871051D01*
X791099Y13740031D01*
X791102Y13740027D01*
X902526Y13628603D01*
X902530Y13628600D01*
X1033550Y13541053D01*
X1033559Y13541049D01*
X1179150Y13480743D01*
X1333704Y13450001D01*
X1333708Y13450000D01*
X1637499Y13450000D01*
X1637500Y13450001D01*
X1637500Y13950000D01*
X1887500Y13950000D01*
X1887500Y13450001D01*
X1887501Y13450000D01*
X2191292Y13450000D01*
X2191295Y13450001D01*
X2345849Y13480743D01*
X2491440Y13541049D01*
X2491449Y13541053D01*
X2622469Y13628600D01*
X2622473Y13628603D01*
X2733897Y13740027D01*
X2733900Y13740031D01*
X2821447Y13871051D01*
X2821451Y13871060D01*
X2881757Y14016652D01*
X2903309Y14125000D01*
X2386742Y14125000D01*
X2392056Y14134204D01*
X2412500Y14210504D01*
X2412500Y14289496D01*
X2392056Y14365796D01*
X2386742Y14375000D01*
X2903308Y14375000D01*
X2903308Y14375001D01*
X2881757Y14483349D01*
X2821451Y14628941D01*
X2821447Y14628950D01*
X2733900Y14759970D01*
X2733897Y14759974D01*
X2622473Y14871398D01*
X2622469Y14871401D01*
X2491449Y14958948D01*
X2491440Y14958952D01*
X2345849Y15019258D01*
X2191295Y15050000D01*
X1887501Y15050000D01*
X1887500Y15049999D01*
X1887500Y14550000D01*
X1637500Y14550000D01*
X1637500Y15049999D01*
X1637499Y15050000D01*
X1333704Y15050000D01*
X1179150Y15019258D01*
X1033559Y14958952D01*
X1033550Y14958948D01*
X902530Y14871401D01*
X902526Y14871398D01*
X791102Y14759974D01*
X791099Y14759970D01*
X703552Y14628950D01*
X703548Y14628941D01*
X643242Y14483349D01*
X621691Y14375001D01*
X325500Y14375001D01*
X325500Y15250000D01*
X3532405Y15250000D01*
X3552730Y15056621D01*
X3612818Y14871692D01*
X3612820Y14871687D01*
X3710038Y14703302D01*
X3723771Y14688051D01*
X4086672Y15050953D01*
X4122416Y14989044D01*
X4201544Y14909916D01*
X4263450Y14874175D01*
X3902661Y14513385D01*
X3902661Y14513384D01*
X3997448Y14444517D01*
X3997457Y14444511D01*
X4175078Y14365430D01*
X4175088Y14365427D01*
X4365282Y14325000D01*
X4559718Y14325000D01*
X4749911Y14365427D01*
X4749921Y14365430D01*
X4927542Y14444511D01*
X4927546Y14444514D01*
X5022337Y14513385D01*
X4661548Y14874174D01*
X4723456Y14909916D01*
X4802584Y14989044D01*
X4838326Y15050951D01*
X5201227Y14688050D01*
X5214959Y14703300D01*
X5214966Y14703310D01*
X5312179Y14871687D01*
X5312181Y14871692D01*
X5372269Y15056621D01*
X5392594Y15250000D01*
X5372269Y15443380D01*
X5312181Y15628309D01*
X5312179Y15628314D01*
X5214964Y15796694D01*
X5214961Y15796698D01*
X5201227Y15811951D01*
X4838326Y15449050D01*
X4802584Y15510956D01*
X4723456Y15590084D01*
X4661548Y15625827D01*
X5022337Y15986616D01*
X5022337Y15986617D01*
X4927551Y16055484D01*
X4927542Y16055490D01*
X4749921Y16134571D01*
X4749911Y16134574D01*
X4559718Y16175000D01*
X4365282Y16175000D01*
X4175088Y16134574D01*
X4175082Y16134572D01*
X3997459Y16055490D01*
X3997451Y16055485D01*
X3902661Y15986617D01*
X4263451Y15625827D01*
X4201544Y15590084D01*
X4122416Y15510956D01*
X4086673Y15449049D01*
X3723771Y15811951D01*
X3710037Y15796697D01*
X3612817Y15628308D01*
X3552730Y15443380D01*
X3532405Y15250000D01*
X325500Y15250000D01*
X325500Y20250000D01*
X3532405Y20250000D01*
X3552730Y20056621D01*
X3612818Y19871692D01*
X3612820Y19871687D01*
X3710038Y19703302D01*
X3723771Y19688051D01*
X4086672Y20050953D01*
X4122416Y19989044D01*
X4201544Y19909916D01*
X4263450Y19874175D01*
X3902661Y19513385D01*
X3902661Y19513384D01*
X3997448Y19444517D01*
X3997457Y19444511D01*
X4175078Y19365430D01*
X4175088Y19365427D01*
X4365282Y19325000D01*
X4559718Y19325000D01*
X4749911Y19365427D01*
X4749921Y19365430D01*
X4927537Y19444509D01*
X4927551Y19444517D01*
X5062248Y19542380D01*
X5120439Y19561288D01*
X5178629Y19542381D01*
X5214593Y19492881D01*
X5219439Y19462288D01*
X5219439Y17600261D01*
X5261382Y17499003D01*
X11743941Y11016443D01*
X11773595Y11004161D01*
X11773597Y11004159D01*
X11773598Y11004159D01*
X11809399Y10989330D01*
X11845200Y10974500D01*
X11845201Y10974500D01*
X32604799Y10974500D01*
X32604800Y10974500D01*
X32706058Y11016443D01*
X32783557Y11093942D01*
X32783556Y11093942D01*
X36083558Y14393942D01*
X36104507Y14444517D01*
X36125500Y14495199D01*
X36125500Y14782745D01*
X36144407Y14840936D01*
X36154490Y14852743D01*
X36198528Y14896780D01*
X36259719Y15016874D01*
X36280804Y15150000D01*
X36259719Y15283126D01*
X36198528Y15403220D01*
X36103220Y15498528D01*
X36103217Y15498530D01*
X35983129Y15559718D01*
X35983127Y15559719D01*
X35850000Y15580804D01*
X35716872Y15559719D01*
X35716870Y15559718D01*
X35596782Y15498530D01*
X35501470Y15403218D01*
X35440282Y15283130D01*
X35440281Y15283128D01*
X35419196Y15150001D01*
X35419196Y15150000D01*
X35440281Y15016873D01*
X35440282Y15016871D01*
X35501470Y14896783D01*
X35501472Y14896780D01*
X35545505Y14852747D01*
X35573281Y14798232D01*
X35574500Y14782745D01*
X35574500Y14705124D01*
X35555593Y14646933D01*
X35545504Y14635120D01*
X32464881Y11554496D01*
X32410364Y11526719D01*
X32394877Y11525500D01*
X12055124Y11525500D01*
X11996933Y11544407D01*
X11985120Y11554496D01*
X9619615Y13920001D01*
X22149196Y13920001D01*
X22149196Y13920000D01*
X22170281Y13786873D01*
X22170282Y13786871D01*
X22231470Y13666783D01*
X22231472Y13666780D01*
X22326780Y13571472D01*
X22446874Y13510281D01*
X22580000Y13489196D01*
X22713126Y13510281D01*
X22833220Y13571472D01*
X22928528Y13666780D01*
X22989719Y13786874D01*
X23010804Y13920000D01*
X22989719Y14053126D01*
X22935139Y14160244D01*
X22925568Y14220674D01*
X22935140Y14250134D01*
X22938524Y14256777D01*
X22938528Y14256780D01*
X22999719Y14376874D01*
X23020804Y14510000D01*
X23020520Y14511790D01*
X23009590Y14580804D01*
X22999719Y14643126D01*
X22938528Y14763220D01*
X22843220Y14858528D01*
X22843217Y14858530D01*
X22723129Y14919718D01*
X22723127Y14919719D01*
X22590000Y14940804D01*
X22456872Y14919719D01*
X22456870Y14919718D01*
X22336782Y14858530D01*
X22241470Y14763218D01*
X22180282Y14643130D01*
X22180281Y14643128D01*
X22159196Y14510001D01*
X22159196Y14510000D01*
X22180281Y14376873D01*
X22180282Y14376871D01*
X22234859Y14269758D01*
X22244431Y14209326D01*
X22234859Y14179868D01*
X22170282Y14053130D01*
X22170281Y14053128D01*
X22149196Y13920001D01*
X9619615Y13920001D01*
X8489615Y15050001D01*
X31069196Y15050001D01*
X31069196Y15050000D01*
X31090281Y14916873D01*
X31090282Y14916871D01*
X31122954Y14852749D01*
X31151472Y14796780D01*
X31246780Y14701472D01*
X31270846Y14689210D01*
X31272810Y14688209D01*
X31316074Y14644944D01*
X31325645Y14584512D01*
X31297867Y14529996D01*
X31272810Y14511791D01*
X31246781Y14498529D01*
X31151470Y14403218D01*
X31090282Y14283130D01*
X31090281Y14283128D01*
X31069196Y14150001D01*
X31069196Y14150000D01*
X31090281Y14016873D01*
X31090282Y14016871D01*
X31142959Y13913487D01*
X31151472Y13896780D01*
X31246780Y13801472D01*
X31246782Y13801471D01*
X31329160Y13759497D01*
X31366874Y13740281D01*
X31500000Y13719196D01*
X31633126Y13740281D01*
X31753220Y13801472D01*
X31848528Y13896780D01*
X31909719Y14016874D01*
X31930804Y14150000D01*
X31927869Y14168528D01*
X31919365Y14222224D01*
X31909719Y14283126D01*
X31848528Y14403220D01*
X31753220Y14498528D01*
X31727188Y14511792D01*
X31683925Y14555055D01*
X31674354Y14615487D01*
X31702131Y14670003D01*
X31727185Y14688207D01*
X31753220Y14701472D01*
X31848528Y14796780D01*
X31909719Y14916874D01*
X31930804Y15050000D01*
X31909719Y15183126D01*
X31848528Y15303220D01*
X31753220Y15398528D01*
X31753217Y15398530D01*
X31633129Y15459718D01*
X31633127Y15459719D01*
X31500000Y15480804D01*
X31499999Y15480804D01*
X31366875Y15459720D01*
X31366870Y15459719D01*
X31246782Y15398530D01*
X31151470Y15303218D01*
X31090282Y15183130D01*
X31090281Y15183128D01*
X31069196Y15050001D01*
X8489615Y15050001D01*
X7089623Y16449993D01*
X8919196Y16449993D01*
X8919196Y16449992D01*
X8940281Y16316865D01*
X8940282Y16316863D01*
X8986520Y16226116D01*
X9001472Y16196772D01*
X9096780Y16101464D01*
X9216874Y16040273D01*
X9350000Y16019188D01*
X9483126Y16040273D01*
X9603220Y16101464D01*
X9698528Y16196772D01*
X9759719Y16316866D01*
X9780804Y16449992D01*
X9759719Y16583118D01*
X9698528Y16703212D01*
X9603220Y16798520D01*
X9603217Y16798522D01*
X9483129Y16859710D01*
X9483127Y16859711D01*
X9350000Y16880796D01*
X9216872Y16859711D01*
X9216870Y16859710D01*
X9096782Y16798522D01*
X9001470Y16703210D01*
X8940282Y16583122D01*
X8940281Y16583120D01*
X8919196Y16449993D01*
X7089623Y16449993D01*
X5799435Y17740181D01*
X5771658Y17794698D01*
X5770439Y17810185D01*
X5770439Y18192715D01*
X5789346Y18250906D01*
X5838846Y18286870D01*
X5900032Y18286870D01*
X5949532Y18250906D01*
X5957648Y18237660D01*
X5998719Y18157054D01*
X6006533Y18141719D01*
X6101841Y18046411D01*
X6221935Y17985220D01*
X6355061Y17964135D01*
X6488187Y17985220D01*
X6608281Y18046411D01*
X6703589Y18141719D01*
X6764780Y18261813D01*
X6772615Y18311289D01*
X6800390Y18365800D01*
X6800389Y18365800D01*
X8530095Y20095504D01*
X8584612Y20123281D01*
X8600099Y20124500D01*
X8838839Y20124500D01*
X8897030Y20105593D01*
X8932994Y20056093D01*
X8936620Y20010013D01*
X8919196Y19900001D01*
X8919196Y19900000D01*
X8940281Y19766873D01*
X8940282Y19766871D01*
X8999323Y19650997D01*
X9001472Y19646780D01*
X9096780Y19551472D01*
X9216874Y19490281D01*
X9350000Y19469196D01*
X9483126Y19490281D01*
X9603220Y19551472D01*
X9698528Y19646780D01*
X9759719Y19766874D01*
X9780804Y19900000D01*
X9779793Y19906384D01*
X9763380Y20010013D01*
X9772951Y20070445D01*
X9816216Y20113710D01*
X9861161Y20124500D01*
X13077910Y20124500D01*
X13136101Y20105593D01*
X13172065Y20056093D01*
X13172065Y19994907D01*
X13136101Y19945407D01*
X13122856Y19937291D01*
X13046781Y19898529D01*
X12951470Y19803218D01*
X12890282Y19683130D01*
X12890281Y19683128D01*
X12869196Y19550001D01*
X12869196Y19550000D01*
X12890281Y19416873D01*
X12890282Y19416871D01*
X12951470Y19296783D01*
X12951472Y19296780D01*
X13046780Y19201472D01*
X13166874Y19140281D01*
X13300000Y19119196D01*
X13433126Y19140281D01*
X13553220Y19201472D01*
X13629998Y19278251D01*
X13684513Y19306026D01*
X13744945Y19296455D01*
X13770000Y19278252D01*
X13846780Y19201472D01*
X13966874Y19140281D01*
X14100000Y19119196D01*
X14233126Y19140281D01*
X14353220Y19201472D01*
X14448528Y19296780D01*
X14509719Y19416874D01*
X14518813Y19474294D01*
X14546590Y19528809D01*
X14601107Y19556587D01*
X14661539Y19547016D01*
X14686598Y19528810D01*
X18114884Y16100524D01*
X18201649Y16050431D01*
X18201651Y16050431D01*
X18201652Y16050430D01*
X18239554Y16040274D01*
X18298419Y16024501D01*
X18298421Y16024500D01*
X18298422Y16024500D01*
X18398611Y16024500D01*
X21547444Y16024500D01*
X21592389Y16013709D01*
X21716870Y15950283D01*
X21716874Y15950281D01*
X21850000Y15929196D01*
X21983126Y15950281D01*
X22103220Y16011472D01*
X22198528Y16106780D01*
X22259719Y16226874D01*
X22280804Y16360000D01*
X22259719Y16493126D01*
X22202687Y16605057D01*
X22193116Y16665486D01*
X22202686Y16694942D01*
X22259719Y16806874D01*
X22280804Y16940000D01*
X22259719Y17073126D01*
X22198528Y17193220D01*
X22103220Y17288528D01*
X22103217Y17288530D01*
X21983129Y17349718D01*
X21983127Y17349719D01*
X21850000Y17370804D01*
X21716872Y17349719D01*
X21716870Y17349718D01*
X21592389Y17286291D01*
X21547444Y17275500D01*
X18750100Y17275500D01*
X18691909Y17294407D01*
X18680096Y17304496D01*
X17284591Y18700001D01*
X26419196Y18700001D01*
X26419196Y18700000D01*
X26440281Y18566873D01*
X26440282Y18566871D01*
X26501470Y18446783D01*
X26501472Y18446780D01*
X26596780Y18351472D01*
X26716874Y18290281D01*
X26850000Y18269196D01*
X26983126Y18290281D01*
X27103220Y18351472D01*
X27198528Y18446780D01*
X27259719Y18566874D01*
X27280804Y18700000D01*
X27279330Y18709309D01*
X27849501Y18709309D01*
X27849501Y18590691D01*
X27880201Y18476113D01*
X27880202Y18476111D01*
X27880203Y18476108D01*
X27939507Y18373391D01*
X27939509Y18373389D01*
X27939511Y18373386D01*
X28023386Y18289511D01*
X28023388Y18289510D01*
X28023390Y18289508D01*
X28126107Y18230204D01*
X28126108Y18230204D01*
X28126113Y18230201D01*
X28214046Y18206641D01*
X28265359Y18173317D01*
X28287286Y18116196D01*
X28281131Y18080355D01*
X28281881Y18080154D01*
X28280202Y18073890D01*
X28280201Y18073887D01*
X28249501Y17959309D01*
X28249501Y17840691D01*
X28280201Y17726113D01*
X28280202Y17726111D01*
X28280203Y17726108D01*
X28339507Y17623391D01*
X28339511Y17623386D01*
X28773386Y17189510D01*
X28876113Y17130201D01*
X28900320Y17123716D01*
X28900325Y17123713D01*
X28900326Y17123714D01*
X28990688Y17099501D01*
X28990690Y17099500D01*
X29107778Y17099500D01*
X29165969Y17080593D01*
X29201933Y17031093D01*
X29203405Y17026122D01*
X29230202Y16926109D01*
X29289507Y16823391D01*
X29289509Y16823389D01*
X29289511Y16823386D01*
X29416333Y16696564D01*
X29416335Y16696563D01*
X29416337Y16696561D01*
X29519054Y16637257D01*
X29519056Y16637256D01*
X29519060Y16637254D01*
X29543269Y16630769D01*
X29543272Y16630766D01*
X29543273Y16630767D01*
X29636264Y16605849D01*
X29687578Y16572525D01*
X29709504Y16515403D01*
X29706267Y16484603D01*
X29699493Y16459322D01*
X29699493Y16459317D01*
X29699493Y16340699D01*
X29730193Y16226121D01*
X29730194Y16226119D01*
X29730195Y16226116D01*
X29789499Y16123399D01*
X29789501Y16123397D01*
X29789503Y16123394D01*
X30173386Y15739511D01*
X30206332Y15720490D01*
X30276114Y15680201D01*
X30390691Y15649500D01*
X30390693Y15649500D01*
X30396959Y15647821D01*
X30396627Y15646583D01*
X30409436Y15642611D01*
X30409462Y15642689D01*
X30415329Y15640783D01*
X30416757Y15640340D01*
X30416872Y15640282D01*
X30416874Y15640281D01*
X30550000Y15619196D01*
X30683126Y15640281D01*
X30683129Y15640283D01*
X30690538Y15642689D01*
X30690978Y15641335D01*
X30724987Y15649500D01*
X31309308Y15649500D01*
X31309309Y15649500D01*
X31317000Y15651561D01*
X31317795Y15651520D01*
X31318618Y15651995D01*
X31399669Y15673713D01*
X31399672Y15673713D01*
X31399672Y15673714D01*
X31399673Y15673714D01*
X31420920Y15679407D01*
X31446538Y15682778D01*
X31482800Y15682778D01*
X31482802Y15682778D01*
X31592651Y15720490D01*
X31592657Y15720494D01*
X31618160Y15739511D01*
X31647450Y15761351D01*
X31902755Y16016656D01*
X31943616Y16071455D01*
X31981328Y16181304D01*
X31981328Y16270172D01*
X32000235Y16328363D01*
X32049735Y16364327D01*
X32080328Y16369172D01*
X32171897Y16369172D01*
X32287055Y16411086D01*
X32287057Y16411088D01*
X32327542Y16442153D01*
X32372254Y16486864D01*
X32092947Y16766171D01*
X32092947Y16766170D01*
X31916169Y16942948D01*
X32269724Y16942948D01*
X32549031Y16663641D01*
X32593741Y16708352D01*
X32624806Y16748837D01*
X32624808Y16748839D01*
X32666722Y16863997D01*
X32666722Y16986544D01*
X32666721Y16986546D01*
X32624810Y17101694D01*
X32624807Y17101701D01*
X32593735Y17142194D01*
X32531352Y17204577D01*
X32269724Y16942948D01*
X31916169Y16942948D01*
X31732944Y17126173D01*
X31732944Y17126174D01*
X31620311Y17238806D01*
X31613063Y17241161D01*
X31600062Y17259055D01*
X31292947Y17566171D01*
X31292947Y17566170D01*
X31116169Y17742948D01*
X31469724Y17742948D01*
X31469724Y17742947D01*
X31652949Y17559721D01*
X31765582Y17447089D01*
X31772831Y17444733D01*
X31785828Y17426844D01*
X32092947Y17119725D01*
X32354575Y17381354D01*
X32292193Y17443736D01*
X32251700Y17474808D01*
X32251693Y17474811D01*
X32136545Y17516722D01*
X32013996Y17516722D01*
X31981945Y17505057D01*
X31920797Y17502922D01*
X31870072Y17537138D01*
X31849146Y17594633D01*
X31855057Y17631949D01*
X31866722Y17663997D01*
X31866722Y17718648D01*
X33045423Y17718648D01*
X33107806Y17656265D01*
X33148299Y17625193D01*
X33148306Y17625190D01*
X33263454Y17583279D01*
X33263456Y17583278D01*
X33386003Y17583278D01*
X33501161Y17625192D01*
X33501163Y17625194D01*
X33541648Y17656259D01*
X33586359Y17700969D01*
X33307052Y17980276D01*
X33045423Y17718648D01*
X31866722Y17718648D01*
X31866722Y17786544D01*
X31866721Y17786546D01*
X31824810Y17901694D01*
X31824807Y17901701D01*
X31793735Y17942194D01*
X31731352Y18004577D01*
X31469724Y17742948D01*
X31116169Y17742948D01*
X30932944Y17926173D01*
X30932944Y17926174D01*
X30820311Y18038806D01*
X30813063Y18041161D01*
X30800062Y18059055D01*
X30492947Y18366171D01*
X30492947Y18366170D01*
X30316169Y18542948D01*
X30669724Y18542948D01*
X30669724Y18542947D01*
X30852949Y18359721D01*
X30965582Y18247089D01*
X30972831Y18244733D01*
X30985828Y18226844D01*
X31292947Y17919725D01*
X31554575Y18181354D01*
X31492193Y18243736D01*
X31451700Y18274808D01*
X31451693Y18274811D01*
X31336545Y18316722D01*
X31213996Y18316722D01*
X31181945Y18305057D01*
X31120797Y18302922D01*
X31070072Y18337138D01*
X31049146Y18394633D01*
X31055057Y18431949D01*
X31066722Y18463997D01*
X31066722Y18518648D01*
X32245423Y18518648D01*
X32307806Y18456265D01*
X32348299Y18425193D01*
X32348306Y18425190D01*
X32463454Y18383279D01*
X32463456Y18383278D01*
X32586003Y18383278D01*
X32618051Y18394943D01*
X32679200Y18397079D01*
X32729925Y18362866D01*
X32750853Y18305371D01*
X32744943Y18268055D01*
X32733278Y18236005D01*
X32733278Y18113455D01*
X32775189Y17998307D01*
X32775192Y17998300D01*
X32806264Y17957807D01*
X32868646Y17895425D01*
X33130276Y18157054D01*
X32947051Y18340279D01*
X32834417Y18452912D01*
X32827169Y18455267D01*
X32814171Y18473157D01*
X32507052Y18780276D01*
X32245423Y18518648D01*
X31066722Y18518648D01*
X31066722Y18586544D01*
X31066721Y18586546D01*
X31024810Y18701694D01*
X31024807Y18701701D01*
X30993735Y18742194D01*
X30931352Y18804577D01*
X30669724Y18542948D01*
X30316169Y18542948D01*
X30132944Y18726173D01*
X30132944Y18726174D01*
X30020311Y18838806D01*
X30013063Y18841161D01*
X30000062Y18859055D01*
X29692948Y19166170D01*
X29516170Y19342948D01*
X29869724Y19342948D01*
X29869724Y19342947D01*
X30052949Y19159721D01*
X30165582Y19047089D01*
X30172831Y19044733D01*
X30185828Y19026844D01*
X30492947Y18719725D01*
X30754575Y18981354D01*
X30692193Y19043736D01*
X30651700Y19074808D01*
X30651693Y19074811D01*
X30536545Y19116722D01*
X30413996Y19116722D01*
X30381945Y19105057D01*
X30320797Y19102922D01*
X30270072Y19137138D01*
X30249146Y19194633D01*
X30255057Y19231949D01*
X30266722Y19263997D01*
X30266722Y19318648D01*
X31445423Y19318648D01*
X31507806Y19256265D01*
X31548299Y19225193D01*
X31548306Y19225190D01*
X31663454Y19183279D01*
X31663456Y19183278D01*
X31786003Y19183278D01*
X31818051Y19194943D01*
X31879200Y19197079D01*
X31929925Y19162866D01*
X31950853Y19105371D01*
X31944943Y19068055D01*
X31933278Y19036005D01*
X31933278Y18913455D01*
X31975189Y18798307D01*
X31975192Y18798300D01*
X32006264Y18757807D01*
X32068646Y18695425D01*
X32330276Y18957054D01*
X32147051Y19140279D01*
X32034417Y19252912D01*
X32027169Y19255267D01*
X32014171Y19273157D01*
X31707052Y19580276D01*
X31445423Y19318648D01*
X30266722Y19318648D01*
X30266722Y19386544D01*
X30266721Y19386546D01*
X30224810Y19501694D01*
X30224807Y19501701D01*
X30193735Y19542194D01*
X30131352Y19604577D01*
X29869724Y19342948D01*
X29516170Y19342948D01*
X29236863Y19622254D01*
X29192152Y19577543D01*
X29161087Y19537058D01*
X29161085Y19537056D01*
X29119172Y19421898D01*
X29119172Y19330328D01*
X29100265Y19272137D01*
X29050765Y19236173D01*
X29020172Y19231328D01*
X28931304Y19231328D01*
X28860137Y19206896D01*
X28821451Y19193615D01*
X28766661Y19152760D01*
X28766656Y19152756D01*
X28766656Y19152755D01*
X28750448Y19136548D01*
X28695934Y19108772D01*
X28680447Y19107553D01*
X28247744Y19107553D01*
X28177620Y19088764D01*
X28133162Y19076851D01*
X28096519Y19055695D01*
X28096520Y19055694D01*
X28030440Y19017543D01*
X27939507Y18926610D01*
X27880203Y18823893D01*
X27880201Y18823889D01*
X27880201Y18823887D01*
X27849501Y18709309D01*
X27279330Y18709309D01*
X27259719Y18833126D01*
X27198528Y18953220D01*
X27103220Y19048528D01*
X27103217Y19048530D01*
X26983129Y19109718D01*
X26983127Y19109719D01*
X26850000Y19130804D01*
X26716872Y19109719D01*
X26716870Y19109718D01*
X26596782Y19048530D01*
X26501470Y18953218D01*
X26440282Y18833130D01*
X26440281Y18833128D01*
X26419196Y18700001D01*
X17284591Y18700001D01*
X16687809Y19296783D01*
X16185561Y19799031D01*
X29413641Y19799031D01*
X29692947Y19519725D01*
X29954575Y19781354D01*
X29892193Y19843736D01*
X29851700Y19874808D01*
X29851693Y19874811D01*
X29736545Y19916722D01*
X29613997Y19916722D01*
X29498838Y19874809D01*
X29498836Y19874807D01*
X29458351Y19843742D01*
X29413641Y19799031D01*
X16185561Y19799031D01*
X14685116Y21299476D01*
X14598351Y21349569D01*
X14598348Y21349570D01*
X14598347Y21349571D01*
X14501580Y21375500D01*
X14501578Y21375500D01*
X8248611Y21375500D01*
X8148422Y21375500D01*
X8148417Y21375500D01*
X8122491Y21368554D01*
X8122492Y21368553D01*
X8051652Y21349570D01*
X8051650Y21349569D01*
X8014975Y21328396D01*
X7964886Y21299478D01*
X6638964Y19973556D01*
X6584447Y19945779D01*
X6524015Y19955350D01*
X6480750Y19998615D01*
X6471179Y20059047D01*
X6481104Y20084404D01*
X6479827Y20084933D01*
X6525500Y20195199D01*
X6525500Y23151205D01*
X6544407Y23209396D01*
X6579554Y23239415D01*
X6603220Y23251472D01*
X6698528Y23346780D01*
X6759719Y23466874D01*
X6780804Y23600000D01*
X6778455Y23614828D01*
X6776068Y23629900D01*
X18739500Y23629900D01*
X18739500Y23270105D01*
X18739501Y23270093D01*
X18746027Y23220514D01*
X18790224Y23125735D01*
X18799500Y23083895D01*
X18799500Y22440691D01*
X18817236Y22374500D01*
X18830202Y22326110D01*
X18889507Y22223392D01*
X18889509Y22223390D01*
X18889511Y22223387D01*
X18973387Y22139511D01*
X18973389Y22139510D01*
X18973391Y22139508D01*
X19076110Y22080203D01*
X19076108Y22080203D01*
X19076112Y22080202D01*
X19076114Y22080201D01*
X19158528Y22058118D01*
X19209841Y22024795D01*
X19231768Y21967673D01*
X19215932Y21908573D01*
X19168382Y21870068D01*
X19148392Y21864711D01*
X19116872Y21859719D01*
X19116870Y21859718D01*
X18996782Y21798530D01*
X18901470Y21703218D01*
X18840282Y21583130D01*
X18840281Y21583128D01*
X18819196Y21450001D01*
X18819196Y21450000D01*
X18840281Y21316873D01*
X18840282Y21316871D01*
X18901470Y21196783D01*
X18901472Y21196780D01*
X18996780Y21101472D01*
X19116874Y21040281D01*
X19250000Y21019196D01*
X19250181Y21019196D01*
X19250353Y21019140D01*
X19257696Y21017977D01*
X19257511Y21016815D01*
X19308372Y21000289D01*
X19320185Y20990200D01*
X19816443Y20493942D01*
X19816442Y20493942D01*
X19859790Y20450595D01*
X19893942Y20416443D01*
X19995200Y20374500D01*
X20650500Y20374500D01*
X20708691Y20355593D01*
X20744655Y20306093D01*
X20749500Y20275500D01*
X20749500Y20130254D01*
X20749501Y20130242D01*
X20761132Y20071773D01*
X20761134Y20071767D01*
X20805445Y20005452D01*
X20805448Y20005448D01*
X20871769Y19961133D01*
X20916231Y19952289D01*
X20930241Y19949502D01*
X20930246Y19949502D01*
X20930252Y19949500D01*
X20930253Y19949500D01*
X21969747Y19949500D01*
X21969748Y19949500D01*
X22028231Y19961133D01*
X22094552Y20005448D01*
X22138867Y20071769D01*
X22148192Y20118648D01*
X30645423Y20118648D01*
X30707806Y20056265D01*
X30748299Y20025193D01*
X30748306Y20025190D01*
X30863454Y19983279D01*
X30863456Y19983278D01*
X30986003Y19983278D01*
X31018051Y19994943D01*
X31079200Y19997079D01*
X31129925Y19962866D01*
X31150853Y19905371D01*
X31144943Y19868055D01*
X31133278Y19836005D01*
X31133278Y19713455D01*
X31175189Y19598307D01*
X31175192Y19598300D01*
X31206264Y19557807D01*
X31268646Y19495425D01*
X31530276Y19757054D01*
X31347051Y19940279D01*
X31234417Y20052912D01*
X31227169Y20055267D01*
X31214171Y20073157D01*
X30907052Y20380276D01*
X30645423Y20118648D01*
X22148192Y20118648D01*
X22150500Y20130252D01*
X22150500Y20909309D01*
X22559500Y20909309D01*
X22559500Y20790691D01*
X22574736Y20733830D01*
X22590202Y20676110D01*
X22649507Y20573392D01*
X22649509Y20573390D01*
X22649511Y20573387D01*
X22733387Y20489511D01*
X22733389Y20489510D01*
X22733391Y20489508D01*
X22836110Y20430203D01*
X22836111Y20430203D01*
X22836114Y20430201D01*
X22950691Y20399500D01*
X23423895Y20399500D01*
X23465734Y20390224D01*
X23560510Y20346029D01*
X23560511Y20346029D01*
X23560513Y20346028D01*
X23610099Y20339500D01*
X23969900Y20339501D01*
X24019487Y20346028D01*
X24019488Y20346028D01*
X24118940Y20392404D01*
X24128316Y20396776D01*
X24200352Y20468813D01*
X24254867Y20496588D01*
X24315299Y20487017D01*
X24340358Y20468811D01*
X24411978Y20397191D01*
X24520638Y20346522D01*
X24520645Y20346520D01*
X24570161Y20340000D01*
X24624999Y20340000D01*
X24625000Y20340001D01*
X24625000Y20724999D01*
X24875000Y20724999D01*
X24875000Y20340001D01*
X24875001Y20340000D01*
X24929838Y20340000D01*
X24979354Y20346520D01*
X24979361Y20346522D01*
X25088021Y20397191D01*
X25172809Y20481979D01*
X25223478Y20590639D01*
X25223480Y20590646D01*
X25229452Y20636004D01*
X30333278Y20636004D01*
X30333278Y20513455D01*
X30375189Y20398307D01*
X30375192Y20398300D01*
X30406264Y20357807D01*
X30468646Y20295425D01*
X30730275Y20557053D01*
X30450969Y20836359D01*
X30406258Y20791649D01*
X30375193Y20751164D01*
X30375191Y20751162D01*
X30333278Y20636004D01*
X25229452Y20636004D01*
X25230000Y20640162D01*
X25230000Y20724999D01*
X25229999Y20725000D01*
X24875001Y20725000D01*
X24875000Y20724999D01*
X24625000Y20724999D01*
X24625000Y21359999D01*
X24875000Y21359999D01*
X24875000Y20975001D01*
X24875001Y20975000D01*
X25229999Y20975000D01*
X25230000Y20975001D01*
X25230000Y21059839D01*
X25223480Y21109355D01*
X25223478Y21109362D01*
X25172809Y21218022D01*
X25088021Y21302810D01*
X24979361Y21353479D01*
X24979354Y21353481D01*
X24929839Y21360000D01*
X24875001Y21360000D01*
X24875000Y21359999D01*
X24625000Y21359999D01*
X24624999Y21360000D01*
X24570161Y21360000D01*
X24520645Y21353481D01*
X24520638Y21353479D01*
X24411978Y21302810D01*
X24340358Y21231189D01*
X24285841Y21203412D01*
X24225409Y21212983D01*
X24200353Y21231187D01*
X24128316Y21303224D01*
X24128314Y21303225D01*
X24128313Y21303226D01*
X24019489Y21353971D01*
X24019488Y21353972D01*
X24002958Y21356148D01*
X23969901Y21360500D01*
X23969899Y21360500D01*
X23610104Y21360500D01*
X23610092Y21360499D01*
X23560513Y21353973D01*
X23465735Y21309776D01*
X23423895Y21300500D01*
X22950691Y21300500D01*
X22903750Y21287922D01*
X22836109Y21269798D01*
X22733391Y21210493D01*
X22649507Y21126609D01*
X22590202Y21023891D01*
X22587321Y21013137D01*
X22559500Y20909309D01*
X22150500Y20909309D01*
X22150500Y21169748D01*
X22138867Y21228231D01*
X22094552Y21294552D01*
X22087180Y21299478D01*
X22028233Y21338866D01*
X22028231Y21338867D01*
X22028228Y21338868D01*
X22028227Y21338868D01*
X21969758Y21350499D01*
X21969748Y21350500D01*
X20930252Y21350500D01*
X20930251Y21350500D01*
X20930241Y21350499D01*
X20871772Y21338868D01*
X20871766Y21338866D01*
X20805451Y21294555D01*
X20805445Y21294549D01*
X20761134Y21228234D01*
X20761132Y21228228D01*
X20749501Y21169759D01*
X20749500Y21169747D01*
X20749500Y21024500D01*
X20730593Y20966309D01*
X20681093Y20930345D01*
X20650500Y20925500D01*
X20205123Y20925500D01*
X20146932Y20944407D01*
X20135119Y20954496D01*
X19709800Y21379815D01*
X19682023Y21434332D01*
X19680804Y21449819D01*
X19680804Y21450001D01*
X19674459Y21490060D01*
X19659719Y21583126D01*
X19636370Y21628950D01*
X19598529Y21703218D01*
X19598528Y21703220D01*
X19503220Y21798528D01*
X19503217Y21798530D01*
X19383129Y21859718D01*
X19383127Y21859719D01*
X19351608Y21864711D01*
X19297091Y21892489D01*
X19269314Y21947005D01*
X19278885Y22007437D01*
X19321449Y22050001D01*
X21019196Y22050001D01*
X21019196Y22050000D01*
X21040281Y21916873D01*
X21040282Y21916871D01*
X21100580Y21798530D01*
X21101472Y21796780D01*
X21196780Y21701472D01*
X21196782Y21701471D01*
X21270656Y21663830D01*
X21316874Y21640281D01*
X21450000Y21619196D01*
X21583126Y21640281D01*
X21665074Y21682037D01*
X21710019Y21692826D01*
X25906831Y21692826D01*
X25965022Y21673919D01*
X25976834Y21663830D01*
X26000382Y21640283D01*
X26020867Y21619798D01*
X26060898Y21599401D01*
X26093483Y21582798D01*
X26140961Y21558607D01*
X26274087Y21537522D01*
X26407213Y21558607D01*
X26527307Y21619798D01*
X26622615Y21715106D01*
X26683806Y21835200D01*
X26695487Y21908957D01*
X26723264Y21963472D01*
X26777776Y21991249D01*
X26887375Y22008607D01*
X27007469Y22069798D01*
X27102777Y22165106D01*
X27163968Y22285200D01*
X27185053Y22418326D01*
X27163968Y22551452D01*
X27161907Y22555496D01*
X27110905Y22655593D01*
X27102777Y22671546D01*
X27007469Y22766854D01*
X27007466Y22766856D01*
X26887378Y22828044D01*
X26887376Y22828045D01*
X26754250Y22849130D01*
X26754068Y22849130D01*
X26753894Y22849187D01*
X26746554Y22850349D01*
X26746738Y22851512D01*
X26695877Y22868037D01*
X26684065Y22878126D01*
X26378632Y23183558D01*
X26362401Y23190281D01*
X26362400Y23190281D01*
X26277375Y23225500D01*
X26277374Y23225500D01*
X25551210Y23225500D01*
X25493019Y23244407D01*
X25457055Y23293907D01*
X25453057Y23337422D01*
X25459999Y23390159D01*
X25460000Y23390161D01*
X25460000Y23444999D01*
X25459999Y23445000D01*
X24440001Y23445000D01*
X24440000Y23444999D01*
X24440000Y23390159D01*
X24446943Y23337422D01*
X24435793Y23277261D01*
X24391410Y23235144D01*
X24348790Y23225500D01*
X24249500Y23225500D01*
X24191309Y23244407D01*
X24155345Y23293907D01*
X24150500Y23324500D01*
X24150500Y23369747D01*
X24150498Y23369759D01*
X24146070Y23392017D01*
X24138867Y23428231D01*
X24094552Y23494552D01*
X24094548Y23494555D01*
X24028233Y23538866D01*
X24028231Y23538867D01*
X24028228Y23538868D01*
X24028227Y23538868D01*
X23969758Y23550499D01*
X23969748Y23550500D01*
X22930252Y23550500D01*
X22930246Y23550500D01*
X22900124Y23544508D01*
X22839363Y23551700D01*
X22794433Y23593234D01*
X22782497Y23653243D01*
X22796519Y23689060D01*
X22794991Y23689838D01*
X22845168Y23788316D01*
X22859719Y23816874D01*
X22880804Y23950000D01*
X22867339Y24035015D01*
X22876910Y24095445D01*
X22920175Y24138709D01*
X22965120Y24149500D01*
X23069747Y24149500D01*
X23069748Y24149500D01*
X23128231Y24161133D01*
X23194552Y24205448D01*
X23194552Y24205449D01*
X23202659Y24210865D01*
X23203558Y24209520D01*
X23248005Y24232170D01*
X23308438Y24222603D01*
X23333500Y24204397D01*
X23373386Y24164511D01*
X23373388Y24164510D01*
X23373390Y24164508D01*
X23476107Y24105204D01*
X23476108Y24105204D01*
X23476113Y24105201D01*
X23590691Y24074501D01*
X23590693Y24074501D01*
X23709308Y24074501D01*
X23709309Y24074501D01*
X23715377Y24076128D01*
X23740999Y24079500D01*
X24429661Y24079500D01*
X24487852Y24060593D01*
X24523816Y24011093D01*
X24523816Y23949907D01*
X24499665Y23910496D01*
X24497190Y23908022D01*
X24446521Y23799362D01*
X24446519Y23799355D01*
X24440000Y23749839D01*
X24440000Y23695001D01*
X24440001Y23695000D01*
X25459999Y23695000D01*
X25460000Y23695001D01*
X25460000Y23749839D01*
X25453480Y23799355D01*
X25453478Y23799362D01*
X25402809Y23908022D01*
X25331189Y23979642D01*
X25303412Y24034159D01*
X25312983Y24094591D01*
X25331186Y24119647D01*
X25403224Y24191684D01*
X25453972Y24300513D01*
X25460500Y24350099D01*
X25460499Y24709900D01*
X25453972Y24759487D01*
X25453972Y24759489D01*
X25403225Y24868314D01*
X25403224Y24868315D01*
X25403224Y24868316D01*
X25318316Y24953224D01*
X25318314Y24953225D01*
X25318313Y24953226D01*
X25209489Y25003971D01*
X25209488Y25003972D01*
X25192958Y25006148D01*
X25159901Y25010500D01*
X25159899Y25010500D01*
X24740103Y25010500D01*
X24740092Y25010499D01*
X24690513Y25003973D01*
X24660066Y24989775D01*
X24618228Y24980500D01*
X23595691Y24980500D01*
X23550508Y24968394D01*
X23505325Y24956287D01*
X23505324Y24956288D01*
X23481113Y24949800D01*
X23399000Y24902391D01*
X23339152Y24889670D01*
X23283256Y24914557D01*
X23252663Y24967545D01*
X23250500Y24988128D01*
X23250500Y25369747D01*
X23250498Y25369759D01*
X23243842Y25403220D01*
X23238867Y25428231D01*
X23194552Y25494552D01*
X23194548Y25494555D01*
X23128233Y25538866D01*
X23128231Y25538867D01*
X23128228Y25538868D01*
X23128227Y25538868D01*
X23069758Y25550499D01*
X23069748Y25550500D01*
X22030252Y25550500D01*
X22030251Y25550500D01*
X22030241Y25550499D01*
X21971772Y25538868D01*
X21971766Y25538866D01*
X21905451Y25494555D01*
X21905445Y25494549D01*
X21861134Y25428234D01*
X21861132Y25428228D01*
X21849501Y25369759D01*
X21849500Y25369747D01*
X21849500Y24330254D01*
X21849501Y24330242D01*
X21861132Y24271773D01*
X21861134Y24271767D01*
X21901828Y24210865D01*
X21905448Y24205448D01*
X21905451Y24205446D01*
X21971769Y24161133D01*
X21975552Y24159566D01*
X22022078Y24119830D01*
X22036362Y24060335D01*
X22035448Y24052615D01*
X22019196Y23950001D01*
X22019196Y23950000D01*
X22040281Y23816873D01*
X22040282Y23816871D01*
X22101470Y23696783D01*
X22101472Y23696780D01*
X22196780Y23601472D01*
X22316874Y23540281D01*
X22450000Y23519196D01*
X22583126Y23540281D01*
X22628498Y23563400D01*
X22688928Y23572973D01*
X22743445Y23545196D01*
X22771224Y23490681D01*
X22762891Y23438060D01*
X22764866Y23437242D01*
X22761132Y23428228D01*
X22749168Y23368086D01*
X22719271Y23314703D01*
X22663705Y23289088D01*
X22636584Y23289621D01*
X22512606Y23309257D01*
X22512605Y23309257D01*
X22379477Y23288172D01*
X22379475Y23288171D01*
X22259387Y23226983D01*
X22164075Y23131671D01*
X22102887Y23011583D01*
X22102886Y23011581D01*
X22081801Y22878454D01*
X22081801Y22878453D01*
X22102886Y22745326D01*
X22102887Y22745324D01*
X22153748Y22645504D01*
X22164077Y22625233D01*
X22259385Y22529925D01*
X22379479Y22468734D01*
X22473245Y22453883D01*
X22512604Y22447649D01*
X22512604Y22447650D01*
X22512605Y22447649D01*
X22635014Y22467037D01*
X22695445Y22457466D01*
X22738709Y22414201D01*
X22749500Y22369256D01*
X22749500Y22342826D01*
X22730593Y22284635D01*
X22681093Y22248671D01*
X22650500Y22243826D01*
X21889458Y22243826D01*
X21831267Y22262733D01*
X21801248Y22297881D01*
X21798529Y22303218D01*
X21798528Y22303220D01*
X21703220Y22398528D01*
X21703217Y22398530D01*
X21583129Y22459718D01*
X21583127Y22459719D01*
X21450000Y22480804D01*
X21316872Y22459719D01*
X21316870Y22459718D01*
X21196782Y22398530D01*
X21101470Y22303218D01*
X21040282Y22183130D01*
X21040281Y22183128D01*
X21019196Y22050001D01*
X19321449Y22050001D01*
X19322150Y22050702D01*
X19341464Y22058117D01*
X19423886Y22080201D01*
X19423888Y22080203D01*
X19423890Y22080203D01*
X19526608Y22139508D01*
X19526608Y22139509D01*
X19526613Y22139511D01*
X19610489Y22223387D01*
X19622290Y22243826D01*
X19669797Y22326110D01*
X19669797Y22326112D01*
X19669799Y22326114D01*
X19700500Y22440691D01*
X19700500Y23083895D01*
X19709776Y23125734D01*
X19753971Y23220511D01*
X19753972Y23220513D01*
X19760500Y23270099D01*
X19760499Y23629900D01*
X19753972Y23679487D01*
X19753972Y23679489D01*
X19703225Y23788314D01*
X19703224Y23788315D01*
X19703224Y23788316D01*
X19631187Y23860353D01*
X19603412Y23914867D01*
X19612983Y23975299D01*
X19631189Y24000358D01*
X19702809Y24071979D01*
X19753478Y24180639D01*
X19753480Y24180646D01*
X19760000Y24230162D01*
X19760000Y24284999D01*
X19759999Y24285000D01*
X18740001Y24285000D01*
X18740000Y24284999D01*
X18740000Y24230162D01*
X18746519Y24180646D01*
X18746521Y24180639D01*
X18797190Y24071979D01*
X18868811Y24000358D01*
X18896588Y23945841D01*
X18887017Y23885409D01*
X18868813Y23860354D01*
X18831683Y23823223D01*
X18796774Y23788314D01*
X18746029Y23679490D01*
X18746028Y23679489D01*
X18739500Y23629900D01*
X6776068Y23629900D01*
X6768394Y23678353D01*
X6759719Y23733126D01*
X6698528Y23853220D01*
X6603220Y23948528D01*
X6603217Y23948530D01*
X6483129Y24009718D01*
X6483127Y24009719D01*
X6350000Y24030804D01*
X6216872Y24009719D01*
X6216870Y24009718D01*
X6096782Y23948530D01*
X6001470Y23853218D01*
X5940282Y23733130D01*
X5940281Y23733128D01*
X5921544Y23614826D01*
X5919196Y23600000D01*
X5940281Y23466874D01*
X5959972Y23428228D01*
X5963709Y23420895D01*
X5974500Y23375949D01*
X5974500Y20405124D01*
X5955593Y20346933D01*
X5945504Y20335120D01*
X5521998Y19911614D01*
X5467481Y19883837D01*
X5407049Y19893408D01*
X5363784Y19936673D01*
X5354213Y19997105D01*
X5357840Y20012212D01*
X5372268Y20056618D01*
X5392594Y20250000D01*
X5372269Y20443380D01*
X5312181Y20628309D01*
X5312179Y20628314D01*
X5214964Y20796694D01*
X5214961Y20796698D01*
X5201227Y20811951D01*
X4838325Y20449050D01*
X4802584Y20510956D01*
X4723456Y20590084D01*
X4661548Y20625827D01*
X5022337Y20986616D01*
X5022337Y20986617D01*
X4927551Y21055484D01*
X4927542Y21055490D01*
X4749921Y21134571D01*
X4749911Y21134574D01*
X4559718Y21175000D01*
X4365282Y21175000D01*
X4175088Y21134574D01*
X4175082Y21134572D01*
X3997459Y21055490D01*
X3997451Y21055485D01*
X3902661Y20986617D01*
X4263451Y20625827D01*
X4201544Y20590084D01*
X4122416Y20510956D01*
X4086673Y20449049D01*
X3723771Y20811951D01*
X3710037Y20796697D01*
X3612817Y20628308D01*
X3552730Y20443380D01*
X3532405Y20250000D01*
X325500Y20250000D01*
X325500Y21375001D01*
X621691Y21375001D01*
X621692Y21375000D01*
X1138258Y21375000D01*
X1132944Y21365796D01*
X1112500Y21289496D01*
X1112500Y21210504D01*
X1132944Y21134204D01*
X1138258Y21125000D01*
X621691Y21125000D01*
X643242Y21016652D01*
X703548Y20871060D01*
X703552Y20871051D01*
X791099Y20740031D01*
X791102Y20740027D01*
X902526Y20628603D01*
X902530Y20628600D01*
X1033550Y20541053D01*
X1033559Y20541049D01*
X1179150Y20480743D01*
X1333704Y20450001D01*
X1333708Y20450000D01*
X1637499Y20450000D01*
X1637500Y20450001D01*
X1637500Y20950000D01*
X1887500Y20950000D01*
X1887500Y20450001D01*
X1887501Y20450000D01*
X2191292Y20450000D01*
X2191295Y20450001D01*
X2345849Y20480743D01*
X2491440Y20541049D01*
X2491449Y20541053D01*
X2622469Y20628600D01*
X2622473Y20628603D01*
X2733897Y20740027D01*
X2733900Y20740031D01*
X2821447Y20871051D01*
X2821451Y20871060D01*
X2881757Y21016652D01*
X2903309Y21125000D01*
X2386742Y21125000D01*
X2392056Y21134204D01*
X2412500Y21210504D01*
X2412500Y21289496D01*
X2392056Y21365796D01*
X2386742Y21375000D01*
X2903308Y21375000D01*
X2903308Y21375001D01*
X2881757Y21483349D01*
X2821451Y21628941D01*
X2821447Y21628950D01*
X2733900Y21759970D01*
X2733897Y21759974D01*
X2622473Y21871398D01*
X2622469Y21871401D01*
X2491449Y21958948D01*
X2491440Y21958952D01*
X2345849Y22019258D01*
X2191295Y22050000D01*
X1887501Y22050000D01*
X1887500Y22049999D01*
X1887500Y21550000D01*
X1637500Y21550000D01*
X1637500Y22049999D01*
X1637499Y22050000D01*
X1333704Y22050000D01*
X1179150Y22019258D01*
X1033559Y21958952D01*
X1033550Y21958948D01*
X902530Y21871401D01*
X902526Y21871398D01*
X791102Y21759974D01*
X791099Y21759970D01*
X703552Y21628950D01*
X703548Y21628941D01*
X643242Y21483349D01*
X621691Y21375001D01*
X325500Y21375001D01*
X325500Y24589839D01*
X18740000Y24589839D01*
X18740000Y24535001D01*
X18740001Y24535000D01*
X19124999Y24535000D01*
X19125000Y24535001D01*
X19125000Y24889999D01*
X19375000Y24889999D01*
X19375000Y24535001D01*
X19375001Y24535000D01*
X19759999Y24535000D01*
X19760000Y24535001D01*
X19760000Y24589839D01*
X19753480Y24639355D01*
X19753478Y24639362D01*
X19702809Y24748022D01*
X19618021Y24832810D01*
X19509361Y24883479D01*
X19509354Y24883481D01*
X19459839Y24890000D01*
X19375001Y24890000D01*
X19375000Y24889999D01*
X19125000Y24889999D01*
X19124999Y24890000D01*
X19040161Y24890000D01*
X18990645Y24883481D01*
X18990638Y24883479D01*
X18881978Y24832810D01*
X18797190Y24748022D01*
X18746521Y24639362D01*
X18746519Y24639355D01*
X18740000Y24589839D01*
X325500Y24589839D01*
X325500Y25150001D01*
X11019196Y25150001D01*
X11019196Y25150000D01*
X11040281Y25016873D01*
X11040282Y25016871D01*
X11101470Y24896783D01*
X11101472Y24896780D01*
X11196780Y24801472D01*
X11316874Y24740281D01*
X11450000Y24719196D01*
X11583126Y24740281D01*
X11657788Y24778324D01*
X11718218Y24787895D01*
X11772735Y24760118D01*
X11832489Y24700364D01*
X11936830Y24649355D01*
X12004472Y24639500D01*
X12004475Y24639500D01*
X12365524Y24639500D01*
X12365528Y24639500D01*
X12433170Y24649355D01*
X12537511Y24700364D01*
X12599998Y24762852D01*
X12654513Y24790627D01*
X12714945Y24781056D01*
X12740000Y24762853D01*
X12802489Y24700364D01*
X12906830Y24649355D01*
X12974472Y24639500D01*
X12974475Y24639500D01*
X13335524Y24639500D01*
X13335528Y24639500D01*
X13403170Y24649355D01*
X13507511Y24700364D01*
X13570640Y24763494D01*
X13625154Y24791270D01*
X13685586Y24781699D01*
X13685587Y24781699D01*
X13766874Y24740281D01*
X13900000Y24719196D01*
X14033126Y24740281D01*
X14153220Y24801472D01*
X14248528Y24896780D01*
X14309719Y25016874D01*
X14330804Y25150000D01*
X14309719Y25283126D01*
X14248528Y25403220D01*
X14153220Y25498528D01*
X14153217Y25498530D01*
X14033129Y25559718D01*
X14033127Y25559719D01*
X13900000Y25580804D01*
X13766872Y25559719D01*
X13698835Y25525053D01*
X13638403Y25515482D01*
X13583889Y25543258D01*
X13507511Y25619636D01*
X13403170Y25670645D01*
X13403171Y25670645D01*
X13393330Y25672079D01*
X13355880Y25677535D01*
X13301025Y25704634D01*
X13272573Y25758801D01*
X13281395Y25819347D01*
X13324119Y25863145D01*
X13370155Y25874500D01*
X24754862Y25874500D01*
X24813053Y25855593D01*
X24824865Y25845505D01*
X28253926Y22416443D01*
X28270184Y22409709D01*
X28355185Y22374500D01*
X31234649Y22374500D01*
X31292840Y22355593D01*
X31304653Y22345504D01*
X31412975Y22237182D01*
X31440752Y22182665D01*
X31431181Y22122233D01*
X31387916Y22078968D01*
X31327484Y22069397D01*
X31317349Y22071551D01*
X31269883Y22084269D01*
X31209309Y22100499D01*
X31090691Y22100499D01*
X30976113Y22069799D01*
X30976111Y22069799D01*
X30976107Y22069797D01*
X30873390Y22010493D01*
X30789507Y21926610D01*
X30730203Y21823893D01*
X30730201Y21823889D01*
X30730201Y21823887D01*
X30699501Y21709309D01*
X30699501Y21590691D01*
X30730201Y21476113D01*
X30730202Y21476111D01*
X30730203Y21476108D01*
X30789507Y21373391D01*
X30789511Y21373386D01*
X30867757Y21295139D01*
X30895534Y21240622D01*
X30885962Y21180190D01*
X30842698Y21136926D01*
X30831613Y21132106D01*
X30712944Y21088915D01*
X30712942Y21088913D01*
X30672457Y21057848D01*
X30627746Y21013137D01*
X30907052Y20733830D01*
X30907053Y20733830D01*
X31267056Y20373827D01*
X31267055Y20373827D01*
X31379688Y20261195D01*
X31386937Y20258839D01*
X31399937Y20240946D01*
X31707052Y19933830D01*
X31707053Y19933830D01*
X32067056Y19573827D01*
X32067055Y19573827D01*
X32179688Y19461195D01*
X32186937Y19458839D01*
X32199937Y19440946D01*
X32507052Y19133830D01*
X32507053Y19133830D01*
X32867056Y18773827D01*
X32867055Y18773827D01*
X32979688Y18661195D01*
X32986937Y18658839D01*
X32999937Y18640946D01*
X33307052Y18333830D01*
X33763137Y17877746D01*
X33794145Y17877746D01*
X33852336Y17858839D01*
X33864142Y17848756D01*
X33923387Y17789511D01*
X33923389Y17789510D01*
X33923391Y17789508D01*
X34026110Y17730203D01*
X34026111Y17730203D01*
X34026114Y17730201D01*
X34140691Y17699500D01*
X34140693Y17699500D01*
X34259307Y17699500D01*
X34259309Y17699500D01*
X34373886Y17730201D01*
X34373888Y17730203D01*
X34373890Y17730203D01*
X34476608Y17789508D01*
X34476608Y17789509D01*
X34476613Y17789511D01*
X34560489Y17873387D01*
X34576836Y17901701D01*
X34619797Y17976110D01*
X34619797Y17976112D01*
X34619799Y17976114D01*
X34650500Y18090691D01*
X34650500Y18695203D01*
X34621735Y18802554D01*
X34619799Y18809781D01*
X34619798Y18809782D01*
X34619798Y18809784D01*
X34619797Y18809785D01*
X34557245Y18918128D01*
X34558269Y18918720D01*
X34549301Y18935540D01*
X34543232Y18953218D01*
X34529510Y18993190D01*
X34488649Y19047988D01*
X34197988Y19338649D01*
X34192223Y19342948D01*
X34143195Y19379507D01*
X34143192Y19379509D01*
X34143190Y19379510D01*
X34143186Y19379512D01*
X34143185Y19379512D01*
X34089166Y19398058D01*
X34051309Y19421689D01*
X33900053Y19572945D01*
X33872276Y19627462D01*
X33881847Y19687894D01*
X33900050Y19712949D01*
X34060489Y19873386D01*
X34061310Y19874807D01*
X34119796Y19976108D01*
X34119795Y19976108D01*
X34119799Y19976113D01*
X34150499Y20090691D01*
X34150499Y20209309D01*
X34119799Y20323887D01*
X34119796Y20323893D01*
X34060492Y20426610D01*
X34060490Y20426612D01*
X34060489Y20426614D01*
X33976614Y20510489D01*
X33976611Y20510491D01*
X33976609Y20510493D01*
X33873892Y20569797D01*
X33873889Y20569798D01*
X33873887Y20569799D01*
X33759309Y20600499D01*
X33640691Y20600499D01*
X33526113Y20569799D01*
X33526111Y20569799D01*
X33526107Y20569797D01*
X33423390Y20510493D01*
X33423385Y20510489D01*
X33153066Y20240171D01*
X33115209Y20216540D01*
X33080353Y20204573D01*
X33019177Y20203561D01*
X32969089Y20238701D01*
X32949222Y20296571D01*
X32954572Y20330352D01*
X32967222Y20367198D01*
X32967222Y20392404D01*
X32986129Y20450595D01*
X32996212Y20462402D01*
X33371238Y20837427D01*
X33416624Y20916038D01*
X33430547Y20940153D01*
X33461247Y21054731D01*
X33461247Y21173349D01*
X33457455Y21187500D01*
X33453192Y21203412D01*
X33430549Y21287922D01*
X33430548Y21287924D01*
X33430547Y21287925D01*
X33430547Y21287927D01*
X33371238Y21390654D01*
X33287362Y21474530D01*
X33287359Y21474532D01*
X33283903Y21477988D01*
X33283903Y21477989D01*
X32901402Y21860489D01*
X32901397Y21860493D01*
X32798680Y21919797D01*
X32798677Y21919798D01*
X32798675Y21919799D01*
X32773240Y21926614D01*
X32684097Y21950500D01*
X32684096Y21950500D01*
X32562978Y21950500D01*
X32504787Y21969407D01*
X32468823Y22018907D01*
X32465197Y22034013D01*
X32459593Y22069397D01*
X32449501Y22133116D01*
X32388310Y22253210D01*
X32293002Y22348518D01*
X32292999Y22348520D01*
X32172911Y22409708D01*
X32172909Y22409709D01*
X32039783Y22430794D01*
X32039601Y22430794D01*
X32039427Y22430851D01*
X32032087Y22432013D01*
X32032271Y22433176D01*
X31981410Y22449701D01*
X31969597Y22459790D01*
X31873891Y22555496D01*
X31846114Y22610013D01*
X31855685Y22670445D01*
X31898950Y22713710D01*
X31943895Y22724500D01*
X34506321Y22724500D01*
X34564512Y22705593D01*
X34576325Y22695504D01*
X36745504Y20526325D01*
X36773281Y20471808D01*
X36774500Y20456321D01*
X36774500Y13781305D01*
X36755593Y13723114D01*
X36718980Y13692364D01*
X36672490Y13669637D01*
X36590364Y13587511D01*
X36539355Y13483172D01*
X36539355Y13483170D01*
X36529500Y13415528D01*
X36529500Y13054472D01*
X36535926Y13010366D01*
X36539355Y12986829D01*
X36558079Y12948530D01*
X36590364Y12882489D01*
X36652851Y12820002D01*
X36680627Y12765487D01*
X36671056Y12705055D01*
X36652852Y12680000D01*
X36590364Y12617511D01*
X36539355Y12513172D01*
X36539355Y12513170D01*
X36529500Y12445528D01*
X36529500Y12084472D01*
X36537384Y12030359D01*
X36539355Y12016829D01*
X36552716Y11989500D01*
X36590364Y11912489D01*
X36616867Y11885986D01*
X36644643Y11831471D01*
X36641446Y11790830D01*
X36641500Y11790821D01*
X36641391Y11790138D01*
X36641019Y11785399D01*
X36640281Y11783130D01*
X36619196Y11650001D01*
X36619196Y11650000D01*
X36640281Y11516873D01*
X36640282Y11516871D01*
X36701470Y11396783D01*
X36701472Y11396780D01*
X36796780Y11301472D01*
X36916874Y11240281D01*
X37050000Y11219196D01*
X37183126Y11240281D01*
X37303220Y11301472D01*
X37398528Y11396780D01*
X37459719Y11516874D01*
X37480804Y11650000D01*
X37459719Y11783126D01*
X37459718Y11783127D01*
X37458500Y11790822D01*
X37462021Y11791380D01*
X37461964Y11837163D01*
X37497865Y11886708D01*
X37556032Y11905689D01*
X37614247Y11886855D01*
X37626154Y11876699D01*
X37672489Y11830364D01*
X37776830Y11779355D01*
X37844472Y11769500D01*
X37844475Y11769500D01*
X38255524Y11769500D01*
X38255528Y11769500D01*
X38323170Y11779355D01*
X38427511Y11830364D01*
X38479998Y11882852D01*
X38534513Y11910627D01*
X38594945Y11901056D01*
X38620000Y11882853D01*
X38672489Y11830364D01*
X38776830Y11779355D01*
X38844472Y11769500D01*
X38844475Y11769500D01*
X39255524Y11769500D01*
X39255528Y11769500D01*
X39323170Y11779355D01*
X39427511Y11830364D01*
X39479998Y11882852D01*
X39534513Y11910627D01*
X39594945Y11901056D01*
X39620000Y11882853D01*
X39672489Y11830364D01*
X39776830Y11779355D01*
X39844472Y11769500D01*
X39844475Y11769500D01*
X40255524Y11769500D01*
X40255528Y11769500D01*
X40323170Y11779355D01*
X40427511Y11830364D01*
X40509636Y11912489D01*
X40560645Y12016830D01*
X40570500Y12084472D01*
X40570500Y12091854D01*
X40589407Y12150045D01*
X40638907Y12186009D01*
X40654004Y12189634D01*
X40658096Y12190281D01*
X40778190Y12251472D01*
X40873498Y12346780D01*
X40934689Y12466874D01*
X40955774Y12600000D01*
X40934689Y12733126D01*
X40900429Y12800364D01*
X40873499Y12853218D01*
X40873498Y12853220D01*
X40778190Y12948528D01*
X40778187Y12948530D01*
X40658099Y13009718D01*
X40658098Y13009719D01*
X40655515Y13010128D01*
X40654009Y13010367D01*
X40599494Y13038146D01*
X40571718Y13092663D01*
X40570500Y13108147D01*
X40570500Y13415525D01*
X40570500Y13415528D01*
X40560645Y13483170D01*
X40560643Y13483173D01*
X40558375Y13490515D01*
X40560898Y13491295D01*
X40554050Y13539713D01*
X40582726Y13593762D01*
X40606617Y13610819D01*
X40625575Y13620478D01*
X40720883Y13715786D01*
X40782074Y13835880D01*
X40803159Y13969006D01*
X40802220Y13974932D01*
X40796676Y14009940D01*
X40782074Y14102132D01*
X40765732Y14134204D01*
X40720884Y14222224D01*
X40720883Y14222226D01*
X40625575Y14317534D01*
X40625572Y14317536D01*
X40505484Y14378724D01*
X40505482Y14378725D01*
X40372356Y14399810D01*
X40372175Y14399810D01*
X40372002Y14399867D01*
X40364660Y14401029D01*
X40364844Y14402192D01*
X40313984Y14418717D01*
X40302171Y14428806D01*
X38004496Y16726481D01*
X37976719Y16780998D01*
X37975500Y16796485D01*
X37975500Y20864800D01*
X37940885Y20948367D01*
X37933557Y20966058D01*
X37933557Y20966059D01*
X34899615Y24000000D01*
X41595073Y24000000D01*
X41614738Y23787784D01*
X41673064Y23582790D01*
X41768057Y23392017D01*
X41768062Y23392008D01*
X41852894Y23279674D01*
X42210568Y23637349D01*
X42245112Y23585649D01*
X42335649Y23495112D01*
X42387345Y23460571D01*
X42028432Y23101658D01*
X42028433Y23101656D01*
X42053995Y23078353D01*
X42053994Y23078353D01*
X42235206Y22966153D01*
X42433941Y22889162D01*
X42643437Y22850000D01*
X42856563Y22850000D01*
X43066058Y22889162D01*
X43264795Y22966153D01*
X43264797Y22966154D01*
X43445995Y23078346D01*
X43445997Y23078348D01*
X43471565Y23101657D01*
X43112653Y23460569D01*
X43164351Y23495112D01*
X43254888Y23585649D01*
X43289431Y23637347D01*
X43647106Y23279672D01*
X43731931Y23391998D01*
X43731940Y23392013D01*
X43826935Y23582790D01*
X43885261Y23787784D01*
X43904926Y24000000D01*
X43885261Y24212217D01*
X43826935Y24417211D01*
X43731942Y24607984D01*
X43731937Y24607993D01*
X43647105Y24720328D01*
X43289430Y24362654D01*
X43254888Y24414351D01*
X43164351Y24504888D01*
X43112651Y24539432D01*
X43471565Y24898345D01*
X43471565Y24898346D01*
X43446004Y24921648D01*
X43446005Y24921648D01*
X43264793Y25033848D01*
X43066058Y25110839D01*
X42856563Y25150000D01*
X42643437Y25150000D01*
X42433941Y25110839D01*
X42235206Y25033848D01*
X42053998Y24921650D01*
X42028433Y24898345D01*
X42387346Y24539432D01*
X42335649Y24504888D01*
X42245112Y24414351D01*
X42210568Y24362654D01*
X41852893Y24720329D01*
X41768066Y24607999D01*
X41768057Y24607984D01*
X41673064Y24417211D01*
X41614738Y24212217D01*
X41595073Y24000000D01*
X34899615Y24000000D01*
X34737362Y24162253D01*
X34737360Y24162254D01*
X34737359Y24162255D01*
X34731912Y24164512D01*
X34731912Y24164511D01*
X34666303Y24191687D01*
X34636104Y24204196D01*
X34636103Y24204196D01*
X31215030Y24204196D01*
X31156839Y24223103D01*
X31145026Y24233192D01*
X31079101Y24299117D01*
X31051324Y24353634D01*
X31050105Y24369121D01*
X31050105Y24369302D01*
X31042517Y24417211D01*
X31029020Y24502427D01*
X30967829Y24622521D01*
X30872521Y24717829D01*
X30872518Y24717831D01*
X30752430Y24779019D01*
X30752428Y24779020D01*
X30619301Y24800105D01*
X30486173Y24779020D01*
X30486171Y24779019D01*
X30366083Y24717831D01*
X30359776Y24713248D01*
X30358241Y24715360D01*
X30314661Y24693166D01*
X30254249Y24702741D01*
X30152931Y24754365D01*
X30152932Y24754365D01*
X30019805Y24775450D01*
X29886677Y24754365D01*
X29886675Y24754364D01*
X29766587Y24693176D01*
X29671275Y24597864D01*
X29610087Y24477776D01*
X29610086Y24477774D01*
X29589865Y24350101D01*
X29589001Y24344646D01*
X29610086Y24211520D01*
X29636558Y24159566D01*
X29647837Y24137430D01*
X29657408Y24076998D01*
X29629632Y24022483D01*
X29608327Y24001178D01*
X29608323Y24001173D01*
X29547135Y23881085D01*
X29547134Y23881083D01*
X29526049Y23747956D01*
X29526049Y23747955D01*
X29547134Y23614828D01*
X29547135Y23614826D01*
X29608323Y23494738D01*
X29608325Y23494735D01*
X29703633Y23399427D01*
X29823727Y23338236D01*
X29956853Y23317151D01*
X29957035Y23317151D01*
X29957208Y23317095D01*
X29964549Y23315932D01*
X29964364Y23314770D01*
X30015226Y23298244D01*
X30027039Y23288154D01*
X30220689Y23094503D01*
X30248466Y23039987D01*
X30238895Y22979555D01*
X30195630Y22936290D01*
X30150685Y22925500D01*
X28565109Y22925500D01*
X28506918Y22944407D01*
X28495105Y22954496D01*
X27499600Y23950001D01*
X26485707Y24963893D01*
X26457931Y25018409D01*
X26467502Y25078841D01*
X26510767Y25122106D01*
X26571198Y25131677D01*
X26650000Y25119196D01*
X26783126Y25140281D01*
X26903220Y25201472D01*
X26998528Y25296780D01*
X27059719Y25416874D01*
X27080804Y25550000D01*
X27078322Y25565668D01*
X27069688Y25620185D01*
X27059719Y25683126D01*
X26998528Y25803220D01*
X26903220Y25898528D01*
X26903217Y25898530D01*
X26783129Y25959718D01*
X26783127Y25959719D01*
X26650001Y25980804D01*
X26649820Y25980804D01*
X26649647Y25980861D01*
X26642305Y25982023D01*
X26642489Y25983186D01*
X26591629Y25999711D01*
X26579816Y26009800D01*
X26179496Y26410120D01*
X26151719Y26464637D01*
X26150500Y26480124D01*
X26150500Y27469747D01*
X26150498Y27469759D01*
X26147711Y27483769D01*
X26138867Y27528231D01*
X26094552Y27594552D01*
X26081580Y27603220D01*
X26028233Y27638866D01*
X26028231Y27638867D01*
X26028228Y27638868D01*
X26028227Y27638868D01*
X25969758Y27650499D01*
X25969748Y27650500D01*
X24930252Y27650500D01*
X24930251Y27650500D01*
X24930241Y27650499D01*
X24871772Y27638868D01*
X24871766Y27638866D01*
X24805451Y27594555D01*
X24805445Y27594549D01*
X24761134Y27528234D01*
X24761132Y27528228D01*
X24749501Y27469759D01*
X24749500Y27469747D01*
X24749500Y26524500D01*
X24730593Y26466309D01*
X24681093Y26430345D01*
X24650500Y26425500D01*
X22449413Y26425500D01*
X22391222Y26444407D01*
X22355258Y26493907D01*
X22351837Y26525388D01*
X22350500Y26525388D01*
X22350500Y27350001D01*
X22619196Y27350001D01*
X22619196Y27350000D01*
X22640281Y27216873D01*
X22640282Y27216871D01*
X22696990Y27105576D01*
X22701472Y27096780D01*
X22796780Y27001472D01*
X22916874Y26940281D01*
X23050000Y26919196D01*
X23183126Y26940281D01*
X23303220Y27001472D01*
X23398528Y27096780D01*
X23459719Y27216874D01*
X23480804Y27350000D01*
X23459719Y27483126D01*
X23398528Y27603220D01*
X23303220Y27698528D01*
X23303217Y27698530D01*
X23183129Y27759718D01*
X23183127Y27759719D01*
X23050000Y27780804D01*
X22916872Y27759719D01*
X22916870Y27759718D01*
X22796782Y27698530D01*
X22701470Y27603218D01*
X22640282Y27483130D01*
X22640281Y27483128D01*
X22619196Y27350001D01*
X22350500Y27350001D01*
X22350500Y27569747D01*
X22350498Y27569759D01*
X22345566Y27594552D01*
X22338867Y27628231D01*
X22294552Y27694552D01*
X22286399Y27700000D01*
X22228233Y27738866D01*
X22228231Y27738867D01*
X22228228Y27738868D01*
X22228227Y27738868D01*
X22169758Y27750499D01*
X22169748Y27750500D01*
X22169747Y27750500D01*
X22014141Y27750500D01*
X21955950Y27769407D01*
X21922678Y27811613D01*
X21883557Y27906058D01*
X21883557Y27906059D01*
X21742526Y28047090D01*
X21509800Y28279817D01*
X21482023Y28334333D01*
X21480804Y28349820D01*
X21480804Y28350001D01*
X21466075Y28442993D01*
X21459719Y28483126D01*
X21428668Y28544066D01*
X21398529Y28603218D01*
X21398528Y28603220D01*
X21303220Y28698528D01*
X21303217Y28698530D01*
X21202194Y28750004D01*
X37814417Y28750004D01*
X37814417Y28749997D01*
X37834698Y28544071D01*
X37834699Y28544066D01*
X37894768Y28346046D01*
X37992316Y28163548D01*
X38123585Y28003596D01*
X38123590Y28003590D01*
X38123595Y28003586D01*
X38283547Y27872317D01*
X38283548Y27872317D01*
X38283550Y27872315D01*
X38466046Y27774768D01*
X38603997Y27732922D01*
X38664065Y27714700D01*
X38664070Y27714699D01*
X38869997Y27694417D01*
X38870000Y27694417D01*
X38870003Y27694417D01*
X39075929Y27714699D01*
X39075934Y27714700D01*
X39273954Y27774768D01*
X39456450Y27872315D01*
X39616410Y28003590D01*
X39747685Y28163550D01*
X39845232Y28346046D01*
X39905300Y28544066D01*
X39905301Y28544071D01*
X39925583Y28749997D01*
X39925583Y28750004D01*
X40354417Y28750004D01*
X40354417Y28749997D01*
X40374698Y28544071D01*
X40374699Y28544066D01*
X40434768Y28346046D01*
X40532316Y28163548D01*
X40663585Y28003596D01*
X40663590Y28003590D01*
X40663595Y28003586D01*
X40823547Y27872317D01*
X40823548Y27872317D01*
X40823550Y27872315D01*
X41006046Y27774768D01*
X41143997Y27732922D01*
X41204065Y27714700D01*
X41204070Y27714699D01*
X41409997Y27694417D01*
X41410000Y27694417D01*
X41410003Y27694417D01*
X41615929Y27714699D01*
X41615934Y27714700D01*
X41813954Y27774768D01*
X41996450Y27872315D01*
X42156410Y28003590D01*
X42287685Y28163550D01*
X42385232Y28346046D01*
X42445300Y28544066D01*
X42445301Y28544071D01*
X42465583Y28749997D01*
X42465583Y28750004D01*
X42445301Y28955930D01*
X42445300Y28955935D01*
X42410137Y29071851D01*
X42385232Y29153954D01*
X42287685Y29336450D01*
X42156410Y29496410D01*
X42156404Y29496415D01*
X42006179Y29619701D01*
X42900000Y29619701D01*
X42900000Y28875001D01*
X42900001Y28875000D01*
X43465856Y28875000D01*
X43450000Y28815826D01*
X43450000Y28684174D01*
X43465856Y28625000D01*
X42900001Y28625000D01*
X42900000Y28624999D01*
X42900000Y27880300D01*
X42911603Y27821964D01*
X42955806Y27755811D01*
X42955810Y27755807D01*
X43021963Y27711604D01*
X43080299Y27700001D01*
X43080303Y27700000D01*
X43824999Y27700000D01*
X43825000Y27700001D01*
X43825000Y28265856D01*
X43884174Y28250000D01*
X44015826Y28250000D01*
X44075000Y28265856D01*
X44075000Y27700001D01*
X44075001Y27700000D01*
X44819697Y27700000D01*
X44819700Y27700001D01*
X44878036Y27711604D01*
X44944189Y27755807D01*
X44944193Y27755811D01*
X44988396Y27821964D01*
X44999999Y27880300D01*
X45000000Y27880303D01*
X45000000Y27881121D01*
X45749500Y27881121D01*
X45749500Y27618880D01*
X45767372Y27483128D01*
X45783730Y27358884D01*
X45821782Y27216873D01*
X45851600Y27105589D01*
X45851604Y27105576D01*
X45951953Y26863311D01*
X45951955Y26863307D01*
X45951957Y26863303D01*
X46083076Y26636197D01*
X46242718Y26428149D01*
X46428149Y26242718D01*
X46636197Y26083076D01*
X46863303Y25951957D01*
X47105581Y25851602D01*
X47105588Y25851601D01*
X47105591Y25851599D01*
X47128339Y25845504D01*
X47162589Y25836327D01*
X47213904Y25803003D01*
X47235831Y25745882D01*
X47219996Y25686781D01*
X47172731Y25648385D01*
X47135204Y25633847D01*
X46953998Y25521650D01*
X46928433Y25498345D01*
X47287346Y25139432D01*
X47235649Y25104888D01*
X47145112Y25014351D01*
X47110568Y24962654D01*
X46752893Y25320329D01*
X46668066Y25207999D01*
X46668057Y25207984D01*
X46573064Y25017211D01*
X46514738Y24812217D01*
X46495073Y24600000D01*
X46514738Y24387784D01*
X46573064Y24182790D01*
X46668057Y23992017D01*
X46668062Y23992008D01*
X46752894Y23879674D01*
X47110568Y24237349D01*
X47145112Y24185649D01*
X47235649Y24095112D01*
X47287345Y24060571D01*
X46928432Y23701658D01*
X46928433Y23701656D01*
X46953995Y23678353D01*
X46953994Y23678353D01*
X47135206Y23566153D01*
X47333941Y23489162D01*
X47543437Y23450000D01*
X47756563Y23450000D01*
X47966058Y23489162D01*
X48164795Y23566153D01*
X48164797Y23566154D01*
X48345995Y23678346D01*
X48345997Y23678348D01*
X48371565Y23701657D01*
X48012653Y24060569D01*
X48064351Y24095112D01*
X48154888Y24185649D01*
X48189431Y24237347D01*
X48547106Y23879672D01*
X48631931Y23991998D01*
X48631940Y23992013D01*
X48726935Y24182790D01*
X48785261Y24387784D01*
X48804926Y24600000D01*
X48785261Y24812217D01*
X48726935Y25017211D01*
X48631942Y25207984D01*
X48631937Y25207993D01*
X48547105Y25320328D01*
X48189430Y24962654D01*
X48154888Y25014351D01*
X48064351Y25104888D01*
X48012651Y25139432D01*
X48371565Y25498345D01*
X48371565Y25498346D01*
X48346004Y25521648D01*
X48346005Y25521648D01*
X48183362Y25622351D01*
X48143841Y25669060D01*
X48139322Y25730078D01*
X48171532Y25782099D01*
X48209853Y25802148D01*
X48394419Y25851602D01*
X48636697Y25951957D01*
X48863803Y26083076D01*
X49071851Y26242718D01*
X49257282Y26428149D01*
X49416924Y26636197D01*
X49548043Y26863303D01*
X49648398Y27105581D01*
X49716270Y27358884D01*
X49750500Y27618880D01*
X49750500Y27881120D01*
X49716270Y28141116D01*
X49648398Y28394419D01*
X49561910Y28603220D01*
X49548046Y28636690D01*
X49548045Y28636691D01*
X49548043Y28636697D01*
X49416924Y28863803D01*
X49257282Y29071851D01*
X49071851Y29257282D01*
X48863803Y29416924D01*
X48863804Y29416924D01*
X48863802Y29416925D01*
X48726128Y29496410D01*
X48636697Y29548043D01*
X48636693Y29548045D01*
X48636689Y29548047D01*
X48394424Y29648396D01*
X48394423Y29648397D01*
X48394419Y29648398D01*
X48141116Y29716270D01*
X48141111Y29716271D01*
X48141110Y29716271D01*
X47881120Y29750500D01*
X47618880Y29750500D01*
X47618879Y29750500D01*
X47358889Y29716271D01*
X47358886Y29716271D01*
X47358884Y29716270D01*
X47216196Y29678037D01*
X47105588Y29648400D01*
X47105575Y29648396D01*
X46863310Y29548047D01*
X46636197Y29416925D01*
X46428152Y29257285D01*
X46242715Y29071848D01*
X46083075Y28863803D01*
X45951953Y28636690D01*
X45851604Y28394425D01*
X45851602Y28394419D01*
X45803769Y28215901D01*
X45783729Y28141111D01*
X45749500Y27881121D01*
X45000000Y27881121D01*
X45000000Y28624999D01*
X44999999Y28625000D01*
X44434144Y28625000D01*
X44450000Y28684174D01*
X44450000Y28815826D01*
X44434144Y28875000D01*
X44999999Y28875000D01*
X45000000Y28875001D01*
X45000000Y29619698D01*
X44999999Y29619701D01*
X44988396Y29678037D01*
X44944193Y29744190D01*
X44944189Y29744194D01*
X44878036Y29788397D01*
X44819700Y29800000D01*
X44075001Y29800000D01*
X44075000Y29799999D01*
X44075000Y29234145D01*
X44015826Y29250000D01*
X43884174Y29250000D01*
X43825000Y29234145D01*
X43825000Y29799999D01*
X43824999Y29800000D01*
X43080299Y29800000D01*
X43021963Y29788397D01*
X42955810Y29744194D01*
X42955806Y29744190D01*
X42911603Y29678037D01*
X42900000Y29619701D01*
X42006179Y29619701D01*
X41996452Y29627684D01*
X41813954Y29725232D01*
X41615934Y29785301D01*
X41615929Y29785302D01*
X41410003Y29805583D01*
X41409997Y29805583D01*
X41204070Y29785302D01*
X41204065Y29785301D01*
X41006045Y29725232D01*
X40823547Y29627684D01*
X40663595Y29496415D01*
X40663585Y29496405D01*
X40532316Y29336453D01*
X40434768Y29153955D01*
X40374699Y28955935D01*
X40374698Y28955930D01*
X40354417Y28750004D01*
X39925583Y28750004D01*
X39905301Y28955930D01*
X39905300Y28955935D01*
X39870137Y29071851D01*
X39845232Y29153954D01*
X39747685Y29336450D01*
X39616410Y29496410D01*
X39616404Y29496415D01*
X39456452Y29627684D01*
X39273954Y29725232D01*
X39075934Y29785301D01*
X39075929Y29785302D01*
X38870003Y29805583D01*
X38869997Y29805583D01*
X38664070Y29785302D01*
X38664065Y29785301D01*
X38466045Y29725232D01*
X38283547Y29627684D01*
X38123595Y29496415D01*
X38123585Y29496405D01*
X37992316Y29336453D01*
X37894768Y29153955D01*
X37834699Y28955935D01*
X37834698Y28955930D01*
X37814417Y28750004D01*
X21202194Y28750004D01*
X21183129Y28759718D01*
X21183127Y28759719D01*
X21050000Y28780804D01*
X20916872Y28759719D01*
X20916870Y28759718D01*
X20796782Y28698530D01*
X20701470Y28603218D01*
X20640282Y28483130D01*
X20640281Y28483128D01*
X20619196Y28350001D01*
X20619196Y28350000D01*
X20640281Y28216873D01*
X20640282Y28216871D01*
X20678884Y28141111D01*
X20701472Y28096780D01*
X20796780Y28001472D01*
X20916874Y27940281D01*
X21035937Y27921424D01*
X21090452Y27893647D01*
X21118230Y27839130D01*
X21108659Y27778698D01*
X21075452Y27741328D01*
X21005449Y27694553D01*
X21005445Y27694549D01*
X20961134Y27628234D01*
X20961132Y27628228D01*
X20949501Y27569759D01*
X20949500Y27569747D01*
X20949500Y26525388D01*
X20947187Y26525388D01*
X20935972Y26474396D01*
X20890215Y26433777D01*
X20850587Y26425500D01*
X13120199Y26425500D01*
X13048599Y26395843D01*
X13048599Y26395842D01*
X13018941Y26383557D01*
X12344881Y25709496D01*
X12290364Y25681719D01*
X12274877Y25680500D01*
X12004472Y25680500D01*
X11963886Y25674587D01*
X11936828Y25670645D01*
X11832488Y25619636D01*
X11759486Y25546634D01*
X11704969Y25518857D01*
X11644538Y25528428D01*
X11644200Y25528600D01*
X11583126Y25559719D01*
X11450000Y25580804D01*
X11316872Y25559719D01*
X11316870Y25559718D01*
X11196782Y25498530D01*
X11101470Y25403218D01*
X11040282Y25283130D01*
X11040281Y25283128D01*
X11019196Y25150001D01*
X325500Y25150001D01*
X325500Y27247227D01*
X325656Y27252778D01*
X337841Y27469748D01*
X343577Y27571896D01*
X344820Y27582922D01*
X395486Y27881121D01*
X749500Y27881121D01*
X749500Y27618880D01*
X767372Y27483128D01*
X783730Y27358884D01*
X821782Y27216873D01*
X851600Y27105589D01*
X851604Y27105576D01*
X951953Y26863311D01*
X951955Y26863307D01*
X951957Y26863303D01*
X1083076Y26636197D01*
X1242718Y26428149D01*
X1428149Y26242718D01*
X1636197Y26083076D01*
X1863303Y25951957D01*
X2105581Y25851602D01*
X2358884Y25783730D01*
X2618880Y25749500D01*
X2618881Y25749500D01*
X2881119Y25749500D01*
X2881120Y25749500D01*
X3141116Y25783730D01*
X3394419Y25851602D01*
X3636697Y25951957D01*
X3863803Y26083076D01*
X4071851Y26242718D01*
X4257282Y26428149D01*
X4416924Y26636197D01*
X4548043Y26863303D01*
X4648398Y27105581D01*
X4716270Y27358884D01*
X4750500Y27618880D01*
X4750500Y27881120D01*
X4716270Y28141116D01*
X4648398Y28394419D01*
X4561910Y28603220D01*
X4548046Y28636690D01*
X4548045Y28636691D01*
X4548043Y28636697D01*
X4416924Y28863803D01*
X4257282Y29071851D01*
X4071851Y29257282D01*
X3863803Y29416924D01*
X3863804Y29416924D01*
X3863802Y29416925D01*
X3726128Y29496410D01*
X3636697Y29548043D01*
X3636693Y29548045D01*
X3636689Y29548047D01*
X3394424Y29648396D01*
X3394423Y29648397D01*
X3394419Y29648398D01*
X3141116Y29716270D01*
X3141111Y29716271D01*
X3141110Y29716271D01*
X2881120Y29750500D01*
X2618880Y29750500D01*
X2618879Y29750500D01*
X2358889Y29716271D01*
X2358886Y29716271D01*
X2358884Y29716270D01*
X2216196Y29678037D01*
X2105588Y29648400D01*
X2105575Y29648396D01*
X1863310Y29548047D01*
X1636197Y29416925D01*
X1428152Y29257285D01*
X1242715Y29071848D01*
X1083075Y28863803D01*
X951953Y28636690D01*
X851604Y28394425D01*
X851602Y28394419D01*
X803769Y28215901D01*
X783729Y28141111D01*
X749500Y27881121D01*
X395486Y27881121D01*
X397894Y27895296D01*
X400355Y27906082D01*
X488077Y28210571D01*
X491737Y28221030D01*
X612992Y28513766D01*
X617807Y28523761D01*
X771070Y28801071D01*
X776966Y28810454D01*
X960318Y29068864D01*
X967237Y29077540D01*
X1178377Y29313807D01*
X1186193Y29321623D01*
X1422463Y29532766D01*
X1431139Y29539684D01*
X1442920Y29548043D01*
X1689546Y29723034D01*
X1698929Y29728930D01*
X1976245Y29882196D01*
X1986234Y29887008D01*
X2278970Y30008263D01*
X2289429Y30011923D01*
X2593918Y30099645D01*
X2604704Y30102106D01*
X2917085Y30155181D01*
X2928104Y30156423D01*
X3247222Y30174345D01*
X3252773Y30174500D01*
X3274531Y30174500D01*
X47225469Y30174500D01*
X47247227Y30174500D01*
X47252777Y30174345D01*
G37*
%TD.AperFunction*%
%TD*%
M02*
