%TF.GenerationSoftware,KiCad,Pcbnew,8.0.2*%
%TF.CreationDate,2024-05-26T20:11:31+02:00*%
%TF.ProjectId,protoB,70726f74-6f42-42e6-9b69-6361645f7063,rev?*%
%TF.SameCoordinates,PXbe7f170PY6de9350*%
%TF.FileFunction,Legend,Bot*%
%TF.FilePolarity,Positive*%
%FSLAX46Y46*%
G04 Gerber Fmt 4.6, Leading zero omitted, Abs format (unit mm)*
G04 Created by KiCad (PCBNEW 8.0.2) date 2024-05-26 20:11:31*
%MOMM*%
%LPD*%
G01*
G04 APERTURE LIST*
%ADD10C,0.120000*%
%ADD11C,0.200000*%
G04 APERTURE END LIST*
D10*
X21104386Y12476770D02*
X21104386Y11910103D01*
X21104386Y11910103D02*
X21071053Y11843437D01*
X21071053Y11843437D02*
X21037719Y11810103D01*
X21037719Y11810103D02*
X20971053Y11776770D01*
X20971053Y11776770D02*
X20837719Y11776770D01*
X20837719Y11776770D02*
X20771053Y11810103D01*
X20771053Y11810103D02*
X20737719Y11843437D01*
X20737719Y11843437D02*
X20704386Y11910103D01*
X20704386Y11910103D02*
X20704386Y12476770D01*
X20404386Y11810103D02*
X20337720Y11776770D01*
X20337720Y11776770D02*
X20204386Y11776770D01*
X20204386Y11776770D02*
X20137720Y11810103D01*
X20137720Y11810103D02*
X20104386Y11876770D01*
X20104386Y11876770D02*
X20104386Y11910103D01*
X20104386Y11910103D02*
X20137720Y11976770D01*
X20137720Y11976770D02*
X20204386Y12010103D01*
X20204386Y12010103D02*
X20304386Y12010103D01*
X20304386Y12010103D02*
X20371053Y12043437D01*
X20371053Y12043437D02*
X20404386Y12110103D01*
X20404386Y12110103D02*
X20404386Y12143437D01*
X20404386Y12143437D02*
X20371053Y12210103D01*
X20371053Y12210103D02*
X20304386Y12243437D01*
X20304386Y12243437D02*
X20204386Y12243437D01*
X20204386Y12243437D02*
X20137720Y12210103D01*
X19537719Y11810103D02*
X19604386Y11776770D01*
X19604386Y11776770D02*
X19737719Y11776770D01*
X19737719Y11776770D02*
X19804386Y11810103D01*
X19804386Y11810103D02*
X19837719Y11876770D01*
X19837719Y11876770D02*
X19837719Y12143437D01*
X19837719Y12143437D02*
X19804386Y12210103D01*
X19804386Y12210103D02*
X19737719Y12243437D01*
X19737719Y12243437D02*
X19604386Y12243437D01*
X19604386Y12243437D02*
X19537719Y12210103D01*
X19537719Y12210103D02*
X19504386Y12143437D01*
X19504386Y12143437D02*
X19504386Y12076770D01*
X19504386Y12076770D02*
X19837719Y12010103D01*
X19204386Y11776770D02*
X19204386Y12243437D01*
X19204386Y12110103D02*
X19171053Y12176770D01*
X19171053Y12176770D02*
X19137719Y12210103D01*
X19137719Y12210103D02*
X19071053Y12243437D01*
X19071053Y12243437D02*
X19004386Y12243437D01*
X17904387Y11776770D02*
X18237720Y11776770D01*
X18237720Y11776770D02*
X18237720Y12476770D01*
X17671053Y12143437D02*
X17437720Y12143437D01*
X17337720Y11776770D02*
X17671053Y11776770D01*
X17671053Y11776770D02*
X17671053Y12476770D01*
X17671053Y12476770D02*
X17337720Y12476770D01*
X17037720Y11776770D02*
X17037720Y12476770D01*
X17037720Y12476770D02*
X16871053Y12476770D01*
X16871053Y12476770D02*
X16771053Y12443437D01*
X16771053Y12443437D02*
X16704387Y12376770D01*
X16704387Y12376770D02*
X16671053Y12310103D01*
X16671053Y12310103D02*
X16637720Y12176770D01*
X16637720Y12176770D02*
X16637720Y12076770D01*
X16637720Y12076770D02*
X16671053Y11943437D01*
X16671053Y11943437D02*
X16704387Y11876770D01*
X16704387Y11876770D02*
X16771053Y11810103D01*
X16771053Y11810103D02*
X16871053Y11776770D01*
X16871053Y11776770D02*
X17037720Y11776770D01*
X15837720Y12510103D02*
X16437720Y11610103D01*
X15371054Y12143437D02*
X15271054Y12110103D01*
X15271054Y12110103D02*
X15237720Y12076770D01*
X15237720Y12076770D02*
X15204387Y12010103D01*
X15204387Y12010103D02*
X15204387Y11910103D01*
X15204387Y11910103D02*
X15237720Y11843437D01*
X15237720Y11843437D02*
X15271054Y11810103D01*
X15271054Y11810103D02*
X15337720Y11776770D01*
X15337720Y11776770D02*
X15604387Y11776770D01*
X15604387Y11776770D02*
X15604387Y12476770D01*
X15604387Y12476770D02*
X15371054Y12476770D01*
X15371054Y12476770D02*
X15304387Y12443437D01*
X15304387Y12443437D02*
X15271054Y12410103D01*
X15271054Y12410103D02*
X15237720Y12343437D01*
X15237720Y12343437D02*
X15237720Y12276770D01*
X15237720Y12276770D02*
X15271054Y12210103D01*
X15271054Y12210103D02*
X15304387Y12176770D01*
X15304387Y12176770D02*
X15371054Y12143437D01*
X15371054Y12143437D02*
X15604387Y12143437D01*
X14604387Y12243437D02*
X14604387Y11776770D01*
X14904387Y12243437D02*
X14904387Y11876770D01*
X14904387Y11876770D02*
X14871054Y11810103D01*
X14871054Y11810103D02*
X14804387Y11776770D01*
X14804387Y11776770D02*
X14704387Y11776770D01*
X14704387Y11776770D02*
X14637720Y11810103D01*
X14637720Y11810103D02*
X14604387Y11843437D01*
X14371054Y12243437D02*
X14104387Y12243437D01*
X14271054Y12476770D02*
X14271054Y11876770D01*
X14271054Y11876770D02*
X14237721Y11810103D01*
X14237721Y11810103D02*
X14171054Y11776770D01*
X14171054Y11776770D02*
X14104387Y11776770D01*
X13971054Y12243437D02*
X13704387Y12243437D01*
X13871054Y12476770D02*
X13871054Y11876770D01*
X13871054Y11876770D02*
X13837721Y11810103D01*
X13837721Y11810103D02*
X13771054Y11776770D01*
X13771054Y11776770D02*
X13704387Y11776770D01*
X13371054Y11776770D02*
X13437721Y11810103D01*
X13437721Y11810103D02*
X13471054Y11843437D01*
X13471054Y11843437D02*
X13504387Y11910103D01*
X13504387Y11910103D02*
X13504387Y12110103D01*
X13504387Y12110103D02*
X13471054Y12176770D01*
X13471054Y12176770D02*
X13437721Y12210103D01*
X13437721Y12210103D02*
X13371054Y12243437D01*
X13371054Y12243437D02*
X13271054Y12243437D01*
X13271054Y12243437D02*
X13204387Y12210103D01*
X13204387Y12210103D02*
X13171054Y12176770D01*
X13171054Y12176770D02*
X13137721Y12110103D01*
X13137721Y12110103D02*
X13137721Y11910103D01*
X13137721Y11910103D02*
X13171054Y11843437D01*
X13171054Y11843437D02*
X13204387Y11810103D01*
X13204387Y11810103D02*
X13271054Y11776770D01*
X13271054Y11776770D02*
X13371054Y11776770D01*
X12837721Y12243437D02*
X12837721Y11776770D01*
X12837721Y12176770D02*
X12804388Y12210103D01*
X12804388Y12210103D02*
X12737721Y12243437D01*
X12737721Y12243437D02*
X12637721Y12243437D01*
X12637721Y12243437D02*
X12571054Y12210103D01*
X12571054Y12210103D02*
X12537721Y12143437D01*
X12537721Y12143437D02*
X12537721Y11776770D01*
X12204388Y11843437D02*
X12171055Y11810103D01*
X12171055Y11810103D02*
X12204388Y11776770D01*
X12204388Y11776770D02*
X12237721Y11810103D01*
X12237721Y11810103D02*
X12204388Y11843437D01*
X12204388Y11843437D02*
X12204388Y11776770D01*
X12204388Y12210103D02*
X12171055Y12176770D01*
X12171055Y12176770D02*
X12204388Y12143437D01*
X12204388Y12143437D02*
X12237721Y12176770D01*
X12237721Y12176770D02*
X12204388Y12210103D01*
X12204388Y12210103D02*
X12204388Y12143437D01*
X10971055Y12443437D02*
X11037722Y12476770D01*
X11037722Y12476770D02*
X11137722Y12476770D01*
X11137722Y12476770D02*
X11237722Y12443437D01*
X11237722Y12443437D02*
X11304389Y12376770D01*
X11304389Y12376770D02*
X11337722Y12310103D01*
X11337722Y12310103D02*
X11371055Y12176770D01*
X11371055Y12176770D02*
X11371055Y12076770D01*
X11371055Y12076770D02*
X11337722Y11943437D01*
X11337722Y11943437D02*
X11304389Y11876770D01*
X11304389Y11876770D02*
X11237722Y11810103D01*
X11237722Y11810103D02*
X11137722Y11776770D01*
X11137722Y11776770D02*
X11071055Y11776770D01*
X11071055Y11776770D02*
X10971055Y11810103D01*
X10971055Y11810103D02*
X10937722Y11843437D01*
X10937722Y11843437D02*
X10937722Y12076770D01*
X10937722Y12076770D02*
X11071055Y12076770D01*
X10637722Y11776770D02*
X10637722Y12476770D01*
X10637722Y12476770D02*
X10371055Y12476770D01*
X10371055Y12476770D02*
X10304389Y12443437D01*
X10304389Y12443437D02*
X10271055Y12410103D01*
X10271055Y12410103D02*
X10237722Y12343437D01*
X10237722Y12343437D02*
X10237722Y12243437D01*
X10237722Y12243437D02*
X10271055Y12176770D01*
X10271055Y12176770D02*
X10304389Y12143437D01*
X10304389Y12143437D02*
X10371055Y12110103D01*
X10371055Y12110103D02*
X10637722Y12110103D01*
X9937722Y11776770D02*
X9937722Y12476770D01*
X9471056Y12476770D02*
X9337722Y12476770D01*
X9337722Y12476770D02*
X9271056Y12443437D01*
X9271056Y12443437D02*
X9204389Y12376770D01*
X9204389Y12376770D02*
X9171056Y12243437D01*
X9171056Y12243437D02*
X9171056Y12010103D01*
X9171056Y12010103D02*
X9204389Y11876770D01*
X9204389Y11876770D02*
X9271056Y11810103D01*
X9271056Y11810103D02*
X9337722Y11776770D01*
X9337722Y11776770D02*
X9471056Y11776770D01*
X9471056Y11776770D02*
X9537722Y11810103D01*
X9537722Y11810103D02*
X9604389Y11876770D01*
X9604389Y11876770D02*
X9637722Y12010103D01*
X9637722Y12010103D02*
X9637722Y12243437D01*
X9637722Y12243437D02*
X9604389Y12376770D01*
X9604389Y12376770D02*
X9537722Y12443437D01*
X9537722Y12443437D02*
X9471056Y12476770D01*
X8937723Y12476770D02*
X8471056Y12476770D01*
X8471056Y12476770D02*
X8771056Y11776770D01*
X7471056Y11510103D02*
X7504389Y11543437D01*
X7504389Y11543437D02*
X7571056Y11643437D01*
X7571056Y11643437D02*
X7604389Y11710103D01*
X7604389Y11710103D02*
X7637723Y11810103D01*
X7637723Y11810103D02*
X7671056Y11976770D01*
X7671056Y11976770D02*
X7671056Y12110103D01*
X7671056Y12110103D02*
X7637723Y12276770D01*
X7637723Y12276770D02*
X7604389Y12376770D01*
X7604389Y12376770D02*
X7571056Y12443437D01*
X7571056Y12443437D02*
X7504389Y12543437D01*
X7504389Y12543437D02*
X7471056Y12576770D01*
X6904389Y11776770D02*
X6904389Y12476770D01*
X6904389Y11810103D02*
X6971056Y11776770D01*
X6971056Y11776770D02*
X7104389Y11776770D01*
X7104389Y11776770D02*
X7171056Y11810103D01*
X7171056Y11810103D02*
X7204389Y11843437D01*
X7204389Y11843437D02*
X7237722Y11910103D01*
X7237722Y11910103D02*
X7237722Y12110103D01*
X7237722Y12110103D02*
X7204389Y12176770D01*
X7204389Y12176770D02*
X7171056Y12210103D01*
X7171056Y12210103D02*
X7104389Y12243437D01*
X7104389Y12243437D02*
X6971056Y12243437D01*
X6971056Y12243437D02*
X6904389Y12210103D01*
X6571056Y11776770D02*
X6571056Y12243437D01*
X6571056Y12110103D02*
X6537723Y12176770D01*
X6537723Y12176770D02*
X6504389Y12210103D01*
X6504389Y12210103D02*
X6437723Y12243437D01*
X6437723Y12243437D02*
X6371056Y12243437D01*
X6137723Y11776770D02*
X6137723Y12243437D01*
X6137723Y12476770D02*
X6171056Y12443437D01*
X6171056Y12443437D02*
X6137723Y12410103D01*
X6137723Y12410103D02*
X6104390Y12443437D01*
X6104390Y12443437D02*
X6137723Y12476770D01*
X6137723Y12476770D02*
X6137723Y12410103D01*
X5871057Y12243437D02*
X5704390Y11776770D01*
X5704390Y11776770D02*
X5537723Y12243437D01*
X5004390Y11810103D02*
X5071057Y11776770D01*
X5071057Y11776770D02*
X5204390Y11776770D01*
X5204390Y11776770D02*
X5271057Y11810103D01*
X5271057Y11810103D02*
X5304390Y11876770D01*
X5304390Y11876770D02*
X5304390Y12143437D01*
X5304390Y12143437D02*
X5271057Y12210103D01*
X5271057Y12210103D02*
X5204390Y12243437D01*
X5204390Y12243437D02*
X5071057Y12243437D01*
X5071057Y12243437D02*
X5004390Y12210103D01*
X5004390Y12210103D02*
X4971057Y12143437D01*
X4971057Y12143437D02*
X4971057Y12076770D01*
X4971057Y12076770D02*
X5304390Y12010103D01*
X4137724Y11776770D02*
X4137724Y12476770D01*
X3837724Y11776770D02*
X3837724Y12143437D01*
X3837724Y12143437D02*
X3871057Y12210103D01*
X3871057Y12210103D02*
X3937724Y12243437D01*
X3937724Y12243437D02*
X4037724Y12243437D01*
X4037724Y12243437D02*
X4104391Y12210103D01*
X4104391Y12210103D02*
X4137724Y12176770D01*
X3504391Y11776770D02*
X3504391Y12243437D01*
X3504391Y12476770D02*
X3537724Y12443437D01*
X3537724Y12443437D02*
X3504391Y12410103D01*
X3504391Y12410103D02*
X3471058Y12443437D01*
X3471058Y12443437D02*
X3504391Y12476770D01*
X3504391Y12476770D02*
X3504391Y12410103D01*
X2871058Y12243437D02*
X2871058Y11676770D01*
X2871058Y11676770D02*
X2904391Y11610103D01*
X2904391Y11610103D02*
X2937725Y11576770D01*
X2937725Y11576770D02*
X3004391Y11543437D01*
X3004391Y11543437D02*
X3104391Y11543437D01*
X3104391Y11543437D02*
X3171058Y11576770D01*
X2871058Y11810103D02*
X2937725Y11776770D01*
X2937725Y11776770D02*
X3071058Y11776770D01*
X3071058Y11776770D02*
X3137725Y11810103D01*
X3137725Y11810103D02*
X3171058Y11843437D01*
X3171058Y11843437D02*
X3204391Y11910103D01*
X3204391Y11910103D02*
X3204391Y12110103D01*
X3204391Y12110103D02*
X3171058Y12176770D01*
X3171058Y12176770D02*
X3137725Y12210103D01*
X3137725Y12210103D02*
X3071058Y12243437D01*
X3071058Y12243437D02*
X2937725Y12243437D01*
X2937725Y12243437D02*
X2871058Y12210103D01*
X2537725Y11776770D02*
X2537725Y12476770D01*
X2237725Y11776770D02*
X2237725Y12143437D01*
X2237725Y12143437D02*
X2271058Y12210103D01*
X2271058Y12210103D02*
X2337725Y12243437D01*
X2337725Y12243437D02*
X2437725Y12243437D01*
X2437725Y12243437D02*
X2504392Y12210103D01*
X2504392Y12210103D02*
X2537725Y12176770D01*
X21204386Y11116476D02*
X20937719Y11116476D01*
X21104386Y10649809D02*
X21104386Y11249809D01*
X21104386Y11249809D02*
X21071053Y11316476D01*
X21071053Y11316476D02*
X21004386Y11349809D01*
X21004386Y11349809D02*
X20937719Y11349809D01*
X20604386Y10649809D02*
X20671053Y10683142D01*
X20671053Y10683142D02*
X20704386Y10716476D01*
X20704386Y10716476D02*
X20737719Y10783142D01*
X20737719Y10783142D02*
X20737719Y10983142D01*
X20737719Y10983142D02*
X20704386Y11049809D01*
X20704386Y11049809D02*
X20671053Y11083142D01*
X20671053Y11083142D02*
X20604386Y11116476D01*
X20604386Y11116476D02*
X20504386Y11116476D01*
X20504386Y11116476D02*
X20437719Y11083142D01*
X20437719Y11083142D02*
X20404386Y11049809D01*
X20404386Y11049809D02*
X20371053Y10983142D01*
X20371053Y10983142D02*
X20371053Y10783142D01*
X20371053Y10783142D02*
X20404386Y10716476D01*
X20404386Y10716476D02*
X20437719Y10683142D01*
X20437719Y10683142D02*
X20504386Y10649809D01*
X20504386Y10649809D02*
X20604386Y10649809D01*
X20071053Y10649809D02*
X20071053Y11116476D01*
X20071053Y10983142D02*
X20037720Y11049809D01*
X20037720Y11049809D02*
X20004386Y11083142D01*
X20004386Y11083142D02*
X19937720Y11116476D01*
X19937720Y11116476D02*
X19871053Y11116476D01*
X18771054Y10649809D02*
X19104387Y10649809D01*
X19104387Y10649809D02*
X19104387Y11349809D01*
X18537720Y11016476D02*
X18304387Y11016476D01*
X18204387Y10649809D02*
X18537720Y10649809D01*
X18537720Y10649809D02*
X18537720Y11349809D01*
X18537720Y11349809D02*
X18204387Y11349809D01*
X17904387Y10649809D02*
X17904387Y11349809D01*
X17904387Y11349809D02*
X17737720Y11349809D01*
X17737720Y11349809D02*
X17637720Y11316476D01*
X17637720Y11316476D02*
X17571054Y11249809D01*
X17571054Y11249809D02*
X17537720Y11183142D01*
X17537720Y11183142D02*
X17504387Y11049809D01*
X17504387Y11049809D02*
X17504387Y10949809D01*
X17504387Y10949809D02*
X17537720Y10816476D01*
X17537720Y10816476D02*
X17571054Y10749809D01*
X17571054Y10749809D02*
X17637720Y10683142D01*
X17637720Y10683142D02*
X17737720Y10649809D01*
X17737720Y10649809D02*
X17904387Y10649809D01*
X17171054Y10683142D02*
X17171054Y10649809D01*
X17171054Y10649809D02*
X17204387Y10583142D01*
X17204387Y10583142D02*
X17237720Y10549809D01*
X16337721Y11116476D02*
X16337721Y10416476D01*
X16337721Y11083142D02*
X16271054Y11116476D01*
X16271054Y11116476D02*
X16137721Y11116476D01*
X16137721Y11116476D02*
X16071054Y11083142D01*
X16071054Y11083142D02*
X16037721Y11049809D01*
X16037721Y11049809D02*
X16004388Y10983142D01*
X16004388Y10983142D02*
X16004388Y10783142D01*
X16004388Y10783142D02*
X16037721Y10716476D01*
X16037721Y10716476D02*
X16071054Y10683142D01*
X16071054Y10683142D02*
X16137721Y10649809D01*
X16137721Y10649809D02*
X16271054Y10649809D01*
X16271054Y10649809D02*
X16337721Y10683142D01*
X15404388Y11116476D02*
X15404388Y10649809D01*
X15704388Y11116476D02*
X15704388Y10749809D01*
X15704388Y10749809D02*
X15671055Y10683142D01*
X15671055Y10683142D02*
X15604388Y10649809D01*
X15604388Y10649809D02*
X15504388Y10649809D01*
X15504388Y10649809D02*
X15437721Y10683142D01*
X15437721Y10683142D02*
X15404388Y10716476D01*
X14971055Y10649809D02*
X15037722Y10683142D01*
X15037722Y10683142D02*
X15071055Y10749809D01*
X15071055Y10749809D02*
X15071055Y11349809D01*
X14604388Y10649809D02*
X14671055Y10683142D01*
X14671055Y10683142D02*
X14704388Y10749809D01*
X14704388Y10749809D02*
X14704388Y11349809D01*
X14037721Y11116476D02*
X14037721Y10649809D01*
X14337721Y11116476D02*
X14337721Y10749809D01*
X14337721Y10749809D02*
X14304388Y10683142D01*
X14304388Y10683142D02*
X14237721Y10649809D01*
X14237721Y10649809D02*
X14137721Y10649809D01*
X14137721Y10649809D02*
X14071054Y10683142D01*
X14071054Y10683142D02*
X14037721Y10716476D01*
X13704388Y11116476D02*
X13704388Y10416476D01*
X13704388Y11083142D02*
X13637721Y11116476D01*
X13637721Y11116476D02*
X13504388Y11116476D01*
X13504388Y11116476D02*
X13437721Y11083142D01*
X13437721Y11083142D02*
X13404388Y11049809D01*
X13404388Y11049809D02*
X13371055Y10983142D01*
X13371055Y10983142D02*
X13371055Y10783142D01*
X13371055Y10783142D02*
X13404388Y10716476D01*
X13404388Y10716476D02*
X13437721Y10683142D01*
X13437721Y10683142D02*
X13504388Y10649809D01*
X13504388Y10649809D02*
X13637721Y10649809D01*
X13637721Y10649809D02*
X13704388Y10683142D01*
X12637722Y11116476D02*
X12371055Y11116476D01*
X12537722Y11349809D02*
X12537722Y10749809D01*
X12537722Y10749809D02*
X12504389Y10683142D01*
X12504389Y10683142D02*
X12437722Y10649809D01*
X12437722Y10649809D02*
X12371055Y10649809D01*
X12037722Y10649809D02*
X12104389Y10683142D01*
X12104389Y10683142D02*
X12137722Y10716476D01*
X12137722Y10716476D02*
X12171055Y10783142D01*
X12171055Y10783142D02*
X12171055Y10983142D01*
X12171055Y10983142D02*
X12137722Y11049809D01*
X12137722Y11049809D02*
X12104389Y11083142D01*
X12104389Y11083142D02*
X12037722Y11116476D01*
X12037722Y11116476D02*
X11937722Y11116476D01*
X11937722Y11116476D02*
X11871055Y11083142D01*
X11871055Y11083142D02*
X11837722Y11049809D01*
X11837722Y11049809D02*
X11804389Y10983142D01*
X11804389Y10983142D02*
X11804389Y10783142D01*
X11804389Y10783142D02*
X11837722Y10716476D01*
X11837722Y10716476D02*
X11871055Y10683142D01*
X11871055Y10683142D02*
X11937722Y10649809D01*
X11937722Y10649809D02*
X12037722Y10649809D01*
X10671056Y10683142D02*
X10737723Y10649809D01*
X10737723Y10649809D02*
X10871056Y10649809D01*
X10871056Y10649809D02*
X10937723Y10683142D01*
X10937723Y10683142D02*
X10971056Y10716476D01*
X10971056Y10716476D02*
X11004389Y10783142D01*
X11004389Y10783142D02*
X11004389Y10983142D01*
X11004389Y10983142D02*
X10971056Y11049809D01*
X10971056Y11049809D02*
X10937723Y11083142D01*
X10937723Y11083142D02*
X10871056Y11116476D01*
X10871056Y11116476D02*
X10737723Y11116476D01*
X10737723Y11116476D02*
X10671056Y11083142D01*
X10371056Y10649809D02*
X10371056Y11349809D01*
X10071056Y10649809D02*
X10071056Y11016476D01*
X10071056Y11016476D02*
X10104389Y11083142D01*
X10104389Y11083142D02*
X10171056Y11116476D01*
X10171056Y11116476D02*
X10271056Y11116476D01*
X10271056Y11116476D02*
X10337723Y11083142D01*
X10337723Y11083142D02*
X10371056Y11049809D01*
X9471056Y10683142D02*
X9537723Y10649809D01*
X9537723Y10649809D02*
X9671056Y10649809D01*
X9671056Y10649809D02*
X9737723Y10683142D01*
X9737723Y10683142D02*
X9771056Y10749809D01*
X9771056Y10749809D02*
X9771056Y11016476D01*
X9771056Y11016476D02*
X9737723Y11083142D01*
X9737723Y11083142D02*
X9671056Y11116476D01*
X9671056Y11116476D02*
X9537723Y11116476D01*
X9537723Y11116476D02*
X9471056Y11083142D01*
X9471056Y11083142D02*
X9437723Y11016476D01*
X9437723Y11016476D02*
X9437723Y10949809D01*
X9437723Y10949809D02*
X9771056Y10883142D01*
X8837723Y10683142D02*
X8904390Y10649809D01*
X8904390Y10649809D02*
X9037723Y10649809D01*
X9037723Y10649809D02*
X9104390Y10683142D01*
X9104390Y10683142D02*
X9137723Y10716476D01*
X9137723Y10716476D02*
X9171056Y10783142D01*
X9171056Y10783142D02*
X9171056Y10983142D01*
X9171056Y10983142D02*
X9137723Y11049809D01*
X9137723Y11049809D02*
X9104390Y11083142D01*
X9104390Y11083142D02*
X9037723Y11116476D01*
X9037723Y11116476D02*
X8904390Y11116476D01*
X8904390Y11116476D02*
X8837723Y11083142D01*
X8537723Y10649809D02*
X8537723Y11349809D01*
X8471056Y10916476D02*
X8271056Y10649809D01*
X8271056Y11116476D02*
X8537723Y10849809D01*
X7437723Y10649809D02*
X7437723Y11349809D01*
X7437723Y11083142D02*
X7371056Y11116476D01*
X7371056Y11116476D02*
X7237723Y11116476D01*
X7237723Y11116476D02*
X7171056Y11083142D01*
X7171056Y11083142D02*
X7137723Y11049809D01*
X7137723Y11049809D02*
X7104390Y10983142D01*
X7104390Y10983142D02*
X7104390Y10783142D01*
X7104390Y10783142D02*
X7137723Y10716476D01*
X7137723Y10716476D02*
X7171056Y10683142D01*
X7171056Y10683142D02*
X7237723Y10649809D01*
X7237723Y10649809D02*
X7371056Y10649809D01*
X7371056Y10649809D02*
X7437723Y10683142D01*
X6504390Y11116476D02*
X6504390Y10649809D01*
X6804390Y11116476D02*
X6804390Y10749809D01*
X6804390Y10749809D02*
X6771057Y10683142D01*
X6771057Y10683142D02*
X6704390Y10649809D01*
X6704390Y10649809D02*
X6604390Y10649809D01*
X6604390Y10649809D02*
X6537723Y10683142D01*
X6537723Y10683142D02*
X6504390Y10716476D01*
X6271057Y11116476D02*
X6004390Y11116476D01*
X6171057Y11349809D02*
X6171057Y10749809D01*
X6171057Y10749809D02*
X6137724Y10683142D01*
X6137724Y10683142D02*
X6071057Y10649809D01*
X6071057Y10649809D02*
X6004390Y10649809D01*
X5871057Y11116476D02*
X5604390Y11116476D01*
X5771057Y11349809D02*
X5771057Y10749809D01*
X5771057Y10749809D02*
X5737724Y10683142D01*
X5737724Y10683142D02*
X5671057Y10649809D01*
X5671057Y10649809D02*
X5604390Y10649809D01*
X5271057Y10649809D02*
X5337724Y10683142D01*
X5337724Y10683142D02*
X5371057Y10716476D01*
X5371057Y10716476D02*
X5404390Y10783142D01*
X5404390Y10783142D02*
X5404390Y10983142D01*
X5404390Y10983142D02*
X5371057Y11049809D01*
X5371057Y11049809D02*
X5337724Y11083142D01*
X5337724Y11083142D02*
X5271057Y11116476D01*
X5271057Y11116476D02*
X5171057Y11116476D01*
X5171057Y11116476D02*
X5104390Y11083142D01*
X5104390Y11083142D02*
X5071057Y11049809D01*
X5071057Y11049809D02*
X5037724Y10983142D01*
X5037724Y10983142D02*
X5037724Y10783142D01*
X5037724Y10783142D02*
X5071057Y10716476D01*
X5071057Y10716476D02*
X5104390Y10683142D01*
X5104390Y10683142D02*
X5171057Y10649809D01*
X5171057Y10649809D02*
X5271057Y10649809D01*
X4737724Y11116476D02*
X4737724Y10649809D01*
X4737724Y11049809D02*
X4704391Y11083142D01*
X4704391Y11083142D02*
X4637724Y11116476D01*
X4637724Y11116476D02*
X4537724Y11116476D01*
X4537724Y11116476D02*
X4471057Y11083142D01*
X4471057Y11083142D02*
X4437724Y11016476D01*
X4437724Y11016476D02*
X4437724Y10649809D01*
X4171058Y10383142D02*
X4137724Y10416476D01*
X4137724Y10416476D02*
X4071058Y10516476D01*
X4071058Y10516476D02*
X4037724Y10583142D01*
X4037724Y10583142D02*
X4004391Y10683142D01*
X4004391Y10683142D02*
X3971058Y10849809D01*
X3971058Y10849809D02*
X3971058Y10983142D01*
X3971058Y10983142D02*
X4004391Y11149809D01*
X4004391Y11149809D02*
X4037724Y11249809D01*
X4037724Y11249809D02*
X4071058Y11316476D01*
X4071058Y11316476D02*
X4137724Y11416476D01*
X4137724Y11416476D02*
X4171058Y11449809D01*
X21104386Y10222848D02*
X21104386Y9656181D01*
X21104386Y9656181D02*
X21071053Y9589515D01*
X21071053Y9589515D02*
X21037719Y9556181D01*
X21037719Y9556181D02*
X20971053Y9522848D01*
X20971053Y9522848D02*
X20837719Y9522848D01*
X20837719Y9522848D02*
X20771053Y9556181D01*
X20771053Y9556181D02*
X20737719Y9589515D01*
X20737719Y9589515D02*
X20704386Y9656181D01*
X20704386Y9656181D02*
X20704386Y10222848D01*
X20404386Y9722848D02*
X20071053Y9722848D01*
X20471053Y9522848D02*
X20237720Y10222848D01*
X20237720Y10222848D02*
X20004386Y9522848D01*
X19371053Y9522848D02*
X19604386Y9856181D01*
X19771053Y9522848D02*
X19771053Y10222848D01*
X19771053Y10222848D02*
X19504386Y10222848D01*
X19504386Y10222848D02*
X19437720Y10189515D01*
X19437720Y10189515D02*
X19404386Y10156181D01*
X19404386Y10156181D02*
X19371053Y10089515D01*
X19371053Y10089515D02*
X19371053Y9989515D01*
X19371053Y9989515D02*
X19404386Y9922848D01*
X19404386Y9922848D02*
X19437720Y9889515D01*
X19437720Y9889515D02*
X19504386Y9856181D01*
X19504386Y9856181D02*
X19771053Y9856181D01*
X19171053Y10222848D02*
X18771053Y10222848D01*
X18971053Y9522848D02*
X18971053Y10222848D01*
X18537720Y9589515D02*
X18504387Y9556181D01*
X18504387Y9556181D02*
X18537720Y9522848D01*
X18537720Y9522848D02*
X18571053Y9556181D01*
X18571053Y9556181D02*
X18537720Y9589515D01*
X18537720Y9589515D02*
X18537720Y9522848D01*
X18537720Y9956181D02*
X18504387Y9922848D01*
X18504387Y9922848D02*
X18537720Y9889515D01*
X18537720Y9889515D02*
X18571053Y9922848D01*
X18571053Y9922848D02*
X18537720Y9956181D01*
X18537720Y9956181D02*
X18537720Y9889515D01*
X17304387Y10189515D02*
X17371054Y10222848D01*
X17371054Y10222848D02*
X17471054Y10222848D01*
X17471054Y10222848D02*
X17571054Y10189515D01*
X17571054Y10189515D02*
X17637721Y10122848D01*
X17637721Y10122848D02*
X17671054Y10056181D01*
X17671054Y10056181D02*
X17704387Y9922848D01*
X17704387Y9922848D02*
X17704387Y9822848D01*
X17704387Y9822848D02*
X17671054Y9689515D01*
X17671054Y9689515D02*
X17637721Y9622848D01*
X17637721Y9622848D02*
X17571054Y9556181D01*
X17571054Y9556181D02*
X17471054Y9522848D01*
X17471054Y9522848D02*
X17404387Y9522848D01*
X17404387Y9522848D02*
X17304387Y9556181D01*
X17304387Y9556181D02*
X17271054Y9589515D01*
X17271054Y9589515D02*
X17271054Y9822848D01*
X17271054Y9822848D02*
X17404387Y9822848D01*
X16971054Y9522848D02*
X16971054Y10222848D01*
X16971054Y10222848D02*
X16704387Y10222848D01*
X16704387Y10222848D02*
X16637721Y10189515D01*
X16637721Y10189515D02*
X16604387Y10156181D01*
X16604387Y10156181D02*
X16571054Y10089515D01*
X16571054Y10089515D02*
X16571054Y9989515D01*
X16571054Y9989515D02*
X16604387Y9922848D01*
X16604387Y9922848D02*
X16637721Y9889515D01*
X16637721Y9889515D02*
X16704387Y9856181D01*
X16704387Y9856181D02*
X16971054Y9856181D01*
X16271054Y9522848D02*
X16271054Y10222848D01*
X15804388Y10222848D02*
X15671054Y10222848D01*
X15671054Y10222848D02*
X15604388Y10189515D01*
X15604388Y10189515D02*
X15537721Y10122848D01*
X15537721Y10122848D02*
X15504388Y9989515D01*
X15504388Y9989515D02*
X15504388Y9756181D01*
X15504388Y9756181D02*
X15537721Y9622848D01*
X15537721Y9622848D02*
X15604388Y9556181D01*
X15604388Y9556181D02*
X15671054Y9522848D01*
X15671054Y9522848D02*
X15804388Y9522848D01*
X15804388Y9522848D02*
X15871054Y9556181D01*
X15871054Y9556181D02*
X15937721Y9622848D01*
X15937721Y9622848D02*
X15971054Y9756181D01*
X15971054Y9756181D02*
X15971054Y9989515D01*
X15971054Y9989515D02*
X15937721Y10122848D01*
X15937721Y10122848D02*
X15871054Y10189515D01*
X15871054Y10189515D02*
X15804388Y10222848D01*
X14904388Y9989515D02*
X14904388Y9522848D01*
X15071055Y10256181D02*
X15237721Y9756181D01*
X15237721Y9756181D02*
X14804388Y9756181D01*
X14037721Y10256181D02*
X14637721Y9356181D01*
X13471055Y10222848D02*
X13804388Y10222848D01*
X13804388Y10222848D02*
X13837721Y9889515D01*
X13837721Y9889515D02*
X13804388Y9922848D01*
X13804388Y9922848D02*
X13737721Y9956181D01*
X13737721Y9956181D02*
X13571055Y9956181D01*
X13571055Y9956181D02*
X13504388Y9922848D01*
X13504388Y9922848D02*
X13471055Y9889515D01*
X13471055Y9889515D02*
X13437721Y9822848D01*
X13437721Y9822848D02*
X13437721Y9656181D01*
X13437721Y9656181D02*
X13471055Y9589515D01*
X13471055Y9589515D02*
X13504388Y9556181D01*
X13504388Y9556181D02*
X13571055Y9522848D01*
X13571055Y9522848D02*
X13737721Y9522848D01*
X13737721Y9522848D02*
X13804388Y9556181D01*
X13804388Y9556181D02*
X13837721Y9589515D01*
X12704388Y10222848D02*
X12304388Y10222848D01*
X12504388Y9522848D02*
X12504388Y10222848D01*
X12137722Y10222848D02*
X11671055Y9522848D01*
X11671055Y10222848D02*
X12137722Y9522848D01*
X10904388Y10256181D02*
X11504388Y9356181D01*
X10271055Y9522848D02*
X10504388Y9856181D01*
X10671055Y9522848D02*
X10671055Y10222848D01*
X10671055Y10222848D02*
X10404388Y10222848D01*
X10404388Y10222848D02*
X10337722Y10189515D01*
X10337722Y10189515D02*
X10304388Y10156181D01*
X10304388Y10156181D02*
X10271055Y10089515D01*
X10271055Y10089515D02*
X10271055Y9989515D01*
X10271055Y9989515D02*
X10304388Y9922848D01*
X10304388Y9922848D02*
X10337722Y9889515D01*
X10337722Y9889515D02*
X10404388Y9856181D01*
X10404388Y9856181D02*
X10671055Y9856181D01*
X10037722Y10222848D02*
X9571055Y9522848D01*
X9571055Y10222848D02*
X10037722Y9522848D01*
X8571055Y9256181D02*
X8604388Y9289515D01*
X8604388Y9289515D02*
X8671055Y9389515D01*
X8671055Y9389515D02*
X8704388Y9456181D01*
X8704388Y9456181D02*
X8737722Y9556181D01*
X8737722Y9556181D02*
X8771055Y9722848D01*
X8771055Y9722848D02*
X8771055Y9856181D01*
X8771055Y9856181D02*
X8737722Y10022848D01*
X8737722Y10022848D02*
X8704388Y10122848D01*
X8704388Y10122848D02*
X8671055Y10189515D01*
X8671055Y10189515D02*
X8604388Y10289515D01*
X8604388Y10289515D02*
X8571055Y10322848D01*
X8304388Y10222848D02*
X8304388Y9656181D01*
X8304388Y9656181D02*
X8271055Y9589515D01*
X8271055Y9589515D02*
X8237721Y9556181D01*
X8237721Y9556181D02*
X8171055Y9522848D01*
X8171055Y9522848D02*
X8037721Y9522848D01*
X8037721Y9522848D02*
X7971055Y9556181D01*
X7971055Y9556181D02*
X7937721Y9589515D01*
X7937721Y9589515D02*
X7904388Y9656181D01*
X7904388Y9656181D02*
X7904388Y10222848D01*
X7604388Y9722848D02*
X7271055Y9722848D01*
X7671055Y9522848D02*
X7437722Y10222848D01*
X7437722Y10222848D02*
X7204388Y9522848D01*
X6571055Y9522848D02*
X6804388Y9856181D01*
X6971055Y9522848D02*
X6971055Y10222848D01*
X6971055Y10222848D02*
X6704388Y10222848D01*
X6704388Y10222848D02*
X6637722Y10189515D01*
X6637722Y10189515D02*
X6604388Y10156181D01*
X6604388Y10156181D02*
X6571055Y10089515D01*
X6571055Y10089515D02*
X6571055Y9989515D01*
X6571055Y9989515D02*
X6604388Y9922848D01*
X6604388Y9922848D02*
X6637722Y9889515D01*
X6637722Y9889515D02*
X6704388Y9856181D01*
X6704388Y9856181D02*
X6971055Y9856181D01*
X6371055Y10222848D02*
X5971055Y10222848D01*
X6171055Y9522848D02*
X6171055Y10222848D01*
X5371055Y9522848D02*
X5771055Y9522848D01*
X5571055Y9522848D02*
X5571055Y10222848D01*
X5571055Y10222848D02*
X5637722Y10122848D01*
X5637722Y10122848D02*
X5704389Y10056181D01*
X5704389Y10056181D02*
X5771055Y10022848D01*
X5137722Y9256181D02*
X5104388Y9289515D01*
X5104388Y9289515D02*
X5037722Y9389515D01*
X5037722Y9389515D02*
X5004388Y9456181D01*
X5004388Y9456181D02*
X4971055Y9556181D01*
X4971055Y9556181D02*
X4937722Y9722848D01*
X4937722Y9722848D02*
X4937722Y9856181D01*
X4937722Y9856181D02*
X4971055Y10022848D01*
X4971055Y10022848D02*
X5004388Y10122848D01*
X5004388Y10122848D02*
X5037722Y10189515D01*
X5037722Y10189515D02*
X5104388Y10289515D01*
X5104388Y10289515D02*
X5137722Y10322848D01*
X21104386Y8395887D02*
X21104386Y9095887D01*
X21104386Y9095887D02*
X20937719Y9095887D01*
X20937719Y9095887D02*
X20837719Y9062554D01*
X20837719Y9062554D02*
X20771053Y8995887D01*
X20771053Y8995887D02*
X20737719Y8929220D01*
X20737719Y8929220D02*
X20704386Y8795887D01*
X20704386Y8795887D02*
X20704386Y8695887D01*
X20704386Y8695887D02*
X20737719Y8562554D01*
X20737719Y8562554D02*
X20771053Y8495887D01*
X20771053Y8495887D02*
X20837719Y8429220D01*
X20837719Y8429220D02*
X20937719Y8395887D01*
X20937719Y8395887D02*
X21104386Y8395887D01*
X20504386Y9095887D02*
X20271053Y8395887D01*
X20271053Y8395887D02*
X20037719Y9095887D01*
X19804386Y8395887D02*
X19804386Y9095887D01*
X19471053Y8462554D02*
X19437720Y8429220D01*
X19437720Y8429220D02*
X19471053Y8395887D01*
X19471053Y8395887D02*
X19504386Y8429220D01*
X19504386Y8429220D02*
X19471053Y8462554D01*
X19471053Y8462554D02*
X19471053Y8395887D01*
X19471053Y8829220D02*
X19437720Y8795887D01*
X19437720Y8795887D02*
X19471053Y8762554D01*
X19471053Y8762554D02*
X19504386Y8795887D01*
X19504386Y8795887D02*
X19471053Y8829220D01*
X19471053Y8829220D02*
X19471053Y8762554D01*
X18237720Y9062554D02*
X18304387Y9095887D01*
X18304387Y9095887D02*
X18404387Y9095887D01*
X18404387Y9095887D02*
X18504387Y9062554D01*
X18504387Y9062554D02*
X18571054Y8995887D01*
X18571054Y8995887D02*
X18604387Y8929220D01*
X18604387Y8929220D02*
X18637720Y8795887D01*
X18637720Y8795887D02*
X18637720Y8695887D01*
X18637720Y8695887D02*
X18604387Y8562554D01*
X18604387Y8562554D02*
X18571054Y8495887D01*
X18571054Y8495887D02*
X18504387Y8429220D01*
X18504387Y8429220D02*
X18404387Y8395887D01*
X18404387Y8395887D02*
X18337720Y8395887D01*
X18337720Y8395887D02*
X18237720Y8429220D01*
X18237720Y8429220D02*
X18204387Y8462554D01*
X18204387Y8462554D02*
X18204387Y8695887D01*
X18204387Y8695887D02*
X18337720Y8695887D01*
X17904387Y8395887D02*
X17904387Y9095887D01*
X17904387Y9095887D02*
X17637720Y9095887D01*
X17637720Y9095887D02*
X17571054Y9062554D01*
X17571054Y9062554D02*
X17537720Y9029220D01*
X17537720Y9029220D02*
X17504387Y8962554D01*
X17504387Y8962554D02*
X17504387Y8862554D01*
X17504387Y8862554D02*
X17537720Y8795887D01*
X17537720Y8795887D02*
X17571054Y8762554D01*
X17571054Y8762554D02*
X17637720Y8729220D01*
X17637720Y8729220D02*
X17904387Y8729220D01*
X17204387Y8395887D02*
X17204387Y9095887D01*
X16737721Y9095887D02*
X16604387Y9095887D01*
X16604387Y9095887D02*
X16537721Y9062554D01*
X16537721Y9062554D02*
X16471054Y8995887D01*
X16471054Y8995887D02*
X16437721Y8862554D01*
X16437721Y8862554D02*
X16437721Y8629220D01*
X16437721Y8629220D02*
X16471054Y8495887D01*
X16471054Y8495887D02*
X16537721Y8429220D01*
X16537721Y8429220D02*
X16604387Y8395887D01*
X16604387Y8395887D02*
X16737721Y8395887D01*
X16737721Y8395887D02*
X16804387Y8429220D01*
X16804387Y8429220D02*
X16871054Y8495887D01*
X16871054Y8495887D02*
X16904387Y8629220D01*
X16904387Y8629220D02*
X16904387Y8862554D01*
X16904387Y8862554D02*
X16871054Y8995887D01*
X16871054Y8995887D02*
X16804387Y9062554D01*
X16804387Y9062554D02*
X16737721Y9095887D01*
X16037721Y8795887D02*
X16104388Y8829220D01*
X16104388Y8829220D02*
X16137721Y8862554D01*
X16137721Y8862554D02*
X16171054Y8929220D01*
X16171054Y8929220D02*
X16171054Y8962554D01*
X16171054Y8962554D02*
X16137721Y9029220D01*
X16137721Y9029220D02*
X16104388Y9062554D01*
X16104388Y9062554D02*
X16037721Y9095887D01*
X16037721Y9095887D02*
X15904388Y9095887D01*
X15904388Y9095887D02*
X15837721Y9062554D01*
X15837721Y9062554D02*
X15804388Y9029220D01*
X15804388Y9029220D02*
X15771054Y8962554D01*
X15771054Y8962554D02*
X15771054Y8929220D01*
X15771054Y8929220D02*
X15804388Y8862554D01*
X15804388Y8862554D02*
X15837721Y8829220D01*
X15837721Y8829220D02*
X15904388Y8795887D01*
X15904388Y8795887D02*
X16037721Y8795887D01*
X16037721Y8795887D02*
X16104388Y8762554D01*
X16104388Y8762554D02*
X16137721Y8729220D01*
X16137721Y8729220D02*
X16171054Y8662554D01*
X16171054Y8662554D02*
X16171054Y8529220D01*
X16171054Y8529220D02*
X16137721Y8462554D01*
X16137721Y8462554D02*
X16104388Y8429220D01*
X16104388Y8429220D02*
X16037721Y8395887D01*
X16037721Y8395887D02*
X15904388Y8395887D01*
X15904388Y8395887D02*
X15837721Y8429220D01*
X15837721Y8429220D02*
X15804388Y8462554D01*
X15804388Y8462554D02*
X15771054Y8529220D01*
X15771054Y8529220D02*
X15771054Y8662554D01*
X15771054Y8662554D02*
X15804388Y8729220D01*
X15804388Y8729220D02*
X15837721Y8762554D01*
X15837721Y8762554D02*
X15904388Y8795887D01*
X15471054Y8662554D02*
X14937721Y8662554D01*
X14604387Y8862554D02*
X14071054Y8662554D01*
X14071054Y8662554D02*
X14604387Y8462554D01*
X13371053Y8395887D02*
X13771053Y8395887D01*
X13571053Y8395887D02*
X13571053Y9095887D01*
X13571053Y9095887D02*
X13637720Y8995887D01*
X13637720Y8995887D02*
X13704387Y8929220D01*
X13704387Y8929220D02*
X13771053Y8895887D01*
X12737720Y9095887D02*
X13071053Y9095887D01*
X13071053Y9095887D02*
X13104386Y8762554D01*
X13104386Y8762554D02*
X13071053Y8795887D01*
X13071053Y8795887D02*
X13004386Y8829220D01*
X13004386Y8829220D02*
X12837720Y8829220D01*
X12837720Y8829220D02*
X12771053Y8795887D01*
X12771053Y8795887D02*
X12737720Y8762554D01*
X12737720Y8762554D02*
X12704386Y8695887D01*
X12704386Y8695887D02*
X12704386Y8529220D01*
X12704386Y8529220D02*
X12737720Y8462554D01*
X12737720Y8462554D02*
X12771053Y8429220D01*
X12771053Y8429220D02*
X12837720Y8395887D01*
X12837720Y8395887D02*
X13004386Y8395887D01*
X13004386Y8395887D02*
X13071053Y8429220D01*
X13071053Y8429220D02*
X13104386Y8462554D01*
X12371053Y8429220D02*
X12371053Y8395887D01*
X12371053Y8395887D02*
X12404386Y8329220D01*
X12404386Y8329220D02*
X12437719Y8295887D01*
X11137720Y8462554D02*
X11171053Y8429220D01*
X11171053Y8429220D02*
X11271053Y8395887D01*
X11271053Y8395887D02*
X11337720Y8395887D01*
X11337720Y8395887D02*
X11437720Y8429220D01*
X11437720Y8429220D02*
X11504387Y8495887D01*
X11504387Y8495887D02*
X11537720Y8562554D01*
X11537720Y8562554D02*
X11571053Y8695887D01*
X11571053Y8695887D02*
X11571053Y8795887D01*
X11571053Y8795887D02*
X11537720Y8929220D01*
X11537720Y8929220D02*
X11504387Y8995887D01*
X11504387Y8995887D02*
X11437720Y9062554D01*
X11437720Y9062554D02*
X11337720Y9095887D01*
X11337720Y9095887D02*
X11271053Y9095887D01*
X11271053Y9095887D02*
X11171053Y9062554D01*
X11171053Y9062554D02*
X11137720Y9029220D01*
X10837720Y8395887D02*
X10837720Y9095887D01*
X10437720Y8395887D02*
X10737720Y8795887D01*
X10437720Y9095887D02*
X10837720Y8695887D01*
X9604387Y8395887D02*
X9604387Y9095887D01*
X9604387Y9095887D02*
X9437720Y9095887D01*
X9437720Y9095887D02*
X9337720Y9062554D01*
X9337720Y9062554D02*
X9271054Y8995887D01*
X9271054Y8995887D02*
X9237720Y8929220D01*
X9237720Y8929220D02*
X9204387Y8795887D01*
X9204387Y8795887D02*
X9204387Y8695887D01*
X9204387Y8695887D02*
X9237720Y8562554D01*
X9237720Y8562554D02*
X9271054Y8495887D01*
X9271054Y8495887D02*
X9337720Y8429220D01*
X9337720Y8429220D02*
X9437720Y8395887D01*
X9437720Y8395887D02*
X9604387Y8395887D01*
X8771054Y9095887D02*
X8704387Y9095887D01*
X8704387Y9095887D02*
X8637720Y9062554D01*
X8637720Y9062554D02*
X8604387Y9029220D01*
X8604387Y9029220D02*
X8571054Y8962554D01*
X8571054Y8962554D02*
X8537720Y8829220D01*
X8537720Y8829220D02*
X8537720Y8662554D01*
X8537720Y8662554D02*
X8571054Y8529220D01*
X8571054Y8529220D02*
X8604387Y8462554D01*
X8604387Y8462554D02*
X8637720Y8429220D01*
X8637720Y8429220D02*
X8704387Y8395887D01*
X8704387Y8395887D02*
X8771054Y8395887D01*
X8771054Y8395887D02*
X8837720Y8429220D01*
X8837720Y8429220D02*
X8871054Y8462554D01*
X8871054Y8462554D02*
X8904387Y8529220D01*
X8904387Y8529220D02*
X8937720Y8662554D01*
X8937720Y8662554D02*
X8937720Y8829220D01*
X8937720Y8829220D02*
X8904387Y8962554D01*
X8904387Y8962554D02*
X8871054Y9029220D01*
X8871054Y9029220D02*
X8837720Y9062554D01*
X8837720Y9062554D02*
X8771054Y9095887D01*
X7704387Y8395887D02*
X7704387Y9095887D01*
X7704387Y9095887D02*
X7537720Y9095887D01*
X7537720Y9095887D02*
X7437720Y9062554D01*
X7437720Y9062554D02*
X7371054Y8995887D01*
X7371054Y8995887D02*
X7337720Y8929220D01*
X7337720Y8929220D02*
X7304387Y8795887D01*
X7304387Y8795887D02*
X7304387Y8695887D01*
X7304387Y8695887D02*
X7337720Y8562554D01*
X7337720Y8562554D02*
X7371054Y8495887D01*
X7371054Y8495887D02*
X7437720Y8429220D01*
X7437720Y8429220D02*
X7537720Y8395887D01*
X7537720Y8395887D02*
X7704387Y8395887D01*
X6637720Y8395887D02*
X7037720Y8395887D01*
X6837720Y8395887D02*
X6837720Y9095887D01*
X6837720Y9095887D02*
X6904387Y8995887D01*
X6904387Y8995887D02*
X6971054Y8929220D01*
X6971054Y8929220D02*
X7037720Y8895887D01*
X5804387Y8395887D02*
X5804387Y9095887D01*
X5804387Y9095887D02*
X5637720Y9095887D01*
X5637720Y9095887D02*
X5537720Y9062554D01*
X5537720Y9062554D02*
X5471054Y8995887D01*
X5471054Y8995887D02*
X5437720Y8929220D01*
X5437720Y8929220D02*
X5404387Y8795887D01*
X5404387Y8795887D02*
X5404387Y8695887D01*
X5404387Y8695887D02*
X5437720Y8562554D01*
X5437720Y8562554D02*
X5471054Y8495887D01*
X5471054Y8495887D02*
X5537720Y8429220D01*
X5537720Y8429220D02*
X5637720Y8395887D01*
X5637720Y8395887D02*
X5804387Y8395887D01*
X5137720Y9029220D02*
X5104387Y9062554D01*
X5104387Y9062554D02*
X5037720Y9095887D01*
X5037720Y9095887D02*
X4871054Y9095887D01*
X4871054Y9095887D02*
X4804387Y9062554D01*
X4804387Y9062554D02*
X4771054Y9029220D01*
X4771054Y9029220D02*
X4737720Y8962554D01*
X4737720Y8962554D02*
X4737720Y8895887D01*
X4737720Y8895887D02*
X4771054Y8795887D01*
X4771054Y8795887D02*
X5171054Y8395887D01*
X5171054Y8395887D02*
X4737720Y8395887D01*
X4404387Y8429220D02*
X4404387Y8395887D01*
X4404387Y8395887D02*
X4437720Y8329220D01*
X4437720Y8329220D02*
X4471053Y8295887D01*
X3571054Y8662554D02*
X3037721Y8662554D01*
X2171054Y8662554D02*
X1637721Y8662554D01*
X1904387Y8395887D02*
X1904387Y8929220D01*
X21104386Y7268926D02*
X21104386Y7968926D01*
X21104386Y7968926D02*
X20937719Y7968926D01*
X20937719Y7968926D02*
X20837719Y7935593D01*
X20837719Y7935593D02*
X20771053Y7868926D01*
X20771053Y7868926D02*
X20737719Y7802259D01*
X20737719Y7802259D02*
X20704386Y7668926D01*
X20704386Y7668926D02*
X20704386Y7568926D01*
X20704386Y7568926D02*
X20737719Y7435593D01*
X20737719Y7435593D02*
X20771053Y7368926D01*
X20771053Y7368926D02*
X20837719Y7302259D01*
X20837719Y7302259D02*
X20937719Y7268926D01*
X20937719Y7268926D02*
X21104386Y7268926D01*
X20404386Y7268926D02*
X20404386Y7968926D01*
X20404386Y7968926D02*
X20237719Y7968926D01*
X20237719Y7968926D02*
X20137719Y7935593D01*
X20137719Y7935593D02*
X20071053Y7868926D01*
X20071053Y7868926D02*
X20037719Y7802259D01*
X20037719Y7802259D02*
X20004386Y7668926D01*
X20004386Y7668926D02*
X20004386Y7568926D01*
X20004386Y7568926D02*
X20037719Y7435593D01*
X20037719Y7435593D02*
X20071053Y7368926D01*
X20071053Y7368926D02*
X20137719Y7302259D01*
X20137719Y7302259D02*
X20237719Y7268926D01*
X20237719Y7268926D02*
X20404386Y7268926D01*
X19304386Y7335593D02*
X19337719Y7302259D01*
X19337719Y7302259D02*
X19437719Y7268926D01*
X19437719Y7268926D02*
X19504386Y7268926D01*
X19504386Y7268926D02*
X19604386Y7302259D01*
X19604386Y7302259D02*
X19671053Y7368926D01*
X19671053Y7368926D02*
X19704386Y7435593D01*
X19704386Y7435593D02*
X19737719Y7568926D01*
X19737719Y7568926D02*
X19737719Y7668926D01*
X19737719Y7668926D02*
X19704386Y7802259D01*
X19704386Y7802259D02*
X19671053Y7868926D01*
X19671053Y7868926D02*
X19604386Y7935593D01*
X19604386Y7935593D02*
X19504386Y7968926D01*
X19504386Y7968926D02*
X19437719Y7968926D01*
X19437719Y7968926D02*
X19337719Y7935593D01*
X19337719Y7935593D02*
X19304386Y7902259D01*
X19004386Y7335593D02*
X18971053Y7302259D01*
X18971053Y7302259D02*
X19004386Y7268926D01*
X19004386Y7268926D02*
X19037719Y7302259D01*
X19037719Y7302259D02*
X19004386Y7335593D01*
X19004386Y7335593D02*
X19004386Y7268926D01*
X19004386Y7702259D02*
X18971053Y7668926D01*
X18971053Y7668926D02*
X19004386Y7635593D01*
X19004386Y7635593D02*
X19037719Y7668926D01*
X19037719Y7668926D02*
X19004386Y7702259D01*
X19004386Y7702259D02*
X19004386Y7635593D01*
X17771053Y7935593D02*
X17837720Y7968926D01*
X17837720Y7968926D02*
X17937720Y7968926D01*
X17937720Y7968926D02*
X18037720Y7935593D01*
X18037720Y7935593D02*
X18104387Y7868926D01*
X18104387Y7868926D02*
X18137720Y7802259D01*
X18137720Y7802259D02*
X18171053Y7668926D01*
X18171053Y7668926D02*
X18171053Y7568926D01*
X18171053Y7568926D02*
X18137720Y7435593D01*
X18137720Y7435593D02*
X18104387Y7368926D01*
X18104387Y7368926D02*
X18037720Y7302259D01*
X18037720Y7302259D02*
X17937720Y7268926D01*
X17937720Y7268926D02*
X17871053Y7268926D01*
X17871053Y7268926D02*
X17771053Y7302259D01*
X17771053Y7302259D02*
X17737720Y7335593D01*
X17737720Y7335593D02*
X17737720Y7568926D01*
X17737720Y7568926D02*
X17871053Y7568926D01*
X17437720Y7268926D02*
X17437720Y7968926D01*
X17437720Y7968926D02*
X17171053Y7968926D01*
X17171053Y7968926D02*
X17104387Y7935593D01*
X17104387Y7935593D02*
X17071053Y7902259D01*
X17071053Y7902259D02*
X17037720Y7835593D01*
X17037720Y7835593D02*
X17037720Y7735593D01*
X17037720Y7735593D02*
X17071053Y7668926D01*
X17071053Y7668926D02*
X17104387Y7635593D01*
X17104387Y7635593D02*
X17171053Y7602259D01*
X17171053Y7602259D02*
X17437720Y7602259D01*
X16737720Y7268926D02*
X16737720Y7968926D01*
X16271054Y7968926D02*
X16137720Y7968926D01*
X16137720Y7968926D02*
X16071054Y7935593D01*
X16071054Y7935593D02*
X16004387Y7868926D01*
X16004387Y7868926D02*
X15971054Y7735593D01*
X15971054Y7735593D02*
X15971054Y7502259D01*
X15971054Y7502259D02*
X16004387Y7368926D01*
X16004387Y7368926D02*
X16071054Y7302259D01*
X16071054Y7302259D02*
X16137720Y7268926D01*
X16137720Y7268926D02*
X16271054Y7268926D01*
X16271054Y7268926D02*
X16337720Y7302259D01*
X16337720Y7302259D02*
X16404387Y7368926D01*
X16404387Y7368926D02*
X16437720Y7502259D01*
X16437720Y7502259D02*
X16437720Y7735593D01*
X16437720Y7735593D02*
X16404387Y7868926D01*
X16404387Y7868926D02*
X16337720Y7935593D01*
X16337720Y7935593D02*
X16271054Y7968926D01*
X15304387Y7268926D02*
X15704387Y7268926D01*
X15504387Y7268926D02*
X15504387Y7968926D01*
X15504387Y7968926D02*
X15571054Y7868926D01*
X15571054Y7868926D02*
X15637721Y7802259D01*
X15637721Y7802259D02*
X15704387Y7768926D01*
X14704387Y7968926D02*
X14837720Y7968926D01*
X14837720Y7968926D02*
X14904387Y7935593D01*
X14904387Y7935593D02*
X14937720Y7902259D01*
X14937720Y7902259D02*
X15004387Y7802259D01*
X15004387Y7802259D02*
X15037720Y7668926D01*
X15037720Y7668926D02*
X15037720Y7402259D01*
X15037720Y7402259D02*
X15004387Y7335593D01*
X15004387Y7335593D02*
X14971054Y7302259D01*
X14971054Y7302259D02*
X14904387Y7268926D01*
X14904387Y7268926D02*
X14771054Y7268926D01*
X14771054Y7268926D02*
X14704387Y7302259D01*
X14704387Y7302259D02*
X14671054Y7335593D01*
X14671054Y7335593D02*
X14637720Y7402259D01*
X14637720Y7402259D02*
X14637720Y7568926D01*
X14637720Y7568926D02*
X14671054Y7635593D01*
X14671054Y7635593D02*
X14704387Y7668926D01*
X14704387Y7668926D02*
X14771054Y7702259D01*
X14771054Y7702259D02*
X14904387Y7702259D01*
X14904387Y7702259D02*
X14971054Y7668926D01*
X14971054Y7668926D02*
X15004387Y7635593D01*
X15004387Y7635593D02*
X15037720Y7568926D01*
X13837720Y8002259D02*
X14437720Y7102259D01*
X13237720Y7268926D02*
X13637720Y7268926D01*
X13437720Y7268926D02*
X13437720Y7968926D01*
X13437720Y7968926D02*
X13504387Y7868926D01*
X13504387Y7868926D02*
X13571054Y7802259D01*
X13571054Y7802259D02*
X13637720Y7768926D01*
X13004387Y7968926D02*
X12537720Y7968926D01*
X12537720Y7968926D02*
X12837720Y7268926D01*
X11771053Y7302259D02*
X11671053Y7268926D01*
X11671053Y7268926D02*
X11504387Y7268926D01*
X11504387Y7268926D02*
X11437720Y7302259D01*
X11437720Y7302259D02*
X11404387Y7335593D01*
X11404387Y7335593D02*
X11371053Y7402259D01*
X11371053Y7402259D02*
X11371053Y7468926D01*
X11371053Y7468926D02*
X11404387Y7535593D01*
X11404387Y7535593D02*
X11437720Y7568926D01*
X11437720Y7568926D02*
X11504387Y7602259D01*
X11504387Y7602259D02*
X11637720Y7635593D01*
X11637720Y7635593D02*
X11704387Y7668926D01*
X11704387Y7668926D02*
X11737720Y7702259D01*
X11737720Y7702259D02*
X11771053Y7768926D01*
X11771053Y7768926D02*
X11771053Y7835593D01*
X11771053Y7835593D02*
X11737720Y7902259D01*
X11737720Y7902259D02*
X11704387Y7935593D01*
X11704387Y7935593D02*
X11637720Y7968926D01*
X11637720Y7968926D02*
X11471053Y7968926D01*
X11471053Y7968926D02*
X11371053Y7935593D01*
X10671053Y7335593D02*
X10704386Y7302259D01*
X10704386Y7302259D02*
X10804386Y7268926D01*
X10804386Y7268926D02*
X10871053Y7268926D01*
X10871053Y7268926D02*
X10971053Y7302259D01*
X10971053Y7302259D02*
X11037720Y7368926D01*
X11037720Y7368926D02*
X11071053Y7435593D01*
X11071053Y7435593D02*
X11104386Y7568926D01*
X11104386Y7568926D02*
X11104386Y7668926D01*
X11104386Y7668926D02*
X11071053Y7802259D01*
X11071053Y7802259D02*
X11037720Y7868926D01*
X11037720Y7868926D02*
X10971053Y7935593D01*
X10971053Y7935593D02*
X10871053Y7968926D01*
X10871053Y7968926D02*
X10804386Y7968926D01*
X10804386Y7968926D02*
X10704386Y7935593D01*
X10704386Y7935593D02*
X10671053Y7902259D01*
X10037720Y7268926D02*
X10371053Y7268926D01*
X10371053Y7268926D02*
X10371053Y7968926D01*
X9304386Y8002259D02*
X9904386Y7102259D01*
X9104386Y7302259D02*
X9004386Y7268926D01*
X9004386Y7268926D02*
X8837720Y7268926D01*
X8837720Y7268926D02*
X8771053Y7302259D01*
X8771053Y7302259D02*
X8737720Y7335593D01*
X8737720Y7335593D02*
X8704386Y7402259D01*
X8704386Y7402259D02*
X8704386Y7468926D01*
X8704386Y7468926D02*
X8737720Y7535593D01*
X8737720Y7535593D02*
X8771053Y7568926D01*
X8771053Y7568926D02*
X8837720Y7602259D01*
X8837720Y7602259D02*
X8971053Y7635593D01*
X8971053Y7635593D02*
X9037720Y7668926D01*
X9037720Y7668926D02*
X9071053Y7702259D01*
X9071053Y7702259D02*
X9104386Y7768926D01*
X9104386Y7768926D02*
X9104386Y7835593D01*
X9104386Y7835593D02*
X9071053Y7902259D01*
X9071053Y7902259D02*
X9037720Y7935593D01*
X9037720Y7935593D02*
X8971053Y7968926D01*
X8971053Y7968926D02*
X8804386Y7968926D01*
X8804386Y7968926D02*
X8704386Y7935593D01*
X8404386Y7268926D02*
X8404386Y7968926D01*
X8404386Y7968926D02*
X8237719Y7968926D01*
X8237719Y7968926D02*
X8137719Y7935593D01*
X8137719Y7935593D02*
X8071053Y7868926D01*
X8071053Y7868926D02*
X8037719Y7802259D01*
X8037719Y7802259D02*
X8004386Y7668926D01*
X8004386Y7668926D02*
X8004386Y7568926D01*
X8004386Y7568926D02*
X8037719Y7435593D01*
X8037719Y7435593D02*
X8071053Y7368926D01*
X8071053Y7368926D02*
X8137719Y7302259D01*
X8137719Y7302259D02*
X8237719Y7268926D01*
X8237719Y7268926D02*
X8404386Y7268926D01*
X7737719Y7468926D02*
X7404386Y7468926D01*
X7804386Y7268926D02*
X7571053Y7968926D01*
X7571053Y7968926D02*
X7337719Y7268926D01*
X20704386Y6208632D02*
X20737719Y6175298D01*
X20737719Y6175298D02*
X20837719Y6141965D01*
X20837719Y6141965D02*
X20904386Y6141965D01*
X20904386Y6141965D02*
X21004386Y6175298D01*
X21004386Y6175298D02*
X21071053Y6241965D01*
X21071053Y6241965D02*
X21104386Y6308632D01*
X21104386Y6308632D02*
X21137719Y6441965D01*
X21137719Y6441965D02*
X21137719Y6541965D01*
X21137719Y6541965D02*
X21104386Y6675298D01*
X21104386Y6675298D02*
X21071053Y6741965D01*
X21071053Y6741965D02*
X21004386Y6808632D01*
X21004386Y6808632D02*
X20904386Y6841965D01*
X20904386Y6841965D02*
X20837719Y6841965D01*
X20837719Y6841965D02*
X20737719Y6808632D01*
X20737719Y6808632D02*
X20704386Y6775298D01*
X20404386Y6508632D02*
X20171053Y6508632D01*
X20071053Y6141965D02*
X20404386Y6141965D01*
X20404386Y6141965D02*
X20404386Y6841965D01*
X20404386Y6841965D02*
X20071053Y6841965D01*
X19371053Y6208632D02*
X19404386Y6175298D01*
X19404386Y6175298D02*
X19504386Y6141965D01*
X19504386Y6141965D02*
X19571053Y6141965D01*
X19571053Y6141965D02*
X19671053Y6175298D01*
X19671053Y6175298D02*
X19737720Y6241965D01*
X19737720Y6241965D02*
X19771053Y6308632D01*
X19771053Y6308632D02*
X19804386Y6441965D01*
X19804386Y6441965D02*
X19804386Y6541965D01*
X19804386Y6541965D02*
X19771053Y6675298D01*
X19771053Y6675298D02*
X19737720Y6741965D01*
X19737720Y6741965D02*
X19671053Y6808632D01*
X19671053Y6808632D02*
X19571053Y6841965D01*
X19571053Y6841965D02*
X19504386Y6841965D01*
X19504386Y6841965D02*
X19404386Y6808632D01*
X19404386Y6808632D02*
X19371053Y6775298D01*
X19071053Y6208632D02*
X19037720Y6175298D01*
X19037720Y6175298D02*
X19071053Y6141965D01*
X19071053Y6141965D02*
X19104386Y6175298D01*
X19104386Y6175298D02*
X19071053Y6208632D01*
X19071053Y6208632D02*
X19071053Y6141965D01*
X19071053Y6575298D02*
X19037720Y6541965D01*
X19037720Y6541965D02*
X19071053Y6508632D01*
X19071053Y6508632D02*
X19104386Y6541965D01*
X19104386Y6541965D02*
X19071053Y6575298D01*
X19071053Y6575298D02*
X19071053Y6508632D01*
X17837720Y6808632D02*
X17904387Y6841965D01*
X17904387Y6841965D02*
X18004387Y6841965D01*
X18004387Y6841965D02*
X18104387Y6808632D01*
X18104387Y6808632D02*
X18171054Y6741965D01*
X18171054Y6741965D02*
X18204387Y6675298D01*
X18204387Y6675298D02*
X18237720Y6541965D01*
X18237720Y6541965D02*
X18237720Y6441965D01*
X18237720Y6441965D02*
X18204387Y6308632D01*
X18204387Y6308632D02*
X18171054Y6241965D01*
X18171054Y6241965D02*
X18104387Y6175298D01*
X18104387Y6175298D02*
X18004387Y6141965D01*
X18004387Y6141965D02*
X17937720Y6141965D01*
X17937720Y6141965D02*
X17837720Y6175298D01*
X17837720Y6175298D02*
X17804387Y6208632D01*
X17804387Y6208632D02*
X17804387Y6441965D01*
X17804387Y6441965D02*
X17937720Y6441965D01*
X17504387Y6141965D02*
X17504387Y6841965D01*
X17504387Y6841965D02*
X17237720Y6841965D01*
X17237720Y6841965D02*
X17171054Y6808632D01*
X17171054Y6808632D02*
X17137720Y6775298D01*
X17137720Y6775298D02*
X17104387Y6708632D01*
X17104387Y6708632D02*
X17104387Y6608632D01*
X17104387Y6608632D02*
X17137720Y6541965D01*
X17137720Y6541965D02*
X17171054Y6508632D01*
X17171054Y6508632D02*
X17237720Y6475298D01*
X17237720Y6475298D02*
X17504387Y6475298D01*
X16804387Y6141965D02*
X16804387Y6841965D01*
X16337721Y6841965D02*
X16204387Y6841965D01*
X16204387Y6841965D02*
X16137721Y6808632D01*
X16137721Y6808632D02*
X16071054Y6741965D01*
X16071054Y6741965D02*
X16037721Y6608632D01*
X16037721Y6608632D02*
X16037721Y6375298D01*
X16037721Y6375298D02*
X16071054Y6241965D01*
X16071054Y6241965D02*
X16137721Y6175298D01*
X16137721Y6175298D02*
X16204387Y6141965D01*
X16204387Y6141965D02*
X16337721Y6141965D01*
X16337721Y6141965D02*
X16404387Y6175298D01*
X16404387Y6175298D02*
X16471054Y6241965D01*
X16471054Y6241965D02*
X16504387Y6375298D01*
X16504387Y6375298D02*
X16504387Y6608632D01*
X16504387Y6608632D02*
X16471054Y6741965D01*
X16471054Y6741965D02*
X16404387Y6808632D01*
X16404387Y6808632D02*
X16337721Y6841965D01*
X15371054Y6141965D02*
X15771054Y6141965D01*
X15571054Y6141965D02*
X15571054Y6841965D01*
X15571054Y6841965D02*
X15637721Y6741965D01*
X15637721Y6741965D02*
X15704388Y6675298D01*
X15704388Y6675298D02*
X15771054Y6641965D01*
X14971054Y6541965D02*
X15037721Y6575298D01*
X15037721Y6575298D02*
X15071054Y6608632D01*
X15071054Y6608632D02*
X15104387Y6675298D01*
X15104387Y6675298D02*
X15104387Y6708632D01*
X15104387Y6708632D02*
X15071054Y6775298D01*
X15071054Y6775298D02*
X15037721Y6808632D01*
X15037721Y6808632D02*
X14971054Y6841965D01*
X14971054Y6841965D02*
X14837721Y6841965D01*
X14837721Y6841965D02*
X14771054Y6808632D01*
X14771054Y6808632D02*
X14737721Y6775298D01*
X14737721Y6775298D02*
X14704387Y6708632D01*
X14704387Y6708632D02*
X14704387Y6675298D01*
X14704387Y6675298D02*
X14737721Y6608632D01*
X14737721Y6608632D02*
X14771054Y6575298D01*
X14771054Y6575298D02*
X14837721Y6541965D01*
X14837721Y6541965D02*
X14971054Y6541965D01*
X14971054Y6541965D02*
X15037721Y6508632D01*
X15037721Y6508632D02*
X15071054Y6475298D01*
X15071054Y6475298D02*
X15104387Y6408632D01*
X15104387Y6408632D02*
X15104387Y6275298D01*
X15104387Y6275298D02*
X15071054Y6208632D01*
X15071054Y6208632D02*
X15037721Y6175298D01*
X15037721Y6175298D02*
X14971054Y6141965D01*
X14971054Y6141965D02*
X14837721Y6141965D01*
X14837721Y6141965D02*
X14771054Y6175298D01*
X14771054Y6175298D02*
X14737721Y6208632D01*
X14737721Y6208632D02*
X14704387Y6275298D01*
X14704387Y6275298D02*
X14704387Y6408632D01*
X14704387Y6408632D02*
X14737721Y6475298D01*
X14737721Y6475298D02*
X14771054Y6508632D01*
X14771054Y6508632D02*
X14837721Y6541965D01*
X20704386Y5015004D02*
X20937719Y5348337D01*
X21104386Y5015004D02*
X21104386Y5715004D01*
X21104386Y5715004D02*
X20837719Y5715004D01*
X20837719Y5715004D02*
X20771053Y5681671D01*
X20771053Y5681671D02*
X20737719Y5648337D01*
X20737719Y5648337D02*
X20704386Y5581671D01*
X20704386Y5581671D02*
X20704386Y5481671D01*
X20704386Y5481671D02*
X20737719Y5415004D01*
X20737719Y5415004D02*
X20771053Y5381671D01*
X20771053Y5381671D02*
X20837719Y5348337D01*
X20837719Y5348337D02*
X21104386Y5348337D01*
X20437719Y5215004D02*
X20104386Y5215004D01*
X20504386Y5015004D02*
X20271053Y5715004D01*
X20271053Y5715004D02*
X20037719Y5015004D01*
X19804386Y5015004D02*
X19804386Y5715004D01*
X19804386Y5715004D02*
X19571053Y5215004D01*
X19571053Y5215004D02*
X19337719Y5715004D01*
X19337719Y5715004D02*
X19337719Y5015004D01*
X19004386Y5081671D02*
X18971053Y5048337D01*
X18971053Y5048337D02*
X19004386Y5015004D01*
X19004386Y5015004D02*
X19037719Y5048337D01*
X19037719Y5048337D02*
X19004386Y5081671D01*
X19004386Y5081671D02*
X19004386Y5015004D01*
X19004386Y5448337D02*
X18971053Y5415004D01*
X18971053Y5415004D02*
X19004386Y5381671D01*
X19004386Y5381671D02*
X19037719Y5415004D01*
X19037719Y5415004D02*
X19004386Y5448337D01*
X19004386Y5448337D02*
X19004386Y5381671D01*
X17771053Y5681671D02*
X17837720Y5715004D01*
X17837720Y5715004D02*
X17937720Y5715004D01*
X17937720Y5715004D02*
X18037720Y5681671D01*
X18037720Y5681671D02*
X18104387Y5615004D01*
X18104387Y5615004D02*
X18137720Y5548337D01*
X18137720Y5548337D02*
X18171053Y5415004D01*
X18171053Y5415004D02*
X18171053Y5315004D01*
X18171053Y5315004D02*
X18137720Y5181671D01*
X18137720Y5181671D02*
X18104387Y5115004D01*
X18104387Y5115004D02*
X18037720Y5048337D01*
X18037720Y5048337D02*
X17937720Y5015004D01*
X17937720Y5015004D02*
X17871053Y5015004D01*
X17871053Y5015004D02*
X17771053Y5048337D01*
X17771053Y5048337D02*
X17737720Y5081671D01*
X17737720Y5081671D02*
X17737720Y5315004D01*
X17737720Y5315004D02*
X17871053Y5315004D01*
X17437720Y5015004D02*
X17437720Y5715004D01*
X17437720Y5715004D02*
X17171053Y5715004D01*
X17171053Y5715004D02*
X17104387Y5681671D01*
X17104387Y5681671D02*
X17071053Y5648337D01*
X17071053Y5648337D02*
X17037720Y5581671D01*
X17037720Y5581671D02*
X17037720Y5481671D01*
X17037720Y5481671D02*
X17071053Y5415004D01*
X17071053Y5415004D02*
X17104387Y5381671D01*
X17104387Y5381671D02*
X17171053Y5348337D01*
X17171053Y5348337D02*
X17437720Y5348337D01*
X16737720Y5015004D02*
X16737720Y5715004D01*
X16271054Y5715004D02*
X16137720Y5715004D01*
X16137720Y5715004D02*
X16071054Y5681671D01*
X16071054Y5681671D02*
X16004387Y5615004D01*
X16004387Y5615004D02*
X15971054Y5481671D01*
X15971054Y5481671D02*
X15971054Y5248337D01*
X15971054Y5248337D02*
X16004387Y5115004D01*
X16004387Y5115004D02*
X16071054Y5048337D01*
X16071054Y5048337D02*
X16137720Y5015004D01*
X16137720Y5015004D02*
X16271054Y5015004D01*
X16271054Y5015004D02*
X16337720Y5048337D01*
X16337720Y5048337D02*
X16404387Y5115004D01*
X16404387Y5115004D02*
X16437720Y5248337D01*
X16437720Y5248337D02*
X16437720Y5481671D01*
X16437720Y5481671D02*
X16404387Y5615004D01*
X16404387Y5615004D02*
X16337720Y5681671D01*
X16337720Y5681671D02*
X16271054Y5715004D01*
X15304387Y5015004D02*
X15704387Y5015004D01*
X15504387Y5015004D02*
X15504387Y5715004D01*
X15504387Y5715004D02*
X15571054Y5615004D01*
X15571054Y5615004D02*
X15637721Y5548337D01*
X15637721Y5548337D02*
X15704387Y5515004D01*
X14971054Y5015004D02*
X14837720Y5015004D01*
X14837720Y5015004D02*
X14771054Y5048337D01*
X14771054Y5048337D02*
X14737720Y5081671D01*
X14737720Y5081671D02*
X14671054Y5181671D01*
X14671054Y5181671D02*
X14637720Y5315004D01*
X14637720Y5315004D02*
X14637720Y5581671D01*
X14637720Y5581671D02*
X14671054Y5648337D01*
X14671054Y5648337D02*
X14704387Y5681671D01*
X14704387Y5681671D02*
X14771054Y5715004D01*
X14771054Y5715004D02*
X14904387Y5715004D01*
X14904387Y5715004D02*
X14971054Y5681671D01*
X14971054Y5681671D02*
X15004387Y5648337D01*
X15004387Y5648337D02*
X15037720Y5581671D01*
X15037720Y5581671D02*
X15037720Y5415004D01*
X15037720Y5415004D02*
X15004387Y5348337D01*
X15004387Y5348337D02*
X14971054Y5315004D01*
X14971054Y5315004D02*
X14904387Y5281671D01*
X14904387Y5281671D02*
X14771054Y5281671D01*
X14771054Y5281671D02*
X14704387Y5315004D01*
X14704387Y5315004D02*
X14671054Y5348337D01*
X14671054Y5348337D02*
X14637720Y5415004D01*
X14337720Y5281671D02*
X13804387Y5281671D01*
X13504386Y5648337D02*
X13471053Y5681671D01*
X13471053Y5681671D02*
X13404386Y5715004D01*
X13404386Y5715004D02*
X13237720Y5715004D01*
X13237720Y5715004D02*
X13171053Y5681671D01*
X13171053Y5681671D02*
X13137720Y5648337D01*
X13137720Y5648337D02*
X13104386Y5581671D01*
X13104386Y5581671D02*
X13104386Y5515004D01*
X13104386Y5515004D02*
X13137720Y5415004D01*
X13137720Y5415004D02*
X13537720Y5015004D01*
X13537720Y5015004D02*
X13104386Y5015004D01*
X12437719Y5015004D02*
X12837719Y5015004D01*
X12637719Y5015004D02*
X12637719Y5715004D01*
X12637719Y5715004D02*
X12704386Y5615004D01*
X12704386Y5615004D02*
X12771053Y5548337D01*
X12771053Y5548337D02*
X12837719Y5515004D01*
X11204386Y5081671D02*
X11237719Y5048337D01*
X11237719Y5048337D02*
X11337719Y5015004D01*
X11337719Y5015004D02*
X11404386Y5015004D01*
X11404386Y5015004D02*
X11504386Y5048337D01*
X11504386Y5048337D02*
X11571053Y5115004D01*
X11571053Y5115004D02*
X11604386Y5181671D01*
X11604386Y5181671D02*
X11637719Y5315004D01*
X11637719Y5315004D02*
X11637719Y5415004D01*
X11637719Y5415004D02*
X11604386Y5548337D01*
X11604386Y5548337D02*
X11571053Y5615004D01*
X11571053Y5615004D02*
X11504386Y5681671D01*
X11504386Y5681671D02*
X11404386Y5715004D01*
X11404386Y5715004D02*
X11337719Y5715004D01*
X11337719Y5715004D02*
X11237719Y5681671D01*
X11237719Y5681671D02*
X11204386Y5648337D01*
X10937719Y5048337D02*
X10837719Y5015004D01*
X10837719Y5015004D02*
X10671053Y5015004D01*
X10671053Y5015004D02*
X10604386Y5048337D01*
X10604386Y5048337D02*
X10571053Y5081671D01*
X10571053Y5081671D02*
X10537719Y5148337D01*
X10537719Y5148337D02*
X10537719Y5215004D01*
X10537719Y5215004D02*
X10571053Y5281671D01*
X10571053Y5281671D02*
X10604386Y5315004D01*
X10604386Y5315004D02*
X10671053Y5348337D01*
X10671053Y5348337D02*
X10804386Y5381671D01*
X10804386Y5381671D02*
X10871053Y5415004D01*
X10871053Y5415004D02*
X10904386Y5448337D01*
X10904386Y5448337D02*
X10937719Y5515004D01*
X10937719Y5515004D02*
X10937719Y5581671D01*
X10937719Y5581671D02*
X10904386Y5648337D01*
X10904386Y5648337D02*
X10871053Y5681671D01*
X10871053Y5681671D02*
X10804386Y5715004D01*
X10804386Y5715004D02*
X10637719Y5715004D01*
X10637719Y5715004D02*
X10537719Y5681671D01*
X9737719Y5748337D02*
X10337719Y4848337D01*
X9104386Y5081671D02*
X9137719Y5048337D01*
X9137719Y5048337D02*
X9237719Y5015004D01*
X9237719Y5015004D02*
X9304386Y5015004D01*
X9304386Y5015004D02*
X9404386Y5048337D01*
X9404386Y5048337D02*
X9471053Y5115004D01*
X9471053Y5115004D02*
X9504386Y5181671D01*
X9504386Y5181671D02*
X9537719Y5315004D01*
X9537719Y5315004D02*
X9537719Y5415004D01*
X9537719Y5415004D02*
X9504386Y5548337D01*
X9504386Y5548337D02*
X9471053Y5615004D01*
X9471053Y5615004D02*
X9404386Y5681671D01*
X9404386Y5681671D02*
X9304386Y5715004D01*
X9304386Y5715004D02*
X9237719Y5715004D01*
X9237719Y5715004D02*
X9137719Y5681671D01*
X9137719Y5681671D02*
X9104386Y5648337D01*
X8804386Y5015004D02*
X8804386Y5715004D01*
X8404386Y5015004D02*
X8704386Y5415004D01*
X8404386Y5715004D02*
X8804386Y5315004D01*
X7604386Y5748337D02*
X8204386Y4848337D01*
X6971053Y5015004D02*
X7204386Y5348337D01*
X7371053Y5015004D02*
X7371053Y5715004D01*
X7371053Y5715004D02*
X7104386Y5715004D01*
X7104386Y5715004D02*
X7037720Y5681671D01*
X7037720Y5681671D02*
X7004386Y5648337D01*
X7004386Y5648337D02*
X6971053Y5581671D01*
X6971053Y5581671D02*
X6971053Y5481671D01*
X6971053Y5481671D02*
X7004386Y5415004D01*
X7004386Y5415004D02*
X7037720Y5381671D01*
X7037720Y5381671D02*
X7104386Y5348337D01*
X7104386Y5348337D02*
X7371053Y5348337D01*
X6737720Y5715004D02*
X6571053Y5015004D01*
X6571053Y5015004D02*
X6437720Y5515004D01*
X6437720Y5515004D02*
X6304386Y5015004D01*
X6304386Y5015004D02*
X6137720Y5715004D01*
X5871053Y5015004D02*
X5871053Y5715004D01*
X5871053Y5715004D02*
X5704386Y5715004D01*
X5704386Y5715004D02*
X5604386Y5681671D01*
X5604386Y5681671D02*
X5537720Y5615004D01*
X5537720Y5615004D02*
X5504386Y5548337D01*
X5504386Y5548337D02*
X5471053Y5415004D01*
X5471053Y5415004D02*
X5471053Y5315004D01*
X5471053Y5315004D02*
X5504386Y5181671D01*
X5504386Y5181671D02*
X5537720Y5115004D01*
X5537720Y5115004D02*
X5604386Y5048337D01*
X5604386Y5048337D02*
X5704386Y5015004D01*
X5704386Y5015004D02*
X5871053Y5015004D01*
X5204386Y5048337D02*
X5104386Y5015004D01*
X5104386Y5015004D02*
X4937720Y5015004D01*
X4937720Y5015004D02*
X4871053Y5048337D01*
X4871053Y5048337D02*
X4837720Y5081671D01*
X4837720Y5081671D02*
X4804386Y5148337D01*
X4804386Y5148337D02*
X4804386Y5215004D01*
X4804386Y5215004D02*
X4837720Y5281671D01*
X4837720Y5281671D02*
X4871053Y5315004D01*
X4871053Y5315004D02*
X4937720Y5348337D01*
X4937720Y5348337D02*
X5071053Y5381671D01*
X5071053Y5381671D02*
X5137720Y5415004D01*
X5137720Y5415004D02*
X5171053Y5448337D01*
X5171053Y5448337D02*
X5204386Y5515004D01*
X5204386Y5515004D02*
X5204386Y5581671D01*
X5204386Y5581671D02*
X5171053Y5648337D01*
X5171053Y5648337D02*
X5137720Y5681671D01*
X5137720Y5681671D02*
X5071053Y5715004D01*
X5071053Y5715004D02*
X4904386Y5715004D01*
X4904386Y5715004D02*
X4804386Y5681671D01*
X21104386Y3888043D02*
X21104386Y4588043D01*
X21104386Y4588043D02*
X20937719Y4588043D01*
X20937719Y4588043D02*
X20837719Y4554710D01*
X20837719Y4554710D02*
X20771053Y4488043D01*
X20771053Y4488043D02*
X20737719Y4421376D01*
X20737719Y4421376D02*
X20704386Y4288043D01*
X20704386Y4288043D02*
X20704386Y4188043D01*
X20704386Y4188043D02*
X20737719Y4054710D01*
X20737719Y4054710D02*
X20771053Y3988043D01*
X20771053Y3988043D02*
X20837719Y3921376D01*
X20837719Y3921376D02*
X20937719Y3888043D01*
X20937719Y3888043D02*
X21104386Y3888043D01*
X19937719Y3821376D02*
X20004386Y3854710D01*
X20004386Y3854710D02*
X20071053Y3921376D01*
X20071053Y3921376D02*
X20171053Y4021376D01*
X20171053Y4021376D02*
X20237719Y4054710D01*
X20237719Y4054710D02*
X20304386Y4054710D01*
X20271053Y3888043D02*
X20337719Y3921376D01*
X20337719Y3921376D02*
X20404386Y3988043D01*
X20404386Y3988043D02*
X20437719Y4121376D01*
X20437719Y4121376D02*
X20437719Y4354710D01*
X20437719Y4354710D02*
X20404386Y4488043D01*
X20404386Y4488043D02*
X20337719Y4554710D01*
X20337719Y4554710D02*
X20271053Y4588043D01*
X20271053Y4588043D02*
X20137719Y4588043D01*
X20137719Y4588043D02*
X20071053Y4554710D01*
X20071053Y4554710D02*
X20004386Y4488043D01*
X20004386Y4488043D02*
X19971053Y4354710D01*
X19971053Y4354710D02*
X19971053Y4121376D01*
X19971053Y4121376D02*
X20004386Y3988043D01*
X20004386Y3988043D02*
X20071053Y3921376D01*
X20071053Y3921376D02*
X20137719Y3888043D01*
X20137719Y3888043D02*
X20271053Y3888043D01*
X19537720Y4588043D02*
X19471053Y4588043D01*
X19471053Y4588043D02*
X19404386Y4554710D01*
X19404386Y4554710D02*
X19371053Y4521376D01*
X19371053Y4521376D02*
X19337720Y4454710D01*
X19337720Y4454710D02*
X19304386Y4321376D01*
X19304386Y4321376D02*
X19304386Y4154710D01*
X19304386Y4154710D02*
X19337720Y4021376D01*
X19337720Y4021376D02*
X19371053Y3954710D01*
X19371053Y3954710D02*
X19404386Y3921376D01*
X19404386Y3921376D02*
X19471053Y3888043D01*
X19471053Y3888043D02*
X19537720Y3888043D01*
X19537720Y3888043D02*
X19604386Y3921376D01*
X19604386Y3921376D02*
X19637720Y3954710D01*
X19637720Y3954710D02*
X19671053Y4021376D01*
X19671053Y4021376D02*
X19704386Y4154710D01*
X19704386Y4154710D02*
X19704386Y4321376D01*
X19704386Y4321376D02*
X19671053Y4454710D01*
X19671053Y4454710D02*
X19637720Y4521376D01*
X19637720Y4521376D02*
X19604386Y4554710D01*
X19604386Y4554710D02*
X19537720Y4588043D01*
X19004386Y4154710D02*
X18471053Y4154710D01*
X18204386Y4588043D02*
X17737719Y4588043D01*
X17737719Y4588043D02*
X18037719Y3888043D01*
X17471052Y3954710D02*
X17437719Y3921376D01*
X17437719Y3921376D02*
X17471052Y3888043D01*
X17471052Y3888043D02*
X17504385Y3921376D01*
X17504385Y3921376D02*
X17471052Y3954710D01*
X17471052Y3954710D02*
X17471052Y3888043D01*
X17471052Y4321376D02*
X17437719Y4288043D01*
X17437719Y4288043D02*
X17471052Y4254710D01*
X17471052Y4254710D02*
X17504385Y4288043D01*
X17504385Y4288043D02*
X17471052Y4321376D01*
X17471052Y4321376D02*
X17471052Y4254710D01*
X16237719Y4554710D02*
X16304386Y4588043D01*
X16304386Y4588043D02*
X16404386Y4588043D01*
X16404386Y4588043D02*
X16504386Y4554710D01*
X16504386Y4554710D02*
X16571053Y4488043D01*
X16571053Y4488043D02*
X16604386Y4421376D01*
X16604386Y4421376D02*
X16637719Y4288043D01*
X16637719Y4288043D02*
X16637719Y4188043D01*
X16637719Y4188043D02*
X16604386Y4054710D01*
X16604386Y4054710D02*
X16571053Y3988043D01*
X16571053Y3988043D02*
X16504386Y3921376D01*
X16504386Y3921376D02*
X16404386Y3888043D01*
X16404386Y3888043D02*
X16337719Y3888043D01*
X16337719Y3888043D02*
X16237719Y3921376D01*
X16237719Y3921376D02*
X16204386Y3954710D01*
X16204386Y3954710D02*
X16204386Y4188043D01*
X16204386Y4188043D02*
X16337719Y4188043D01*
X15904386Y3888043D02*
X15904386Y4588043D01*
X15904386Y4588043D02*
X15637719Y4588043D01*
X15637719Y4588043D02*
X15571053Y4554710D01*
X15571053Y4554710D02*
X15537719Y4521376D01*
X15537719Y4521376D02*
X15504386Y4454710D01*
X15504386Y4454710D02*
X15504386Y4354710D01*
X15504386Y4354710D02*
X15537719Y4288043D01*
X15537719Y4288043D02*
X15571053Y4254710D01*
X15571053Y4254710D02*
X15637719Y4221376D01*
X15637719Y4221376D02*
X15904386Y4221376D01*
X15204386Y3888043D02*
X15204386Y4588043D01*
X14737720Y4588043D02*
X14604386Y4588043D01*
X14604386Y4588043D02*
X14537720Y4554710D01*
X14537720Y4554710D02*
X14471053Y4488043D01*
X14471053Y4488043D02*
X14437720Y4354710D01*
X14437720Y4354710D02*
X14437720Y4121376D01*
X14437720Y4121376D02*
X14471053Y3988043D01*
X14471053Y3988043D02*
X14537720Y3921376D01*
X14537720Y3921376D02*
X14604386Y3888043D01*
X14604386Y3888043D02*
X14737720Y3888043D01*
X14737720Y3888043D02*
X14804386Y3921376D01*
X14804386Y3921376D02*
X14871053Y3988043D01*
X14871053Y3988043D02*
X14904386Y4121376D01*
X14904386Y4121376D02*
X14904386Y4354710D01*
X14904386Y4354710D02*
X14871053Y4488043D01*
X14871053Y4488043D02*
X14804386Y4554710D01*
X14804386Y4554710D02*
X14737720Y4588043D01*
X14171053Y4521376D02*
X14137720Y4554710D01*
X14137720Y4554710D02*
X14071053Y4588043D01*
X14071053Y4588043D02*
X13904387Y4588043D01*
X13904387Y4588043D02*
X13837720Y4554710D01*
X13837720Y4554710D02*
X13804387Y4521376D01*
X13804387Y4521376D02*
X13771053Y4454710D01*
X13771053Y4454710D02*
X13771053Y4388043D01*
X13771053Y4388043D02*
X13804387Y4288043D01*
X13804387Y4288043D02*
X14204387Y3888043D01*
X14204387Y3888043D02*
X13771053Y3888043D01*
X13504386Y4521376D02*
X13471053Y4554710D01*
X13471053Y4554710D02*
X13404386Y4588043D01*
X13404386Y4588043D02*
X13237720Y4588043D01*
X13237720Y4588043D02*
X13171053Y4554710D01*
X13171053Y4554710D02*
X13137720Y4521376D01*
X13137720Y4521376D02*
X13104386Y4454710D01*
X13104386Y4454710D02*
X13104386Y4388043D01*
X13104386Y4388043D02*
X13137720Y4288043D01*
X13137720Y4288043D02*
X13537720Y3888043D01*
X13537720Y3888043D02*
X13104386Y3888043D01*
X12804386Y4154710D02*
X12271053Y4154710D01*
X11971052Y4521376D02*
X11937719Y4554710D01*
X11937719Y4554710D02*
X11871052Y4588043D01*
X11871052Y4588043D02*
X11704386Y4588043D01*
X11704386Y4588043D02*
X11637719Y4554710D01*
X11637719Y4554710D02*
X11604386Y4521376D01*
X11604386Y4521376D02*
X11571052Y4454710D01*
X11571052Y4454710D02*
X11571052Y4388043D01*
X11571052Y4388043D02*
X11604386Y4288043D01*
X11604386Y4288043D02*
X12004386Y3888043D01*
X12004386Y3888043D02*
X11571052Y3888043D01*
X11237719Y3888043D02*
X11104385Y3888043D01*
X11104385Y3888043D02*
X11037719Y3921376D01*
X11037719Y3921376D02*
X11004385Y3954710D01*
X11004385Y3954710D02*
X10937719Y4054710D01*
X10937719Y4054710D02*
X10904385Y4188043D01*
X10904385Y4188043D02*
X10904385Y4454710D01*
X10904385Y4454710D02*
X10937719Y4521376D01*
X10937719Y4521376D02*
X10971052Y4554710D01*
X10971052Y4554710D02*
X11037719Y4588043D01*
X11037719Y4588043D02*
X11171052Y4588043D01*
X11171052Y4588043D02*
X11237719Y4554710D01*
X11237719Y4554710D02*
X11271052Y4521376D01*
X11271052Y4521376D02*
X11304385Y4454710D01*
X11304385Y4454710D02*
X11304385Y4288043D01*
X11304385Y4288043D02*
X11271052Y4221376D01*
X11271052Y4221376D02*
X11237719Y4188043D01*
X11237719Y4188043D02*
X11171052Y4154710D01*
X11171052Y4154710D02*
X11037719Y4154710D01*
X11037719Y4154710D02*
X10971052Y4188043D01*
X10971052Y4188043D02*
X10937719Y4221376D01*
X10937719Y4221376D02*
X10904385Y4288043D01*
D11*
X27270802Y26534496D02*
X27308898Y26496400D01*
X27308898Y26496400D02*
X27423183Y26458305D01*
X27423183Y26458305D02*
X27499374Y26458305D01*
X27499374Y26458305D02*
X27613660Y26496400D01*
X27613660Y26496400D02*
X27689850Y26572591D01*
X27689850Y26572591D02*
X27727945Y26648781D01*
X27727945Y26648781D02*
X27766041Y26801162D01*
X27766041Y26801162D02*
X27766041Y26915448D01*
X27766041Y26915448D02*
X27727945Y27067829D01*
X27727945Y27067829D02*
X27689850Y27144020D01*
X27689850Y27144020D02*
X27613660Y27220210D01*
X27613660Y27220210D02*
X27499374Y27258305D01*
X27499374Y27258305D02*
X27423183Y27258305D01*
X27423183Y27258305D02*
X27308898Y27220210D01*
X27308898Y27220210D02*
X27270802Y27182115D01*
X26927945Y26458305D02*
X26927945Y27258305D01*
X26470802Y26458305D02*
X26813660Y26915448D01*
X26470802Y27258305D02*
X26927945Y26801162D01*
X20070802Y26634496D02*
X20108898Y26596400D01*
X20108898Y26596400D02*
X20223183Y26558305D01*
X20223183Y26558305D02*
X20299374Y26558305D01*
X20299374Y26558305D02*
X20413660Y26596400D01*
X20413660Y26596400D02*
X20489850Y26672591D01*
X20489850Y26672591D02*
X20527945Y26748781D01*
X20527945Y26748781D02*
X20566041Y26901162D01*
X20566041Y26901162D02*
X20566041Y27015448D01*
X20566041Y27015448D02*
X20527945Y27167829D01*
X20527945Y27167829D02*
X20489850Y27244020D01*
X20489850Y27244020D02*
X20413660Y27320210D01*
X20413660Y27320210D02*
X20299374Y27358305D01*
X20299374Y27358305D02*
X20223183Y27358305D01*
X20223183Y27358305D02*
X20108898Y27320210D01*
X20108898Y27320210D02*
X20070802Y27282115D01*
X19766041Y26596400D02*
X19651755Y26558305D01*
X19651755Y26558305D02*
X19461279Y26558305D01*
X19461279Y26558305D02*
X19385088Y26596400D01*
X19385088Y26596400D02*
X19346993Y26634496D01*
X19346993Y26634496D02*
X19308898Y26710686D01*
X19308898Y26710686D02*
X19308898Y26786877D01*
X19308898Y26786877D02*
X19346993Y26863067D01*
X19346993Y26863067D02*
X19385088Y26901162D01*
X19385088Y26901162D02*
X19461279Y26939258D01*
X19461279Y26939258D02*
X19613660Y26977353D01*
X19613660Y26977353D02*
X19689850Y27015448D01*
X19689850Y27015448D02*
X19727945Y27053543D01*
X19727945Y27053543D02*
X19766041Y27129734D01*
X19766041Y27129734D02*
X19766041Y27205924D01*
X19766041Y27205924D02*
X19727945Y27282115D01*
X19727945Y27282115D02*
X19689850Y27320210D01*
X19689850Y27320210D02*
X19613660Y27358305D01*
X19613660Y27358305D02*
X19423183Y27358305D01*
X19423183Y27358305D02*
X19308898Y27320210D01*
X20638422Y27580400D02*
X19236517Y27580400D01*
X21070802Y25046260D02*
X21337469Y25427213D01*
X21527945Y25046260D02*
X21527945Y25846260D01*
X21527945Y25846260D02*
X21223183Y25846260D01*
X21223183Y25846260D02*
X21146993Y25808165D01*
X21146993Y25808165D02*
X21108898Y25770070D01*
X21108898Y25770070D02*
X21070802Y25693879D01*
X21070802Y25693879D02*
X21070802Y25579594D01*
X21070802Y25579594D02*
X21108898Y25503403D01*
X21108898Y25503403D02*
X21146993Y25465308D01*
X21146993Y25465308D02*
X21223183Y25427213D01*
X21223183Y25427213D02*
X21527945Y25427213D01*
X20804136Y25846260D02*
X20613660Y25046260D01*
X20613660Y25046260D02*
X20461279Y25617689D01*
X20461279Y25617689D02*
X20308898Y25046260D01*
X20308898Y25046260D02*
X20118422Y25846260D01*
X21527945Y23758305D02*
X21527945Y24558305D01*
X21527945Y24558305D02*
X21337469Y24558305D01*
X21337469Y24558305D02*
X21223183Y24520210D01*
X21223183Y24520210D02*
X21146993Y24444020D01*
X21146993Y24444020D02*
X21108898Y24367829D01*
X21108898Y24367829D02*
X21070802Y24215448D01*
X21070802Y24215448D02*
X21070802Y24101162D01*
X21070802Y24101162D02*
X21108898Y23948781D01*
X21108898Y23948781D02*
X21146993Y23872591D01*
X21146993Y23872591D02*
X21223183Y23796400D01*
X21223183Y23796400D02*
X21337469Y23758305D01*
X21337469Y23758305D02*
X21527945Y23758305D01*
X20766041Y23796400D02*
X20651755Y23758305D01*
X20651755Y23758305D02*
X20461279Y23758305D01*
X20461279Y23758305D02*
X20385088Y23796400D01*
X20385088Y23796400D02*
X20346993Y23834496D01*
X20346993Y23834496D02*
X20308898Y23910686D01*
X20308898Y23910686D02*
X20308898Y23986877D01*
X20308898Y23986877D02*
X20346993Y24063067D01*
X20346993Y24063067D02*
X20385088Y24101162D01*
X20385088Y24101162D02*
X20461279Y24139258D01*
X20461279Y24139258D02*
X20613660Y24177353D01*
X20613660Y24177353D02*
X20689850Y24215448D01*
X20689850Y24215448D02*
X20727945Y24253543D01*
X20727945Y24253543D02*
X20766041Y24329734D01*
X20766041Y24329734D02*
X20766041Y24405924D01*
X20766041Y24405924D02*
X20727945Y24482115D01*
X20727945Y24482115D02*
X20689850Y24520210D01*
X20689850Y24520210D02*
X20613660Y24558305D01*
X20613660Y24558305D02*
X20423183Y24558305D01*
X20423183Y24558305D02*
X20308898Y24520210D01*
D10*
%TO.C,TP3*%
X21850000Y25550000D02*
X23250000Y25550000D01*
X21850000Y24150000D02*
X21850000Y25550000D01*
X23250000Y25550000D02*
X23250000Y24150000D01*
X23250000Y24150000D02*
X21850000Y24150000D01*
%TO.C,C16*%
X18890000Y24037836D02*
X18890000Y23822164D01*
X19610000Y24037836D02*
X19610000Y23822164D01*
%TO.C,C15*%
X24377836Y21210000D02*
X24162164Y21210000D01*
X24377836Y20490000D02*
X24162164Y20490000D01*
%TO.C,TP1*%
X20950000Y27750000D02*
X22350000Y27750000D01*
X20950000Y26350000D02*
X20950000Y27750000D01*
X22350000Y27750000D02*
X22350000Y26350000D01*
X22350000Y26350000D02*
X20950000Y26350000D01*
%TO.C,TP2*%
X24750000Y27650000D02*
X26150000Y27650000D01*
X24750000Y26250000D02*
X24750000Y27650000D01*
X26150000Y27650000D02*
X26150000Y26250000D01*
X26150000Y26250000D02*
X24750000Y26250000D01*
%TO.C,TP0*%
X22750000Y23550000D02*
X24150000Y23550000D01*
X22750000Y22150000D02*
X22750000Y23550000D01*
X24150000Y23550000D02*
X24150000Y22150000D01*
X24150000Y22150000D02*
X22750000Y22150000D01*
%TO.C,TP7*%
X20750000Y21350000D02*
X22150000Y21350000D01*
X20750000Y19950000D02*
X20750000Y21350000D01*
X22150000Y21350000D02*
X22150000Y19950000D01*
X22150000Y19950000D02*
X20750000Y19950000D01*
%TO.C,C14*%
X24590000Y23942164D02*
X24590000Y24157836D01*
X25310000Y23942164D02*
X25310000Y24157836D01*
%TD*%
M02*
