M48
; DRILL file {KiCad 8.0.1} date 2024-04-17T16:22:34+0200
; FORMAT={-:-/ absolute / metric / decimal}
; #@! TF.CreationDate,2024-04-17T16:22:34+02:00
; #@! TF.GenerationSoftware,Kicad,Pcbnew,8.0.1
; #@! TF.FileFunction,Plated,1,4,PTH
FMAT,2
METRIC
; #@! TA.AperFunction,Plated,PTH,ViaDrill
T1C0.250
; #@! TA.AperFunction,Plated,PTH,ViaDrill
T2C0.300
; #@! TA.AperFunction,Plated,PTH,ViaDrill
T3C0.400
; #@! TA.AperFunction,Plated,PTH,ComponentDrill
T4C0.500
; #@! TA.AperFunction,Plated,PTH,ComponentDrill
T5C0.800
; #@! TA.AperFunction,Plated,PTH,ComponentDrill
T6C1.000
%
G90
G05
T1
X6.8Y17.5
X8.8Y19.75
X9.05Y22.24
X16.05Y27.825
X22.3Y21.8
X22.834Y50.28
X23.1Y17.306
X23.17Y6.522
X23.3Y26.5
X23.3Y24.5
X23.7Y16.625
X24.3Y16.025
X24.3Y5.972
X24.842Y15.358
X25.311Y14.71
X25.64Y45.189
X25.8Y14.025
X25.8Y5.225
X26.416Y13.375
X28.4Y7.129
X28.674Y15.183
X28.7Y44.934
X29.383Y44.517
X29.9Y17.55
X29.983Y38.5
X30.8Y20.5
X30.9Y40.395
X30.9Y39.5
X31.368Y44.568
X31.809Y36.009
X31.9Y48.4
X31.9Y47.001
X31.91Y42.066
X32.8Y46.205
X32.8Y11.5
X34.05Y43.1
X34.25Y47.5
X34.288Y22.16
X34.3Y14.0
X34.3Y13.2
X34.3Y9.775
X34.357Y12.402
X34.367Y24.473
X34.38Y23.645
X34.633Y14.747
X34.673Y22.862
X34.762Y15.614
X34.8Y21.0
X34.8Y19.0
X34.8Y17.41
X34.8Y16.5
X34.846Y20.046
X37.026Y40.202
X37.775Y27.5
X37.8Y40.0
X38.375Y28.052
X43.4Y41.0
X43.5Y29.376
X43.5Y24.952
X44.752Y25.301
X44.8Y29.5
X44.887Y23.74
X45.05Y19.0
X46.388Y23.74
X46.8Y45.5
X47.3Y38.5
X49.703Y15.597
X50.3Y48.88
X50.8Y29.0
X55.3Y44.0
X56.3Y42.5
X63.05Y23.75
X63.8Y22.25
X63.859Y20.691
X64.3Y25.5
X64.9Y26.5
X65.3Y17.0
X66.804Y29.1
T2
X7.44Y17.98
X7.6Y32.0
X8.4Y30.0
X8.478Y21.665
X9.4Y46.6
X9.4Y44.0
X9.4Y36.6
X10.028Y21.001
X15.126Y48.826
X15.4Y44.4
X15.8Y39.0
X16.95Y27.912
X21.6Y39.4
X22.0Y50.2
X22.2Y40.0
X22.722Y5.859
X22.8Y23.8
X23.0Y22.4
X23.4Y27.4
X23.55Y11.25
X23.658Y5.495
X24.8Y10.5
X25.001Y5.192
X25.3Y37.75
X26.3Y34.5
X26.3Y27.25
X26.634Y42.019
X27.8Y47.0
X28.2Y26.0
X28.55Y31.75
X28.558Y4.5
X28.8Y6.4
X29.34Y15.626
X29.938Y45.249
X30.2Y16.759
X30.558Y37.8
X30.8Y44.0
X31.223Y47.6
X31.234Y48.844
X31.312Y38.814
X31.375Y21.2
X31.432Y36.715
X31.709Y40.391
X32.0Y18.0
X32.3Y3.5
X33.8Y26.2
X34.797Y40.1
X34.8Y37.0
X34.8Y27.6
X35.0Y30.0
X35.2Y14.0
X35.2Y13.2
X35.2Y12.4
X35.2Y4.6
X35.3Y46.9
X35.4Y32.6
X35.402Y50.844
X35.429Y14.89
X35.557Y21.503
X36.3Y50.1
X36.3Y48.1
X36.3Y46.9
X36.3Y44.735
X36.3Y43.5
X36.3Y41.5
X36.3Y21.0
X36.3Y13.5
X37.8Y50.5
X37.8Y44.5
X38.4Y11.8
X42.6Y41.0
X42.925Y28.785
X42.936Y24.384
X45.435Y29.987
X45.577Y18.398
X46.139Y44.948
X46.93Y39.209
X47.187Y23.715
X49.222Y16.236
X50.724Y48.202
X51.6Y28.8
X54.802Y44.626
X56.866Y41.934
X61.715Y30.475
X62.319Y31.0
X62.484Y24.316
X62.963Y22.226
X63.05Y30.5
X64.05Y30.609
X64.315Y20.034
X64.457Y24.716
X64.843Y31.443
X67.475Y28.663
T3
X2.0Y14.8
X2.101Y12.023
X2.101Y9.023
X2.101Y6.023
X2.101Y3.023
X2.4Y17.0
X2.8Y49.0
X2.8Y46.0
X2.8Y43.0
X2.8Y40.0
X2.8Y37.0
X2.8Y34.0
X2.8Y31.0
X3.3Y51.5
X3.341Y24.844
X3.38Y27.167
X3.416Y22.688
X5.8Y52.0
X6.8Y40.0
X6.8Y36.0
X6.84Y22.915
X7.031Y46.259
X7.32Y49.659
X8.8Y4.415
X8.8Y52.0
X8.8Y14.0
X8.8Y7.0
X8.8Y2.0
X8.819Y9.523
X9.8Y18.0
X10.8Y43.0
X10.8Y40.0
X11.8Y4.415
X11.8Y52.0
X11.8Y37.0
X11.8Y31.0
X11.8Y14.0
X11.8Y12.0
X11.8Y7.0
X11.8Y2.0
X12.8Y46.0
X13.8Y43.0
X13.8Y40.0
X14.8Y4.415
X14.8Y52.0
X14.8Y35.0
X14.8Y31.0
X14.8Y14.0
X14.8Y12.0
X14.8Y2.0
X14.819Y9.523
X17.8Y4.415
X17.8Y49.0
X17.8Y46.0
X17.8Y43.0
X17.8Y37.0
X17.8Y14.0
X17.8Y12.0
X17.8Y7.0
X17.8Y2.0
X17.819Y9.523
X18.8Y31.0
X22.156Y14.799
X22.156Y11.799
X22.479Y35.982
X23.8Y40.0
X23.8Y34.0
X23.8Y31.0
X23.8Y2.0
X25.8Y40.0
X26.8Y4.0
X29.818Y33.556
X30.8Y2.0
X31.116Y30.541
X32.808Y40.261
X34.8Y7.472
X36.81Y16.85
X37.71Y14.788
X37.8Y8.0
X37.8Y2.0
X38.485Y18.776
X42.8Y27.0
X44.3Y16.5
X44.8Y52.0
X44.8Y13.0
X44.8Y10.0
X44.8Y7.0
X44.8Y2.0
X44.805Y4.342
X45.8Y27.0
X47.3Y16.5
X47.8Y52.0
X47.8Y40.0
X47.8Y37.0
X47.8Y34.0
X47.8Y31.0
X47.8Y22.0
X47.8Y19.0
X47.8Y13.0
X47.8Y10.0
X47.8Y7.0
X48.8Y3.5
X49.119Y44.483
X50.8Y52.0
X50.8Y40.0
X50.8Y37.0
X50.8Y34.0
X50.8Y27.0
X50.8Y24.5
X50.8Y22.0
X50.8Y19.0
X50.8Y13.0
X50.8Y10.0
X50.8Y7.0
X51.3Y3.5
X52.385Y44.483
X53.8Y52.0
X53.8Y49.0
X53.8Y40.0
X53.8Y37.0
X53.8Y34.0
X53.8Y27.0
X53.8Y24.5
X53.8Y22.0
X53.8Y19.0
X53.8Y16.0
X54.18Y13.0
X54.18Y10.0
X54.18Y7.0
X54.8Y5.0
X55.8Y2.0
X56.3Y49.0
X56.8Y52.0
X56.8Y40.0
X56.8Y37.0
X56.8Y34.0
X56.8Y27.0
X56.8Y24.5
X56.8Y22.0
X56.8Y16.0
X56.8Y13.0
X56.8Y10.0
X56.8Y7.0
X56.805Y4.342
X56.808Y19.614
X59.8Y52.0
X62.189Y20.149
X62.213Y45.085
X62.8Y52.0
X62.8Y40.0
X62.8Y16.0
X62.8Y13.0
X62.8Y11.0
X62.8Y8.0
X62.8Y2.0
X63.019Y42.39
X63.162Y36.924
X65.3Y13.0
X65.3Y11.0
X65.3Y8.0
X65.3Y5.546
X65.3Y2.0
X65.8Y52.0
X65.8Y40.0
X65.8Y37.0
X65.8Y34.0
X66.8Y19.5
X68.3Y1.5
X68.588Y30.332
X68.8Y52.0
X68.8Y49.0
X68.8Y46.0
X68.8Y43.0
X68.8Y40.0
X68.8Y37.0
X68.8Y34.0
X69.2Y25.8
X69.2Y22.6
X69.8Y19.5
X69.8Y16.0
X70.2Y28.4
X70.8Y23.4
X70.8Y4.0
X71.3Y40.0
X71.3Y37.0
X71.3Y34.0
X71.3Y31.0
X71.3Y1.5
X71.8Y52.0
X71.8Y49.0
X71.8Y46.0
X71.8Y43.0
X74.275Y51.475
X74.3Y19.5
X74.3Y16.0
X74.3Y13.0
X74.3Y9.0
X74.3Y5.0
X74.3Y1.5
X74.8Y49.0
X74.8Y46.0
X74.8Y43.0
X74.8Y40.0
X74.8Y37.0
X74.8Y34.0
X74.8Y31.0
X74.8Y28.0
X74.8Y25.0
X74.8Y22.0
T4
X2.05Y27.0
X2.05Y26.0
X2.05Y25.0
X2.05Y24.0
X2.05Y23.0
X2.05Y22.0
X2.05Y21.0
X2.05Y20.0
X24.3Y49.0
X24.3Y48.0
X24.3Y47.0
X24.3Y46.0
X24.3Y45.0
X24.3Y44.0
X24.3Y43.0
X24.3Y42.0
X27.3Y2.0
X28.3Y2.0
X33.3Y2.0
X34.3Y2.0
X35.3Y2.0
X36.3Y2.0
X65.8Y50.0
X65.8Y49.0
X65.8Y48.0
X65.8Y47.0
X65.8Y46.0
X65.8Y45.0
X65.8Y44.0
X65.8Y43.0
T5
X5.06Y50.18
X5.06Y47.64
X5.06Y45.1
X5.06Y42.56
X5.06Y40.02
X5.06Y37.48
X5.06Y34.94
X5.06Y32.4
X5.06Y29.86
X5.06Y27.32
X5.06Y24.78
X5.06Y22.24
X5.06Y19.7
X5.06Y17.16
X5.06Y14.62
X5.06Y12.08
X5.06Y9.54
X5.06Y7.0
X5.06Y4.46
X5.06Y1.92
X20.3Y50.18
X20.3Y47.64
X20.3Y45.1
X20.3Y42.56
X20.3Y40.02
X20.3Y37.48
X20.3Y34.94
X20.3Y32.4
X20.3Y29.86
X20.3Y27.32
X20.3Y24.78
X20.3Y22.24
X20.3Y19.7
X20.3Y17.16
X20.3Y14.62
X20.3Y12.08
X20.3Y9.54
X20.3Y7.0
X20.3Y4.46
X20.3Y1.92
T6
X41.3Y49.98
X41.3Y47.44
X41.3Y44.9
X41.3Y42.36
X41.3Y39.82
X41.3Y37.28
X41.3Y34.74
X41.3Y32.2
X41.3Y29.66
X41.3Y27.12
X41.3Y24.58
X41.3Y22.04
X41.3Y19.5
X41.3Y16.96
X41.3Y14.42
X41.3Y11.88
X41.3Y9.34
X41.3Y6.8
X41.3Y4.26
X41.3Y1.72
X59.08Y49.98
X59.08Y47.44
X59.08Y44.9
X59.08Y42.36
X59.08Y39.82
X59.08Y37.28
X59.08Y34.74
X59.08Y32.2
X59.08Y29.66
X59.08Y27.12
X59.08Y24.58
X59.08Y22.04
X59.08Y19.5
X59.08Y16.96
X59.08Y14.42
X59.08Y11.88
X59.08Y9.34
X59.08Y6.8
X59.08Y4.26
X59.08Y1.72
X69.26Y13.58
X69.26Y11.04
X69.26Y8.5
X69.26Y5.96
X71.8Y13.58
X71.8Y11.04
X71.8Y8.5
X71.8Y5.96
M30
